<?xml version="1.0" encoding="UTF-8" standalone="no"?>
<!-- Created with Inkscape (http://www.inkscape.org/) -->

<svg
   width="548.83405mm"
   height="338.88925mm"
   viewBox="0 0 548.83405 338.88925"
   version="1.1"
   id="svg1"
   inkscape:version="1.4 (e7c3feb100, 2024-10-09)"
   sodipodi:docname="neural-net-example-3.svg"
   xmlns:inkscape="http://www.inkscape.org/namespaces/inkscape"
   xmlns:sodipodi="http://sodipodi.sourceforge.net/DTD/sodipodi-0.dtd"
   xmlns="http://www.w3.org/2000/svg"
   xmlns:svg="http://www.w3.org/2000/svg">
  <sodipodi:namedview
     id="namedview1"
     pagecolor="#ffffff"
     bordercolor="#666666"
     borderopacity="1.0"
     inkscape:showpageshadow="2"
     inkscape:pageopacity="0.0"
     inkscape:pagecheckerboard="0"
     inkscape:deskcolor="#d1d1d1"
     inkscape:document-units="mm"
     inkscape:zoom="0.29754489"
     inkscape:cx="510.84728"
     inkscape:cy="692.3325"
     inkscape:window-width="1440"
     inkscape:window-height="896"
     inkscape:window-x="0"
     inkscape:window-y="0"
     inkscape:window-maximized="1"
     inkscape:current-layer="layer1" />
  <defs
     id="defs1" />
  <g
     inkscape:label="Layer 1"
     inkscape:groupmode="layer"
     id="layer1"
     transform="translate(124.61875,15.08125)">
    <path
       style="fill:#000000"
       d="m 420.41746,-11.23215 c -1.49546,-1.38596 -0.5043,-3.8491 1.54887,-3.8491 1.29026,0 2.24896,0.9587 2.24896,2.24896 0,2.01401 -2.30386,2.98469 -3.79783,1.60014 z"
       id="path112" />
    <path
       style="fill:#000000"
       d="m -82.461844,200.45426 c 0,-0.20046 -0.178594,-0.51269 -0.396875,-0.69385 -0.218241,-0.18115 -0.396835,-0.5851 -0.396835,-0.89766 v -0.56829 l -9.798953,0.10231 c -10.837113,0.11315 -14.229973,-0.10928 -17.915123,-1.17447 -5.3785,-1.55464 -8.585,-4.48329 -9.93167,-9.07105 -0.43754,-1.49061 -0.54624,-3.03643 -0.72787,-10.35125 -0.11744,-4.72943 -0.2246,-11.75411 -0.23815,-15.61041 -0.0135,-3.85631 -0.0954,-7.27541 -0.18187,-7.59801 -0.0865,-0.32261 -0.38907,-0.66013 -0.67241,-0.75006 -0.65592,-0.20818 -0.49038,-0.75386 0.26229,-0.86461 0.4986,-0.0734 0.57459,-0.25327 0.57459,-1.36038 0,-1.10702 -0.0797,-1.29584 -0.60265,-1.42708 -0.33145,-0.0832 -0.94661,-0.51028 -1.36701,-0.94909 -0.6062,-0.63273 -0.76437,-1.03886 -0.76437,-1.96259 0,-0.98523 0.22673,-1.48833 1.47091,-3.26391 l 1.4709,-2.09914 0.12195,-7.25892 c 0.10469,-6.23212 0.19837,-7.53972 0.66229,-9.244 1.60185,-5.88467 4.65199,-9.03974 10.09376,-10.44101 1.03479,-0.26646 3.87688,-0.43419 9.41943,-0.55589 4.365623,-0.0959 11.211716,-0.25356 15.213539,-0.35044 4.001823,-0.0969 7.752292,-0.0887 8.334375,0.0182 0.582084,0.10688 4.570678,0.20802 8.863542,0.22476 12.034398,0.0469 19.149593,0.37863 20.902084,0.97442 2.365839,0.80431 4.11209,1.83313 5.62575,3.31447 1.686895,1.65088 2.676078,3.26323 3.504827,5.71281 1.175887,3.47562 1.230293,5.11636 1.124488,33.91175 -0.111497,30.34465 -0.02068,28.87144 -2.030637,32.94062 -1.267493,2.56605 -2.650086,4.0125 -5.031543,5.26392 -3.584087,1.88339 -3.593012,1.88417 -20.980937,1.84335 l -15.539093,-0.0365 -0.171556,1.29325 c -0.110866,0.83575 -0.299895,1.29325 -0.534344,1.29325 -0.199534,0 -0.362789,-0.16401 -0.362789,-0.36448 z m -0.628316,-3.44073 c 0.01823,-0.0172 0.167765,-3.48406 0.332305,-7.70416 0.16454,-4.22011 0.370378,-8.59565 0.457417,-9.72344 0.158763,-2.05712 -0.09088,-2.6419 -0.667702,-1.56409 -0.427968,0.79967 -1.345756,6.71129 -1.346198,8.67109 -6.66e-4,2.95025 -1.15757,4.54047 -3.475093,4.7767 -1.344899,0.13708 -2.599646,-0.50799 -3.339935,-1.7171 l -0.460603,-0.75229 -0.79375,0.4839 c -1.026396,0.62573 -2.16786,0.61482 -3.22677,-0.0308 -1.214169,-0.74033 -1.600519,-1.47362 -1.957754,-3.71581 -0.425308,-2.66946 -0.623986,-2.97067 -0.992945,-1.5054 -0.20586,0.81754 -0.588423,1.43856 -1.200062,1.94808 l -0.89787,0.74795 -0.11102,3.43958 c -0.12035,3.72893 -0.3942,4.6395 -1.70545,5.67093 -1.50277,1.18208 -2.81788,0.94662 -4.77744,-0.85534 -1.07667,-0.99009 -1.32303,-1.47715 -1.91924,-3.79441 -0.24746,-0.96182 -0.3936,-1.11644 -1.19772,-1.26729 -1.15032,-0.21581 -2.48085,-1.31791 -2.95179,-2.44502 -0.19849,-0.47506 -0.37277,-1.67125 -0.38727,-2.65818 -0.0145,-0.98694 -0.10561,-2.07699 -0.20244,-2.42233 l -0.17607,-0.62788 -0.35579,0.6648 c -0.73263,1.36893 -2.69197,1.65254 -3.97253,0.57502 -1.4144,-1.19014 -1.34991,-1.94636 0.515,-6.03928 l 1.64759,-3.61597 -0.4624,-2.81772 c -0.73705,-4.4914 -0.26072,-6.42536 2.26252,-9.1862 0.98811,-1.08115 1.92421,-1.79034 3.0201,-2.28804 0.87347,-0.39669 1.81406,-0.97089 2.09018,-1.276 0.62113,-0.68634 2.08199,-1.11221 3.10995,-0.90662 0.42535,0.0851 1.35167,0.67462 2.0585,1.31012 0.70682,0.6355 1.50577,1.1559 1.77543,1.15644 0.93057,0.002 2.22152,1.04032 2.715425,2.1843 0.55529,1.28616 1.509989,2.26463 1.850197,1.89627 0.124503,-0.1348 0.375927,-0.72135 0.55872,-1.30343 0.830398,-2.64431 2.42195,-4.5649 4.412928,-5.32527 1.083945,-0.41396 1.236099,-0.41521 2.071103,-0.017 0.495667,0.23636 1.232965,0.93176 1.63844,1.54533 0.728489,1.10234 0.73741,1.16648 0.752547,5.41062 0.0148,4.14963 0.189739,5.13321 0.912989,5.13321 0.11113,0 0.584843,-1.39898 1.052694,-3.10885 1.153928,-4.21729 1.576408,-4.84243 3.641394,-5.38808 l 1.124479,-0.29714 v -2.72576 -2.72575 l -19.248436,0.14679 c -10.58664,0.0807 -19.29221,0.18452 -19.3457,0.23064 -0.0535,0.0461 -0.11302,6.90602 -0.13229,15.24423 -0.0324,14.02448 0.001,15.27932 0.45146,16.74788 1.86262,6.07804 5.81855,8.93895 13.66872,9.88517 1.30026,0.15672 23.013624,0.0965 23.18418,-0.0643 z m 34.307845,-0.38746 c 4.611075,-1.65201 7.491787,-4.67181 8.998873,-9.43337 0.945369,-2.98684 1.040481,-5.13843 0.839266,-18.98547 l -0.195144,-13.42922 -20.536783,0.0678 -20.536783,0.0678 -0.07454,2.94782 -0.07454,2.94781 0.782689,0.78269 c 1.436231,1.43623 1.395106,2.22698 -0.540217,10.38731 -0.785726,3.31303 -0.860731,4.04163 -1.03501,10.05416 -0.103342,3.56527 -0.201644,8.4157 -0.218449,10.77874 l -0.03055,4.29644 10.517188,0.0886 c 17.374802,0.14644 20.313193,0.0705 22.104008,-0.57107 z m -24.042309,-3.45882 c -1.892005,-0.84821 -1.986957,-1.29938 -2.080991,-9.88784 -0.07508,-6.85774 -0.139663,-7.75382 -0.795317,-11.03567 -0.851106,-4.26017 -1.161788,-8.61557 -0.694963,-9.74258 0.175899,-0.42466 0.615028,-0.90662 0.975842,-1.07101 2.105076,-0.95914 3.806126,0.26346 3.806126,2.73558 v 1.40638 l 0.981985,-0.50064 c 1.398079,-0.71278 2.458017,-0.63449 3.712445,0.27421 l 1.06966,0.77486 0.596445,-0.63489 c 0.749767,-0.79809 2.145761,-1.27086 3.120452,-1.05678 0.732094,0.16079 0.779273,0.098 2.231573,-2.97192 1.11154,-2.34957 1.656826,-3.21507 2.174045,-3.45073 0.835043,-0.38048 2.114074,-0.40752 2.766237,-0.0585 0.36485,0.19526 0.596329,0.12292 0.974793,-0.30462 0.917641,-1.03665 2.808516,-2.06816 3.789269,-2.06713 1.085918,10e-4 2.444452,0.74672 3.05304,1.67554 0.231886,0.35391 0.556012,1.40139 0.72028,2.32774 0.164267,0.92635 0.448974,1.86308 0.632681,2.08163 0.860098,1.02322 0.934791,2.00962 0.926068,12.22976 -0.0075,8.72955 -0.06964,10.36991 -0.418757,11.04502 -0.40324,0.77978 -1.599243,1.59557 -2.339212,1.59557 -0.439546,0 -0.707671,1.11366 -0.707671,2.93932 0,1.04463 -0.143737,1.44654 -0.766673,2.14372 -0.628715,0.70366 -0.961988,0.85806 -1.852084,0.85806 -1.703688,0 -2.353065,-0.83991 -2.968236,-3.83914 -0.277638,-1.35361 -0.55087,-2.50718 -0.607182,-2.56349 -0.05631,-0.0563 -0.423755,0.31895 -0.816539,0.83391 -1.209953,1.58633 -3.224121,1.61654 -4.76914,0.0715 -0.799946,-0.79995 -0.858737,-0.99333 -1.040971,-3.42399 -0.106228,-1.41689 -0.285222,-2.57616 -0.397764,-2.57616 -0.112542,0 -0.337568,1.0299 -0.500058,2.28866 -0.16249,1.25876 -0.482487,2.57414 -0.711104,2.92305 -0.984938,1.50321 -3.070415,2.07203 -4.633388,1.26379 l -0.780611,-0.40367 v 1.88504 c 0,2.8712 -0.750868,4.04806 -2.910417,4.56157 -0.389407,0.0926 -1.104994,-0.0416 -1.739863,-0.32618 z m -8.739726,-41.09799 c 0.125426,-0.84444 0.705162,-29.44175 0.695126,-34.28934 l -0.0051,-2.47319 -12.501563,0.13323 c -13.137693,0.14001 -14.566793,0.25652 -18.015893,1.46878 -5.16494,1.81533 -7.95601,5.53973 -8.88918,11.86173 -0.47979,3.25043 -0.29857,11.45869 0.25298,11.45869 0.10755,0 0.68532,-0.63483 1.28393,-1.41074 l 1.08837,-1.41073 0.1231,-4.65795 c 0.0677,-2.56187 0.20293,-5.25981 0.30051,-5.99543 0.2718,-2.04893 1.70452,-3.2505 3.37568,-2.83107 0.79608,0.1998 2.02582,1.4258 2.02582,2.01966 0,0.33367 0.28434,0.49639 1.04594,0.59854 0.57527,0.0772 1.41556,0.40348 1.86732,0.72516 0.45175,0.32168 0.8566,0.54212 0.89967,0.48986 0.0431,-0.0523 0.22297,-0.86892 0.39978,-1.8148 0.40479,-2.16539 1.15896,-3.7664 2.1782,-4.62403 1.4165,-1.19191 4.168,-0.74119 5.0033,0.81958 0.30292,0.56602 0.36975,0.5798 1.065929,0.21979 0.943098,-0.4877 2.438305,-0.49221 3.370456,-0.0102 0.397689,0.20566 1.537296,1.52255 2.53246,2.92642 l 1.809389,2.55251 0.687485,-0.61132 c 0.378117,-0.33622 1.107832,-1.06916 1.621589,-1.62875 1.133188,-1.23427 2.806368,-1.57673 4.195058,-0.85861 1.717807,0.88831 1.731653,0.96448 1.777513,9.77895 0.04815,9.25522 -0.03981,9.73592 -1.938155,10.59195 -2.104502,0.949 -4.151893,-0.19664 -4.689748,-2.6242 l -0.266518,-1.2029 -1.585565,2.02125 c -2.811861,3.5845 -2.811288,3.58349 -2.632702,4.65925 0.40447,2.43644 -2.217036,4.67591 -4.566085,3.90065 -1.201056,-0.39638 -2.680806,-2.18623 -3.987336,-4.82292 -0.61329,-1.23767 -1.11507,-2.37325 -1.11507,-2.52352 0,-0.15027 -0.1227,-0.59596 -0.27268,-0.99042 l -0.27267,-0.7172 -0.61599,0.57869 c -0.75126,0.70577 -2.35182,1.18066 -3.14722,0.93378 -0.32243,-0.10007 -0.88389,-0.38955 -1.24769,-0.64329 -0.59628,-0.41588 -0.79884,-0.42589 -2.05577,-0.10165 -2.17232,0.56037 -2.76845,0.97448 -5.74451,3.99047 -2.76,2.79702 -2.78305,2.83096 -2.78305,4.09679 v 1.27641 h 19.30259 19.302598 z m 42.366464,-6.48216 c 0.0025,-4.03828 0.06145,-9.66404 0.130956,-12.50169 0.108978,-4.44921 0.05987,-5.3961 -0.356752,-6.87917 -1.249884,-4.44924 -3.41471,-7.24954 -6.848366,-8.85867 -3.490247,-1.63565 -4.481082,-1.72466 -19.197506,-1.72466 h -13.192479 l -0.33077,9.19427 c -0.181924,5.05685 -0.498994,12.94474 -0.7046,17.52865 -0.205605,4.5839 -0.375926,8.84039 -0.378489,9.45885 l -0.0047,1.12448 20.439063,1.2e-4 20.439062,1.3e-4 z m -57.820093,-8.86367 c 0.0022,-0.25466 -0.18728,-0.46302 -0.421131,-0.46302 -0.279008,0 -0.36997,0.14388 -0.264583,0.41851 0.08833,0.23019 0.162422,0.61714 0.16465,0.8599 0.0035,0.38166 0.03875,0.38768 0.260532,0.0445 0.141064,-0.21829 0.258304,-0.60524 0.260532,-0.8599 z"
       id="path111" />
    <path
       style="fill:#000000"
       d="m 173.65487,323.68389 c -7.33459,-1.04289 -9.37192,-1.15328 -26.32604,-1.42645 -22.25755,-0.35862 -28.69587,-0.71283 -43.25938,-2.37995 -17.180184,-1.96665 -23.163324,-3.36815 -33.866674,-7.93296 -4.69844,-2.00382 -8.35979,-3.49166 -12.7,-5.16084 -8.67003,-3.33437 -13.80871,-7.0621 -19.48937,-14.1381 -2.663947,-3.31828 -4.21173,-6.06358 -5.471334,-9.70447 -0.509296,-1.47212 -1.281307,-3.51156 -1.715579,-4.53208 -0.434272,-1.02053 -0.926223,-2.5545 -1.093225,-3.40883 -0.167002,-0.85434 -0.590375,-2.4463 -0.94083,-3.53771 -0.932127,-2.90289 -1.382334,-5.12064 -1.584471,-7.80521 -0.09861,-1.30969 -0.360845,-3.21469 -0.582736,-4.23333 -0.472257,-2.16801 -0.505277,-6.43204 -0.0881,-11.37708 0.5191,-6.15322 1.615108,-15.24398 2.150594,-17.83794 0.287819,-1.39424 0.709323,-3.78514 0.936674,-5.31311 0.620672,-4.17137 2.00773,-8.45518 3.598123,-11.1125 1.87389,-3.13099 3.545414,-5.56303 5.687434,-8.27513 1.00865,-1.27711 3.06986,-4.46716 4.58046,-7.08901 3.45396,-5.99483 5.78109,-9.14274 7.39778,-10.00698 3.99945,-2.138 10.64885,-6.14968 11.77396,-7.1034 2.81185,-2.38351 4.05935,-3.19122 6.61458,-4.2827 1.45521,-0.62159 4.72943,-2.20999 7.27604,-3.52977 2.54662,-1.31978 5.40412,-2.77978 6.35,-3.24444 2.07166,-1.01768 11.27485,-4.52552 14.92885,-5.6902 l 2.625714,-0.83693 6.6347,0.16064 c 13.07751,0.31662 33.95746,0.47222 37.72325,0.28111 3.4912,-0.17718 3.75312,-0.22401 2.91041,-0.52031 -0.50932,-0.17909 -2.01933,-0.87491 -3.35557,-1.54626 -2.93849,-1.47636 -7.56687,-2.90919 -10.79964,-3.34329 -2.81319,-0.37777 -5.58195,-1.04303 -9.39271,-2.25684 -1.52796,-0.48669 -3.91719,-1.18291 -5.30939,-1.54715 -2.50463,-0.65529 -9.30594,-3.40198 -11.09477,-4.48059 -0.50932,-0.3071 -1.34276,-0.88363 -1.85209,-1.28116 -0.50932,-0.39753 -1.75947,-0.98101 -2.77812,-1.29661 -1.01865,-0.31561 -3.10224,-0.96823 -4.630214,-1.45026 -3.02355,-0.95385 -7.52785,-2.08843 -15.74271,-3.96539 -6.60405,-1.50892 -9.886,-2.45276 -14.368,-4.13203 -6.46869,-2.42362 -9.77639,-3.95555 -13.42052,-6.21558 -3.92758,-2.43582 -9.01753,-5.05708 -12.53911,-6.45748 -1.2252,-0.48722 -3.4751,-1.64229 -4.99978,-2.56683 -1.52468,-0.92454 -4.094116,-2.35339 -5.709863,-3.17522 -2.575878,-1.31019 -3.237987,-1.79824 -5.375493,-3.96236 -3.080188,-3.11854 -3.499127,-3.82652 -6.154316,-10.40041 -1.000151,-2.47624 -0.922598,-7.76526 0.270448,-18.44423 0.529304,-4.73779 0.641153,-5.23247 2.380345,-10.52764 2.45578,-7.4769 3.836407,-13.60073 4.354506,-19.31459 0.262368,-2.89352 0.525934,-3.63724 3.192383,-9.00817 l 2.501869,-5.03943 4.957721,-4.9152 c 4.47671,-4.43831 5.09892,-4.96056 6.41294,-5.38275 0.80036,-0.25715 2.48984,-0.98415 3.75439,-1.61555 1.26455,-0.63141 3.11002,-1.37356 4.10104,-1.64924 2.53311,-0.70465 3.43812,-1.11908 6.64883,-3.0447 1.55427,-0.93217 3.46719,-2.01657 4.25094,-2.40976 0.78375,-0.3932 3.0621,-1.81902 5.06302,-3.16851 2.00091,-1.34948 4.57435,-2.83839 5.71875,-3.30868 1.14441,-0.47029 3.8272,-1.62129 5.96177,-2.55779 2.13457,-0.93649 4.873,-1.93351 6.08541,-2.2156 9.03701,-2.10265 10.54825,-2.38358 12.8236,-2.38379 3.789834,-3.6e-4 7.678834,-0.4696 12.166124,-1.46795 5.38176,-1.19735 7.80344,-1.93541 12.53654,-3.82078 2.11006,-0.84052 5.44381,-2.09606 7.40834,-2.7901 1.96453,-0.69404 5.11969,-1.91252 7.01146,-2.70774 5.20488,-2.1879 10.18901,-3.96338 14.15521,-5.04246 l 3.57187,-0.9718 29.50104,0.0705 c 30.87428,0.0738 45.76806,0.32936 57.94375,0.99426 11.62884,0.63504 27.82124,1.9842 41.40729,3.45008 9.25751,0.99885 22.18588,2.1585 27.64896,2.48005 10.14572,0.59718 13.20327,0.86667 16.91209,1.49062 2.42737,0.40837 3.99137,0.80128 4.29948,1.08012 0.6395,0.57874 0.61428,1.47949 -0.0585,2.08832 -0.52676,0.47672 -0.62217,0.47718 -3.24114,0.0156 -6.14973,-1.0839 -9.55117,-1.45725 -9.03518,-0.99171 0.37613,0.33935 4.16386,1.85625 6.86594,2.74966 3.18702,1.05374 6.87392,3.25769 9.2918,5.55443 2.65952,2.52629 6.05889,6.48708 7.77918,9.06393 0.77719,1.16416 2.73103,3.48588 4.34188,5.15937 3.13486,3.25678 8.83872,10.38085 10.4976,13.11142 1.5203,2.50246 2.08794,4.45293 2.09164,7.18701 0.002,1.27789 0.18375,2.97829 0.40448,3.77866 0.22074,0.80036 0.69307,3.98088 1.04962,7.06781 0.5847,5.06222 0.62029,5.95734 0.3629,9.12812 -0.64946,8.00084 -0.22413,21.33533 0.81069,25.41559 0.26676,1.05184 0.55567,2.65309 0.64202,3.55833 0.0863,0.90524 0.58458,3.58414 1.10717,5.95312 1.2629,5.72483 1.53446,8.32308 1.33508,12.7739 -0.33004,7.3673 -1.39869,9.7673 -5.18593,11.64664 -0.80037,0.39716 -2.88396,1.58508 -4.63021,2.63982 -6.38904,3.85901 -16.66196,8.65586 -26.45834,12.3545 -2.32833,0.87907 -6.96009,2.90615 -10.2928,4.50462 -5.0995,2.4459 -6.46178,2.98664 -8.59895,3.41328 -1.39672,0.27883 -4.14684,1.03789 -6.11137,1.6868 -3.13664,1.03607 -4.00711,1.21026 -7.14375,1.42955 -2.61164,0.18258 -4.95889,0.57104 -8.73125,1.44496 -6.5775,1.52376 -23.64781,4.85936 -31.88727,6.23088 -3.49524,0.5818 -7.78149,1.365 -9.525,1.74044 -1.74351,0.37544 -4.53924,0.79771 -6.21273,0.93837 -1.67349,0.14066 -5.48349,0.61119 -8.46667,1.04561 -8.47327,1.23393 -20.2153,1.6595 -28.23081,1.02319 -5.44367,-0.43214 -16.21093,0.22229 -20.18794,1.22702 -1.33815,0.33806 -0.84862,0.36596 6.08542,0.3469 4.14734,-0.0114 12.71984,0.0689 19.05,0.1784 17.29277,0.29919 42.05387,-0.30652 61.64792,-1.50803 15.2395,-0.93449 41.96908,-0.69678 53.57812,0.47647 3.60051,0.36388 9.20748,1.14574 11.46988,1.59941 l 0.88655,0.17777 -0.42352,-0.81902 c -1.26573,-2.44764 0.47331,-5.07935 3.12526,-4.7295 0.9041,0.11928 1.30724,0.39518 2.4587,1.68271 0.75751,0.84702 1.82907,2.45904 2.38125,3.58227 l 1.00396,2.04222 2.24777,0.53098 c 1.32268,0.31245 2.38437,0.71779 2.57969,0.98491 0.53361,0.72976 0.394,1.62283 -0.32761,2.09565 -0.62472,0.40933 -1.05373,0.40045 -2.58162,-0.0535 -0.65954,-0.19595 -0.58212,0.32904 0.29714,2.01476 0.76394,1.46465 2.16326,5.65375 2.87237,8.59896 0.25166,1.04527 0.4296,3.76724 0.52095,7.96915 0.14644,6.73653 -0.0672,9.53139 -0.98862,12.93081 -0.27642,1.01981 -0.63634,3.21816 -0.79983,4.88522 -0.1635,1.66705 -0.59385,3.98877 -0.95634,5.15937 -0.50543,1.63216 -0.70925,3.06236 -0.87426,6.13454 -0.11835,2.20339 -0.29695,4.40604 -0.3969,4.89479 -0.24535,1.19974 -2.67131,8.51836 -3.07542,9.27789 -0.76863,1.44466 -10.58746,12.92568 -14.77894,17.2808 -1.54349,1.60375 -3.4748,3.92547 -4.29181,5.15938 -0.81701,1.23391 -3.21255,5.66649 -5.32343,9.85018 -2.11088,4.18369 -4.23635,8.12728 -4.72326,8.76354 -2.08587,2.72566 -4.27816,5.3377 -8.02283,9.55892 -2.19457,2.47385 -5.22915,5.91403 -6.74351,7.64484 -3.46635,3.96181 -6.12009,6.07194 -10.34192,8.2234 -3.45003,1.75815 -4.82197,2.81736 -8.57908,6.62356 -1.10558,1.12003 -2.48196,2.22923 -3.11202,2.50794 -0.73878,0.3268 -3.3359,0.77561 -7.50515,1.29696 -3.50649,0.43848 -8.98288,1.21413 -12.16977,1.72366 -3.18689,0.50954 -9.96153,1.53133 -15.05476,2.27067 -5.09323,0.73933 -14.32058,2.17102 -20.50521,3.18153 -15.16733,2.47819 -26.5918,3.85504 -39.42292,4.75114 -3.62639,0.25327 -9.93154,0.31259 -11.37708,0.10706 z m 16.13958,-3.67598 c 12.88111,-0.95377 20.65041,-1.88287 35.32188,-4.22399 4.94771,-0.7895 13.28208,-2.04275 18.52083,-2.78499 5.23875,-0.74224 12.60102,-1.82363 16.36059,-2.40308 3.75957,-0.57945 8.87926,-1.28444 11.37708,-1.56664 7.29069,-0.82369 6.88777,-0.66723 9.52849,-3.70004 2.1036,-2.41594 4.3934,-4.30017 7.31613,-6.02031 3.07591,-1.8103 5.99662,-4.56876 9.45382,-8.92865 1.3847,-1.74625 4.80609,-5.43719 7.60309,-8.20208 3.76449,-3.72129 5.49494,-5.64562 6.66193,-7.40834 1.62578,-2.45571 1.88494,-2.98374 3.27521,-6.67293 0.85078,-2.25763 5.22888,-9.5262 7.77762,-12.91251 0.77809,-1.03379 3.28138,-3.71748 5.56286,-5.96375 7.12966,-7.01965 11.66441,-12.27512 13.26879,-15.37764 0.21382,-0.41349 0.45685,-1.73255 0.54006,-2.93124 0.0832,-1.19868 0.31749,-2.76658 0.52062,-3.48422 0.22549,-0.79662 0.37138,-2.59992 0.37458,-4.63021 0.007,-4.20016 0.28129,-6.08026 1.4179,-9.70544 0.49998,-1.59465 1.05062,-4.08572 1.22365,-5.53571 0.17304,-1.44999 0.35906,-2.70843 0.41338,-2.79654 0.0543,-0.0881 0.27887,-1.19288 0.49897,-2.45507 0.28423,-1.62986 0.40578,-4.30532 0.41945,-9.23252 0.0218,-7.8422 -0.10959,-8.61141 -2.40463,-14.08138 -0.61056,-1.45521 -1.60384,-3.83189 -2.20729,-5.28152 l -1.09719,-2.63568 -2.2436,-0.4584 c -3.99465,-0.81616 -10.63476,-1.79192 -14.95693,-2.19791 -12.03413,-1.1304 -36.69577,-1.34499 -51.97729,-0.45227 -16.44295,0.96056 -39.7365,1.62275 -57.54687,1.63595 -4.07459,0.003 -8.83709,0.14512 -10.58334,0.31577 -2.08568,0.20383 -7.98613,0.28886 -17.19791,0.24784 -14.86648,-0.0662 -17.19018,-0.21729 -25.21795,-1.63982 -1.70056,-0.30134 -5.52793,-0.65733 -8.86354,-0.82442 -7.63078,-0.38223 -34.70691,-0.42847 -44.38428,-0.0758 l -7.55743,0.27542 -3.422784,1.63609 c -2.29573,1.09737 -4.55536,1.93648 -6.86236,2.54833 -4.4383,1.1771 -6.60101,1.96647 -10.98021,4.00769 -1.96453,0.9157 -4.19089,1.90863 -4.94748,2.2065 -2.89599,1.14019 -6.64034,3.2111 -8.54627,4.72675 -1.0914,0.86791 -2.9964,2.1478 -4.23333,2.84419 -1.23693,0.69639 -3.99824,2.26836 -6.13625,3.49327 -4.28122,2.4528 -4.01743,2.17952 -7.10008,7.35509 -2.83256,4.75567 -5.23383,8.2588 -7.52652,10.98021 -2.71339,3.22076 -4.50525,5.88229 -5.33678,7.92697 -0.323144,0.79457 -0.966467,3.47348 -1.429612,5.95312 -0.463145,2.47965 -1.303854,6.47661 -1.868243,8.88213 -1.782039,7.59536 -1.901424,8.84827 -1.713585,17.98361 0.128588,6.25373 0.278438,8.66522 0.665865,10.71563 0.274965,1.4552 0.620314,3.95552 0.767443,5.55625 0.2244,2.44142 0.479735,3.48599 1.584532,6.48229 0.724364,1.96453 1.805949,4.62701 2.40352,5.91663 0.59758,1.28961 1.62772,3.993 2.28922,6.00753 0.66149,2.01452 1.57006,4.35266 2.01905,5.19587 1.86072,3.49445 6.37457,8.69332 9.73977,11.21787 2.95193,2.21451 9.258,5.04945 13.7842,6.19678 1.4838,0.37612 3.12678,0.90054 3.65108,1.16536 1.67403,0.84557 14.9056,6.02514 16.82827,6.58752 6.44301,1.88458 24.042084,4.23328 38.962124,5.19972 8.9731,0.58124 20.01685,0.9289 34.41162,1.08329 7.08423,0.076 13.89245,0.23439 15.12938,0.35202 3.77397,0.35888 10.95635,0.31037 16.66875,-0.1126 z m 110.32954,-48.52187 c -0.36474,-0.11434 -1.01959,-0.38712 -1.45521,-0.60617 -0.59505,-0.29923 -1.38426,-0.36786 -3.17329,-0.27594 -2.17582,0.11178 -2.42499,0.0739 -2.88836,-0.439 -0.64853,-0.71787 -0.64995,-1.97736 -0.003,-2.6922 0.473,-0.52266 0.72057,-0.55143 4.013,-0.46644 l 3.50889,0.0906 0.021,-0.66146 c 0.0115,-0.3638 0.12329,-7.92427 0.24838,-16.80104 0.1325,-9.40334 0.34279,-16.63652 0.50384,-17.33021 0.15202,-0.65485 0.34358,-3.21469 0.42568,-5.68854 0.0821,-2.47386 0.3759,-6.28386 0.65288,-8.46667 0.96664,-7.61782 1.32629,-11.93484 1.32464,-15.90006 l -0.002,-3.99381 -4.16718,-0.1741 c -3.71763,-0.15533 -4.2145,-0.23101 -4.6057,-0.70158 -0.46129,-0.55489 -0.38898,-1.38516 0.16035,-1.84106 0.17937,-0.14886 2.22033,-0.34644 4.53548,-0.43905 7.31737,-0.29273 7.41752,-0.19941 7.31831,6.81972 -0.047,3.32866 -0.25041,5.8774 -0.70723,8.86355 -0.74177,4.84885 -1.12703,8.98226 -1.33761,14.3512 -0.0822,2.0954 -0.31739,4.9529 -0.52267,6.35 -0.28174,1.9174 -0.34968,4.74574 -0.27712,11.53602 0.29923,28.00187 0.31502,26.35796 -0.26434,27.51667 -0.47555,0.9511 -0.63639,1.06335 -1.5875,1.1079 -0.58208,0.0273 -1.35676,-0.044 -1.7215,-0.15832 z m -39.78996,-0.37519 c -0.56897,-0.17175 -1.27973,-0.64609 -1.5875,-1.05944 -0.55244,-0.74195 -0.5574,-0.89269 -0.5699,-17.32962 -0.007,-9.11964 -0.14852,-21.58179 -0.31463,-27.69366 -0.16611,-6.11188 -0.33745,-14.88198 -0.38076,-19.48912 -0.0736,-7.82648 -0.0467,-8.41196 0.40822,-8.91469 0.26782,-0.29594 0.86155,-0.62026 1.31941,-0.7207 0.45785,-0.10044 1.4659,-0.54 2.24011,-0.97679 1.27861,-0.72135 1.55472,-0.77879 3.01183,-0.62649 2.06398,0.21573 3.75339,1.11521 3.86311,2.05681 0.11394,0.97781 -0.62328,1.65009 -1.50761,1.3748 -2.19482,-0.68324 -6.37013,0.43177 -6.15308,1.64318 0.051,0.28467 0.13664,3.5382 0.1903,7.23007 0.0537,3.69188 0.21906,8.09719 0.36756,9.78959 0.1517,1.72899 0.27149,11.30715 0.27341,21.8625 0.002,10.33198 0.0817,21.2025 0.17745,24.15671 l 0.17403,5.37128 2.36582,-0.0752 c 2.20801,-0.0701 2.39931,-0.0338 2.86798,0.54501 0.65178,0.80491 0.63637,1.64248 -0.0462,2.51022 -0.66657,0.84741 -1.86402,0.93059 -2.61309,0.18151 -0.51112,-0.51112 -0.51707,-0.51112 -0.67929,0 -0.12941,0.40772 -0.39525,0.51138 -1.27031,0.4953 -0.60865,-0.0112 -1.57024,-0.16028 -2.13686,-0.33132 z m -150.17916,-2.29418 v -1.05834 l -6.81302,-0.0172 c -10.720604,-0.0271 -20.899674,-0.41189 -22.423444,-0.8477 -5.84321,-1.6712 -9.41554,-6.47621 -10.17586,-13.68718 -0.41317,-3.91859 -0.80435,-14.83649 -0.80435,-22.4498 0,-5.97379 -0.0542,-6.91895 -0.39687,-6.91895 -0.49559,0 -0.52155,-0.69423 -0.0366,-0.97904 0.28744,-0.16882 0.42402,-2.56465 0.67573,-11.85325 0.17352,-6.40292 0.43324,-12.56033 0.57716,-13.68314 0.72387,-5.64709 3.33894,-9.8016 7.49223,-11.90273 2.97122,-1.50313 3.41353,-1.56945 12.06129,-1.80848 25.037074,-0.69202 44.318874,-0.58706 50.932294,0.27725 6.66105,0.87053 11.46521,5.00112 12.67771,10.90022 0.34766,1.69146 0.41917,4.16267 0.41917,14.48593 0,10.88723 0.0497,12.44657 0.39687,12.44657 0.5046,0 0.51815,0.69956 0.019,0.97904 -0.32008,0.17921 -0.39093,2.85036 -0.46302,17.4565 l -0.0851,17.24491 -0.59418,0.74675 c -0.32679,0.41072 -0.83867,1.19999 -1.1375,1.75394 -0.86393,1.6015 -3.9075,4.4728 -5.7822,5.45493 -3.4151,1.78913 -4.29191,1.90628 -16.03403,2.14239 -5.82084,0.11705 -12.57763,0.22321 -15.01511,0.23593 l -4.43177,0.0231 v 0.63982 c 0,0.91337 -0.26317,1.47685 -0.68976,1.47685 -0.25361,0 -0.36857,-0.33011 -0.36857,-1.05833 z m 0.0969,-9.06198 c 0.0862,-3.6744 0.18892,-13.22917 0.22831,-21.23281 l 0.0716,-14.55209 -19.314584,0.0955 c -10.62302,0.0525 -19.40388,0.14883 -19.51302,0.21405 -0.30888,0.18459 -0.23709,25.85083 0.0795,28.40472 0.79167,6.38734 2.98306,10.10861 7.13044,12.10844 3.13406,1.51122 4.10869,1.5976 18.29253,1.62138 l 12.868564,0.0216 z m 14.58743,6.23356 c -1.30767,-0.70178 -3.73232,-2.65434 -4.70011,-3.78499 -0.77029,-0.89991 -1.06249,-1.05966 -1.93985,-1.0605 -1.20432,-0.001 -2.52394,-0.72684 -3.20139,-1.7605 -0.55976,-0.85411 -0.53991,0.56095 -0.2843,-20.26507 l 0.18754,-15.27969 h -1.3231 c -0.82654,0 -1.3622,0.12413 -1.42727,0.33073 -0.0573,0.1819 -0.23198,7.53401 -0.38819,16.33802 -0.15621,8.80401 -0.3518,18.23971 -0.43464,20.96823 l -0.15062,4.96094 7.22784,-0.0106 c 6.79987,-0.01 7.18084,-0.0358 6.43409,-0.43657 z m 17.3262,-0.20249 c 2.78916,-0.70148 5.49414,-2.15231 7.2077,-3.86587 0.84016,-0.84015 1.52756,-1.64691 1.52756,-1.79279 0,-0.14587 -0.40232,-0.39801 -0.89405,-0.56029 -0.49172,-0.16228 -1.0892,-0.5107 -1.32772,-0.77427 -0.39998,-0.44197 -0.5412,-0.45016 -1.81793,-0.10545 -2.8631,0.77305 -5.39271,0.0493 -6.56883,-1.87948 -0.49266,-0.80793 -0.50203,-0.81093 -0.50397,-0.16178 -0.005,1.76061 -1.92286,3.32528 -3.81416,3.11218 l -1.08063,-0.12176 -0.0241,1.09572 c -0.0329,1.49761 -0.61234,2.27075 -3.11545,4.1569 l -2.14433,1.6158 5.42005,-0.14369 c 3.70339,-0.0982 5.96348,-0.28037 7.13583,-0.57522 z m -13.99277,-7.58041 c 0.42219,-0.45195 0.76717,-1.0175 0.76663,-1.25677 -6e-4,-0.26009 -0.21401,-0.0857 -0.53069,0.43374 -0.29133,0.47783 -0.7076,0.93706 -0.92505,1.0205 -0.21745,0.0834 -0.39536,0.25804 -0.39536,0.38799 0,0.41705 0.29855,0.25588 1.08447,-0.58546 z m 24.7817,-34.50334 c -0.0381,-0.0295 -7.36187,0.005 -16.27502,0.0765 l -16.20573,0.13012 v 1.37862 c 0,1.0329 0.12995,1.49622 0.51824,1.84761 0.28503,0.25795 0.71132,1.05031 0.9473,1.7608 0.23599,0.71049 0.48385,1.2918 0.55081,1.2918 0.067,0 0.47066,-0.25797 0.89712,-0.57326 0.95445,-0.70566 2.76382,-0.76469 3.74444,-0.12216 l 0.68847,0.4511 0.81151,-1.43791 c 0.90575,-1.60491 1.69355,-2.25654 3.91664,-3.2397 2.4855,-1.09921 3.51772,-1.09355 6.71089,0.0368 3.33207,1.17947 4.15313,1.75554 5.88474,4.12884 1.19705,1.64064 1.41214,1.81466 2.24288,1.81466 1.07987,0 2.11441,0.55985 2.85258,1.54369 0.42305,0.56384 0.53166,1.12973 0.54159,2.82194 0.0141,2.39564 1.05148,7.40316 1.69131,8.16384 0.37575,0.4467 0.41918,-0.43272 0.48223,-9.76439 0.0381,-5.64042 0.0381,-10.27943 0,-10.3089 z m -53.581274,-1.35702 11.310934,-0.17262 3.3e-4,-7.03879 c 1.8e-4,-3.87133 0.0791,-12.3073 0.17541,-18.7466 l 0.17508,-11.70781 H 98.723226 c -9.85059,0 -12.78129,0.0809 -14.66135,0.40481 -6.34227,1.09262 -10.1013,4.80885 -11.77855,11.64443 -0.643,2.62053 -0.67731,3.72986 -0.55923,18.08549 l 0.0661,8.04203 8.13594,-0.16916 c 4.47477,-0.093 13.22586,-0.24683 19.44688,-0.34178 z m 35.648534,-0.46564 c 9.82041,-0.10696 17.90643,-0.2456 17.96894,-0.3081 0.0625,-0.0625 0.12387,-5.38247 0.13637,-11.82213 0.0221,-11.38316 0.006,-11.77098 -0.57936,-13.95745 -1.70403,-6.36514 -4.37597,-9.23016 -9.79389,-10.50161 -1.83137,-0.42977 -3.45663,-0.4786 -15.93007,-0.4786 h -13.89063 l -0.16459,6.87917 c -0.0905,3.78354 -0.2567,12.2197 -0.36928,18.74703 l -0.20469,11.86787 2.48595,-0.11586 c 1.36727,-0.0637 10.52083,-0.20337 20.34125,-0.31032 z m 136.79366,32.7249 c -1.36298,-0.48916 -2.38125,-2.3386 -2.38125,-4.32496 0,-1.38386 1.07408,-4.69682 1.90323,-5.87043 0.54597,-0.77279 1.27177,-0.9759 1.27177,-0.35591 0,0.27829 0.25513,0.33748 1.01527,0.23552 1.88842,-0.25329 3.27078,1.05724 3.66271,3.47236 0.19114,1.17788 -0.51952,3.51664 -1.4653,4.82225 -0.96013,1.32542 -3.03228,2.37078 -4.00643,2.02117 z m 1.86313,-1.80059 c 1.15364,-0.59657 2.36465,-2.87077 2.36772,-4.44641 0.002,-1.06059 -0.12865,-1.40825 -0.77092,-2.05052 -0.93529,-0.93529 -1.93462,-0.99985 -2.75638,-0.17808 -0.32742,0.32742 -0.70897,0.62686 -0.84787,0.66542 -0.41132,0.11418 -0.87227,1.68796 -0.89389,3.05188 -0.0216,1.36574 0.49097,2.64021 1.23664,3.07452 0.62059,0.36146 0.75854,0.35178 1.6647,-0.11681 z m 5.33353,1.67259 c -0.48158,-0.48158 -0.38091,-1.19558 0.22879,-1.62262 1.12541,-0.78828 2.18211,0.26842 1.39384,1.39384 -0.42705,0.6097 -1.14104,0.71037 -1.62263,0.22878 z m 5.10646,-0.003 c -1.04926,-0.36778 -1.71979,-0.97502 -1.71979,-1.55747 0,-0.75781 0.47393,-0.84372 1.32221,-0.2397 1.15641,0.82344 2.34651,0.92451 3.36704,0.28595 1.11929,-0.70036 1.37137,-1.69395 0.66562,-2.62358 -0.46399,-0.61119 -0.68774,-0.69102 -1.68811,-0.60235 -0.63427,0.0562 -1.689,0.11576 -2.34384,0.1323 -1.15918,0.0293 -1.18987,0.009 -1.16203,-0.76369 0.0251,-0.69732 0.86373,-4.34295 1.05617,-4.59145 0.0398,-0.0514 1.53847,-0.11058 3.33029,-0.13141 3.1591,-0.0367 3.26035,-0.0204 3.34006,0.53865 0.12923,0.90637 -0.76637,1.20204 -3.33107,1.09968 l -2.26672,-0.0905 -0.33818,1.31375 c -0.186,0.72256 -0.29266,1.35926 -0.23703,1.4149 0.0556,0.0556 0.69592,-0.0264 1.42285,-0.1823 1.83571,-0.39369 2.73203,-0.037 3.48797,1.38796 1.06655,2.01045 0.0987,3.99731 -2.25961,4.63852 -1.25707,0.3418 -1.59791,0.33802 -2.64583,-0.0293 z m -52.46954,-28.71742 c 0.11217,-0.58245 2.34259,-1.92543 4.95395,-2.98287 1.10399,-0.44705 2.24538,-0.9252 2.53642,-1.06255 0.34405,-0.16237 -0.85922,-0.19994 -3.43958,-0.10739 -9.24676,0.33166 -55.22215,1.95872 -57.27829,2.02706 -1.96261,0.0652 -2.25623,0.0164 -2.33451,-0.38839 -0.0569,-0.29415 0.0741,-0.46302 0.35913,-0.46302 0.34947,0 0.38229,-0.08 0.14843,-0.36177 -0.7857,-0.94671 -2.14943,-0.87889 40.7167,-2.02511 10.69578,-0.286 20.10172,-0.52546 20.90208,-0.53213 1.42941,-0.0119 1.44114,-0.0182 0.66146,-0.35724 -0.43656,-0.18981 -2.3118,-0.8022 -4.16719,-1.36087 -3.08417,-0.92866 -3.86182,-1.37981 -3.14356,-1.82373 0.29406,-0.18173 5.72819,1.36882 9.15248,2.61153 1.62199,0.58864 2.89382,0.90237 3.30729,0.81585 0.3695,-0.0773 0.85041,-0.0254 1.06869,0.11536 0.81249,0.52398 -0.94077,1.51755 -6.94315,3.93466 -3.30941,1.33267 -6.14588,2.42303 -6.30326,2.42303 -0.15738,0 -0.24607,-0.20809 -0.19709,-0.46242 z m 40.16642,-8.19375 c -1.36298,-0.48915 -2.38125,-2.3386 -2.38125,-4.32496 0,-1.38386 1.07408,-4.69682 1.90323,-5.87043 0.54597,-0.77278 1.27177,-0.9759 1.27177,-0.35591 0,0.27829 0.25513,0.33748 1.01527,0.23552 1.88842,-0.25329 3.27078,1.05724 3.66271,3.47237 0.19114,1.17787 -0.51952,3.51663 -1.4653,4.82224 -0.96013,1.32542 -3.03228,2.37078 -4.00643,2.02117 z m 1.86313,-1.80059 c 1.15364,-0.59656 2.36465,-2.87077 2.36772,-4.4464 0.002,-1.0606 -0.12865,-1.40825 -0.77092,-2.05052 -0.93529,-0.93529 -1.93462,-0.99986 -2.75638,-0.17809 -0.32742,0.32742 -0.70897,0.62686 -0.84787,0.66542 -0.41132,0.11419 -0.87227,1.68796 -0.89389,3.05189 -0.0216,1.36573 0.49097,2.64021 1.23664,3.07452 0.62059,0.36146 0.75854,0.35178 1.6647,-0.11682 z m 5.33353,1.67259 c -0.48158,-0.48158 -0.38091,-1.19557 0.22879,-1.62262 1.12541,-0.78827 2.18211,0.26842 1.39384,1.39384 -0.42705,0.6097 -1.14104,0.71037 -1.62263,0.22878 z m 5.10646,-0.002 c -1.04926,-0.36778 -1.71979,-0.97503 -1.71979,-1.55748 0,-0.7578 0.47393,-0.84372 1.32221,-0.2397 1.15641,0.82345 2.34651,0.92451 3.36704,0.28595 1.11929,-0.70036 1.37137,-1.69395 0.66562,-2.62358 -0.46399,-0.61119 -0.68774,-0.69102 -1.68811,-0.60234 -0.63427,0.0562 -1.689,0.11576 -2.34384,0.13229 -1.15918,0.0293 -1.18987,0.009 -1.16203,-0.76369 0.0251,-0.69732 0.86373,-4.34294 1.05617,-4.59144 0.0398,-0.0515 1.53847,-0.11058 3.33029,-0.13142 3.1591,-0.0367 3.26035,-0.0204 3.34006,0.53865 0.12923,0.90638 -0.76637,1.20204 -3.33107,1.09968 l -2.26672,-0.0905 -0.33818,1.31375 c -0.186,0.72256 -0.29266,1.35927 -0.23703,1.4149 0.0556,0.0556 0.69592,-0.0264 1.42285,-0.18229 1.83571,-0.39369 2.73203,-0.037 3.48797,1.38795 1.06655,2.01046 0.0987,3.99731 -2.25961,4.63852 -1.25707,0.3418 -1.59791,0.33803 -2.64583,-0.0293 z m -77.25833,-56.33569 c 2.04178,-0.18221 6.62185,-0.21932 12.83229,-0.10398 7.90123,0.14675 10.30679,0.10465 13.22917,-0.23153 1.96453,-0.22599 4.87484,-0.53917 6.46736,-0.69594 1.59253,-0.15677 4.68815,-0.62694 6.87917,-1.04481 2.19102,-0.41787 6.60305,-1.13127 9.80451,-1.58535 18.27796,-2.59241 41.84573,-7.49308 47.80192,-9.93989 1.64894,-0.67739 4.42683,-1.76351 6.17308,-2.4136 1.74625,-0.65009 5.85667,-2.24069 9.13426,-3.53466 3.2776,-1.29397 7.74244,-2.91183 9.92188,-3.59523 9.46862,-2.96907 21.28361,-8.10158 28.79308,-12.50789 3.68309,-2.16112 4.33158,-2.71688 4.64704,-3.98254 0.44738,-1.79485 0.57284,-13.68479 0.17189,-16.2891 -0.81636,-5.30256 -1.80632,-10.1895 -2.54377,-12.55719 l -0.77959,-2.50302 v -8.89914 c 0,-9.94309 -0.30885,-15.83984 -1.06629,-20.35836 -0.28053,-1.67349 -0.63682,-4.02142 -0.79175,-5.21762 -0.15493,-1.1962 -0.51593,-2.85574 -0.80223,-3.68787 -0.28629,-0.83213 -0.69135,-2.81747 -0.90014,-4.41188 -0.30446,-2.32508 -0.52648,-3.12593 -1.12158,-4.04573 -1.44618,-2.23526 -6.96041,-9.00633 -9.81943,-12.05755 -2.07687,-2.21649 -3.52181,-4.08521 -5.09212,-6.58558 -2.42144,-3.85559 -5.82254,-7.6733 -8.60445,-9.65842 -1.49909,-1.06973 -9.87688,-5.27997 -12.94472,-6.50534 -0.7276,-0.29062 -2.27542,-0.69403 -3.43958,-0.89647 -1.80198,-0.31334 -2.22927,-0.49249 -2.87408,-1.205 -0.63722,-0.70413 -0.73565,-0.99912 -0.62032,-1.85897 0.16097,-1.20012 0.22919,-1.1717 -3.38477,-1.41009 -3.95716,-0.26101 -10.60517,-0.9022 -20.6375,-1.99044 -37.94371,-4.11588 -52.58512,-4.81977 -99.94511,-4.8049 -27.01847,0.008 -30.89219,0.0598 -32.8997,0.436 -2.97388,0.55725 -8.88456,2.52954 -14.6604,4.89191 -2.54661,1.04159 -6.17802,2.43589 -8.06979,3.09845 -1.89177,0.66256 -5.16599,1.89193 -7.27604,2.73192 -4.50741,1.79435 -6.5132,2.41635 -13.62604,4.22545 -4.52157,1.15003 -5.8885,1.38611 -9.39271,1.62222 -2.255574,0.15199 -5.291674,0.51371 -6.746884,0.80385 -1.45521,0.29013 -4.19793,0.80721 -6.09494,1.14906 -1.89701,0.34185 -4.08694,0.8639 -4.86652,1.16012 -1.77924,0.67606 -5.44333,2.76019 -8.88229,5.05224 -1.45521,0.96989 -3.65786,2.3624 -4.89479,3.09447 -3.21992,1.90569 -14.34362,7.53538 -16.55897,8.38048 -4.26156,1.62567 -9.58684,5.88841 -12.91519,10.33826 -0.60956,0.81495 -2.38638,3.85413 -3.94849,6.75372 -2.663988,4.94491 -2.858074,5.40847 -3.128313,7.47183 -0.426859,3.25919 -2.759444,12.37956 -3.97989,15.5613 -2.086763,5.44024 -2.868385,8.15051 -3.123881,10.83201 -0.13611,1.42852 -0.504094,3.71313 -0.81774,5.07692 -0.404046,1.75685 -0.608052,3.71354 -0.699898,6.71294 -0.124459,4.0644 -0.10135,4.3178 0.579084,6.35 0.389793,1.16417 1.192293,3.06917 1.783333,4.23333 2.418941,4.76457 4.091164,6.45111 9.050635,9.12813 2.02195,1.0914 4.51021,2.66242 5.52948,3.49115 1.93184,1.57071 8.02169,4.92023 12.36881,6.80306 1.39012,0.60209 4.12856,2.05099 6.08541,3.21976 4.32981,2.58609 10.59439,5.69083 14.06563,6.97098 2.81329,1.0375 6.90916,2.23856 15.42145,4.52214 3.05594,0.81981 7.10406,2.01074 8.99583,2.64651 1.891774,0.63578 4.662634,1.45341 6.157464,1.81698 1.49484,0.36356 3.5189,1.08284 4.49792,1.5984 2.0242,1.06595 9.79095,3.90054 11.93844,4.3571 0.78493,0.16688 2.84503,0.90381 4.578,1.63762 1.73297,0.7338 3.63326,1.50439 4.22286,1.71242 1.1925,0.42074 10.29043,2.27562 13.58449,2.76959 1.16417,0.17458 2.99425,0.66582 4.06685,1.09165 1.99869,0.79348 6.19679,1.61419 9.95607,1.94637 1.16416,0.10287 3.42635,0.47146 5.02708,0.81909 l 2.91042,0.63206 19.05,-0.13903 c 10.4775,-0.0765 20.47875,-0.26653 22.225,-0.42237 z m -95.1674,-37.73197 c -0.25458,-0.43097 -0.37436,-1.02838 -0.29228,-1.45775 l 0.13907,-0.72751 -10.41574,-2.2e-4 c -5.728654,-1.2e-4 -11.676584,-0.11979 -13.217604,-0.26593 -8.17137,-0.77489 -13.68401,-5.33131 -14.93382,-12.3434 -0.28607,-1.60499 -0.37294,-5.40002 -0.38362,-16.7592 l -0.0138,-14.68438 -0.65688,-0.62308 c -0.78252,-0.74224 -0.83,-1.10098 -0.16861,-1.27394 0.44198,-0.11558 0.50463,-0.55859 0.66065,-4.67158 0.0948,-2.49914 0.17462,-6.98468 0.17736,-9.96785 0.0108,-11.71083 0.89514,-15.61137 4.3308,-19.10165 1.64492,-1.67108 4.76393,-3.20304 7.70437,-3.78415 3.11034,-0.61469 25.562104,-0.87325 43.523954,-0.50124 13.91287,0.28816 14.19933,0.30487 16.73191,0.97619 6.49496,1.72164 9.98046,5.12687 11.17697,10.91956 0.3337,1.61554 0.45419,4.60355 0.57954,14.3722 0.087,6.78294 0.26713,12.47105 0.40021,12.64024 0.15158,0.1927 0.0888,0.67423 -0.16812,1.28908 -0.35267,0.84406 -0.41089,2.94958 -0.41581,15.03822 -0.005,12.77161 -0.0512,14.26237 -0.50322,16.30571 -1.46403,6.61832 -4.86955,9.84637 -12.45564,11.80653 -1.4782,0.38195 -3.75293,0.46035 -16.19265,0.55806 l -14.47285,0.11369 -0.0792,1.34683 c -0.0919,1.56209 -0.44491,1.8283 -1.05496,0.79557 z m -0.2149,-5.83642 c 0,-3.19704 0.71386,-31.90367 0.91751,-36.89624 l 0.1484,-3.63802 h -19.287104 -19.2871 l -0.19844,12.10469 c -0.27996,17.07804 -0.10632,19.2271 1.88263,23.30054 2.11376,4.32905 6.05258,6.72373 12.25122,7.44835 0.95962,0.11218 6.65609,0.21961 12.658824,0.23873 l 10.91406,0.0348 z m 29.50105,2.31796 c 4.91991,-0.70232 7.57451,-1.88811 9.97747,-4.45689 1.70522,-1.82288 2.96872,-4.17089 3.78954,-7.0422 0.59663,-2.08707 0.77538,-9.4653 0.52013,-21.46839 l -0.19209,-9.03298 -6.65065,-0.16165 c -12.79967,-0.31111 -34.13144,-0.68189 -34.21856,-0.59477 -0.10911,0.1091 -1.13171,36.28023 -1.13615,40.18747 l -0.003,2.84428 13.03073,-0.005 c 7.23651,-0.003 13.85428,-0.1228 14.88282,-0.26962 z m -28.4323,-45.5642 c 0.006,-0.9095 0.23315,-9.27364 0.50538,-18.58698 0.27223,-9.31333 0.40323,-17.02981 0.29111,-17.14774 -0.11212,-0.11793 -6.0843,-0.17311 -13.27152,-0.12262 l -13.067674,0.0918 -2.37545,0.73426 c -2.94231,0.90948 -4.4531,1.71982 -6.33716,3.39906 -2.55341,2.27582 -4.27506,6.65213 -4.4085,11.20611 -0.0296,1.01153 0.0418,6.20378 0.15882,11.53833 l 0.21271,9.69918 3.19979,0.14859 c 1.75988,0.0817 7.06932,0.21232 11.79874,0.2902 l 8.59896,0.14162 -0.86153,-0.68329 c -1.31051,-1.03936 -1.48531,-1.57267 -1.64143,-5.00799 l -0.1443,-3.175 -0.49239,2.10464 c -0.63008,2.69315 -1.1006,3.66034 -2.05494,4.22408 -2.42784,1.43416 -4.46908,-0.53748 -4.8497,-4.68433 -0.16944,-1.84612 -0.26209,-2.10506 -0.89321,-2.49624 -0.38729,-0.24006 -0.97448,-0.67564 -1.30486,-0.96797 l -0.6007,-0.5315 -0.40755,0.58186 c -1.0738,1.53306 -3.17343,1.79807 -5.50057,0.69425 -2.1251,-1.00798 -2.57283,-1.7865 -2.50102,-4.34874 0.0306,-1.09141 -0.0828,-2.87735 -0.25199,-3.96875 -0.16917,-1.09141 -0.31127,-3.74438 -0.31576,-5.89548 -0.009,-4.26069 0.1892,-5.12704 1.43497,-6.27536 0.61982,-0.57134 0.96398,-0.66132 2.52603,-0.66043 l 1.80844,10e-4 0.29258,-1.48715 c 0.32116,-1.63245 0.81579,-2.2385 2.136,-2.61713 1.83798,-0.52712 3.7149,1.30164 3.29554,3.21099 l -0.16994,0.77373 0.98004,-0.66507 c 1.82967,-1.24165 4.21121,-1.55612 5.47469,-0.72292 0.3965,0.26147 1.15508,1.03269 1.68575,1.71383 0.53067,0.68113 1.05597,1.18211 1.16734,1.11328 0.11136,-0.0688 0.2777,-0.52606 0.36962,-1.01608 0.25759,-1.37305 1.67114,-3.29984 2.86931,-3.9111 0.582904,-0.29738 1.670564,-0.60371 2.417034,-0.68076 1.98494,-0.20486 3.06672,0.34478 4.49369,2.28319 1.24087,1.68559 1.79014,3.05624 2.29497,5.72688 0.27094,1.4333 0.40342,1.66074 1.22502,2.1032 1.64888,0.88798 1.80637,1.49877 1.80637,7.00535 0,4.84856 -0.007,4.90478 -0.69937,5.95312 -0.60262,0.91191 -0.74401,1.53421 -1.02195,4.49792 -0.42801,4.56398 -0.98757,5.59582 -3.36278,6.20109 -1.34678,0.3432 -2.9528,-0.18321 -3.78439,-1.2404 -0.45448,-0.57778 -0.52435,-0.60009 -0.5252,-0.16773 -0.002,0.78281 -0.98433,2.19682 -1.77554,2.55462 -0.65204,0.29487 -0.49725,0.33923 1.65304,0.47377 1.30484,0.0816 4.06908,0.17094 6.14276,0.19844 l 3.77031,0.05 z m 42.69833,-10.71562 c 0.21455,-13.95405 0.13666,-14.84941 -1.56766,-18.02112 -1.66029,-3.08977 -4.65286,-5.17173 -9.25879,-6.44141 -2.03053,-0.55974 -2.6673,-0.58727 -15.6483,-0.67648 l -13.53163,-0.093 -0.16051,3.78553 c -0.0883,2.08204 -0.2785,8.66709 -0.42271,14.63345 -0.1442,5.96635 -0.33638,12.72315 -0.42706,15.0151 l -0.16486,4.16719 h 20.49567 20.49567 z m 134.47389,53.88183 c -0.55784,-0.13115 -1.26251,-0.41234 -1.56593,-0.62487 -0.43163,-0.30232 -1.08079,-0.35165 -2.9832,-0.22669 -2.24737,0.14763 -2.47444,0.11681 -2.99814,-0.40689 -0.82525,-0.82525 -0.76282,-2.22595 0.13053,-2.92866 0.57717,-0.454 1.06662,-0.54728 2.84427,-0.54206 1.18092,0.003 2.62004,0.11596 3.19804,0.24997 0.57799,0.134 1.10257,0.19198 1.16571,0.12884 0.0632,-0.0631 0.20856,-7.64681 0.32314,-16.85257 0.12507,-10.04846 0.32007,-17.21359 0.48793,-17.92838 0.15378,-0.65484 0.34462,-3.21469 0.42409,-5.68854 0.0795,-2.47386 0.37137,-6.28386 0.64865,-8.46667 0.97439,-7.67041 1.32685,-11.9454 1.3252,-16.07344 l -0.002,-4.16718 h -3.98614 c -2.24178,0 -4.2101,-0.11986 -4.49792,-0.2739 -0.63876,-0.34185 -0.68378,-1.63512 -0.0745,-2.1411 0.32277,-0.26807 1.62146,-0.3862 4.96093,-0.45126 6.99254,-0.13623 6.92779,-0.19947 6.85364,6.69416 -0.0354,3.29459 -0.21652,5.79454 -0.58517,8.07835 -0.83366,5.16459 -1.08091,7.64825 -1.35647,13.62604 -0.14087,3.05593 -0.42093,6.62781 -0.62237,7.9375 -0.27057,1.75913 -0.34152,4.48955 -0.27161,10.45104 0.27728,23.64126 0.24672,27.59866 -0.22089,28.60905 -0.61428,1.32732 -1.12146,1.48548 -3.19808,0.99726 z m -21.5424,-0.24554 c -1.66835,-0.17772 -2.42919,-0.60174 -3.0663,-1.70885 -0.22264,-0.38689 -0.30914,-5.04557 -0.31692,-17.06859 -0.006,-9.09505 -0.14063,-21.53708 -0.29943,-27.64896 -0.15881,-6.11187 -0.3409,-14.80343 -0.40465,-19.31458 l -0.11591,-8.20208 0.72572,-0.72761 c 0.39915,-0.40018 0.92875,-0.7276 1.17689,-0.7276 0.24814,0 1.10201,-0.37238 1.8975,-0.82751 1.32413,-0.75759 1.5951,-0.81638 3.2072,-0.69576 2.14738,0.16068 3.69966,0.8526 3.92475,1.74945 0.30873,1.23008 -0.16479,1.50335 -2.42769,1.40103 -1.76649,-0.0799 -2.28217,0.007 -3.7569,0.63391 -1.51138,0.64235 -1.68622,0.79097 -1.50957,1.2832 0.10988,0.3062 0.23476,3.47375 0.27751,7.03901 0.0428,3.56526 0.20032,7.872 0.35015,9.57053 0.15249,1.72869 0.28661,11.74589 0.30465,22.75417 0.0177,10.81626 0.10703,21.74685 0.19844,24.29021 l 0.1662,4.62428 2.33845,0.006 c 2.13465,0.005 2.38254,0.0604 2.84427,0.63055 0.69432,0.85739 0.63376,1.78504 -0.16895,2.58774 -0.72188,0.72189 -1.71236,0.70724 -2.47256,-0.0366 -0.31246,-0.30572 -0.43447,-0.29011 -0.79375,0.10154 -0.3553,0.38733 -0.69438,0.43406 -2.0791,0.28655 z m 10.25352,-16.58569 c -1.36298,-0.48915 -2.38125,-2.3386 -2.38125,-4.32496 0,-1.38386 1.07409,-4.69682 1.90323,-5.87043 0.54597,-0.77278 1.27177,-0.9759 1.27177,-0.35591 0,0.27829 0.25514,0.33748 1.01527,0.23552 1.88842,-0.25329 3.27079,1.05724 3.66271,3.47236 0.19114,1.17788 -0.51952,3.51664 -1.4653,4.82225 -0.96013,1.32542 -3.03228,2.37078 -4.00643,2.02117 z m 1.86313,-1.80059 c 1.15364,-0.59657 2.36466,-2.87077 2.36772,-4.44641 0.002,-1.06059 -0.12864,-1.40824 -0.77091,-2.05052 -0.93529,-0.93528 -1.93462,-0.99985 -2.75639,-0.17808 -0.32742,0.32742 -0.70896,0.62686 -0.84787,0.66542 -0.41131,0.11418 -0.87227,1.68796 -0.89389,3.05188 -0.0216,1.36574 0.49098,2.64021 1.23664,3.07452 0.6206,0.36147 0.75854,0.35179 1.6647,-0.11681 z M 233.71404,78.97667 c -0.37387,-0.45049 -0.40284,-0.43419 3.80429,-2.13932 3.1,-1.25641 3.3593,-1.40896 2.41462,-1.4206 -1.01797,-0.0125 -38.88896,0.87319 -53.79174,1.2581 -5.7424,0.14831 -7.36107,0.11524 -7.88773,-0.16116 -0.36446,-0.19126 -0.61589,-0.48892 -0.55874,-0.66146 0.12192,-0.36809 1.50696,-0.4271 32.20801,-1.37215 32.75299,-1.00822 32.43499,-0.99602 31.87266,-1.22279 -0.28575,-0.11523 -2.18641,-0.82084 -4.22371,-1.56802 -3.8833,-1.42421 -4.81644,-1.94747 -4.0188,-2.25356 0.78367,-0.30072 5.39768,0.9879 10.1652,2.83898 2.01236,0.78134 2.84872,1.25026 3.25994,1.82777 0.61669,0.86606 0.66142,0.8277 -1.46884,1.2598 -0.7276,0.14759 -2.6326,0.80404 -4.23333,1.45878 -4.35711,1.78218 -7.18173,2.58952 -7.54183,2.15563 z m 45.06301,-15.80741 c -0.11725,-0.1819 -0.17046,-2.03729 -0.11823,-4.12309 l 0.0949,-3.79236 -1.10753,0.69915 c -1.24183,0.78393 -1.99453,0.78644 -1.99453,0.007 0,-0.36469 0.51754,-0.81799 1.7198,-1.50633 2.44334,-1.3989 2.40991,-1.38667 2.67804,-0.97985 0.23407,0.35515 0.0901,7.35546 -0.1885,9.16668 -0.13471,0.87576 -0.68685,1.1453 -1.08399,0.52916 z"
       id="path110" />
  </g>
</svg>
