<?xml version="1.0" encoding="UTF-8" standalone="no"?>
<!-- Created with Inkscape (http://www.inkscape.org/) -->

<svg
   width="546.57819mm"
   height="285.49948mm"
   viewBox="0 0 546.57819 285.49948"
   version="1.1"
   id="svg1"
   inkscape:version="1.4 (e7c3feb100, 2024-10-09)"
   sodipodi:docname="neural-net-example-4.svg"
   xmlns:inkscape="http://www.inkscape.org/namespaces/inkscape"
   xmlns:sodipodi="http://sodipodi.sourceforge.net/DTD/sodipodi-0.dtd"
   xmlns="http://www.w3.org/2000/svg"
   xmlns:svg="http://www.w3.org/2000/svg">
  <sodipodi:namedview
     id="namedview1"
     pagecolor="#ffffff"
     bordercolor="#666666"
     borderopacity="1.0"
     inkscape:showpageshadow="2"
     inkscape:pageopacity="0.0"
     inkscape:pagecheckerboard="0"
     inkscape:deskcolor="#d1d1d1"
     inkscape:document-units="mm"
     inkscape:zoom="0.59508979"
     inkscape:cx="967.92117"
     inkscape:cy="504.12561"
     inkscape:window-width="1440"
     inkscape:window-height="896"
     inkscape:window-x="0"
     inkscape:window-y="0"
     inkscape:window-maximized="1"
     inkscape:current-layer="layer1" />
  <defs
     id="defs1" />
  <g
     inkscape:label="Layer 1"
     inkscape:groupmode="layer"
     id="layer1"
     transform="translate(151.34167,-15.081256)">
    <path
       style="fill:#000000"
       d="m 81.313278,299.9781 c -0.0877,-0.3274 -0.16116,-0.9227 -0.16315,-1.3229 l -0.004,-0.7276 -6.28386,-0.019 c -3.45612,-0.011 -9.67713,-0.1187 -13.82448,-0.2401 -6.41189,-0.1878 -7.78862,-0.3002 -9.19739,-0.7512 -5.26431,-1.685 -9.0507,-5.9229 -9.97134,-11.1602 -0.0895,-0.5094 -0.19484,-7.8729 -0.23402,-16.3634 l -0.0712,-15.4373 -0.6198,-0.4675 c -0.61879,-0.4668 -0.56318,-1.0693 0.0987,-1.0693 0.2788,0 0.37368,-2.4191 0.48512,-12.3693 0.12859,-11.48142 0.1786,-12.5212 0.69668,-14.48594 1.08867,-4.12856 3.39917,-7.42325 6.46633,-9.22072 3.08123,-1.80572 5.59259,-2.27048 15.38969,-2.84806 5.29941,-0.31243 27.53794,-0.17528 43.391672,0.26759 6.29145,0.17576 7.0371,0.24658 8.72782,0.82898 5.07316,1.74754 8.35884,5.82991 9.1202,11.33163 0.39884,2.88208 0.55175,44.92832 0.20426,56.16812 -0.14109,4.564 -0.20361,5.0454 -0.83417,6.424 -0.37491,0.8196 -0.68165,1.5608 -0.68165,1.6472 0,0.4325 -2.45594,3.5092 -3.41249,4.275 -1.38155,1.106 -3.92658,2.2991 -5.98022,2.8035 -1.72268,0.4232 -10.32527,0.6621 -24.398702,0.6777 l -7.72995,0.01 -0.17549,1.3229 c -0.18489,1.3938 -0.71657,1.7811 -0.99889,0.7276 z m -0.22766,-3.7664 c 0.11485,-0.094 0.55532,-20.7744 0.68703,-32.2568 l 0.1211,-10.557 -18.43143,0.1796 c -10.13728,0.099 -18.94691,0.2507 -19.57695,0.3376 l -1.14553,0.1581 0.16157,7.4412 c 0.0889,4.0928 0.0686,10.0012 -0.0451,13.1299 -0.30265,8.3305 0.0538,11.258 1.82099,14.9577 1.70222,3.5636 4.36775,5.4619 9.09008,6.4737 2.22017,0.4757 3.19166,0.4988 14.81143,0.3518 6.83948,-0.087 12.46754,-0.1836 12.50681,-0.2158 z m 32.466552,-0.5144 c 3.20292,-0.961 4.70722,-1.8182 6.73889,-3.8399 l 1.71301,-1.7046 -0.91576,-0.3702 c -0.50366,-0.2036 -1.12038,-0.553 -1.37047,-0.7763 -0.379,-0.3385 -0.65189,-0.3565 -1.63852,-0.108 -2.90858,0.7324 -5.26589,0.1655 -6.4353,-1.5476 -0.51599,-0.7558 -0.61083,-0.8028 -0.74692,-0.3699 -0.72168,2.2954 -1.75866,3.1214 -3.72239,2.9652 l -1.15736,-0.092 v 1.065 c 0,1.0452 -1.03734,3.0399 -1.58094,3.0399 -0.13143,0 -0.78922,0.4762 -1.46177,1.0583 -0.67254,0.5821 -1.33463,1.0583 -1.4713,1.0583 -0.13667,0 -0.24849,0.1334 -0.24849,0.2964 0,0.2129 1.39794,0.2601 4.96094,0.1673 4.39824,-0.1146 5.23037,-0.21 7.33638,-0.8419 z m -18.915432,-0.3298 c -0.79843,-0.5349 -2.13332,-1.666 -2.96644,-2.5135 -1.29869,-1.3212 -1.65277,-1.541 -2.48231,-1.541 -0.53215,0 -1.37145,-0.2496 -1.86509,-0.5547 -1.74654,-1.0794 -1.68106,-0.2714 -1.5344,-18.9342 0.073,-9.2902 0.19898,-17.2187 0.27994,-17.6189 0.14496,-0.7165 0.12695,-0.7276 -1.17769,-0.7276 h -1.3249 l -0.14057,1.3891 c -0.20325,2.0084 -0.96662,31.229 -0.96079,36.777 l 0.005,4.6964 h 6.80949 6.80949 z m 4.87076,-7.1306 c 0.575792,-0.6924 0.690852,-0.9966 0.46302,-1.2245 -0.22783,-0.2278 -0.30317,-0.1992 -0.30317,0.1153 0,0.2301 -0.37979,0.7897 -0.84398,1.2435 -0.4918,0.4808 -0.68501,0.8172 -0.46302,0.8061 0.20953,-0.011 0.72574,-0.4337 1.14715,-0.9404 z M 124.13009,259.1 l -0.17965,-5.6224 -16.30873,-6e-4 -16.308732,-5e-4 0.0876,1.6943 c 0.0715,1.3835 0.20502,1.8047 0.7276,2.2957 0.35202,0.3307 0.64003,0.7034 0.64003,0.8282 0,0.1249 0.17699,0.6506 0.39332,1.1683 l 0.39331,0.9413 0.92134,-0.5694 c 1.12838,-0.6974 2.73801,-0.7561 3.68675,-0.1344 0.81263,0.5324 0.72734,0.5802 1.4277,-0.7989 0.756122,-1.489 1.768872,-2.3633 3.808372,-3.2881 2.79235,-1.2661 3.4117,-1.2802 6.72739,-0.1534 1.58535,0.5388 3.27024,1.2163 3.74421,1.5057 0.47397,0.2893 1.47809,1.4088 2.23138,2.4877 1.17113,1.6773 1.48141,1.9616 2.14096,1.9616 1.14047,0 2.56549,0.7726 3.13305,1.6986 0.37267,0.6081 0.49351,1.2851 0.47601,2.667 -0.0134,1.0568 0.21241,2.8179 0.52578,4.1011 0.30208,1.2369 0.55006,2.5008 0.55108,2.8086 0.001,0.3078 0.26975,0.9004 0.59717,1.3169 l 0.59531,0.7574 0.0842,-5.0212 c 0.0463,-2.7616 0.003,-7.5512 -0.0954,-10.6435 z m -42.550942,-6.8832 c 0.21444,-0.1388 0.34761,-4.2431 0.4656,-14.34961 0.0909,-7.78537 0.23558,-16.07383 0.32155,-18.4188 l 0.1563,-4.26359 -12.65556,-0.12316 c -14.46222,-0.14074 -15.86447,-0.0322 -19.03624,1.47411 -3.87785,1.84158 -6.46381,5.56334 -7.53605,10.846 -0.63113,3.10939 -0.63635,3.24735 -0.56944,15.0495 l 0.0566,9.98805 h 19.24844 c 10.58664,0 19.38359,-0.091 19.54878,-0.1984 z m 35.881432,-0.3227 h 6.54844 l 0.0248,-7.87135 c 0.0137,-4.32924 0.10834,-9.00245 0.21037,-10.3849 0.19844,-2.68866 -0.1492,-5.96704 -0.91866,-8.66332 -1.07949,-3.7827 -3.67267,-7.2708 -6.32802,-8.51188 -3.23434,-1.51169 -2.82223,-1.47792 -18.035822,-1.47792 -7.73688,0 -14.14741,0.0804 -14.24561,0.1786 -0.15134,0.15139 -1.15935,30.34511 -1.18107,35.37757 l -0.007,1.6895 13.69219,-0.1642 c 7.530702,-0.09 16.638982,-0.166 20.240622,-0.1681 z"
       id="path92" />
    <path
       style="fill:#000000"
       d="m 391.74443,19.2468 c -1.2138,-0.93193 -1.32167,-2.32572 -0.26201,-3.38538 1.68444,-1.68444 3.95088,-0.46972 3.74045,2.00473 -0.11139,1.30986 -2.39177,2.21497 -3.47844,1.38065 z"
       id="path109" />
    <path
       style="fill:#000000"
       d="m 249.78149,93.27163 c -0.0922,-0.24021 -0.0826,-2.11119 0.0213,-4.15774 l 0.18888,-3.721 -1.19208,0.69861 c -1.43944,0.84357 -2.02389,0.88895 -2.02389,0.15713 0,-0.33215 0.317,-0.7157 0.82004,-0.99218 0.45102,-0.2479 1.35157,-0.79438 2.00121,-1.21441 0.8403,-0.5433 1.26301,-0.68184 1.46478,-0.48006 0.19835,0.19834 0.21318,1.73977 0.0493,5.12674 -0.20788,4.29672 -0.28664,4.85308 -0.69813,4.93139 -0.2551,0.0485 -0.53924,-0.10827 -0.63142,-0.34848 z"
       id="path108" />
    <path
       style="fill:#000000"
       d="m 206.02985,108.83544 c 0,-0.40178 0.4707,-0.65332 2.31511,-1.23715 1.2733,-0.40305 3.02948,-1.07237 3.9026,-1.48738 l 1.5875,-0.75456 -2.11667,-0.0152 c -7.1571,-0.0514 -29.69964,0.58146 -40.61354,1.14028 -20.49306,1.04929 -20.80091,1.05935 -21.0309,0.68721 -0.11641,-0.18835 -0.0474,-0.42823 0.16107,-0.5603 0.26041,-0.16495 0.16113,-0.23211 -0.34737,-0.23501 -0.76288,-0.004 -1.21319,-0.43585 -0.83922,-0.80419 0.12556,-0.12368 7.8483,-0.34934 17.16163,-0.50147 14.10669,-0.23044 47.68387,-1.50584 47.38965,-1.80006 -0.0397,-0.0397 -0.99455,-0.30803 -2.12198,-0.59638 -3.74553,-0.95794 -6.49912,-2.50029 -5.76841,-3.231 0.22624,-0.22624 0.71903,-0.13057 1.9649,0.38147 1.9937,0.81939 4.06282,1.47409 8.18335,2.58932 2.99054,0.8094 3.08563,0.85779 3.24425,1.65091 0.19538,0.9769 -0.11624,1.2393 -1.47849,1.24497 -0.62105,0.003 -1.82268,0.43195 -3.31469,1.18442 -2.93835,1.4819 -5.41195,2.41855 -7.02661,2.66069 -1.12091,0.16809 -1.25218,0.1349 -1.25218,-0.31656 z"
       id="path107" />
    <path
       style="fill:#000000"
       d="m 248.99274,130.46872 c -0.90043,-0.54758 -1.54744,-1.74348 -1.80645,-3.33894 -0.20133,-1.24013 0.84812,-4.98372 1.79555,-6.40505 0.56342,-0.84526 1.49801,-1.17653 1.49801,-0.53098 0,0.21977 0.43671,0.33073 1.3016,0.33073 1.52298,0 2.46346,0.69779 2.95731,2.19415 0.38766,1.17464 0.16959,3.66615 -0.42367,4.84055 -1.27781,2.52949 -3.73683,3.87375 -5.32235,2.90954 z m 2.80133,-1.77544 c 1.51503,-1.27482 2.3089,-3.46192 1.86072,-5.12632 -0.46662,-1.73289 -2.3756,-2.48245 -3.36862,-1.32269 -0.2492,0.29104 -0.58953,0.52917 -0.75629,0.52917 -0.45705,0 -1.2413,3.09124 -1.04701,4.12691 0.20204,1.07694 1.33633,2.48767 2.0002,2.48767 0.26694,0 0.85689,-0.31263 1.311,-0.69474 z"
       id="path106" />
    <path
       style="fill:#000000"
       d="m 238.58387,147.35496 c -1.4598,-0.28611 -2.39589,-1.18458 -2.63054,-2.52485 -0.0984,-0.56226 -0.0969,-7.15402 0.003,-14.64834 0.10032,-7.49432 0.12707,-13.71654 0.0594,-13.82714 -0.11315,-0.18506 -0.39973,-11.35063 -0.85729,-33.40098 -0.21015,-10.1274 -0.17605,-10.34048 1.74201,-10.88586 0.608,-0.17287 1.65848,-0.63842 2.33442,-1.03454 1.10372,-0.64683 1.40113,-0.70415 2.91846,-0.56246 2.85279,0.2664 4.54341,1.48907 3.85014,2.78444 -0.36715,0.68604 -0.94861,0.87186 -1.76132,0.56287 -1.24358,-0.47281 -2.82543,-0.28771 -4.56199,0.53382 -1.18421,0.56022 -1.6082,0.88779 -1.45521,1.12427 0.30224,0.46719 0.52297,10.31792 0.84933,37.90454 0.15495,13.09688 0.31393,25.30078 0.35331,27.11979 l 0.0716,3.30729 h 2.30772 c 1.95917,0 2.38572,0.0799 2.82419,0.52917 0.83993,0.86058 0.83093,1.97281 -0.0224,2.76782 -0.73124,0.68125 -1.54433,0.68617 -2.39821,0.0145 -0.6656,-0.52356 -0.66775,-0.52356 -0.80466,0 -0.15199,0.58121 -0.78817,0.63433 -2.82239,0.23565 z"
       id="path105" />
    <path
       style="fill:#000000"
       d="m 260.43475,147.52016 c -0.56393,-0.20101 -1.14883,-0.48898 -1.29978,-0.63994 -0.17287,-0.17287 -1.16439,-0.21764 -2.67885,-0.12096 -2.20322,0.14066 -2.46527,0.10502 -3.132,-0.42599 -1.41284,-1.12524 -0.70968,-2.96775 1.27466,-3.34002 0.9988,-0.18737 4.57465,0.001 5.56119,0.29332 0.55094,0.16312 0.55233,0.14368 0.72761,-10.21818 0.0966,-5.70989 0.17938,-13.01126 0.18399,-16.22526 0.005,-3.56603 0.15653,-6.92645 0.38849,-8.62177 0.20906,-1.52797 0.3832,-4.26641 0.38698,-6.08542 0.004,-1.81901 0.2405,-5.0337 0.52603,-7.14375 1.18811,-8.78006 1.64432,-14.34851 1.44904,-17.68706 l -0.18805,-3.21502 h -4.02256 c -3.56096,0 -4.0728,-0.0555 -4.46043,-0.48386 -0.61249,-0.67679 -0.54583,-1.55642 0.146,-1.92668 0.34509,-0.18469 2.32812,-0.36539 4.84889,-0.44185 6.90277,-0.20938 7.00424,-0.11567 6.99984,6.46425 -0.002,2.8917 -0.16927,5.26101 -0.53909,7.63293 -0.92972,5.96303 -1.33322,9.89148 -1.57616,15.34583 -0.12964,2.91042 -0.37435,6.06557 -0.54381,7.01146 -0.22543,1.25828 -0.2645,6.51919 -0.1456,19.60455 0.11662,12.83366 0.0793,18.13913 -0.1323,18.78542 -0.57324,1.75121 -1.69563,2.17886 -3.77409,1.438 z"
       id="path104" />
    <path
       style="fill:#000000"
       d="m 83.605868,153.20603 c -0.10258,-0.39228 -0.21556,-0.47578 -0.34981,-0.25856 -0.2651,0.42894 -0.78663,0.0794 -0.78663,-0.52721 0,-0.53363 1.56889,-0.44532 -18.78541,-1.05741 -8.40564,-0.25277 -9.40618,-0.38706 -12.03854,-1.61584 -2.00757,-0.93713 -4.87037,-3.93734 -6.04588,-6.33607 -1.61694,-3.29953 -1.74956,-4.46114 -1.75474,-15.36932 -0.003,-5.32443 -0.0828,-12.19128 -0.17834,-15.25967 -0.15934,-5.11657 -0.21416,-5.58946 -0.66145,-5.70643 -0.62939,-0.16459 -0.62978,-0.71864 -6.3e-4,-0.88317 0.46143,-0.12066 0.49677,-0.80577 0.67076,-13.00595 0.19592,-13.73777 0.32021,-15.14028 1.58684,-17.90698 1.69002,-3.69149 4.94559,-6.32977 9.16156,-7.42445 1.50219,-0.39004 3.56106,-0.45168 16.27188,-0.48717 8.00364,-0.0223 21.16005,0.0252 29.23645,0.10561 13.104072,0.1305 14.897942,0.1991 16.668762,0.63743 5.72374,1.41683 8.77197,4.30483 10.3701,9.82501 0.60188,2.07899 0.60972,2.28096 0.58163,14.99197 -0.0238,10.78573 0.0315,12.90761 0.33995,13.02596 0.30586,0.11737 0.29413,0.25477 -0.0691,0.8091 -0.39746,0.6066 -0.42858,2.11462 -0.33995,16.47508 0.0923,14.95002 0.0705,15.88628 -0.40205,17.26256 -0.82367,2.3991 -1.65795,3.83992 -3.16582,5.46742 -2.65011,2.86038 -6.45086,4.55458 -11.42802,5.0941 -2.04379,0.22155 -21.637762,0.81556 -26.901712,0.81556 -0.89135,0 -0.97253,0.065 -1.04902,0.83952 -0.0982,0.99452 -0.71404,1.31797 -0.93085,0.48891 z m -1.23552,-3.25781 c 0.15471,-0.15471 1.48721,-42.80818 1.34187,-42.95352 -0.0782,-0.0782 -8.81355,-0.0551 -19.41179,0.0514 l -19.26954,0.19367 0.0249,15.3736 c 0.0242,14.92109 0.0418,15.43443 0.59881,17.43983 0.59341,2.13658 1.54279,4.23273 2.50889,5.53945 1.34495,1.81915 5.22654,3.79242 8.70417,4.42493 1.23374,0.22439 25.27428,0.15901 25.50265,-0.0694 z m 32.510542,-0.31707 c 5.64539,-1.44853 9.61015,-5.35618 11.14322,-10.98271 0.40308,-1.47935 0.45218,-2.55208 0.35123,-7.67292 -0.0645,-3.27422 -0.11736,-9.89911 -0.11736,-14.72199 v -8.76887 l -7.67292,-0.15708 c -4.2201,-0.0864 -13.46232,-0.22937 -20.538252,-0.31773 l -12.86534,-0.16066 -0.16814,17.42098 c -0.0925,9.58154 -0.23994,19.29495 -0.3277,21.58536 l -0.15955,4.16439 11.60553,0.09 c 14.142422,0.10966 16.711712,0.044 18.749282,-0.47876 z M 83.899608,105.1125 c 0.0929,-0.40018 0.24321,-8.7154 0.33397,-18.47827 l 0.16501,-17.75066 -2.85782,-0.17486 c -1.5718,-0.0962 -7.81016,-0.17279 -13.86302,-0.17026 -11.94523,0.005 -13.28849,0.12727 -15.89238,1.44676 -2.11866,1.07361 -3.58385,2.59205 -4.7507,4.92334 -1.92216,3.84036 -2.00378,4.58834 -2.00378,18.36385 v 12.17083 l 11.77068,0.0689 c 10.7636,0.063 11.7199,0.0334 11.17714,-0.34679 -1.13734,-0.79662 -1.38428,-1.72015 -1.38428,-5.17707 0,-1.77773 -0.0667,-3.16558 -0.14812,-3.08411 -0.0815,0.0815 -0.43616,1.31138 -0.78822,2.73314 -0.70305,2.83924 -1.25583,3.67138 -2.70455,4.07139 -1.22418,0.33801 -2.00081,-0.007 -2.94327,-1.3082 -0.76787,-1.06003 -0.9008,-1.55315 -1.2234,-4.53854 -0.14371,-1.32993 -0.24578,-1.53067 -0.92041,-1.81011 -0.41732,-0.17286 -0.96302,-0.53999 -1.21266,-0.81584 -0.44229,-0.48873 -0.47895,-0.47891 -1.43417,0.38407 -1.53584,1.38754 -2.60463,1.45689 -4.90808,0.31846 -1.47895,-0.73093 -2.00939,-1.14935 -2.33982,-1.84568 -0.44613,-0.94016 -0.50667,-1.94892 -0.18419,-3.06945 0.1047,-0.3638 0.0428,-1.23196 -0.13762,-1.92924 -0.18787,-0.72618 -0.36523,-3.49539 -0.41517,-6.48229 -0.0807,-4.82863 -0.048,-5.28083 0.44198,-6.11063 0.90757,-1.53694 3.25082,-2.35565 4.62983,-1.61762 0.55249,0.29568 0.6297,0.14773 0.92957,-1.78114 0.34669,-2.23006 2.88478,-3.2425 4.54615,-1.81345 0.64522,0.55499 0.74236,0.82805 0.74236,2.0866 v 1.44805 l 0.63206,-0.63205 c 0.68001,-0.68001 2.81289,-1.42448 4.08109,-1.42448 1.08133,0 2.40409,0.88299 3.3998,2.26949 0.46217,0.64355 0.92972,1.17009 1.03901,1.17009 0.10929,0 0.27937,-0.38695 0.37796,-0.85989 0.2492,-1.19545 1.28835,-2.92555 2.23621,-3.72312 0.94996,-0.79934 3.27797,-1.33967 4.68706,-1.08786 0.7363,0.13159 1.34421,0.53207 2.24741,1.4806 1.56006,1.63835 2.24867,3.05823 2.81326,5.80089 0.41946,2.03765 0.50801,2.20814 1.45897,2.80897 1.37472,0.86858 1.71664,1.85464 1.92567,5.55338 0.22194,3.92711 -0.003,5.86203 -0.82327,7.07023 -0.6122,0.90211 -0.77736,1.8168 -1.33935,7.41718 -0.16968,1.69098 -1.06436,2.87024 -2.6317,3.46881 -1.42269,0.54333 -2.77173,0.27294 -3.91237,-0.78416 l -0.68954,-0.63905 -0.55339,1.14316 c -0.30437,0.62874 -0.75295,1.21974 -0.99685,1.31333 -1.16421,0.44675 0.71545,0.66304 5.79473,0.66681 l 5.45926,0.004 z M 126.43378,94.19844 c 0.10577,-6.92404 0.0743,-12.35266 -0.0789,-13.62604 -0.64489,-5.35909 -3.92519,-8.94152 -9.88649,-10.79708 -3.93954,-1.22625 -5.39258,-1.31383 -18.311262,-1.10368 l -11.96127,0.19457 -0.12781,1.09059 c -0.15041,1.28347 -0.97125,29.86502 -0.96029,33.43753 l 0.008,2.44902 20.571352,-0.0678 20.57136,-0.0678 z"
       id="path103" />
    <path
       style="fill:#000000"
       d="m -111.55835,230.81163 c -0.097,-0.097 -0.17639,-0.71177 -0.17639,-1.36612 v -1.18973 l -12.76614,0.16968 c -13.86236,0.18426 -14.83055,0.11649 -17.80722,-1.24627 -2.88246,-1.31963 -6.2346,-5.44312 -7.28145,-8.95696 -0.84558,-2.83827 -1.02053,-6.33355 -1.03003,-20.57898 -0.008,-11.8248 -0.0579,-13.43863 -0.43283,-13.97397 -0.38301,-0.54682 -0.38419,-0.6355 -0.0123,-0.91877 0.36017,-0.27433 0.42395,-1.9346 0.51004,-13.27811 0.11258,-14.83391 0.0954,-14.70869 2.53309,-18.42731 1.58227,-2.41365 2.58597,-3.39872 4.49822,-4.41469 3.26968,-1.73717 3.39273,-1.74822 19.56128,-1.75664 12.71087,-0.007 14.66023,-0.0596 14.87474,-0.40449 0.1935,-0.31109 0.35133,-0.33218 0.73022,-0.0976 0.34142,0.21142 2.53881,0.26316 7.48255,0.17617 9.327932,-0.16412 22.46224,0.27226 24.091125,0.80042 4.703466,1.52509 7.848399,4.82959 9.235708,9.70429 0.684826,2.40634 1.026762,9.30091 1.044874,21.06813 0.01012,6.57433 0.07115,7.75587 0.415411,8.04158 0.348872,0.28954 0.352827,0.39251 0.02919,0.76 -0.308938,0.3508 -0.39867,2.89877 -0.513475,14.58029 -0.127588,12.98229 -0.184211,14.36349 -0.683348,16.66875 -1.34317,6.20345 -4.790334,10.08287 -10.480711,11.79495 -1.465575,0.44096 -2.770287,0.47172 -16.987841,0.40048 l -15.400343,-0.0772 -0.16451,0.7539 c -0.32643,1.49586 -0.83459,2.20341 -1.26988,1.76812 z m -3.97798,-3.69265 3.73903,-0.15159 0.16554,-5.19958 c 0.091,-2.85977 0.23789,-7.1954 0.32632,-9.63473 0.14145,-3.90214 0.11244,-4.41661 -0.2414,-4.28083 -0.5159,0.19797 -1.44467,5.04417 -1.68209,8.77697 -0.19642,3.08805 -0.5805,3.97332 -2.02028,4.65654 -1.32784,0.6301 -2.54673,0.55461 -3.70015,-0.22915 -0.5431,-0.36905 -0.98928,-0.756 -0.99151,-0.8599 -0.0151,-0.70375 -0.46046,-0.85037 -1.39587,-0.45953 -1.29292,0.54022 -2.26417,0.50605 -3.28359,-0.11553 -1.12006,-0.68294 -1.52491,-1.5534 -1.94315,-4.1779 -0.19131,-1.20055 -0.44546,-2.18281 -0.56476,-2.18281 -0.1193,0 -0.21691,0.24195 -0.21691,0.53766 0,0.96977 -0.7268,2.30329 -1.50631,2.76376 l -0.76501,0.4519 8.5e-4,3.21657 c 0.001,3.77218 -0.50018,5.33011 -2.01101,6.25123 -1.19233,0.72694 -2.01503,0.67464 -3.40578,-0.2165 -1.68077,-1.07697 -2.06931,-1.60877 -2.75459,-3.77016 -0.59295,-1.87019 -0.63862,-1.92962 -1.73074,-2.25208 -1.40702,-0.41544 -2.59941,-1.53625 -2.76282,-2.59696 -0.0689,-0.44745 -0.19995,-1.85272 -0.29114,-3.12282 l -0.16582,-2.30928 -0.86787,0.92022 c -0.72369,0.76733 -1.05287,0.92021 -1.98146,0.92021 -0.87803,0 -1.27719,-0.1636 -1.88699,-0.7734 -1.18335,-1.18335 -1.05396,-2.19069 0.79275,-6.17181 l 1.56478,-3.37334 -0.36561,-2.05062 c -0.52592,-2.9498 -0.48101,-5.78229 0.11221,-7.07771 1.1411,-2.49185 4.24829,-5.4058 5.77827,-5.41893 0.3223,-0.003 0.71278,-0.24192 0.86774,-0.53145 0.41813,-0.78129 1.6693,-1.32566 3.04687,-1.32566 1.10042,0 1.35612,0.12911 2.61659,1.32121 0.76834,0.72666 1.46272,1.25547 1.54306,1.17512 0.0804,-0.0803 0.55568,0.0251 1.0563,0.23423 1.01955,0.426 2.0574,1.59278 2.0574,2.313 0,0.42362 1.13892,1.57102 1.5594,1.57102 0.0908,0 0.4405,-0.76785 0.77708,-1.70634 0.79583,-2.21902 1.85089,-3.64561 3.34278,-4.51991 2.19091,-1.28396 3.91879,-0.74218 4.99981,1.56771 0.5249,1.12159 0.75386,4.35251 0.48785,6.88419 -0.20289,1.93101 -0.17605,2.14438 0.34615,2.75147 l 0.5661,0.65813 0.85358,-3.01606 c 1.33502,-4.71717 1.75535,-5.35429 3.80877,-5.77323 l 0.85327,-0.17408 0.0745,-3.09844 0.0745,-3.09844 h -19.29233 -19.29233 l -0.12086,13.42761 c -0.12786,14.20559 -0.003,16.47434 1.10027,20.04743 1.16358,3.7672 2.79272,5.75406 5.95596,7.26374 1.80901,0.86336 4.83791,1.75024 7.18096,2.10263 1.54064,0.23171 12.27316,0.15295 19.59161,-0.14378 z m 37.281542,-0.32173 c 4.083565,-1.0878 6.85468,-3.21456 8.451856,-6.48658 1.866929,-3.82465 1.828123,-3.4183 1.925341,-20.16045 l 0.08765,-15.09509 -20.69556,-0.32409 c -16.780099,-0.26278 -20.736129,-0.26016 -20.910019,0.0138 -0.11794,0.18586 -0.21627,1.62262 -0.2185,3.1928 l -0.004,2.85487 1.05833,1.00677 c 0.99436,0.94591 1.05834,1.09838 1.05834,2.52221 0,0.83349 -0.23235,2.48904 -0.51634,3.67899 -2.05406,8.60701 -1.87492,6.99197 -2.05219,18.50156 l -0.16198,10.51719 8.97202,0.0359 c 4.934617,0.0197 10.400778,0.1261 12.147028,0.23639 4.44681,0.28084 8.669974,0.0886 10.858072,-0.49429 z m -32.324992,-51.96704 c 0.091,-4.69305 0.24098,-13.07065 0.33328,-18.6169 l 0.16783,-10.08409 -13.1973,-0.13366 c -7.25852,-0.0735 -13.88628,-0.027 -14.72835,0.10341 -2.14115,0.33153 -4.16557,1.14 -6.0799,2.42806 -2.70537,1.82031 -3.82967,3.73062 -4.86717,8.2698 -0.42912,1.87745 -0.47106,3.29946 -0.40855,13.85178 0.0383,6.46776 0.13543,11.82557 0.21583,11.90625 0.11822,0.11865 19.02563,0.52792 35.19215,0.76177 l 3.20674,0.0464 z m 42.702466,-3.45281 c 0.06356,-10.93806 0.0284,-12.05148 -0.455373,-14.41958 -0.963997,-4.71885 -3.077418,-7.94387 -6.162059,-9.40314 -2.744158,-1.29819 -4.625268,-1.59839 -10.120197,-1.615 -11.481273,-0.0347 -23.470827,0.21823 -23.556197,0.49697 -0.0903,0.29487 -1.19459,33.48504 -1.18682,35.67121 l 0.005,1.25839 20.703648,-0.0678 20.703646,-0.0678 z"
       id="path102" />
    <path
       style="fill:#000000"
       d="m 258.28506,243.6356 c -1.04926,-0.36778 -1.71979,-0.97503 -1.71979,-1.55748 0,-0.7578 0.47394,-0.84372 1.32221,-0.2397 1.15641,0.82344 2.34651,0.92451 3.36704,0.28595 1.11929,-0.70036 1.37137,-1.69395 0.66562,-2.62358 -0.46399,-0.61119 -0.68774,-0.69102 -1.68811,-0.60234 -0.63427,0.0562 -1.689,0.11576 -2.34384,0.13229 -1.15918,0.0293 -1.18987,0.009 -1.16203,-0.76369 0.0251,-0.69732 0.86373,-4.34294 1.05617,-4.59144 0.0398,-0.0515 1.53847,-0.11058 3.33029,-0.13142 3.1591,-0.0367 3.26035,-0.0204 3.34006,0.53865 0.12923,0.90638 -0.76637,1.20204 -3.33107,1.09968 l -2.26672,-0.0905 -0.33818,1.31375 c -0.186,0.72256 -0.29266,1.35927 -0.23703,1.4149 0.0556,0.0556 0.69592,-0.0264 1.42285,-0.18229 1.83571,-0.39369 2.73203,-0.037 3.48797,1.38795 1.06655,2.01046 0.0987,3.99731 -2.25961,4.63852 -1.25707,0.3418 -1.59791,0.33803 -2.64583,-0.0293 z"
       id="path101" />
    <path
       style="fill:#000000"
       d="m 253.1786,243.6376 c -0.48158,-0.48158 -0.38091,-1.19557 0.22879,-1.62262 1.12541,-0.78827 2.18211,0.26842 1.39384,1.39384 -0.42705,0.6097 -1.14104,0.71037 -1.62263,0.22878 z"
       id="path100" />
    <path
       style="fill:#000000"
       d="m 245.98194,243.7656 c -1.36298,-0.48915 -2.38125,-2.3386 -2.38125,-4.32496 0,-1.38386 1.07408,-4.69682 1.90323,-5.87043 0.54597,-0.77278 1.27177,-0.9759 1.27177,-0.35591 0,0.27829 0.25513,0.33748 1.01527,0.23552 1.88842,-0.25329 3.27078,1.05724 3.66271,3.47237 0.19114,1.17787 -0.51952,3.51663 -1.4653,4.82224 -0.96013,1.32542 -3.03228,2.37078 -4.00643,2.02117 z m 1.86313,-1.80059 c 1.15364,-0.59656 2.36465,-2.87077 2.36772,-4.4464 0.002,-1.0606 -0.12865,-1.40825 -0.77092,-2.05052 -0.93529,-0.93529 -1.93462,-0.99986 -2.75638,-0.17809 -0.32742,0.32742 -0.70897,0.62686 -0.84787,0.66542 -0.41132,0.11418 -0.87227,1.68796 -0.89389,3.05189 -0.0216,1.36573 0.49097,2.64021 1.23664,3.07451 0.62059,0.36147 0.75854,0.35179 1.6647,-0.11681 z"
       id="path99" />
    <path
       style="fill:#000000"
       d="m 203.56041,256.2141 c -0.097,-0.097 -0.17639,-0.2837 -0.17639,-0.4149 0,-0.2746 3.98445,-2.1624 6.82819,-3.2351 1.06337,-0.4012 1.88996,-0.7728 1.83686,-0.8259 -0.11274,-0.1127 -35.15557,1.0181 -49.80776,1.6072 -14.05077,0.565 -15.21354,0.5448 -15.21354,-0.2644 0,-0.4166 2.1648,-0.5425 15.47812,-0.8999 10.5094,-0.2822 46.97945,-1.8366 48.01152,-2.0464 0.47499,-0.096 -0.31532,-0.4483 -2.92195,-1.3009 -3.84343,-1.25705 -4.79309,-1.7449 -4.32419,-2.22136 0.29558,-0.30035 6.24018,1.33899 9.97452,2.75066 0.98559,0.3726 2.20598,0.6774 2.71198,0.6774 0.91962,0 1.1359,0.3086 0.6989,0.997 -0.11714,0.1846 -1.11164,0.6817 -2.20999,1.1046 -1.09835,0.4229 -3.17552,1.3604 -4.61593,2.0832 -3.30694,1.6595 -5.80677,2.4524 -6.27034,1.9888 z"
       id="path98" />
    <path
       style="fill:#000000"
       d="m 258.28506,280.6768 c -1.04926,-0.3678 -1.71979,-0.9751 -1.71979,-1.5575 0,-0.7578 0.47394,-0.8437 1.32221,-0.2397 1.15641,0.8234 2.34651,0.9245 3.36704,0.2859 1.11929,-0.7003 1.37137,-1.6939 0.66562,-2.6235 -0.46399,-0.6112 -0.68774,-0.6911 -1.68811,-0.6024 -0.63427,0.056 -1.689,0.1158 -2.34384,0.1323 -1.15918,0.029 -1.18987,0.01 -1.16203,-0.7637 0.0251,-0.6973 0.86373,-4.3429 1.05617,-4.5914 0.0398,-0.051 1.53847,-0.1106 3.33029,-0.1314 3.1591,-0.037 3.26035,-0.02 3.34006,0.5386 0.12923,0.9064 -0.76637,1.2021 -3.33107,1.0997 l -2.26672,-0.091 -0.33818,1.3138 c -0.186,0.7225 -0.29266,1.3592 -0.23703,1.4149 0.0556,0.056 0.69592,-0.026 1.42285,-0.1823 1.83571,-0.3937 2.73203,-0.037 3.48797,1.3879 1.06655,2.0105 0.0987,3.9974 -2.25961,4.6386 -1.25707,0.3418 -1.59791,0.338 -2.64583,-0.029 z"
       id="path97" />
    <path
       style="fill:#000000"
       d="m 253.1786,280.6768 c -0.48158,-0.4816 -0.38091,-1.1956 0.22879,-1.6227 1.12541,-0.7882 2.18211,0.2685 1.39384,1.3939 -0.42705,0.6097 -1.14104,0.7104 -1.62263,0.2288 z"
       id="path96" />
    <path
       style="fill:#000000"
       d="m 245.98194,280.8048 c -1.36298,-0.4892 -2.38125,-2.3386 -2.38125,-4.325 0,-1.3838 1.07408,-4.6968 1.90323,-5.8704 0.54597,-0.7728 1.27177,-0.9759 1.27177,-0.3559 0,0.2783 0.25513,0.3374 1.01527,0.2355 1.88842,-0.2533 3.27078,1.0572 3.66271,3.4724 0.19114,1.1778 -0.51952,3.5166 -1.4653,4.8222 -0.96013,1.3254 -3.03228,2.3708 -4.00643,2.0212 z m 1.86313,-1.8006 c 1.15364,-0.5966 2.36465,-2.8708 2.36772,-4.4464 0.002,-1.0606 -0.12865,-1.4083 -0.77092,-2.0505 -0.93529,-0.9353 -1.93462,-0.9999 -2.75638,-0.1781 -0.32742,0.3274 -0.70897,0.6268 -0.84787,0.6654 -0.41132,0.1142 -0.87227,1.6879 -0.89389,3.0519 -0.0216,1.3657 0.49097,2.6402 1.23664,3.0745 0.62059,0.3615 0.75854,0.3518 1.6647,-0.1168 z"
       id="path95" />
    <path
       style="fill:#000000"
       d="m 234.08363,297.06 c -0.35944,-0.1819 -0.93344,-0.7457 -1.27556,-1.2529 l -0.62203,-0.9222 0.0754,-16.4042 c 0.0415,-9.0223 -0.0597,-21.4048 -0.22487,-27.5166 -0.16513,-6.11191 -0.3483,-14.74394 -0.40704,-19.18233 -0.12215,-9.22934 -0.10696,-9.31594 1.72034,-9.80769 0.61749,-0.16618 1.63585,-0.60276 2.26302,-0.97019 1.00063,-0.58621 1.35714,-0.65182 2.91042,-0.53563 2.15584,0.16127 3.70858,0.85203 3.93398,1.75011 0.25378,1.01115 -0.2217,1.50098 -1.40228,1.44461 -2.7581,-0.1317 -3.33457,-0.0655 -4.78181,0.54929 -1.30924,0.55615 -1.52382,0.74318 -1.45327,1.26672 0.0455,0.33783 0.13031,3.5656 0.18842,7.17281 0.0581,3.60721 0.228,7.95299 0.37753,9.65729 0.15203,1.73289 0.28813,12.02021 0.30875,23.33931 0.0203,11.1324 0.11082,22.0201 0.20117,24.195 l 0.16428,3.9543 2.31149,-0.032 c 2.18296,-0.03 2.34112,0.01 2.84427,0.6454 0.67762,0.8615 0.67898,1.7827 0.004,2.4581 -0.63941,0.6394 -2.16978,0.7059 -2.65971,0.1155 -0.31128,-0.375 -0.36481,-0.375 -0.57471,0 -0.28865,0.5158 -2.93002,0.5667 -3.90139,0.075 z"
       id="path94" />
    <path
       style="fill:#000000"
       d="m 274.75126,297.6397 c -0.54796,-0.1291 -1.44093,-0.4589 -1.98437,-0.7329 -0.65262,-0.3291 -1.16773,-0.4263 -1.51725,-0.2865 -0.29104,0.1165 -1.18728,0.2201 -1.99164,0.2304 -1.52363,0.019 -2.40656,-0.3765 -2.90114,-1.3006 -0.31967,-0.5973 0.0588,-1.7744 0.736,-2.2889 0.53797,-0.4087 5.03256,-0.4899 6.34134,-0.1146 0.81307,0.2332 0.8593,0.2089 0.87999,-0.463 0.012,-0.39 0.12501,-7.9719 0.25111,-16.8487 0.12835,-9.0355 0.34926,-16.7219 0.50188,-17.4625 0.14994,-0.7276 0.34069,-3.2875 0.42389,-5.6885 0.0832,-2.4011 0.38068,-6.21114 0.66107,-8.46671 0.96943,-7.7985 1.31854,-12.05474 1.31688,-16.05523 l -0.002,-4.01669 -4.24347,-0.0843 c -4.4899,-0.0893 -4.74426,-0.16471 -4.74426,-1.40727 0,-1.26821 0.1948,-1.31791 5.50505,-1.40477 4.92079,-0.0805 5.01615,-0.0715 5.72347,0.53688 0.4632,0.39842 0.80312,1.0399 0.95469,1.80164 0.34083,1.71284 0.0146,8.88604 -0.56525,12.4277 -0.77756,4.74944 -1.03843,7.3841 -1.30992,13.22915 -0.13856,2.9831 -0.41934,6.6146 -0.62396,8.0698 -0.29042,2.0654 -0.35151,5.4899 -0.2785,15.6104 0.0514,7.1305 0.16282,14.7506 0.24751,16.9333 0.17488,4.5075 -0.11164,6.4818 -1.0814,7.4516 -0.66695,0.6669 -0.79394,0.6852 -2.30005,0.3304 z"
       id="path93" />
  </g>
</svg>
