<?xml version="1.0" encoding="UTF-8" standalone="no"?>
<!-- Created with Inkscape (http://www.inkscape.org/) -->

<svg
   width="348.58023mm"
   height="429.98004mm"
   viewBox="0 0 348.58023 429.98004"
   version="1.1"
   id="svg1"
   inkscape:version="1.4 (e7c3feb100, 2024-10-09)"
   sodipodi:docname="neural-net-horizontal-decomposition.svg"
   xmlns:inkscape="http://www.inkscape.org/namespaces/inkscape"
   xmlns:sodipodi="http://sodipodi.sourceforge.net/DTD/sodipodi-0.dtd"
   xmlns="http://www.w3.org/2000/svg"
   xmlns:svg="http://www.w3.org/2000/svg">
  <sodipodi:namedview
     id="namedview1"
     pagecolor="#ffffff"
     bordercolor="#666666"
     borderopacity="1.0"
     inkscape:showpageshadow="2"
     inkscape:pageopacity="0.0"
     inkscape:pagecheckerboard="0"
     inkscape:deskcolor="#d1d1d1"
     inkscape:document-units="mm"
     inkscape:zoom="0.21039601"
     inkscape:cx="508.56477"
     inkscape:cy="1059.906"
     inkscape:window-width="1440"
     inkscape:window-height="896"
     inkscape:window-x="0"
     inkscape:window-y="0"
     inkscape:window-maximized="1"
     inkscape:current-layer="layer1" />
  <defs
     id="defs1" />
  <g
     inkscape:label="Layer 1"
     inkscape:groupmode="layer"
     id="layer1"
     transform="translate(71.172918,101.07083)">
    <g
       stroke-linecap="round"
       transform="matrix(0.52916667,0,0,0.52916667,6.3533007,-100.19314)"
       id="g2">
      <path
         d="m 26.15,1.02 c 5.68,-1.64 12.46,-0.84 18.38,1.38 5.92,2.21 13.6,6.76 17.14,11.91 3.53,5.15 4.64,12.73 4.08,18.96 -0.57,6.24 -3.21,13.6 -7.47,18.43 C 54.02,56.53 46.54,60.86 40.2,62.24 33.85,63.62 25.96,62.44 20.19,59.97 14.43,57.5 8.83,52.42 5.62,47.43 2.42,42.43 0.74,35.96 0.97,29.99 1.19,24.03 2.12,16.47 7,11.61 11.87,6.74 25.55,2.78 30.22,0.8 c 4.67,-1.98 4.79,-1.51 4.81,-1.06 m 5.39,0.05 c 5.9,0.79 13.24,5.28 17.59,9.99 4.35,4.7 8.19,12.14 8.51,18.26 0.33,6.12 -3.22,12.99 -6.57,18.44 -3.36,5.45 -7.87,11.49 -13.58,14.24 -5.71,2.76 -14.24,3.71 -20.68,2.31 C 19.24,61.63 12.06,57.23 7.68,52.34 3.31,47.45 -0.13,39.76 -0.56,33.69 -0.98,27.63 1.51,21.18 5.12,15.97 8.73,10.75 15.46,4.73 21.1,2.39 26.74,0.06 35.58,1.96 38.96,1.97 c 3.39,0.01 2.33,0.32 2.44,0.48"
         stroke="#1e1e1e"
         stroke-width="2"
         fill="none"
         id="path1" />
    </g>
    <g
       stroke-linecap="round"
       transform="matrix(0.52916667,0,0,0.52916667,6.3533007,-49.393143)"
       id="g3">
      <path
         d="m 38.12,0.52 c 6.06,0.68 13.28,4.85 17.74,9.04 4.47,4.19 7.82,10.19 9.06,16.1 1.24,5.91 1.19,13.59 -1.63,19.36 -2.81,5.77 -9.41,12.27 -15.24,15.24 -5.82,2.97 -13.49,3.52 -19.7,2.57 C 22.14,61.88 15.52,58.74 10.77,54.56 6.02,50.38 1.18,43.93 -0.15,37.74 -1.48,31.54 -0.16,22.95 2.81,17.36 5.78,11.78 11.39,7.07 17.67,4.23 23.94,1.39 36.07,0.59 40.46,0.31 44.85,0.04 44.07,1.87 44.01,2.6 M 47,2.07 c 5.89,2.06 11.93,8.01 15.02,13.15 3.09,5.14 4.1,11.37 3.51,17.68 -0.59,6.32 -2.67,15.34 -7.06,20.2 -4.39,4.86 -12.8,7.81 -19.27,8.96 C 32.74,63.21 25.51,62.55 19.68,60.03 13.84,57.5 7.34,51.88 4.21,46.89 1.07,41.9 -0.03,36.25 0.87,30.07 1.76,23.89 5.26,14.89 9.59,9.81 13.92,4.73 20.75,0.94 26.84,-0.43 c 6.09,-1.38 16.39,1.21 19.3,1.97 2.92,0.77 -1.41,2.1 -1.8,2.64"
         stroke="#1e1e1e"
         stroke-width="2"
         fill="none"
         id="path2" />
    </g>
    <g
       stroke-linecap="round"
       transform="matrix(0.52916667,0,0,0.52916667,7.6762173,0.08394067)"
       id="g4">
      <path
         d="M 43.11,1.15 C 49.3,2.37 56,7.29 59.82,12.32 c 3.82,5.02 6.08,12.72 6.2,18.98 0.12,6.26 -1.67,13.45 -5.47,18.59 C 56.75,55.04 49.41,60.36 43.22,62.18 37.02,64 29.41,62.79 23.37,60.8 17.32,58.82 10.68,54.98 6.95,50.27 3.22,45.56 1.05,38.75 0.98,32.54 0.91,26.34 3.17,18.22 6.55,13.04 9.92,7.85 14.65,3.37 21.24,1.44 c 6.6,-1.92 20.68,-0.35 24.87,0.05 4.19,0.4 0.7,1.68 0.29,2.34 M 42.13,2.71 C 48.56,4 56.48,7.26 60.43,12.08 64.38,16.9 66,25.46 65.81,31.64 65.62,37.82 62.9,44.29 59.28,49.14 55.65,53.99 49.92,58.78 44.06,60.73 38.2,62.69 30.27,62.3 24.1,60.88 17.94,59.47 10.97,56.9 7.07,52.23 3.18,47.56 0.77,39.09 0.72,32.87 0.67,26.64 3.19,19.88 6.77,14.88 10.36,9.88 16.27,4.95 22.26,2.85 28.24,0.75 39.61,2.64 42.66,2.27 45.72,1.9 40.93,0.36 40.6,0.64"
         stroke="#1e1e1e"
         stroke-width="2"
         fill="none"
         id="path3" />
    </g>
    <g
       stroke-linecap="round"
       transform="matrix(0.52916667,0,0,0.52916667,98.163718,-53.626476)"
       id="g5">
      <path
         d="m 34.42,-0.42 c 5.98,-0.29 13.67,3.22 18.86,6.95 5.2,3.73 10.41,9.63 12.32,15.45 1.9,5.83 1.55,13.41 -0.9,19.5 C 62.25,47.56 56.55,54.93 50.9,58.5 45.25,62.08 37.14,63.21 30.8,62.92 24.46,62.62 17.66,60.47 12.86,56.72 8.06,52.97 3.77,46.27 2,40.41 0.23,34.54 0.15,27.27 2.23,21.51 4.3,15.75 8.39,9.31 14.44,5.84 20.49,2.36 33.67,1.12 38.52,0.64 c 4.84,-0.48 4.96,1.95 5,2.33 M 25.18,0.83 c 5.88,-2.06 13.23,-1.82 19.24,0.47 6.02,2.28 13.48,8.06 16.85,13.23 3.38,5.16 3.92,11.91 3.4,17.76 -0.52,5.85 -2.74,12.6 -6.51,17.34 -3.78,4.73 -9.89,9.23 -16.13,11.06 C 35.79,62.53 26.78,62.53 20.71,60.63 14.63,58.73 9.13,54.35 5.58,49.3 2.03,44.26 -1.04,36.63 -0.59,30.36 -0.14,24.08 3.99,16.43 8.29,11.64 12.59,6.85 22.4,3.09 25.21,1.63 28.02,0.18 25.45,2.65 25.14,2.92"
         stroke="#1e1e1e"
         stroke-width="2"
         fill="none"
         id="path4" />
    </g>
    <g
       stroke-linecap="round"
       transform="matrix(0.52916667,0,0,0.52916667,98.428301,2.729774)"
       id="g6">
      <path
         d="m 47.04,3.78 c 5.56,1.97 12.1,7.05 15.08,12.46 2.98,5.41 3.68,13.78 2.81,19.99 -0.88,6.21 -3.46,12.93 -8.07,17.29 -4.61,4.35 -13.06,7.85 -19.6,8.85 -6.54,1 -13.84,0.07 -19.62,-2.85 C 11.86,56.6 5.46,50.38 2.58,44.87 -0.3,39.37 -0.94,32.3 0.37,26.51 1.68,20.72 5.75,14.6 10.43,10.11 15.12,5.62 21.42,0.06 28.48,-0.41 c 7.05,-0.48 19.28,5.65 24.28,7.69 5.01,2.03 6.12,4.25 5.74,4.5 M 43.84,0.99 c 6.08,1.41 12.69,5.92 16.4,10.99 3.71,5.06 5.87,13.05 5.86,19.4 -0.01,6.36 -2.06,13.44 -5.93,18.73 C 56.3,55.4 48.99,61.06 42.86,63.11 36.74,65.15 29.79,64.57 23.41,62.4 17.04,60.22 8.52,55.2 4.61,50.04 0.71,44.89 -0.34,37.63 -0.01,31.44 0.32,25.26 2.55,17.94 6.59,12.96 10.64,7.97 18.07,3.47 24.27,1.54 30.47,-0.39 40.51,1.05 43.8,1.38 c 3.29,0.33 0.17,1.61 0.21,2.14"
         stroke="#1e1e1e"
         stroke-width="2"
         fill="none"
         id="path5" />
    </g>
    <g
       stroke-linecap="round"
       transform="matrix(0.52916667,0,0,0.52916667,187.85747,-89.874393)"
       id="g7">
      <path
         d="m 48.41,2.44 c 5.68,2.47 10.93,9.45 13.78,15.17 2.84,5.72 4.24,13.16 3.29,19.14 C 64.52,42.73 60.9,49.31 56.46,53.5 52.02,57.69 45.25,60.73 38.83,61.91 32.4,63.1 23.8,63.32 17.92,60.59 12.04,57.87 6.45,51.1 3.53,45.57 0.61,40.04 -0.61,33.54 0.38,27.42 1.36,21.31 5.02,13.53 9.43,8.9 13.85,4.26 20.3,0.4 26.87,-0.38 33.43,-1.16 44.9,3.08 48.82,4.2 52.74,5.31 50.61,5.92 50.4,6.33 M 34.36,0.6 c 6.02,-0.28 14.6,1.59 19.55,5.21 4.96,3.62 8.59,10.19 10.17,16.51 1.57,6.33 1.4,15.65 -0.71,21.44 -2.1,5.79 -6.57,10.18 -11.92,13.3 -5.36,3.12 -13.71,5.45 -20.21,5.43 C 24.73,62.47 17.31,60.72 12.43,56.97 7.55,53.21 3.43,46.02 1.94,39.97 0.44,33.92 1.25,26.38 3.46,20.65 5.68,14.93 9.89,8.86 15.23,5.64 20.57,2.41 32.09,2.02 35.5,1.31 38.92,0.59 36.02,1.08 35.74,1.37"
         stroke="#1e1e1e"
         stroke-width="2"
         fill="none"
         id="path6" />
    </g>
    <g
       stroke-linecap="round"
       transform="matrix(0.52916667,0,0,0.52916667,9.5283007,48.767274)"
       id="g8">
      <path
         d="m 17.91,4.51 c 5.28,-3 14.06,-5.44 20.49,-4.58 6.44,0.87 13.43,5.34 18.12,9.75 4.69,4.4 9.14,10.76 10.03,16.67 0.9,5.9 -1.54,13.19 -4.67,18.77 C 58.75,50.7 53.35,56.79 47.77,59.81 42.19,62.84 34.66,64.42 28.38,63.26 22.1,62.11 14.82,57.32 10.09,52.9 5.36,48.49 1.23,42.62 0.01,36.78 -1.21,30.93 -1.75,23.95 2.75,17.85 7.25,11.74 21.43,3.08 27.02,0.14 c 5.59,-2.93 9.18,-0.38 9.27,0.08 m 2.33,0.36 c 5.93,0.62 12.69,4.56 17.15,8.78 4.45,4.23 8.35,10.39 9.59,16.56 1.24,6.17 0.51,14.97 -2.15,20.47 -2.66,5.5 -8.32,9.64 -13.8,12.53 C 43.92,61.81 36.91,64.66 30.3,63.7 23.7,62.74 14.72,57.33 9.8,53.16 4.88,48.98 1.78,44.44 0.77,38.64 -0.24,32.84 1.07,24.13 3.73,18.38 6.39,12.63 11,7.27 16.73,4.14 22.45,1.01 34.66,0 38.07,-0.42 41.48,-0.83 37.55,1.03 37.18,1.65"
         stroke="#1e1e1e"
         stroke-width="2"
         fill="none"
         id="path7" />
    </g>
    <g
       stroke-linecap="round"
       transform="matrix(0.52916667,0,0,0.52916667,191.29705,23.367274)"
       id="g9">
      <path
         d="m 24.27,1.41 c 5.8,-1.82 15.49,-1.63 21.7,0.59 6.22,2.22 12.12,7.43 15.59,12.74 3.46,5.32 5.63,13.07 5.21,19.16 -0.41,6.09 -3.53,12.6 -7.71,17.38 C 54.88,56.05 48.19,60.85 41.68,62.53 35.17,64.21 26.21,63.69 20,61.38 13.79,59.07 7.61,53.95 4.42,48.66 1.23,43.37 0.28,35.79 0.85,29.64 1.42,23.49 3.04,16.59 7.84,11.77 12.65,6.96 25.38,2.5 29.69,0.76 34,-0.98 33.58,0.93 33.72,1.34 m 14.04,0.29 c 6.14,1.72 11.53,7.81 14.71,13.2 3.18,5.38 5.25,12.89 4.36,19.12 -0.89,6.24 -5.26,13.59 -9.7,18.28 C 52.7,56.91 46.47,60.79 40.2,62.07 33.93,63.35 25.55,62.46 19.49,59.88 13.43,57.3 6.95,51.65 3.86,46.58 0.78,41.51 0.22,35.49 0.97,29.47 1.72,23.44 3.99,15.28 8.39,10.44 12.79,5.59 21.2,1.5 27.37,0.39 c 6.17,-1.11 14.79,2.82 18.03,3.39 3.24,0.57 1.61,-0.06 1.41,0.04"
         stroke="#1e1e1e"
         stroke-width="2"
         fill="none"
         id="path8" />
    </g>
    <g
       stroke-linecap="round"
       transform="matrix(0.52916667,0,0,0.52916667,189.44497,-32.988976)"
       id="g10">
      <path
         d="M 44.21,2.88 C 50,4.55 56.31,8.57 60.1,13.49 63.88,18.4 67.04,26.07 66.9,32.38 66.77,38.69 63.41,46.41 59.29,51.32 55.17,56.23 48.53,60.16 42.2,61.83 35.86,63.49 27.32,63.61 21.29,61.3 15.27,58.99 9.54,53.16 6.04,47.97 2.55,42.78 0.06,36.17 0.32,30.17 0.59,24.18 3.7,16.7 7.64,12.01 c 3.95,-4.7 9.29,-8.77 16.34,-10 7.05,-1.23 20.72,1.41 25.95,2.6 5.23,1.18 5.59,3.92 5.43,4.53 M 39.77,1.22 c 5.88,0.51 11.21,2.6 15.42,6.99 4.21,4.38 8.81,12.81 9.83,19.32 1.03,6.5 -0.58,14.45 -3.67,19.71 -3.1,5.25 -9.43,9.1 -14.9,11.82 -5.48,2.72 -11.8,5.43 -17.94,4.49 C 22.36,62.61 14.36,57.8 9.59,53.42 4.82,49.04 0.61,43.4 -0.13,37.26 -0.86,31.12 2.03,22.19 5.18,16.57 8.33,10.96 13.13,6.38 18.8,3.56 c 5.66,-2.81 17.16,-3.7 20.37,-3.87 3.2,-0.17 -0.9,2.35 -1.16,2.85"
         stroke="#1e1e1e"
         stroke-width="2"
         fill="none"
         id="path9" />
    </g>
    <g
       stroke-linecap="round"
       id="g12"
       transform="matrix(0.52916667,0,0,0.52916667,-118.54893,-105.48481)">
      <g
         transform="translate(304.03571,45.5)"
         id="g11">
        <path
           d="M 0.19,-0.61 C 18.56,10.74 92.33,56.47 110.45,67.71 M -1.16,1.69 c 18.27,11 92.99,52.99 111.15,64"
           stroke="#1e1e1e"
           stroke-width="2"
           fill="none"
           id="path10" />
      </g>
    </g>
    <g
       stroke-linecap="round"
       id="g14"
       transform="matrix(0.52916667,0,0,0.52916667,-118.54893,-105.48481)">
      <g
         transform="translate(300.03571,133.5)"
         id="g13">
        <path
           d="m -0.5,-0.37 c 17.86,-0.83 90.03,-4.1 108.33,-4.7 M 1.44,-1.61 c 18.19,-0.62 90.83,-1.26 108.75,-1.95"
           stroke="#1e1e1e"
           stroke-width="2"
           fill="none"
           id="path11" />
      </g>
    </g>
    <g
       stroke-linecap="round"
       id="g16"
       transform="matrix(0.52916667,0,0,0.52916667,-118.54893,-105.48481)">
      <g
         transform="translate(300.53571,57.5)"
         id="g15">
        <path
           d="M -0.29,-0.85 C 19.11,25.37 97.6,130.12 117.12,156.4 M 1.76,1.31 c 19.7,26.5 98.05,130.42 117.61,156.58"
           stroke="#1e1e1e"
           stroke-width="2"
           fill="none"
           id="path13" />
      </g>
    </g>
    <g
       stroke-linecap="round"
       id="g18"
       transform="matrix(0.52916667,0,0,0.52916667,-118.54893,-105.48481)">
      <g
         transform="translate(302.03571,217.5)"
         id="g17">
        <path
           d="M -0.28,-0.64 C 17.93,-11.67 91.8,-54.66 110.35,-65.1 M 1.77,1.64 c 18.47,-10.4 92.64,-54.63 110.68,-65.79"
           stroke="#1e1e1e"
           stroke-width="2"
           fill="none"
           id="path15" />
      </g>
    </g>
    <g
       stroke-linecap="round"
       id="g20"
       transform="matrix(0.52916667,0,0,0.52916667,-118.54893,-105.48481)">
      <g
         transform="translate(300.53571,145)"
         id="g19">
        <path
           d="M 1.12,0.37 C 19.41,13.99 92.69,67.76 110.94,81.29 M 0.25,-0.49 c 18.03,13.33 91.47,66.71 109.71,80.07"
           stroke="#1e1e1e"
           stroke-width="2"
           fill="none"
           id="path17" />
      </g>
    </g>
    <g
       stroke-linecap="round"
       id="g22"
       transform="matrix(0.52916667,0,0,0.52916667,-118.54893,-105.48481)">
      <g
         transform="translate(303.03571,234.5)"
         id="g21">
        <path
           d="m 0.72,-1.19 c 17.97,0.31 88.44,1.68 105.95,2.2 M -0.36,0.79 c 18.01,0.6 89.12,1.89 106.7,1.76"
           stroke="#1e1e1e"
           stroke-width="2"
           fill="none"
           id="path19" />
      </g>
    </g>
    <g
       stroke-linecap="round"
       id="g24"
       transform="matrix(0.52916667,0,0,0.52916667,-118.54893,-105.48481)">
      <g
         transform="translate(305.53571,305.5)"
         id="g23">
        <path
           d="M 0.42,-0.6 C 18.98,-25.91 93.3,-126.8 111.68,-152.32 M -0.82,1.7 c 18.4,-25.58 92.65,-129.81 111.64,-155.52"
           stroke="#1e1e1e"
           stroke-width="2"
           fill="none"
           id="path21" />
      </g>
    </g>
    <g
       stroke-linecap="round"
       id="g26"
       transform="matrix(0.52916667,0,0,0.52916667,-118.54893,-105.48481)">
      <g
         transform="translate(308.03571,316)"
         id="g25">
        <path
           d="m -0.34,-0.93 c 17.83,-9.93 90,-49.72 107.76,-59.72 M 1.68,1.19 C 19.35,-8.96 88.85,-51.63 106.69,-62.33"
           stroke="#1e1e1e"
           stroke-width="2"
           fill="none"
           id="path23" />
      </g>
    </g>
    <g
       stroke-linecap="round"
       id="g28"
       transform="matrix(0.52916667,0,0,0.52916667,-118.54893,-105.48481)">
      <g
         transform="translate(476.53571,115.5)"
         id="g27">
        <path
           d="m 0.43,0.31 c 16.81,-8.1 83.81,-39.86 100.82,-47.86 M -0.81,-0.57 c 17.17,-7.38 87.25,-37.82 104.37,-45.47"
           stroke="#1e1e1e"
           stroke-width="2"
           fill="none"
           id="path25" />
      </g>
    </g>
    <g
       stroke-linecap="round"
       id="g30"
       transform="matrix(0.52916667,0,0,0.52916667,-118.54893,-105.48481)">
      <g
         transform="translate(477.03571,129.5)"
         id="g29">
        <path
           d="m 0.18,-0.93 c 17.66,6.1 88.4,30.33 106.03,36.42 M -1.18,1.19 C 16.37,7.6 87.86,31.05 105.64,37.03"
           stroke="#1e1e1e"
           stroke-width="2"
           fill="none"
           id="path27" />
      </g>
    </g>
    <g
       stroke-linecap="round"
       id="g32"
       transform="matrix(0.52916667,0,0,0.52916667,-118.54893,-105.48481)">
      <g
         transform="translate(469.53571,144.5)"
         id="g31">
        <path
           d="m 0.44,0.94 c 20.9,18.37 103.85,91.89 124.33,110.14 M -0.78,0.38 C 20.03,18.89 102.9,94.15 123.96,112.66"
           stroke="#1e1e1e"
           stroke-width="2"
           fill="none"
           id="path29" />
      </g>
    </g>
    <g
       stroke-linecap="round"
       id="g34"
       transform="matrix(0.52916667,0,0,0.52916667,-118.54893,-105.48481)">
      <g
         transform="translate(468.53571,215)"
         id="g33">
        <path
           d="M -0.86,0.89 C 19.21,-21.65 100.42,-112.72 120.61,-135.68 M 0.89,0.32 C 20.88,-22.52 100.4,-114.7 120.24,-137.37"
           stroke="#1e1e1e"
           stroke-width="2"
           fill="none"
           id="path31" />
      </g>
    </g>
    <g
       stroke-linecap="round"
       id="g36"
       transform="matrix(0.52916667,0,0,0.52916667,-118.54893,-105.48481)">
      <g
         transform="translate(474.03571,224)"
         id="g35">
        <path
           d="M 1.12,-0.13 C 19.68,-7.07 93.73,-34.18 112.16,-40.88 M 0.25,-1.25 c 18.34,-6.82 92.63,-32.02 111.04,-38.3"
           stroke="#1e1e1e"
           stroke-width="2"
           fill="none"
           id="path33" />
      </g>
    </g>
    <g
       stroke-linecap="round"
       id="g38"
       transform="matrix(0.52916667,0,0,0.52916667,-118.54893,-105.48481)">
      <g
         transform="translate(477.03571,233)"
         id="g37">
        <path
           d="M 0.93,0.83 C 19.34,6.12 92.38,26.88 110.66,32.07 M -0.04,0.23 C 18.3,5.13 91.92,25.3 110.32,30.25"
           stroke="#1e1e1e"
           stroke-width="2"
           fill="none"
           id="path35" />
      </g>
    </g>
    <g
       stroke-linecap="round"
       transform="matrix(0.52916667,0,0,0.52916667,-70.243573,146.00165)"
       id="g39">
      <path
         d="m 35.44,-0.15 c 6.11,0.02 14.79,4.26 19.6,8.27 4.81,4.01 7.78,9.73 9.26,15.77 1.48,6.03 2.1,14.75 -0.38,20.43 -2.48,5.68 -8.9,10.51 -14.5,13.64 -5.6,3.14 -12.8,5.57 -19.1,5.17 -6.3,-0.4 -13.7,-3.48 -18.69,-7.54 C 6.65,51.53 1.94,45 0.39,38.77 -1.16,32.53 -0.24,23.88 2.33,18.19 4.91,12.49 10.09,7.48 15.84,4.58 c 5.75,-2.91 17.35,-3.34 21,-3.82 3.65,-0.49 0.77,0.49 0.9,0.89 m 5.99,0.76 c 6.24,1.54 13.58,6.74 17.24,11.53 3.65,4.79 4.8,11.27 4.67,17.2 -0.14,5.94 -1.74,13.39 -5.5,18.42 -3.76,5.02 -10.82,9.51 -17.06,11.73 -6.24,2.22 -14,3.45 -20.39,1.59 C 16.31,61.02 8.38,55.23 4.78,50.11 1.17,44.99 1,38.16 1.05,32.16 1.11,26.15 1.31,19.06 5.11,14.07 8.9,9.08 17.24,4.43 23.83,2.22 30.43,0 41.7,0.93 44.69,0.77 c 2.99,-0.15 -2.26,0.1 -2.9,0.52"
         stroke="#1e1e1e"
         stroke-width="2"
         fill="none"
         id="path37" />
    </g>
    <g
       stroke-linecap="round"
       transform="matrix(0.52916667,0,0,0.52916667,-70.243573,196.80165)"
       id="g40">
      <path
         d="M 46.61,2.99 C 52.35,4.9 57.34,9.65 60.64,15 c 3.3,5.35 6.37,13.93 5.79,20.07 -0.59,6.15 -4.94,12.24 -9.29,16.82 C 52.78,56.47 46.48,61.08 40.3,62.55 34.12,64.02 26.11,63.21 20.07,60.72 14.03,58.24 7.43,53.2 4.06,47.65 0.68,42.1 -0.85,33.6 -0.17,27.43 0.5,21.26 3.82,15.02 8.12,10.65 12.42,6.28 18.44,1.94 25.65,1.21 c 7.2,-0.73 20.44,3.64 25.7,5.08 5.25,1.44 5.93,3.3 5.81,3.59 M 36.23,0.95 c 6.02,-0.28 12.53,2.12 17.39,5.81 4.87,3.69 10.14,10.31 11.82,16.33 1.67,6.01 0.68,13.69 -1.78,19.76 C 61.21,48.92 56.39,56.14 50.7,59.51 45.01,62.89 35.78,63.59 29.51,63.1 23.24,62.61 18.01,60.3 13.06,56.54 8.11,52.78 1.44,46.52 -0.19,40.54 -1.83,34.55 0.43,26.72 3.25,20.66 6.06,14.59 11.6,7.72 16.68,4.14 21.76,0.56 30.92,-0.03 33.73,-0.82 36.54,-1.61 33.17,-1.3 33.55,-0.6"
         stroke="#1e1e1e"
         stroke-width="2"
         fill="none"
         id="path38" />
    </g>
    <g
       stroke-linecap="round"
       transform="matrix(0.52916667,0,0,0.52916667,-68.920656,246.27873)"
       id="g41">
      <path
         d="m 27.44,-0.33 c 6.07,-1.24 15.79,1.48 21.57,4.37 5.79,2.89 10.34,7.46 13.15,12.97 2.8,5.52 4.64,13.89 3.68,20.14 C 64.88,43.4 61.13,50.2 56.37,54.5 51.61,58.81 43.78,62.33 37.25,62.99 30.73,63.65 22.93,61.37 17.24,58.46 11.55,55.55 5.96,50.83 3.1,45.52 0.25,40.22 -0.95,32.61 0.11,26.61 c 1.06,-6 4,-12.64 9.33,-17.11 5.33,-4.47 18.43,-8.18 22.66,-9.7 4.23,-1.52 2.82,-0.03 2.73,0.59 m 6.92,0.4 c 5.9,0.97 13.72,5.9 17.75,10.8 4.03,4.91 6.3,12.13 6.44,18.63 0.14,6.5 -1.76,15.18 -5.62,20.35 -3.86,5.18 -11.63,8.7 -17.53,10.69 C 36.9,63.25 31.12,64.05 24.94,62.51 18.76,60.97 9.74,56.9 5.74,52.03 1.75,47.16 0.75,39.78 0.97,33.29 1.19,26.79 3.82,18.46 7.06,13.08 10.31,7.7 14.84,3.21 20.44,1.02 c 5.61,-2.19 16.47,-1.25 20.25,-1.08 3.79,0.17 2.26,1.38 2.46,2.09"
         stroke="#1e1e1e"
         stroke-width="2"
         fill="none"
         id="path39" />
    </g>
    <g
       stroke-linecap="round"
       transform="matrix(0.52916667,0,0,0.52916667,21.566842,192.56832)"
       id="g42">
      <path
         d="m 38.68,0.77 c 6.21,0.49 12.6,3.47 17.13,7.8 4.54,4.33 8.93,11.93 10.1,18.19 1.17,6.26 -0.04,13.86 -3.09,19.37 -3.04,5.52 -9.32,11.11 -15.19,13.71 -5.88,2.6 -13.69,2.87 -20.06,1.89 C 21.21,60.75 14.03,58.09 9.44,53.97 4.86,49.85 1.12,43.02 0.04,37 -1.03,30.98 -0.13,23.49 2.99,17.87 6.11,12.24 12.1,6.03 18.79,3.23 25.47,0.42 38.47,0.98 43.09,1.05 c 4.61,0.08 3.57,1.96 3.4,2.64 M 43.17,0.86 c 6.06,1.36 12.37,6.25 16.17,11.52 3.79,5.26 6.76,13.82 6.62,20.05 -0.13,6.23 -3.89,12.39 -7.43,17.32 C 55,54.69 50.84,59.86 44.76,62.03 38.68,64.2 28.27,64.58 22.07,62.76 15.88,60.94 11.02,56.39 7.57,51.13 4.13,45.88 1.9,37.66 1.42,31.22 0.94,24.79 1.46,17.66 4.7,12.53 7.95,7.39 14.34,2.24 20.87,0.42 27.4,-1.41 40.19,1.34 43.9,1.59 47.62,1.84 43.66,1.54 43.16,1.93"
         stroke="#1e1e1e"
         stroke-width="2"
         fill="none"
         id="path40" />
    </g>
    <g
       stroke-linecap="round"
       transform="matrix(0.52916667,0,0,0.52916667,21.831426,248.92457)"
       id="g43">
      <path
         d="m 21.97,1.06 c 5.63,-2.31 14.87,-1.37 21.19,0.63 6.31,2.01 12.96,6.44 16.69,11.4 3.74,4.96 5.77,12.39 5.72,18.35 -0.04,5.95 -2.28,12.38 -5.99,17.39 -3.71,5 -10.16,10.45 -16.29,12.65 -6.14,2.21 -14.27,2.35 -20.5,0.59 C 16.57,60.31 9.62,55.99 5.96,50.91 2.3,45.84 0.71,37.94 0.84,31.63 0.96,25.31 2.86,18.03 6.71,13.02 10.57,8 20.75,3.33 23.96,1.54 c 3.21,-1.79 1.78,0.35 2.02,0.76 m 2.21,-2.16 c 5.93,-0.94 14.63,1.99 20.12,4.92 5.48,2.92 9.75,7.23 12.8,12.64 3.04,5.42 6.52,13.59 5.47,19.84 C 65.53,43.79 59.45,50.88 54.8,55.19 50.16,59.49 44.67,62.8 38.72,63.37 32.76,63.94 25.17,61.73 19.07,58.6 12.98,55.47 5.47,50.2 2.13,44.58 -1.2,38.97 -2.45,30.81 -0.95,24.91 0.56,19 6.19,13.26 11.17,9.16 16.15,5.05 26.19,1.71 28.91,0.27 31.63,-1.17 27.45,0.13 27.49,0.51"
         stroke="#1e1e1e"
         stroke-width="2"
         fill="none"
         id="path41" />
    </g>
    <g
       stroke-linecap="round"
       transform="matrix(0.52916667,0,0,0.52916667,-67.068573,294.96207)"
       id="g44">
      <path
         d="m 23.6,1.82 c 5.61,-2.14 13.58,-1.61 19.59,0.16 6,1.77 12.66,5.44 16.42,10.45 3.75,5.01 6.2,13.22 6.11,19.63 -0.09,6.4 -2.74,13.77 -6.65,18.79 C 55.15,55.87 48.18,60.48 42.21,62.18 36.24,63.89 29.15,63.21 23.23,61.09 17.3,58.96 10.53,54.36 6.68,49.41 2.83,44.46 0.05,37.38 0.12,31.39 0.2,25.4 2.68,18.62 7.12,13.46 11.56,8.31 23.11,2.49 26.74,0.44 c 3.63,-2.04 2.22,0.18 2.18,0.73 m 0.47,-0.95 c 6.28,-0.92 16.78,1.92 22.29,5.38 5.5,3.47 8.36,9.66 10.73,15.39 2.38,5.73 4.67,13.33 3.52,18.98 -1.15,5.66 -5.09,11.29 -10.43,14.97 -5.35,3.68 -14.72,6.8 -21.65,7.12 C 26.93,62.37 19,59.96 13.95,56.84 8.91,53.73 5.6,48.89 3.56,43.36 1.52,37.83 0.44,29.76 1.69,23.67 2.95,17.58 6.14,10.91 11.08,6.83 16.01,2.75 27.97,0.32 31.29,-0.82 c 3.32,-1.15 -0.26,0.03 -0.31,0.75"
         stroke="#1e1e1e"
         stroke-width="2"
         fill="none"
         id="path42" />
    </g>
    <g
       stroke-linecap="round"
       id="g46"
       transform="matrix(0.52916667,0,0,0.52916667,-118.54893,-105.48481)">
      <g
         transform="translate(159.28571,510.75)"
         id="g45">
        <path
           d="m 0.48,-0.51 c 18.26,11.11 91.4,56.32 109.39,67.6 M -0.73,-1.82 C 17.38,9.41 90.53,56.72 109.11,68.41"
           stroke="#1e1e1e"
           stroke-width="2"
           fill="none"
           id="path43" />
      </g>
    </g>
    <g
       stroke-linecap="round"
       id="g48"
       transform="matrix(0.52916667,0,0,0.52916667,-118.54893,-105.48481)">
      <g
         transform="translate(155.28571,598.75)"
         id="g47">
        <path
           d="m 0.37,-0.41 c 17.82,-0.8 89.01,-4.08 107.06,-4.92 M -0.9,-1.67 c 18.14,-0.58 92.33,-1.85 110.48,-2.3"
           stroke="#1e1e1e"
           stroke-width="2"
           fill="none"
           id="path45" />
      </g>
    </g>
    <g
       stroke-linecap="round"
       id="g50"
       transform="matrix(0.52916667,0,0,0.52916667,-118.54893,-105.48481)">
      <g
         transform="translate(155.78571,522.75)"
         id="g49">
        <path
           d="m -1.07,-0.33 c 19.63,26.07 99.3,130.36 119.24,156.38 M 0.57,-1.55 c 19.46,26.27 97.14,132.51 116.74,158.9"
           stroke="#1e1e1e"
           stroke-width="2"
           fill="none"
           id="path47" />
      </g>
    </g>
    <g
       stroke-linecap="round"
       id="g52"
       transform="matrix(0.52916667,0,0,0.52916667,-118.54893,-105.48481)">
      <g
         transform="translate(157.28571,682.75)"
         id="g51">
        <path
           d="M 0.17,-0.45 C 19.03,-11.17 93.42,-54.26 112.1,-64.69 M -1.2,-1.73 c 18.85,-10.55 93.82,-51.26 112.66,-61.78"
           stroke="#1e1e1e"
           stroke-width="2"
           fill="none"
           id="path49" />
      </g>
    </g>
    <g
       stroke-linecap="round"
       id="g54"
       transform="matrix(0.52916667,0,0,0.52916667,-118.54893,-105.48481)">
      <g
         transform="translate(155.78571,610.25)"
         id="g53">
        <path
           d="M 0.6,-0.69 C 19.19,12.97 93.37,67.85 111.72,81.5 M -0.55,1.57 c 18.48,13.38 93.31,65.38 111.7,78.34"
           stroke="#1e1e1e"
           stroke-width="2"
           fill="none"
           id="path51" />
      </g>
    </g>
    <g
       stroke-linecap="round"
       id="g56"
       transform="matrix(0.52916667,0,0,0.52916667,-118.54893,-105.48481)">
      <g
         transform="translate(158.28571,699.75)"
         id="g55">
        <path
           d="M 0.72,1 C 18.16,1.41 87.8,1.74 105.21,1.76 M -0.36,0.48 c 17.2,0.13 87.04,-0.79 104.47,-0.44"
           stroke="#1e1e1e"
           stroke-width="2"
           fill="none"
           id="path53" />
      </g>
    </g>
    <g
       stroke-linecap="round"
       id="g58"
       transform="matrix(0.52916667,0,0,0.52916667,-118.54893,-105.48481)">
      <g
         transform="translate(160.78571,770.75)"
         id="g57">
        <path
           d="M -0.29,0.76 C 18.12,-24.97 92.49,-127.76 111.18,-153.35 M 1.76,0.11 c 18.16,-24.98 90.05,-126.03 108.31,-151.85"
           stroke="#1e1e1e"
           stroke-width="2"
           fill="none"
           id="path55" />
      </g>
    </g>
    <g
       stroke-linecap="round"
       id="g60"
       transform="matrix(0.52916667,0,0,0.52916667,-118.54893,-105.48481)">
      <g
         transform="translate(163.28571,781.25)"
         id="g59">
        <path
           d="M -0.32,0.15 C 17.62,-10.12 89.31,-50.67 107.36,-60.83 M 1.71,-0.82 C 19.56,-11.5 88.94,-52.28 106.61,-62.6"
           stroke="#1e1e1e"
           stroke-width="2"
           fill="none"
           id="path57" />
      </g>
    </g>
    <g
       stroke-linecap="round"
       transform="matrix(0.52916667,0,0,0.52916667,148.96372,193.49436)"
       id="g61">
      <path
         d="m 36.52,0.63 c 6.3,0.12 14,3.6 18.64,7.55 4.63,3.95 7.95,10.18 9.18,16.15 1.23,5.98 0.76,14.07 -1.79,19.7 C 60.01,49.66 54.63,54.85 49.07,58.09 43.51,61.34 35.39,64.03 29.2,63.51 23,63 16.7,59.08 11.91,55 7.12,50.92 1.91,45.17 0.48,39.04 -0.95,32.91 0.73,24.02 3.32,18.21 5.91,12.4 9.64,6.96 16.03,4.18 22.42,1.39 36.4,1.31 41.67,1.49 c 5.26,0.18 5.99,3.4 5.94,3.78 M 34.66,0.41 C 40.63,0.36 48,2.9 52.99,6.7 c 5,3.81 9.94,10.43 11.65,16.52 1.72,6.09 0.79,14.21 -1.37,20.02 -2.16,5.8 -6.36,11.66 -11.59,14.83 -5.22,3.17 -13.07,4.68 -19.77,4.19 C 25.21,61.77 16.34,58.69 11.47,55.13 6.59,51.57 4.41,46.59 2.66,40.9 0.91,35.22 -1.18,26.82 0.96,21.04 3.1,15.25 9.77,9.58 15.51,6.22 21.25,2.85 32.06,1.89 35.39,0.86 c 3.33,-1.02 0.22,-1.01 0.12,-0.79"
         stroke="#1e1e1e"
         stroke-width="2"
         fill="none"
         id="path59" />
    </g>
    <g
       stroke-linecap="round"
       transform="matrix(0.52916667,0,0,0.52916667,149.2283,249.85061)"
       id="g62">
      <path
         d="m 40.1,0.96 c 5.89,0.65 12.34,4.55 16.5,9.08 4.17,4.53 7.78,11.99 8.49,18.09 0.72,6.1 -0.97,13.06 -4.18,18.53 C 57.7,52.12 51.48,58.31 45.82,60.91 40.17,63.5 33.24,63.48 26.97,62.22 20.7,60.95 12.58,58.01 8.22,53.33 3.85,48.64 1.45,40.4 0.78,34.11 0.11,27.83 1.21,20.82 4.18,15.61 7.15,10.41 12.4,5.12 18.61,2.88 24.82,0.64 37.2,2.34 41.42,2.18 45.65,2.02 43.99,1.51 43.97,1.92 M 22.9,1.24 c 5.68,-2.14 14.68,-1.49 20.77,0.67 6.08,2.17 11.95,7.23 15.74,12.32 3.8,5.09 6.98,12.28 7.02,18.21 0.03,5.93 -2.66,12.67 -6.81,17.36 -4.14,4.69 -12.06,8.73 -18.06,10.8 -6,2.07 -11.8,3.37 -17.92,1.61 C 17.52,60.45 8.63,55.1 4.82,50.04 1,44.98 0.29,37.96 0.76,31.84 1.24,25.72 3.71,18.5 7.68,13.32 11.65,8.14 21.82,2.83 24.56,0.77 27.31,-1.3 23.94,0.14 24.15,0.94"
         stroke="#1e1e1e"
         stroke-width="2"
         fill="none"
         id="path60" />
    </g>
    <g
       stroke-linecap="round"
       transform="matrix(0.52916667,0,0,0.52916667,238.65747,157.24644)"
       id="g63">
      <path
         d="m 40.15,0.61 c 5.89,0.97 13.26,5.96 17.44,10.66 4.18,4.69 7.18,11.26 7.63,17.53 0.45,6.27 -1.73,14.78 -4.92,20.08 -3.19,5.3 -8.27,9.42 -14.21,11.73 -5.94,2.31 -15.12,3.75 -21.41,2.14 C 18.38,61.15 12.42,55.85 8.29,50.97 4.16,46.09 0.57,39.48 -0.13,33.47 -0.82,27.46 0.78,19.95 4.13,14.91 7.48,9.87 12.89,5.34 19.97,3.24 27.06,1.13 41.32,1.71 46.64,2.3 51.97,2.9 52.2,6.18 51.9,6.79 M 37.01,0.43 c 6.12,0.46 13.13,4.61 17.93,8.86 4.81,4.25 9.54,10.83 10.91,16.65 1.37,5.82 0.31,12.92 -2.69,18.28 -3,5.35 -9.82,10.6 -15.3,13.85 C 42.39,61.31 36.73,64.21 30.3,63.7 23.87,63.18 14.11,59.21 9.29,54.98 4.46,50.76 2.2,44.36 1.34,38.35 0.48,32.34 1.32,24.75 4.14,18.91 6.96,13.07 12.67,6.58 18.26,3.3 c 5.59,-3.28 16.05,-3.86 19.43,-4.07 3.37,-0.2 1.11,2.08 0.81,2.84"
         stroke="#1e1e1e"
         stroke-width="2"
         fill="none"
         id="path61" />
    </g>
    <g
       stroke-linecap="round"
       transform="matrix(0.52916667,0,0,0.52916667,242.09705,270.48811)"
       id="g64">
      <path
         d="m 36.93,0.3 c 6.17,0.37 13.68,3.63 18.33,8.04 4.65,4.4 8.23,12.24 9.59,18.39 1.35,6.15 1.33,12.96 -1.45,18.51 C 60.62,50.79 53.88,57.25 48.14,60.03 42.4,62.82 35.33,62.96 28.95,61.94 22.57,60.92 14.73,58.08 9.84,53.93 4.94,49.79 0.78,42.94 -0.41,37.06 -1.61,31.17 -0.3,24.27 2.66,18.6 5.62,12.94 10.51,5.82 17.34,3.06 24.17,0.3 38.5,1.77 43.65,2.05 c 5.14,0.28 4.71,2.31 4.56,2.69 M 31.04,0.77 c 6.22,-0.63 15.18,1.67 20.72,4.86 5.54,3.19 10.51,8.69 12.51,14.25 1.99,5.56 1.03,12.9 -0.53,19.12 -1.56,6.22 -3.76,14.1 -8.85,18.18 -5.09,4.08 -15.12,6.08 -21.7,6.33 C 26.62,63.75 20.46,62.03 15.43,58.66 10.4,55.28 5.21,49.29 3.03,43.24 0.86,37.19 0.7,28.62 2.38,22.37 4.06,16.12 7.97,9.27 13.1,5.75 18.23,2.22 30.16,2 33.13,1.22 36.1,0.44 31.23,0.57 30.91,1.07"
         stroke="#1e1e1e"
         stroke-width="2"
         fill="none"
         id="path62" />
    </g>
    <g
       stroke-linecap="round"
       transform="matrix(0.52916667,0,0,0.52916667,240.24497,214.13186)"
       id="g65">
      <path
         d="m 26.86,-0.11 c 6,-1.27 14.18,1.25 20.21,4.08 6.03,2.83 12.92,7.4 15.97,12.88 3.04,5.49 3.28,14.02 2.29,20.01 -0.98,6 -3.69,11.73 -8.21,15.98 -4.51,4.25 -12.26,8.37 -18.89,9.54 -6.63,1.16 -15,0 -20.87,-2.56 C 11.49,57.26 5.89,52.59 3.02,46.99 0.15,41.39 -0.94,32.42 0.15,26.23 1.24,20.03 4.84,14.11 9.55,9.81 14.27,5.5 24.9,1.97 28.44,0.4 c 3.54,-1.57 2.22,-0.5 2.37,-0.03 m 4.57,0.01 c 6.32,-0.32 14.11,2.37 18.86,6.06 4.76,3.69 7.85,9.82 9.67,16.06 1.82,6.25 3.64,15.42 1.27,21.43 -2.37,6.01 -9.94,11.3 -15.5,14.63 -5.56,3.33 -11.76,5.66 -17.87,5.35 C 25.71,63.59 17.99,60.86 13.06,56.68 8.12,52.51 3.92,45.14 2.21,38.86 0.5,32.58 0.4,24.45 2.81,19 5.21,13.55 11.42,9.25 16.64,6.17 21.87,3.08 31.19,1.21 34.13,0.47 c 2.95,-0.73 0.23,1 0.17,1.27"
         stroke="#1e1e1e"
         stroke-width="2"
         fill="none"
         id="path63" />
    </g>
    <g
       stroke-linecap="round"
       id="g67"
       transform="matrix(0.52916667,0,0,0.52916667,-118.54893,-105.48481)">
      <g
         transform="translate(572.53571,582.5)"
         id="g66">
        <path
           d="M -0.4,-0.86 C 16.54,-8.74 85.02,-40.43 101.98,-48.34 M 1.6,1.3 c 16.75,-7.66 82.98,-40.43 99.43,-48.54"
           stroke="#1e1e1e"
           stroke-width="2"
           fill="none"
           id="path64" />
      </g>
    </g>
    <g
       stroke-linecap="round"
       id="g69"
       transform="matrix(0.52916667,0,0,0.52916667,-118.54893,-105.48481)">
      <g
         transform="translate(573.03571,596.5)"
         id="g68">
        <path
           d="M -0.02,-0.84 C 17.53,5.09 87.14,28.5 104.86,34.71 M -1.48,1.33 c 17.97,6.14 90.81,28.96 108.71,34.5"
           stroke="#1e1e1e"
           stroke-width="2"
           fill="none"
           id="path66" />
      </g>
    </g>
    <g
       stroke-linecap="round"
       id="g71"
       transform="matrix(0.52916667,0,0,0.52916667,-118.54893,-105.48481)">
      <g
         transform="translate(565.53571,611.5)"
         id="g70">
        <path
           d="M -0.64,-0.79 C 20.24,18 104.45,93.34 125.29,111.91 M 1.22,1.4 c 20.79,18.54 103.15,90.48 123.53,108.87"
           stroke="#1e1e1e"
           stroke-width="2"
           fill="none"
           id="path68" />
      </g>
    </g>
    <g
       stroke-linecap="round"
       id="g73"
       transform="matrix(0.52916667,0,0,0.52916667,-118.54893,-105.48481)">
      <g
         transform="translate(564.53571,682)"
         id="g72">
        <path
           d="m 0.79,0.91 c 20,-22.68 98.65,-114.99 118.58,-137.78 M -0.26,0.35 C 19.63,-22.09 98.31,-112.5 118.35,-135.52"
           stroke="#1e1e1e"
           stroke-width="2"
           fill="none"
           id="path70" />
      </g>
    </g>
    <g
       stroke-linecap="round"
       id="g75"
       transform="matrix(0.52916667,0,0,0.52916667,-118.54893,-105.48481)">
      <g
         transform="translate(570.03571,691)"
         id="g74">
        <path
           d="M -0.13,-0.37 C 18.54,-7.15 94.3,-33.06 112.84,-39.79 M -1.66,-1.6 c 18.52,-7.21 94.79,-33.61 113.99,-39.94"
           stroke="#1e1e1e"
           stroke-width="2"
           fill="none"
           id="path72" />
      </g>
    </g>
    <g
       stroke-linecap="round"
       id="g77"
       transform="matrix(0.52916667,0,0,0.52916667,-118.54893,-105.48481)">
      <g
         transform="translate(573.03571,700)"
         id="g76">
        <path
           d="M 0.84,0.71 C 18.96,5.98 90.53,26.3 108.6,31.25 M -0.18,0.04 c 18.51,5.48 92.93,27.44 111.03,32.62"
           stroke="#1e1e1e"
           stroke-width="2"
           fill="none"
           id="path74" />
      </g>
    </g>
    <g
       stroke-linecap="round"
       id="g81"
       transform="matrix(0.52916667,0,0,0.52916667,-118.54893,-105.48481)">
      <g
         transform="translate(361.03571,645.5)"
         id="g78">
        <path
           d="M 0.27,0.47 C 18.69,0.15 92.42,-0.56 111.14,-0.8 M -1.05,-0.33 C 17.7,0 94.54,0.28 113.4,0.32"
           stroke="#1e1e1e"
           stroke-width="2"
           fill="none"
           id="path76" />
      </g>
      <g
         transform="translate(361.03571,645.5)"
         id="g79">
        <path
           d="M 89.88,8.79 C 98.81,4.34 104.92,3.73 113.4,0.32 M 89.88,8.79 C 95.81,6.86 100.24,5.9 113.4,0.32"
           stroke="#1e1e1e"
           stroke-width="2"
           fill="none"
           id="path77" />
      </g>
      <g
         transform="translate(361.03571,645.5)"
         id="g80">
        <path
           d="m 89.93,-8.31 c 9.07,1.53 15.17,6.9 23.47,8.63 M 89.93,-8.31 c 5.77,1.86 10.19,4.7 23.47,8.63"
           stroke="#1e1e1e"
           stroke-width="2"
           fill="none"
           id="path78" />
      </g>
    </g>
  </g>
</svg>
