<?xml version="1.0" encoding="UTF-8" standalone="no"?>
<!-- Created with Inkscape (http://www.inkscape.org/) -->

<svg
   width="221.83818mm"
   height="184.17711mm"
   viewBox="0 0 221.83818 184.17711"
   version="1.1"
   id="svg1"
   inkscape:version="1.4 (e7c3feb100, 2024-10-09)"
   sodipodi:docname="neural-net.svg"
   xmlns:inkscape="http://www.inkscape.org/namespaces/inkscape"
   xmlns:sodipodi="http://sodipodi.sourceforge.net/DTD/sodipodi-0.dtd"
   xmlns="http://www.w3.org/2000/svg"
   xmlns:svg="http://www.w3.org/2000/svg">
  <sodipodi:namedview
     id="namedview1"
     pagecolor="#ffffff"
     bordercolor="#666666"
     borderopacity="1.0"
     inkscape:showpageshadow="2"
     inkscape:pageopacity="0.0"
     inkscape:pagecheckerboard="0"
     inkscape:deskcolor="#d1d1d1"
     inkscape:document-units="mm"
     inkscape:zoom="0.42079202"
     inkscape:cx="425.38829"
     inkscape:cy="192.49414"
     inkscape:window-width="1440"
     inkscape:window-height="896"
     inkscape:window-x="0"
     inkscape:window-y="0"
     inkscape:window-maximized="1"
     inkscape:current-layer="layer1" />
  <defs
     id="defs1" />
  <g
     inkscape:label="Layer 1"
     inkscape:groupmode="layer"
     id="layer1"
     transform="translate(18.785425,-37.835417)">
    <g
       stroke-linecap="round"
       transform="matrix(0.52916667,0,0,0.52916667,-17.896279,38.713108)"
       id="g2">
      <path
         d="m 26.15,1.02 c 5.68,-1.64 12.46,-0.84 18.38,1.38 5.92,2.21 13.6,6.76 17.14,11.91 3.53,5.15 4.64,12.73 4.08,18.96 -0.57,6.24 -3.21,13.6 -7.47,18.43 C 54.02,56.53 46.54,60.86 40.2,62.24 33.85,63.62 25.96,62.44 20.19,59.97 14.43,57.5 8.83,52.42 5.62,47.43 2.42,42.43 0.74,35.96 0.97,29.99 1.19,24.03 2.12,16.47 7,11.61 11.87,6.74 25.55,2.78 30.22,0.8 c 4.67,-1.98 4.79,-1.51 4.81,-1.06 m 5.39,0.05 c 5.9,0.79 13.24,5.28 17.59,9.99 4.35,4.7 8.19,12.14 8.51,18.26 0.33,6.12 -3.22,12.99 -6.57,18.44 -3.36,5.45 -7.87,11.49 -13.58,14.24 -5.71,2.76 -14.24,3.71 -20.68,2.31 C 19.24,61.63 12.06,57.23 7.68,52.34 3.31,47.45 -0.13,39.76 -0.56,33.69 -0.98,27.63 1.51,21.18 5.12,15.97 8.73,10.75 15.46,4.73 21.1,2.39 26.74,0.06 35.58,1.96 38.96,1.97 c 3.39,0.01 2.33,0.32 2.44,0.48"
         stroke="#1e1e1e"
         stroke-width="2"
         fill="none"
         id="path1" />
    </g>
    <g
       stroke-linecap="round"
       transform="matrix(0.52916667,0,0,0.52916667,-17.896279,89.513108)"
       id="g3">
      <path
         d="m 38.12,0.52 c 6.06,0.68 13.28,4.85 17.74,9.04 4.47,4.19 7.82,10.19 9.06,16.1 1.24,5.91 1.19,13.59 -1.63,19.36 -2.81,5.77 -9.41,12.27 -15.24,15.24 -5.82,2.97 -13.49,3.52 -19.7,2.57 C 22.14,61.88 15.52,58.74 10.77,54.56 6.02,50.38 1.18,43.93 -0.15,37.74 -1.48,31.54 -0.16,22.95 2.81,17.36 5.78,11.78 11.39,7.07 17.67,4.23 23.94,1.39 36.07,0.59 40.46,0.31 44.85,0.04 44.07,1.87 44.01,2.6 M 47,2.07 c 5.89,2.06 11.93,8.01 15.02,13.15 3.09,5.14 4.1,11.37 3.51,17.68 -0.59,6.32 -2.67,15.34 -7.06,20.2 -4.39,4.86 -12.8,7.81 -19.27,8.96 C 32.74,63.21 25.51,62.55 19.68,60.03 13.84,57.5 7.34,51.88 4.21,46.89 1.07,41.9 -0.03,36.25 0.87,30.07 1.76,23.89 5.26,14.89 9.59,9.81 13.92,4.73 20.75,0.94 26.84,-0.43 c 6.09,-1.38 16.39,1.21 19.3,1.97 2.92,0.77 -1.41,2.1 -1.8,2.64"
         stroke="#1e1e1e"
         stroke-width="2"
         fill="none"
         id="path2" />
    </g>
    <g
       stroke-linecap="round"
       transform="matrix(0.52916667,0,0,0.52916667,-16.573363,138.99019)"
       id="g4">
      <path
         d="M 43.11,1.15 C 49.3,2.37 56,7.29 59.82,12.32 c 3.82,5.02 6.08,12.72 6.2,18.98 0.12,6.26 -1.67,13.45 -5.47,18.59 C 56.75,55.04 49.41,60.36 43.22,62.18 37.02,64 29.41,62.79 23.37,60.8 17.32,58.82 10.68,54.98 6.95,50.27 3.22,45.56 1.05,38.75 0.98,32.54 0.91,26.34 3.17,18.22 6.55,13.04 9.92,7.85 14.65,3.37 21.24,1.44 c 6.6,-1.92 20.68,-0.35 24.87,0.05 4.19,0.4 0.7,1.68 0.29,2.34 M 42.13,2.71 C 48.56,4 56.48,7.26 60.43,12.08 64.38,16.9 66,25.46 65.81,31.64 65.62,37.82 62.9,44.29 59.28,49.14 55.65,53.99 49.92,58.78 44.06,60.73 38.2,62.69 30.27,62.3 24.1,60.88 17.94,59.47 10.97,56.9 7.07,52.23 3.18,47.56 0.77,39.09 0.72,32.87 0.67,26.64 3.19,19.88 6.77,14.88 10.36,9.88 16.27,4.95 22.26,2.85 28.24,0.75 39.61,2.64 42.66,2.27 45.72,1.9 40.93,0.36 40.6,0.64"
         stroke="#1e1e1e"
         stroke-width="2"
         fill="none"
         id="path3" />
    </g>
    <g
       stroke-linecap="round"
       transform="matrix(0.52916667,0,0,0.52916667,73.914138,85.279775)"
       id="g5">
      <path
         d="m 34.42,-0.42 c 5.98,-0.29 13.67,3.22 18.86,6.95 5.2,3.73 10.41,9.63 12.32,15.45 1.9,5.83 1.55,13.41 -0.9,19.5 C 62.25,47.56 56.55,54.93 50.9,58.5 45.25,62.08 37.14,63.21 30.8,62.92 24.46,62.62 17.66,60.47 12.86,56.72 8.06,52.97 3.77,46.27 2,40.41 0.23,34.54 0.15,27.27 2.23,21.51 4.3,15.75 8.39,9.31 14.44,5.84 20.49,2.36 33.67,1.12 38.52,0.64 c 4.84,-0.48 4.96,1.95 5,2.33 M 25.18,0.83 c 5.88,-2.06 13.23,-1.82 19.24,0.47 6.02,2.28 13.48,8.06 16.85,13.23 3.38,5.16 3.92,11.91 3.4,17.76 -0.52,5.85 -2.74,12.6 -6.51,17.34 -3.78,4.73 -9.89,9.23 -16.13,11.06 C 35.79,62.53 26.78,62.53 20.71,60.63 14.63,58.73 9.13,54.35 5.58,49.3 2.03,44.26 -1.04,36.63 -0.59,30.36 -0.14,24.08 3.99,16.43 8.29,11.64 12.59,6.85 22.4,3.09 25.21,1.63 28.02,0.18 25.45,2.65 25.14,2.92"
         stroke="#1e1e1e"
         stroke-width="2"
         fill="none"
         id="path4" />
    </g>
    <g
       stroke-linecap="round"
       transform="matrix(0.52916667,0,0,0.52916667,74.178721,141.63603)"
       id="g6">
      <path
         d="m 47.04,3.78 c 5.56,1.97 12.1,7.05 15.08,12.46 2.98,5.41 3.68,13.78 2.81,19.99 -0.88,6.21 -3.46,12.93 -8.07,17.29 -4.61,4.35 -13.06,7.85 -19.6,8.85 -6.54,1 -13.84,0.07 -19.62,-2.85 C 11.86,56.6 5.46,50.38 2.58,44.87 -0.3,39.37 -0.94,32.3 0.37,26.51 1.68,20.72 5.75,14.6 10.43,10.11 15.12,5.62 21.42,0.06 28.48,-0.41 c 7.05,-0.48 19.28,5.65 24.28,7.69 5.01,2.03 6.12,4.25 5.74,4.5 M 43.84,0.99 c 6.08,1.41 12.69,5.92 16.4,10.99 3.71,5.06 5.87,13.05 5.86,19.4 -0.01,6.36 -2.06,13.44 -5.93,18.73 C 56.3,55.4 48.99,61.06 42.86,63.11 36.74,65.15 29.79,64.57 23.41,62.4 17.04,60.22 8.52,55.2 4.61,50.04 0.71,44.89 -0.34,37.63 -0.01,31.44 0.32,25.26 2.55,17.94 6.59,12.96 10.64,7.97 18.07,3.47 24.27,1.54 30.47,-0.39 40.51,1.05 43.8,1.38 c 3.29,0.33 0.17,1.61 0.21,2.14"
         stroke="#1e1e1e"
         stroke-width="2"
         fill="none"
         id="path5" />
    </g>
    <g
       stroke-linecap="round"
       transform="matrix(0.52916667,0,0,0.52916667,163.60789,49.031858)"
       id="g7">
      <path
         d="m 48.41,2.44 c 5.68,2.47 10.93,9.45 13.78,15.17 2.84,5.72 4.24,13.16 3.29,19.14 C 64.52,42.73 60.9,49.31 56.46,53.5 52.02,57.69 45.25,60.73 38.83,61.91 32.4,63.1 23.8,63.32 17.92,60.59 12.04,57.87 6.45,51.1 3.53,45.57 0.61,40.04 -0.61,33.54 0.38,27.42 1.36,21.31 5.02,13.53 9.43,8.9 13.85,4.26 20.3,0.4 26.87,-0.38 33.43,-1.16 44.9,3.08 48.82,4.2 52.74,5.31 50.61,5.92 50.4,6.33 M 34.36,0.6 c 6.02,-0.28 14.6,1.59 19.55,5.21 4.96,3.62 8.59,10.19 10.17,16.51 1.57,6.33 1.4,15.65 -0.71,21.44 -2.1,5.79 -6.57,10.18 -11.92,13.3 -5.36,3.12 -13.71,5.45 -20.21,5.43 C 24.73,62.47 17.31,60.72 12.43,56.97 7.55,53.21 3.43,46.02 1.94,39.97 0.44,33.92 1.25,26.38 3.46,20.65 5.68,14.93 9.89,8.86 15.23,5.64 20.57,2.41 32.09,2.02 35.5,1.31 38.92,0.59 36.02,1.08 35.74,1.37"
         stroke="#1e1e1e"
         stroke-width="2"
         fill="none"
         id="path6" />
    </g>
    <g
       stroke-linecap="round"
       transform="matrix(0.52916667,0,0,0.52916667,-14.721279,187.67353)"
       id="g8">
      <path
         d="m 17.91,4.51 c 5.28,-3 14.06,-5.44 20.49,-4.58 6.44,0.87 13.43,5.34 18.12,9.75 4.69,4.4 9.14,10.76 10.03,16.67 0.9,5.9 -1.54,13.19 -4.67,18.77 C 58.75,50.7 53.35,56.79 47.77,59.81 42.19,62.84 34.66,64.42 28.38,63.26 22.1,62.11 14.82,57.32 10.09,52.9 5.36,48.49 1.23,42.62 0.01,36.78 -1.21,30.93 -1.75,23.95 2.75,17.85 7.25,11.74 21.43,3.08 27.02,0.14 c 5.59,-2.93 9.18,-0.38 9.27,0.08 m 2.33,0.36 c 5.93,0.62 12.69,4.56 17.15,8.78 4.45,4.23 8.35,10.39 9.59,16.56 1.24,6.17 0.51,14.97 -2.15,20.47 -2.66,5.5 -8.32,9.64 -13.8,12.53 C 43.92,61.81 36.91,64.66 30.3,63.7 23.7,62.74 14.72,57.33 9.8,53.16 4.88,48.98 1.78,44.44 0.77,38.64 -0.24,32.84 1.07,24.13 3.73,18.38 6.39,12.63 11,7.27 16.73,4.14 22.45,1.01 34.66,0 38.07,-0.42 41.48,-0.83 37.55,1.03 37.18,1.65"
         stroke="#1e1e1e"
         stroke-width="2"
         fill="none"
         id="path7" />
    </g>
    <g
       stroke-linecap="round"
       transform="matrix(0.52916667,0,0,0.52916667,167.04747,162.27353)"
       id="g9">
      <path
         d="m 24.27,1.41 c 5.8,-1.82 15.49,-1.63 21.7,0.59 6.22,2.22 12.12,7.43 15.59,12.74 3.46,5.32 5.63,13.07 5.21,19.16 -0.41,6.09 -3.53,12.6 -7.71,17.38 C 54.88,56.05 48.19,60.85 41.68,62.53 35.17,64.21 26.21,63.69 20,61.38 13.79,59.07 7.61,53.95 4.42,48.66 1.23,43.37 0.28,35.79 0.85,29.64 1.42,23.49 3.04,16.59 7.84,11.77 12.65,6.96 25.38,2.5 29.69,0.76 34,-0.98 33.58,0.93 33.72,1.34 m 14.04,0.29 c 6.14,1.72 11.53,7.81 14.71,13.2 3.18,5.38 5.25,12.89 4.36,19.12 -0.89,6.24 -5.26,13.59 -9.7,18.28 C 52.7,56.91 46.47,60.79 40.2,62.07 33.93,63.35 25.55,62.46 19.49,59.88 13.43,57.3 6.95,51.65 3.86,46.58 0.78,41.51 0.22,35.49 0.97,29.47 1.72,23.44 3.99,15.28 8.39,10.44 12.79,5.59 21.2,1.5 27.37,0.39 c 6.17,-1.11 14.79,2.82 18.03,3.39 3.24,0.57 1.61,-0.06 1.41,0.04"
         stroke="#1e1e1e"
         stroke-width="2"
         fill="none"
         id="path8" />
    </g>
    <g
       stroke-linecap="round"
       transform="matrix(0.52916667,0,0,0.52916667,165.19539,105.91727)"
       id="g10">
      <path
         d="M 44.21,2.88 C 50,4.55 56.31,8.57 60.1,13.49 63.88,18.4 67.04,26.07 66.9,32.38 66.77,38.69 63.41,46.41 59.29,51.32 55.17,56.23 48.53,60.16 42.2,61.83 35.86,63.49 27.32,63.61 21.29,61.3 15.27,58.99 9.54,53.16 6.04,47.97 2.55,42.78 0.06,36.17 0.32,30.17 0.59,24.18 3.7,16.7 7.64,12.01 c 3.95,-4.7 9.29,-8.77 16.34,-10 7.05,-1.23 20.72,1.41 25.95,2.6 5.23,1.18 5.59,3.92 5.43,4.53 M 39.77,1.22 c 5.88,0.51 11.21,2.6 15.42,6.99 4.21,4.38 8.81,12.81 9.83,19.32 1.03,6.5 -0.58,14.45 -3.67,19.71 -3.1,5.25 -9.43,9.1 -14.9,11.82 -5.48,2.72 -11.8,5.43 -17.94,4.49 C 22.36,62.61 14.36,57.8 9.59,53.42 4.82,49.04 0.61,43.4 -0.13,37.26 -0.86,31.12 2.03,22.19 5.18,16.57 8.33,10.96 13.13,6.38 18.8,3.56 c 5.66,-2.81 17.16,-3.7 20.37,-3.87 3.2,-0.17 -0.9,2.35 -1.16,2.85"
         stroke="#1e1e1e"
         stroke-width="2"
         fill="none"
         id="path9" />
    </g>
    <g
       stroke-linecap="round"
       id="g12"
       transform="matrix(0.52916667,0,0,0.52916667,-142.79851,33.421441)">
      <g
         transform="translate(304.03571,45.5)"
         id="g11">
        <path
           d="M 0.19,-0.61 C 18.56,10.74 92.33,56.47 110.45,67.71 M -1.16,1.69 c 18.27,11 92.99,52.99 111.15,64"
           stroke="#1e1e1e"
           stroke-width="2"
           fill="none"
           id="path10" />
      </g>
    </g>
    <g
       stroke-linecap="round"
       id="g14"
       transform="matrix(0.52916667,0,0,0.52916667,-142.79851,33.421441)">
      <g
         transform="translate(300.03571,133.5)"
         id="g13">
        <path
           d="m -0.5,-0.37 c 17.86,-0.83 90.03,-4.1 108.33,-4.7 M 1.44,-1.61 c 18.19,-0.62 90.83,-1.26 108.75,-1.95"
           stroke="#1e1e1e"
           stroke-width="2"
           fill="none"
           id="path11" />
      </g>
    </g>
    <g
       stroke-linecap="round"
       id="g16"
       transform="matrix(0.52916667,0,0,0.52916667,-142.79851,33.421441)">
      <g
         transform="translate(300.53571,57.5)"
         id="g15">
        <path
           d="M -0.29,-0.85 C 19.11,25.37 97.6,130.12 117.12,156.4 M 1.76,1.31 c 19.7,26.5 98.05,130.42 117.61,156.58"
           stroke="#1e1e1e"
           stroke-width="2"
           fill="none"
           id="path13" />
      </g>
    </g>
    <g
       stroke-linecap="round"
       id="g18"
       transform="matrix(0.52916667,0,0,0.52916667,-142.79851,33.421441)">
      <g
         transform="translate(302.03571,217.5)"
         id="g17">
        <path
           d="M -0.28,-0.64 C 17.93,-11.67 91.8,-54.66 110.35,-65.1 M 1.77,1.64 c 18.47,-10.4 92.64,-54.63 110.68,-65.79"
           stroke="#1e1e1e"
           stroke-width="2"
           fill="none"
           id="path15" />
      </g>
    </g>
    <g
       stroke-linecap="round"
       id="g20"
       transform="matrix(0.52916667,0,0,0.52916667,-142.79851,33.421441)">
      <g
         transform="translate(300.53571,145)"
         id="g19">
        <path
           d="M 1.12,0.37 C 19.41,13.99 92.69,67.76 110.94,81.29 M 0.25,-0.49 c 18.03,13.33 91.47,66.71 109.71,80.07"
           stroke="#1e1e1e"
           stroke-width="2"
           fill="none"
           id="path17" />
      </g>
    </g>
    <g
       stroke-linecap="round"
       id="g22"
       transform="matrix(0.52916667,0,0,0.52916667,-142.79851,33.421441)">
      <g
         transform="translate(303.03571,234.5)"
         id="g21">
        <path
           d="m 0.72,-1.19 c 17.97,0.31 88.44,1.68 105.95,2.2 M -0.36,0.79 c 18.01,0.6 89.12,1.89 106.7,1.76"
           stroke="#1e1e1e"
           stroke-width="2"
           fill="none"
           id="path19" />
      </g>
    </g>
    <g
       stroke-linecap="round"
       id="g24"
       transform="matrix(0.52916667,0,0,0.52916667,-142.79851,33.421441)">
      <g
         transform="translate(305.53571,305.5)"
         id="g23">
        <path
           d="M 0.42,-0.6 C 18.98,-25.91 93.3,-126.8 111.68,-152.32 M -0.82,1.7 c 18.4,-25.58 92.65,-129.81 111.64,-155.52"
           stroke="#1e1e1e"
           stroke-width="2"
           fill="none"
           id="path21" />
      </g>
    </g>
    <g
       stroke-linecap="round"
       id="g26"
       transform="matrix(0.52916667,0,0,0.52916667,-142.79851,33.421441)">
      <g
         transform="translate(308.03571,316)"
         id="g25">
        <path
           d="m -0.34,-0.93 c 17.83,-9.93 90,-49.72 107.76,-59.72 M 1.68,1.19 C 19.35,-8.96 88.85,-51.63 106.69,-62.33"
           stroke="#1e1e1e"
           stroke-width="2"
           fill="none"
           id="path23" />
      </g>
    </g>
    <g
       stroke-linecap="round"
       id="g28"
       transform="matrix(0.52916667,0,0,0.52916667,-142.79851,33.421441)">
      <g
         transform="translate(476.53571,115.5)"
         id="g27">
        <path
           d="m 0.43,0.31 c 16.81,-8.1 83.81,-39.86 100.82,-47.86 M -0.81,-0.57 c 17.17,-7.38 87.25,-37.82 104.37,-45.47"
           stroke="#1e1e1e"
           stroke-width="2"
           fill="none"
           id="path25" />
      </g>
    </g>
    <g
       stroke-linecap="round"
       id="g30"
       transform="matrix(0.52916667,0,0,0.52916667,-142.79851,33.421441)">
      <g
         transform="translate(477.03571,129.5)"
         id="g29">
        <path
           d="m 0.18,-0.93 c 17.66,6.1 88.4,30.33 106.03,36.42 M -1.18,1.19 C 16.37,7.6 87.86,31.05 105.64,37.03"
           stroke="#1e1e1e"
           stroke-width="2"
           fill="none"
           id="path27" />
      </g>
    </g>
    <g
       stroke-linecap="round"
       id="g32"
       transform="matrix(0.52916667,0,0,0.52916667,-142.79851,33.421441)">
      <g
         transform="translate(469.53571,144.5)"
         id="g31">
        <path
           d="m 0.44,0.94 c 20.9,18.37 103.85,91.89 124.33,110.14 M -0.78,0.38 C 20.03,18.89 102.9,94.15 123.96,112.66"
           stroke="#1e1e1e"
           stroke-width="2"
           fill="none"
           id="path29" />
      </g>
    </g>
    <g
       stroke-linecap="round"
       id="g34"
       transform="matrix(0.52916667,0,0,0.52916667,-142.79851,33.421441)">
      <g
         transform="translate(468.53571,215)"
         id="g33">
        <path
           d="M -0.86,0.89 C 19.21,-21.65 100.42,-112.72 120.61,-135.68 M 0.89,0.32 C 20.88,-22.52 100.4,-114.7 120.24,-137.37"
           stroke="#1e1e1e"
           stroke-width="2"
           fill="none"
           id="path31" />
      </g>
    </g>
    <g
       stroke-linecap="round"
       id="g36"
       transform="matrix(0.52916667,0,0,0.52916667,-142.79851,33.421441)">
      <g
         transform="translate(474.03571,224)"
         id="g35">
        <path
           d="M 1.12,-0.13 C 19.68,-7.07 93.73,-34.18 112.16,-40.88 M 0.25,-1.25 c 18.34,-6.82 92.63,-32.02 111.04,-38.3"
           stroke="#1e1e1e"
           stroke-width="2"
           fill="none"
           id="path33" />
      </g>
    </g>
    <g
       stroke-linecap="round"
       id="g38"
       transform="matrix(0.52916667,0,0,0.52916667,-142.79851,33.421441)">
      <g
         transform="translate(477.03571,233)"
         id="g37">
        <path
           d="M 0.93,0.83 C 19.34,6.12 92.38,26.88 110.66,32.07 M -0.04,0.23 C 18.3,5.13 91.92,25.3 110.32,30.25"
           stroke="#1e1e1e"
           stroke-width="2"
           fill="none"
           id="path35" />
      </g>
    </g>
  </g>
</svg>
