<?xml version="1.0" encoding="UTF-8" standalone="no"?>
<!-- Created with Inkscape (http://www.inkscape.org/) -->

<svg
   width="426.88284mm"
   height="419.90271mm"
   viewBox="0 0 426.88284 419.90271"
   version="1.1"
   id="svg1"
   xml:space="preserve"
   inkscape:version="1.4 (e7c3feb100, 2024-10-09)"
   sodipodi:docname="neural-net-key-value-calculation.svg"
   xmlns:inkscape="http://www.inkscape.org/namespaces/inkscape"
   xmlns:sodipodi="http://sodipodi.sourceforge.net/DTD/sodipodi-0.dtd"
   xmlns="http://www.w3.org/2000/svg"
   xmlns:svg="http://www.w3.org/2000/svg"><sodipodi:namedview
     id="namedview1"
     pagecolor="#ffffff"
     bordercolor="#666666"
     borderopacity="1.0"
     inkscape:showpageshadow="2"
     inkscape:pageopacity="0.0"
     inkscape:pagecheckerboard="0"
     inkscape:deskcolor="#d1d1d1"
     inkscape:document-units="mm"
     inkscape:zoom="0.21039601"
     inkscape:cx="1102.6825"
     inkscape:cy="769.97657"
     inkscape:window-width="1440"
     inkscape:window-height="896"
     inkscape:window-x="0"
     inkscape:window-y="0"
     inkscape:window-maximized="1"
     inkscape:current-layer="layer1" /><defs
     id="defs1" /><g
     inkscape:label="Layer 1"
     inkscape:groupmode="layer"
     id="layer1"
     transform="translate(51.257521,-56.509518)"><path
       style="fill:#000000"
       d="m 193.67876,475.58203 c -1.09153,-1.14747 -2.57038,-3.52562 -2.98835,-4.8056 -0.94137,-2.88282 0.94186,-7.71682 3.53343,-9.06989 0.6762,-0.35304 0.80453,-0.35303 1.15772,1.7e-4 0.35324,0.35324 0.22957,0.55326 -1.11696,1.80651 -1.92043,1.78737 -2.32002,2.57421 -2.33913,4.606 -0.0178,1.88783 0.7704,3.77764 2.34054,5.61199 0.68315,0.79811 0.9291,1.31434 0.86886,1.82364 -0.11951,1.01036 -0.51387,1.01772 -1.45611,0.0272 z m 178.06394,0.42504 c -0.1142,-0.29761 0.17283,-0.7123 0.92607,-1.33799 1.23548,-1.02625 1.63575,-2.08506 1.63168,-4.31616 -0.004,-2.37606 -0.59096,-4.26243 -1.97113,-6.3385 -1.16811,-1.75709 -1.23425,-1.94099 -0.83991,-2.33533 0.39434,-0.39434 0.49275,-0.36657 1.2497,0.35258 1.03149,0.97998 1.6194,2.11675 2.36605,4.57494 1.13439,3.73473 0.3458,8.02265 -1.709,9.29259 -1.05472,0.65185 -1.43519,0.67667 -1.65346,0.10787 z m -167.76217,-2.12521 c -0.1819,-0.0734 -0.33073,-0.48327 -0.33073,-0.91082 0,-0.96041 1.04303,-1.59228 1.71196,-1.03712 1.04997,0.8714 -0.0844,2.47122 -1.38123,1.94794 z m 53.27754,-0.2293 c -0.39729,-0.39729 -0.33438,-0.98688 0.17562,-1.64599 0.42371,-0.54759 1.24054,-0.37517 1.56168,0.32965 0.24862,0.54566 0.21753,0.7525 -0.17897,1.19063 -0.57453,0.63485 -1.01376,0.67028 -1.55833,0.12571 z m 48.58705,0.2293 c -0.1819,-0.0734 -0.33073,-0.48327 -0.33073,-0.91082 0,-0.96041 1.04302,-1.59228 1.71195,-1.03712 1.04998,0.8714 -0.0844,2.47122 -1.38122,1.94794 z m 46.83125,0 c -0.1819,-0.0734 -0.33073,-0.48327 -0.33073,-0.91082 0,-0.96041 1.04302,-1.59228 1.71196,-1.03712 1.04997,0.8714 -0.0844,2.47122 -1.38123,1.94794 z m -197.03362,-0.32995 c -0.26443,-0.42786 -0.34357,-11.67653 -0.0833,-11.8374 0.5591,-0.34554 0.79137,0.55802 0.99393,3.86652 0.11736,1.91697 0.27093,3.54295 0.34127,3.61329 0.0703,0.0703 0.88189,-0.35945 1.80345,-0.95509 0.92157,-0.59563 1.91625,-1.04833 2.2104,-1.00599 0.59039,0.085 0.92053,1.00251 0.36121,1.00386 -0.19258,4.6e-4 -1.04016,0.45962 -1.88353,1.02035 l -1.5334,1.01951 0.94729,0.83173 c 0.93505,0.82099 1.07744,0.88394 2.11951,0.93705 0.37238,0.019 0.55401,0.243 0.61303,0.75608 0.17151,1.49115 -1.5572,1.13532 -3.64409,-0.75006 l -1.06999,-0.96666 v 0.67502 c 0,1.37547 -0.73801,2.50014 -1.17579,1.79179 z M 297.45021,472.925 c -0.61597,-0.61597 -0.96493,-1.30284 -1.2035,-2.36886 -0.32022,-1.43093 -0.29599,-1.62752 0.51672,-4.19123 0.52288,-1.64944 1.10182,-2.93899 1.49676,-3.33392 0.63098,-0.63099 1.16878,-0.63224 1.16878,-0.003 0,0.21073 0.37799,0.28696 1.12746,0.22735 2.04744,-0.16284 3.376,1.51316 3.36465,4.24454 -0.01,2.31439 -1.41882,4.87022 -3.18093,5.76918 -1.4769,0.75346 -2.27576,0.66984 -3.28994,-0.34433 z m 3.21583,-1.17163 c 0.75425,-0.4942 2.20197,-3.29012 2.20231,-4.25322 3.2e-4,-0.92593 -0.68723,-2.36338 -1.28292,-2.68218 -0.8251,-0.44158 -1.83796,-0.3398 -2.42104,0.24329 -0.29104,0.29104 -0.63254,0.52916 -0.75889,0.52916 -0.42008,0 -1.15034,3.18433 -0.96131,4.19191 0.40184,2.142 1.72527,2.95164 3.22185,1.97104 z m -116.29646,1.20075 c -0.12841,-0.33925 -0.31659,-1.33654 -0.41818,-2.2162 -0.14889,-1.28924 -0.29633,-1.64838 -0.76034,-1.85208 -0.37023,-0.16254 -0.57563,-0.48873 -0.57563,-0.91417 0,-0.53409 0.11462,-0.64552 0.59531,-0.57868 0.55629,0.0773 0.59531,-0.0143 0.59531,-1.39756 0,-2.51577 0.94266,-3.99486 2.73095,-4.28506 1.26983,-0.20607 2.21813,0.0649 2.57759,0.73658 0.41535,0.77609 -0.0822,1.27856 -0.81364,0.82174 -0.71888,-0.44895 -1.99447,-0.40548 -2.48463,0.0847 -0.54828,0.54828 -1.00053,2.31137 -0.90071,3.51138 0.0802,0.96403 0.0981,0.978 1.64893,1.28408 1.79318,0.35392 2.79776,0.75689 2.79776,1.12226 0,0.44177 -1.00651,0.5919 -2.04143,0.3045 -0.5507,-0.15292 -1.27715,-0.27871 -1.61433,-0.27952 -0.595,-10e-4 -0.61059,0.0581 -0.52917,2.02188 0.0597,1.43861 -0.0112,2.05655 -0.24521,2.13818 -0.18101,0.0631 -0.43417,-0.16276 -0.56258,-0.50201 z m 15.44907,0.31781 c -0.097,-0.15691 -0.0907,-2.08462 0.014,-4.2838 l 0.19033,-3.99851 -1.02614,0.69728 c -1.25062,0.84982 -2.22621,0.92544 -2.22621,0.17256 0,-0.35979 0.39499,-0.72576 1.25677,-1.1644 0.69122,-0.35183 1.54288,-0.88962 1.89256,-1.19508 1.23433,-1.07822 1.3516,-0.83852 1.314,2.68576 -0.0546,5.11775 -0.28222,7.18968 -0.80064,7.28819 -0.2411,0.0458 -0.5177,-0.0451 -0.61468,-0.202 z m 13.88532,-0.15456 c -1.37452,-0.43311 -4.12507,-0.50784 -4.36563,-0.11861 -0.2789,0.45128 -1.68008,0.30398 -1.95263,-0.20527 -0.3666,-0.68501 0.0788,-1.29055 1.22707,-1.66816 1.15791,-0.3808 3.91735,-2.69199 4.45467,-3.73106 0.98068,-1.89642 -0.0408,-3.4457 -1.9586,-2.97058 -0.67327,0.1668 -1.08058,0.46884 -1.32675,0.98383 -0.44285,0.92644 -1.45567,0.90725 -1.58855,-0.0301 -0.11218,-0.79134 0.36508,-1.34439 1.67396,-1.93978 1.2965,-0.58977 2.55387,-0.62261 3.57717,-0.0934 1.00677,0.52062 1.31762,1.14419 1.31762,2.6431 0,1.55822 -0.25478,2.03804 -2.07232,3.9026 l -1.48299,1.52136 h 0.80359 c 1.05069,0 3.57823,0.74324 4.0398,1.18792 0.19912,0.19184 0.28139,0.47929 0.18282,0.63877 -0.23526,0.38067 -1.06379,0.34117 -2.52923,-0.12058 z m 4.61818,-0.23888 c -1.64113,-1.64113 0.14635,-4.79311 2.89376,-5.10279 0.91452,-0.10307 1.25229,-0.0109 1.8231,0.49775 0.76976,0.68587 2.42859,4.88328 2.02778,5.131 -0.41862,0.25872 -1.22439,-0.35726 -1.57519,-1.20417 l -0.33912,-0.81869 -0.82165,0.77683 c -1.63269,1.54364 -2.94872,1.78004 -4.00868,0.72007 z m 2.70712,-1.18948 c 0.90441,-0.55146 1.22683,-1.02634 1.51591,-2.23273 l 0.18315,-0.76436 -1.13858,0.15272 c -0.85599,0.11481 -1.35205,0.38565 -1.99864,1.0912 -0.97655,1.0656 -1.02596,1.27172 -0.44428,1.85339 0.5402,0.54021 0.86004,0.52318 1.88244,-0.10022 z m 31.56845,1.42836 c -1.37452,-0.43311 -4.12507,-0.50784 -4.36562,-0.11861 -0.27891,0.45128 -1.68009,0.30398 -1.95264,-0.20527 -0.3666,-0.68501 0.0788,-1.29055 1.22707,-1.66816 1.15791,-0.3808 3.91735,-2.69199 4.45467,-3.73106 0.98068,-1.89642 -0.0408,-3.4457 -1.9586,-2.97058 -0.67327,0.1668 -1.08058,0.46884 -1.32675,0.98383 -0.44285,0.92644 -1.45567,0.90725 -1.58854,-0.0301 -0.11219,-0.79134 0.36507,-1.34439 1.67395,-1.93978 1.2965,-0.58977 2.55387,-0.62261 3.57717,-0.0934 1.00677,0.52062 1.31762,1.14419 1.31762,2.6431 0,1.55822 -0.25478,2.03804 -2.07232,3.9026 l -1.48299,1.52136 h 0.80359 c 1.05069,0 3.57823,0.74324 4.0398,1.18792 0.19912,0.19184 0.28139,0.47929 0.18282,0.63877 -0.23526,0.38067 -1.06379,0.34117 -2.52923,-0.12058 z m 9.26042,0.11637 c -1.16968,-0.34581 -1.65445,-0.811 -1.43663,-1.37863 0.20956,-0.5461 0.52946,-0.55375 1.96579,-0.047 2.10057,0.74112 3.96875,0.35293 3.96875,-0.82467 0,-0.67488 -1.22242,-1.64716 -2.28554,-1.81786 -1.42141,-0.22823 -1.8155,-0.49185 -1.8155,-1.21448 0,-0.50783 0.24687,-0.71529 1.32292,-1.11174 0.7276,-0.26808 1.49726,-0.65876 1.71034,-0.86818 0.3401,-0.33426 0.33757,-0.43063 -0.0207,-0.78894 -0.38444,-0.38444 -2.62203,-0.57028 -4.07086,-0.3381 -0.38072,0.061 -0.52917,-0.0633 -0.52917,-0.44321 0,-0.85257 1.74082,-1.30929 3.66865,-0.96251 1.8839,0.33888 2.81655,0.90244 2.80523,1.69506 -0.0116,0.81457 -0.54821,1.44588 -1.70865,2.01033 l -0.98594,0.47956 1.28092,0.63716 c 2.32125,1.15465 2.82424,3.26909 1.08632,4.56663 -0.8474,0.63268 -3.46479,0.8474 -4.9559,0.40656 z m 9.2334,-0.31003 c -1.29113,-0.86773 -1.42285,-1.73247 -0.99694,-6.54472 0.33619,-3.79864 0.4009,-4.09586 0.89166,-4.09586 0.6062,0 0.61464,0.12403 0.28271,4.15428 l -0.21141,2.56678 1.01114,-0.27919 c 2.19151,-0.6051 4.34152,0.36356 4.34152,1.95602 0,1.14848 -0.45276,1.77948 -1.67499,2.33442 -1.46923,0.66708 -2.55532,0.63974 -3.64369,-0.0917 z m 3.58107,-1.22818 c 0.60782,-0.67163 0.44535,-1.36315 -0.43655,-1.85815 -0.63501,-0.35642 -0.84216,-0.35744 -1.84732,-0.009 -1.27393,0.44149 -1.56696,1.08108 -0.8555,1.86724 0.31539,0.34849 0.81138,0.50948 1.56969,0.50948 0.75831,0 1.2543,-0.16099 1.56968,-0.50948 z m 35.47199,1.49022 c -0.85317,-0.2687 -1.07457,-0.47301 -1.14206,-1.0539 -0.0984,-0.8469 0.17936,-0.89675 1.80351,-0.32372 1.35237,0.47714 3.21304,0.51759 3.65125,0.0794 0.88167,-0.88167 -0.14972,-2.37935 -1.87773,-2.72667 -1.46149,-0.29375 -1.72046,-0.40469 -1.87306,-0.80236 -0.26177,-0.68217 0.12789,-1.16779 1.16004,-1.44572 0.55334,-0.149 1.28138,-0.49384 1.61786,-0.7663 0.50076,-0.40549 0.55255,-0.56675 0.28539,-0.88865 -0.40797,-0.49157 -2.50071,-0.7457 -3.58351,-0.43515 -1.13079,0.3243 -1.51852,-0.12196 -0.76267,-0.87781 0.49101,-0.49101 0.86603,-0.57875 2.41313,-0.56459 1.31193,0.012 2.0826,0.16287 2.71564,0.53156 1.52632,0.88894 1.24681,2.42263 -0.59151,3.24567 -1.04606,0.46833 -1.11792,0.81418 -0.16918,0.81418 0.2839,0 0.97844,0.46225 1.5434,1.02721 1.28177,1.28177 1.36433,2.29131 0.28606,3.4981 -0.67295,0.75316 -0.91033,0.83835 -2.57969,0.92578 -1.0294,0.0539 -2.30431,-0.0504 -2.89687,-0.23701 z m 9.39807,-0.12126 c -0.50638,-0.25443 -1.09965,-0.78529 -1.31839,-1.17969 -0.89835,-1.61979 1.2086,-4.49521 3.29385,-4.49521 1.08754,0 2.25251,0.87655 2.25251,1.69484 0,0.76381 -0.82274,0.93 -1.26992,0.25651 -0.66782,-1.0058 -2.12082,-0.62618 -2.82651,0.73848 -0.76262,1.47474 0.17145,2.12559 3.05054,2.12559 1.43921,0 1.83964,0.0844 1.83964,0.38756 0,0.21316 -0.2303,0.51082 -0.51177,0.66146 -0.82145,0.43962 -3.48018,0.32788 -4.50995,-0.18954 z m 28.92853,0.063 c -0.0928,-0.24174 -0.0847,-2.16735 0.018,-4.27913 0.20164,-4.1477 0.27209,-3.97617 -1.2115,-2.94997 -0.83623,0.57842 -1.69922,0.63017 -1.89738,0.11377 -0.16697,-0.43513 0.38032,-0.96535 1.67364,-1.62145 0.50933,-0.25837 1.25428,-0.71244 1.65546,-1.00905 1.26644,-0.93629 1.35745,-0.51743 1.09404,5.03512 -0.20971,4.42062 -0.28754,4.98363 -0.69978,5.06204 -0.2551,0.0485 -0.53972,-0.10958 -0.63249,-0.35133 z m 10.58094,0.12193 c -0.18167,-0.18166 -0.23338,-1.60755 -0.14873,-4.10104 0.0729,-2.14818 0.0269,-3.82178 -0.10514,-3.8208 -0.12921,9.6e-4 -0.59211,0.2383 -1.02867,0.52743 -1.00938,0.66848 -2.05788,0.70935 -1.9358,0.0754 0.0815,-0.42333 0.63437,-0.8622 2.50192,-1.9861 0.41624,-0.2505 0.96854,-0.60768 1.22735,-0.79375 0.85774,-0.61669 0.99683,0.18378 0.83771,4.82106 -0.0824,2.4011 -0.20436,4.63352 -0.27105,4.96094 -0.12891,0.63288 -0.61779,0.77662 -1.07759,0.31681 z m 3.9357,-0.13337 c -0.47537,-0.33297 -0.58803,-0.66733 -0.58803,-1.74512 0,-1.6458 0.59418,-2.7151 1.83623,-3.30448 0.85129,-0.40397 1.03276,-0.40723 2.06214,-0.0371 l 1.12871,0.40588 0.014,-1.09169 c 0.0213,-1.66171 0.65032,-5.16915 0.98742,-5.50625 1.07914,-1.07914 1.50112,2.35034 0.67203,5.46179 l -0.44319,1.66324 0.72806,2.05084 c 0.50147,1.41254 0.64289,2.136 0.45441,2.32449 -0.37291,0.3729 -0.94205,-0.12818 -1.37162,-1.20759 -0.18629,-0.46812 -0.37691,-0.89996 -0.42361,-0.95964 -0.0467,-0.0597 -0.51602,0.3354 -1.04294,0.87796 -1.45372,1.49684 -2.86491,1.87223 -4.01363,1.06764 z m 2.45932,-1.33529 c 0.67314,-0.44106 1.71515,-1.93028 1.71515,-2.45125 0,-0.17709 -0.47086,-0.2995 -1.15199,-0.2995 -1.8635,0 -3.28039,1.81179 -2.23468,2.8575 0.42932,0.42931 0.89918,0.39931 1.67152,-0.10675 z m -130.44328,0.62268 c -0.0631,-0.1819 -0.14866,-0.80697 -0.19013,-1.38906 l -0.0754,-1.05833 h -1.32291 c -1.16419,0 -1.33292,-0.0703 -1.40624,-0.58596 -0.0872,-0.61321 0.24969,-0.77491 1.9354,-0.92899 0.74886,-0.0685 0.79835,-0.14456 0.87507,-1.34574 0.0728,-1.13954 0.14221,-1.26452 0.66146,-1.19062 0.43805,0.0623 0.59039,0.27696 0.62197,0.87631 0.023,0.43656 0.0528,0.94258 0.0661,1.12448 0.0155,0.21051 0.44531,0.33073 1.18254,0.33073 0.7209,0 1.28611,0.15408 1.49691,0.40809 0.47571,0.57318 0.0702,0.86668 -1.33222,0.96427 l -1.19063,0.0829 -0.025,1.21553 c -0.0138,0.66855 -0.1101,1.35316 -0.21405,1.52136 -0.25118,0.40641 -0.93873,0.39059 -1.08287,-0.0249 z m 99.49084,0.0196 c -0.0672,-0.19266 -0.15616,-0.82653 -0.19764,-1.40862 l -0.0754,-1.05833 h -1.31618 c -1.07677,0 -1.33418,-0.0905 -1.4151,-0.49746 -0.12795,-0.64349 0.37713,-0.94865 1.57849,-0.9537 1.06853,-0.004 1.28508,-0.29862 1.28508,-1.74548 0,-0.71909 0.10531,-0.9044 0.51396,-0.9044 0.4155,0 0.52953,0.2154 0.59531,1.12448 l 0.0814,1.12448 1.2752,0.14649 c 1.19678,0.13749 1.89845,0.61821 1.60214,1.09764 -0.0718,0.11609 -0.71279,0.21107 -1.42455,0.21107 h -1.29409 l -0.0794,1.51879 c -0.0627,1.19911 -0.17698,1.53736 -0.54317,1.60705 -0.25511,0.0485 -0.51883,-0.0694 -0.58606,-0.26201 z m -165.65034,-1.10052 c -0.0932,-0.37122 -0.0987,-0.78931 -0.0123,-0.92909 0.0864,-0.13978 1.39066,-0.33823 2.89837,-0.441 2.83886,-0.19349 3.87354,0.0206 3.87354,0.80164 0,0.45483 -0.53587,0.5839 -3.175,0.76476 -1.0914,0.0748 -2.30631,0.21308 -2.69978,0.30731 -0.61159,0.14645 -0.73999,0.0734 -0.8848,-0.50362 z m 114.95974,-1.24522 c -0.29439,-0.18357 -0.31495,-0.34682 -0.0893,-0.70903 0.23382,-0.37533 0.68895,-0.47864 2.24896,-0.51053 1.07571,-0.022 2.17808,0.0789 2.44971,0.22427 0.44077,0.23582 0.45086,0.30727 0.0938,0.66431 -0.46147,0.46147 -4.08498,0.71647 -4.70318,0.33098 z m -110.13189,-1.47972 c -0.0923,-0.0923 -1.15396,-0.24115 -2.3592,-0.33073 -1.96067,-0.14574 -2.19135,-0.21859 -2.19135,-0.69205 0,-0.48483 0.20156,-0.5355 2.40551,-0.60469 2.34297,-0.0736 3.8122,0.20067 3.8122,0.71153 0,0.66107 -1.2405,1.3426 -1.66716,0.91594 z m -188.965136,-2.84721 c -1.2809,-0.5684 -1.79861,-1.34734 -1.91153,-2.87603 -0.12369,-1.67442 0.4757,-2.80718 1.81415,-3.42846 0.83469,-0.38745 4.61701,-0.75971 11.8713398,-1.16839 3.13357996,-0.17653 4.19623996,-0.47964 4.34887996,-1.24044 0.0634,-0.31611 0.18201004,-10.39557 0.26354004,-22.39878 0.12287,-18.09096 0.0827,-22.36783 -0.23459004,-25.00313 -0.66061,-5.48603 -1.22959,-11.16305 -1.48099,-14.77667 -0.56151996,-8.07115 -1.22540996,-13.58663 -2.37794996,-19.75555 -0.31474,-1.68459 -0.61735,-4.99177 -0.76878,-8.40188 -0.13735,-3.09307 -0.34135,-5.77197 -0.45333,-5.95313 -0.11198,-0.18115 -0.14839,-6.10389 -0.0809,-13.16165 0.0675,-7.05776 0.11784,-16.04698 0.11193,-19.97604 -0.0111,-7.39626 -0.15551,-8.95731 -2.09696,-22.67133 -0.22016,-1.55517 -0.32927,-3.34573 -0.24247,-3.97901 0.19828,-1.44655 -0.0256,-1.64524 -2.42065,-2.14898 -2.7785598,-0.58438 -4.7796598,-1.42445 -5.5369398,-2.32443 -1.83897,-2.18549 0.4042,-5.02298 3.18438,-4.02807 0.57088,0.2043 2.0499998,0.48892 3.2869298,0.6325 2.91868,0.3388 5.5655,1.14006 6.27785,1.90047 0.86650996,0.92498 1.11036996,1.82761 1.53953996,5.69851 0.27542,2.48409 0.37658,5.75231 0.33266,10.74706 -0.0347,3.9476 0.0195,8.48713 0.1204,10.08786 0.10094,1.60073 0.31169,6.77995 0.46835,11.50937 0.15665,4.72943 0.46144004,10.22225 0.67731004,12.20626 0.21587,1.98402 0.5071,5.61543 0.64717,8.0698 0.14006,2.45437 0.43221,5.73766 0.6492,7.29621 0.217,1.55855 0.51739,4.76899 0.66753,7.13431 0.15015,2.36533 0.50109,5.61452 0.77987,7.22044 0.62354,3.59187 1.74072,11.74267 2.37664,17.33965 1.18227,10.40546 1.67732,25.24279 1.71262,51.32917 l 0.0227,16.80104 -0.57972,1.08338 c -1.16778,2.18232 -4.02958,3.99784 -6.62918,4.20552 -0.83729004,0.0669 -4.67751,0.18035 -8.53381,0.25213 -5.4907198,0.10221 -7.1836198,0.0541 -7.8052098,-0.22171 z m -21.43125,-2.84996 c -0.29104,-0.16097 -0.80638,-0.5443 -1.1452,-0.85185 -0.74339,-0.67479 -3.94528,-1.20333 -6.15394,-1.01585 -1.686609,0.14317 -3.127669,-0.38604 -3.785629,-1.39021 -0.22007,-0.33587 -0.64425,-1.33536 -0.94263,-2.22109 -0.51961,-1.54242 -0.54029,-2.13298 -0.48975,-13.98477 0.0334,-7.84574 -0.0679,-14.00728 -0.27705,-16.83632 -0.25843,-3.49638 -0.26663,-7.87657 -0.0379,-20.24062 0.16056,-8.67826 0.2572,-19.46959 0.21475,-23.98073 -0.0424,-4.51115 0.0245,-12.19068 0.14878,-17.06563 0.18779,-7.36648 0.15381,-9.67587 -0.20119,-13.67303 -0.23493,-2.64521 -0.43101,-6.8124 -0.43574,-9.26041 -0.005,-2.44802 -0.18769,-6.11781 -0.40659,-8.1551 -0.34262,-3.18871 -0.94299,-24.60002 -1.02011,-36.38021 -0.0257,-3.92888 0.35851,-4.7917 2.6496,-5.94997 1.55029,-0.78376 1.60158,-0.79053 5.929439,-0.78356 4.4919,0.007 7.64874,0.51321 9.91666,1.58941 1.99258,0.94554 1.94778,3.8077 -0.0746,4.7674 -0.86706,0.41145 -1.05816,0.41221 -2.72121,0.0108 -2.57975,-0.62266 -4.62681,-0.78644 -7.17567,-0.57413 l -2.239639,0.18657 -0.34593,6.13142 c -0.50144,8.88778 -0.42547,15.11212 0.2404,19.69654 0.30161,2.07655 0.669499,5.23171 0.817529,7.01146 0.14803,1.77976 0.44558,4.45992 0.66123,5.95591 0.5113,3.54702 0.49782,9.76533 -0.0348,16.05299 -0.33785,3.98829 -0.39007,6.75047 -0.25032,13.24161 0.0971,4.51114 0.21774,16.53646 0.26804,26.72292 0.0981,19.8658 0.45431,33.42114 1.0568,40.21666 0.20644,2.32834 0.44448,7.85648 0.52899,12.28476 0.0845,4.42828 0.19352,8.09127 0.24223,8.13998 0.0487,0.0487 0.76246,0.2641 1.58613,0.47863 0.82366,0.21454 2.86915,1.06738 4.54553,1.8952 3.238,1.59897 3.97514,2.31094 4.25736,4.11194 0.1875,1.19659 -0.8264,3.04661 -2.02075,3.68714 -1.01913,0.54657 -2.49849,0.6281 -3.30482,0.18213 z m 80.43333,-0.84943 c -1.59096,-0.75026 -2.31073,-1.49183 -2.98475,-3.07514 -1.09372,-2.5692 -1.1334,-3.25681 -1.21377,-21.03437 -0.0728,-16.09747 -0.36059,-25.4417 -1.22094,-39.64016 -0.39574,-6.53099 -0.7857,-11.83006 -0.93809,-12.74734 -0.60822,-3.66121 -0.91828,-10.71333 -0.91626,-20.84029 0.003,-13.35088 0.43551,-20.428 1.9457,-31.8118 0.21236,-1.60073 0.46392,-4.87495 0.55903,-7.27604 0.1581,-3.99153 1.04002,-14.11055 1.31378,-15.07405 0.20312,-0.71491 0.90955,-9.80952 1.06411,-13.69939 0.14617,-3.67887 0.13659,-3.77031 -0.39517,-3.77031 -0.89055,0 -1.84384,-1.16274 -1.84384,-2.24896 0,-1.91758 2.02668,-2.88797 3.54207,-1.69596 0.59535,0.4683 0.82716,0.50973 1.51348,0.27047 0.61669,-0.21497 1.02155,-0.19433 1.69333,0.0864 1.08603,0.45377 1.63566,1.25674 1.87146,2.73406 0.0992,0.62169 0.28542,1.19524 0.41376,1.27456 0.46238,0.28576 3.06234,-1.16575 4.69079,-2.61879 1.82658,-1.62983 3.85008,-2.56122 5.99879,-2.76117 1.15524,-0.1075 1.44617,-0.0308 2.15918,0.56915 0.94094,0.79175 1.6171,2.51835 1.82289,4.65486 0.15424,1.60127 -0.35805,2.78192 -1.53427,3.53601 -1.16938,0.7497 -2.82757,0.6459 -3.88413,-0.24314 l -0.80324,-0.67589 -1.92904,1.43038 c -2.59747,1.92603 -3.78176,2.3537 -6.69153,2.41643 l -2.38125,0.0513 -0.31965,3.0263 c -0.75752,7.17206 -0.86441,9.34462 -0.90393,18.37213 -0.0229,5.23875 -0.13552,10.77515 -0.2502,12.30312 -0.63554,8.46809 -0.85131,37.63041 -0.31224,42.20104 0.83705,7.09713 1.77678,16.92494 2.04924,21.43125 0.0792,1.30969 0.26977,4.10766 0.42353,6.21771 0.4382,6.01353 0.46585,10.86535 0.0897,15.74271 -0.41292,5.35423 -0.45476,13.41792 -0.0906,17.4625 0.14413,1.60073 0.34819,6.3037 0.45347,10.45104 0.10528,4.14734 0.27923,7.67852 0.38654,7.84706 0.14189,0.22283 0.48111,0.16825 1.24343,-0.20006 0.57658,-0.27857 1.83087,-0.68798 2.78732,-0.9098 1.65364,-0.3835 1.79863,-0.37693 2.95348,0.13392 0.66795,0.29547 1.58628,0.5374 2.04073,0.53762 1.18468,5.9e-4 2.56921,0.77937 3.29195,1.85168 0.51159,0.75903 0.60402,1.17692 0.5125,2.31714 -0.12568,1.56587 -0.81634,2.53341 -2.24209,3.14091 -1.17358,0.50006 -1.83038,0.45662 -3.21252,-0.21246 l -1.18829,-0.57524 -3.32702,0.84027 c -3.97062,1.0028 -4.51787,1.02126 -6.23744,0.21035 z m 34.13126,0.23392 c -1.82385,-0.65143 -2.80243,-2.4498 -2.37989,-4.37361 0.19251,-0.87648 3.95633,-4.7587 5.3762,-5.54531 0.78376,-0.43421 3.93863,-0.48842 8.18233,-0.14059 l 2.4474,0.20059 -8.6e-4,-3.93496 c -9.2e-4,-4.23975 -0.35205,-13.80858 -0.78033,-21.26518 -0.81194,-14.13624 -0.85746,-17.01895 -0.53683,-33.99896 0.17586,-9.31333 0.34347,-21.16005 0.37248,-26.32604 0.044,-7.84282 0.13341,-9.82929 0.54166,-12.03854 0.65276,-3.53245 0.81778,-14.60006 0.41818,-28.04583 -0.37837,-12.73129 -0.99259,-20.66991 -2.129,-27.51667 -0.14492,-0.87313 -0.26418,-2.33391 -0.26502,-3.24619 l -0.002,-1.65868 -0.7276,0.16249 c -0.40019,0.0894 -1.56864,0.38929 -2.59657,0.6665 -3.20427,0.8641 -6.67957,0.55197 -8.10112,-0.72761 -0.94524,-0.85085 -2.06334,-3.07293 -2.06598,-4.1059 -0.003,-1.19294 0.99595,-2.48667 2.10894,-2.73112 1.02461,-0.22505 2.41099,0.44701 3.00839,1.45833 0.2565,0.43421 0.67215,0.78947 0.92366,0.78947 0.25152,0 1.52471,-0.44648 2.82932,-0.99219 2.17965,-0.91173 2.57583,-0.99196 4.88554,-0.9894 3.21205,0.004 4.71877,0.60458 5.53715,2.20873 0.8502,1.66653 1.17542,7.35821 0.9697,16.97078 -0.095,4.43838 -0.22928,8.6651 -0.29843,9.39271 -0.21757,2.28935 -0.6528,22.67537 -0.6379,29.87889 0.008,3.79401 0.12838,7.85069 0.26785,9.01486 0.70168,5.85688 1.24548,51.21897 0.72522,60.49491 -0.25777,4.5958 -0.23947,5.10148 0.26811,7.40948 0.88,4.00137 2.42872,20.02267 2.42872,25.12479 0,1.89945 0.1316,4.56943 0.29245,5.9333 0.26425,2.24059 0.24511,2.57636 -0.19843,3.48119 -0.26999,0.55078 -0.90761,1.2815 -1.41694,1.62381 -0.78375,0.52675 -1.1293,0.59654 -2.24896,0.4542 -0.7276,-0.0925 -1.56104,-0.16359 -1.85208,-0.15797 -3.82815,0.0739 -6.1186,-0.0285 -7.54062,-0.33709 -0.94589,-0.20528 -1.88951,-0.28304 -2.09694,-0.17281 -0.20743,0.11023 -0.68368,0.64885 -1.05834,1.19692 -1.2969,1.89722 -2.81403,2.49843 -4.64993,1.8427 z m -104.11355,-25.26948 c -0.38847,-0.38847 -0.52917,-0.88194 -0.52917,-1.85597 0,-1.14188 0.12626,-1.46454 0.90586,-2.3151 0.80219,-0.8752 1.04322,-0.98543 2.10627,-0.96318 0.66023,0.0138 1.36915,0.16516 1.57537,0.33631 0.4656,0.38641 0.69521,-0.30557 0.70056,-2.11126 0.004,-1.51193 0.45541,-3.96717 0.79008,-4.30185 0.15619,-0.15619 0.40199,-0.12283 0.65753,0.0892 0.56127,0.46582 0.55167,3.99155 -0.0154,5.65584 -0.41144,1.20751 -0.40327,1.30385 0.287,3.38492 0.51353,1.54819 0.63041,2.22213 0.42161,2.43093 -0.3945,0.39449 -1.01845,-0.25735 -1.45116,-1.51603 l -0.33668,-0.97933 -0.68891,0.90321 c -1.25307,1.64286 -3.41511,2.25011 -4.42295,1.24226 z m 2.74773,-1.34627 c 0.69011,-0.54285 1.4856,-1.79838 1.4856,-2.34475 0,-0.15275 -0.52519,-0.27773 -1.1671,-0.27773 -0.97844,0 -1.27783,0.1316 -1.85208,0.81405 -0.79671,0.94683 -0.87661,1.69388 -0.22196,2.07518 0.67634,0.39393 0.9729,0.34887 1.75554,-0.26675 z m 85.66807,1.11508 c -0.19933,-0.12637 -0.31405,-0.5527 -0.26459,-0.98327 0.10621,-0.92447 1.39761,-1.5583 1.81865,-0.89261 0.76018,1.20188 -0.40281,2.60571 -1.55406,1.87588 z m -4.1407,-0.55397 c -0.097,-0.15691 -0.0907,-2.08462 0.014,-4.2838 l 0.19033,-3.99851 -1.02614,0.69728 c -1.25062,0.84982 -2.22621,0.92544 -2.22621,0.17257 0,-0.3598 0.39499,-0.72576 1.25677,-1.16441 0.69122,-0.35183 1.54288,-0.88962 1.89257,-1.19508 1.23432,-1.07822 1.3516,-0.83851 1.31399,2.68576 -0.0546,5.11775 -0.28221,7.18968 -0.80064,7.28819 -0.2411,0.0458 -0.5177,-0.0451 -0.61467,-0.202 z m 10.53765,-0.0225 c -0.18166,-0.18167 -0.23337,-1.60756 -0.14872,-4.10104 0.0729,-2.14818 0.0269,-3.82178 -0.10515,-3.8208 -0.12921,9.6e-4 -0.59211,0.2383 -1.02867,0.52742 -1.00938,0.66849 -2.05788,0.70935 -1.9358,0.0754 0.0815,-0.42333 0.63437,-0.86219 2.50193,-1.9861 0.41623,-0.25049 0.96854,-0.60768 1.22734,-0.79375 0.85774,-0.61668 0.99683,0.18378 0.83771,4.82107 -0.0824,2.40109 -0.20436,4.63351 -0.27105,4.96093 -0.1289,0.63289 -0.61778,0.77662 -1.07759,0.31682 z M 240.5446,435.14528 c -0.44458,-0.12921 -1.07795,-0.52193 -1.40749,-0.87271 -0.5426,-0.57757 -0.66613,-0.60509 -1.30834,-0.29156 -1.10584,0.53988 -5.98562,1.2566 -7.70755,1.13205 -2.24724,-0.16255 -3.42331,-1.02284 -4.59209,-3.35909 l -0.92395,-1.84686 0.1286,-4.44949 c 0.0932,-3.22361 0.32274,-5.50647 0.83325,-8.28595 0.70198,-3.82194 0.70465,-3.88601 0.70465,-16.93333 0,-10.7622 -0.0816,-13.78077 -0.45783,-16.93333 -0.25181,-2.11006 -0.64333,-6.09865 -0.87004,-8.86354 -0.22671,-2.7649 -0.6496,-6.45584 -0.93974,-8.20209 -0.29015,-1.74625 -0.6433,-4.72281 -0.78479,-6.61458 -0.14148,-1.89177 -0.3156,-3.73724 -0.38693,-4.10104 -0.14104,-0.71936 -0.74647,-5.89623 -1.20675,-10.31875 -0.15903,-1.52797 -0.47079,-3.55203 -0.6928,-4.49792 -0.22202,-0.94589 -0.50169,-2.19604 -0.6215,-2.77812 -0.24669,-1.19851 0.0889,-5.83044 0.65168,-8.99584 0.207,-1.16416 0.45315,-3.48588 0.54701,-5.15937 0.0939,-1.67349 0.34024,-4.70959 0.54752,-6.74688 0.20727,-2.03729 0.50098,-5.60916 0.65268,-7.9375 0.30022,-4.60789 0.87598,-9.59419 1.33599,-11.57015 0.62036,-2.66478 3.42798,-3.85006 8.32852,-3.51604 2.46843,0.16825 2.92103,0.27369 3.45145,0.80411 0.80987,0.80987 1.03153,1.80812 0.62137,2.79834 -0.51554,1.24462 -1.23629,1.55367 -4.05523,1.73884 -1.40665,0.0924 -2.75684,0.31373 -3.00043,0.49185 -0.34902,0.25521 -0.48452,0.98974 -0.63928,3.46553 -0.10802,1.72793 -0.58317,5.70153 -1.0559,8.83023 -0.84764,5.61004 -0.85976,5.82364 -0.87767,15.47813 -0.0174,9.38519 0.006,9.87155 0.57192,11.77395 1.25777,4.22977 3.2612,15.31222 3.51549,19.44688 0.13425,2.18281 0.47688,5.3975 0.76139,7.14375 0.52064,3.19548 0.8527,6.20393 1.35796,12.30312 0.90248,10.89418 1.04361,13.99263 1.04242,22.88646 -10e-4,8.66808 -0.0618,9.98917 -0.67385,14.68438 -0.66968,5.13711 -1.0745,11.1125 -0.75286,11.1125 0.0929,0 1.20145,-0.1889 2.46341,-0.41978 2.24399,-0.41055 2.32922,-0.40691 3.87438,0.16511 0.86895,0.32169 2.17522,0.66535 2.90282,0.76368 1.62711,0.21989 2.31185,0.58125 3.04054,1.6046 1.56404,2.19649 0.53645,5.1754 -2.08783,6.05247 -1.02161,0.34143 -1.17302,0.34262 -2.2902,0.0179 z m 22.01238,-0.74867 c -1.19832,-0.79004 -1.75347,-1.84681 -1.75543,-3.34159 -0.002,-1.79647 0.75481,-2.89448 2.55476,-3.70481 0.4602,-0.20718 1.38584,-0.85195 2.05699,-1.43282 2.09884,-1.81654 5.01412,-2.3282 7.62065,-1.33752 0.76554,0.29097 1.48119,0.5291 1.59033,0.52917 0.35694,2.4e-4 0.20881,-1.72675 -0.32819,-3.8264 -0.78282,-3.06081 -1.50269,-9.10171 -2.3974,-20.11826 -0.16546,-2.03729 -0.76719,-6.08541 -1.33717,-8.99583 -0.56998,-2.91042 -1.21574,-6.72042 -1.43501,-8.46667 -0.21928,-1.74625 -0.51398,-3.9489 -0.65489,-4.89479 -0.14092,-0.94589 -0.43842,-4.04151 -0.66113,-6.87917 -0.2227,-2.83765 -0.57238,-6.11187 -0.77706,-7.27604 -0.27905,-1.58711 -0.38706,-5.32707 -0.43173,-14.94896 l -0.0596,-12.83229 1.20696,-5.82083 c 1.24971,-6.02697 3.31361,-15.28423 4.6896,-21.03438 0.43528,-1.81901 0.96002,-4.20026 1.16609,-5.29166 0.20607,-1.09141 0.61104,-2.60559 0.89992,-3.36485 0.76381,-2.00748 0.63958,-2.06063 -3.98333,-1.70416 -2.07264,0.15982 -5.88666,0.35423 -8.47561,0.43203 -3.88823,0.11684 -4.84203,0.0717 -5.48226,-0.25936 -1.53629,-0.79444 -1.80055,-2.60125 -0.56166,-3.84014 l 0.75827,-0.75827 5.66583,0.15685 c 5.16537,0.143 5.94441,0.10418 8.81965,-0.43945 3.73035,-0.70532 6.15475,-0.66002 7.02917,0.13132 1.21244,1.09724 1.91694,2.73296 2.04648,4.75158 0.25009,3.8969 -1.25369,14.31889 -2.95864,20.50486 -3.47582,12.6112 -3.59618,13.52169 -3.7775,28.575 -0.12434,10.32258 -0.0812,12.79294 0.26802,15.34584 0.22891,1.67349 0.48364,4.59052 0.56606,6.48229 0.48517,11.13608 1.13847,16.81821 2.64655,23.01875 0.35393,1.45521 0.94677,4.31271 1.31741,6.35 0.59177,3.25269 0.89527,5.41812 2.02107,14.41979 0.1365,1.09141 0.55639,3.29406 0.93311,4.89479 0.55458,2.35657 0.69221,3.64049 0.72319,6.74689 l 0.0383,3.83646 -0.87993,1.79296 c -1.58644,3.23252 -3.02996,3.46137 -8.09248,1.28295 -1.73337,-0.74587 -3.30926,-1.35613 -3.50198,-1.35613 -0.19271,0 -0.65183,0.4555 -1.02025,1.01222 -1.32555,2.00304 -4.29211,2.8177 -6.04714,1.66063 z m -9.64176,-32.88827 c -0.46493,-0.46493 -0.3882,-1.124 0.19198,-1.64906 0.63914,-0.57841 1.35165,-0.45451 1.62364,0.28236 0.414,1.12154 -0.99794,2.18438 -1.81562,1.3667 z m -7.8003,-0.41714 c -1.00632,-0.62352 -1.77762,-2.32095 -1.77762,-3.91206 0,-1.74681 1.19824,-5.2647 2.14569,-6.29948 0.70324,-0.76805 0.76868,-0.7896 0.90694,-0.29861 0.12713,0.45146 0.33375,0.51621 1.40702,0.44096 1.08776,-0.0763 1.36929,0.0158 2.08032,0.67996 2.04983,1.91483 1.60113,6.22925 -0.8929,8.58568 -1.35918,1.2842 -2.6583,1.55398 -3.86945,0.80355 z m 2.93467,-1.77725 c 1.04908,-0.88274 1.9023,-2.77182 1.9023,-4.2118 0,-2.43056 -2.38105,-3.76183 -3.70893,-2.07371 -0.31478,0.40019 -0.64561,0.66808 -0.73517,0.59532 -0.32997,-0.26807 -0.87491,2.29221 -0.77476,3.64005 0.18162,2.44446 1.71873,3.39462 3.31656,2.05014 z m 10.84262,1.7029 c -0.77061,-0.44925 -0.86003,-1.88378 -0.19828,-3.18092 l 0.58592,-1.14849 -0.58174,-0.40736 c -2.5748,-1.80302 -2.98011,-2.73369 -1.61411,-3.70637 1.10786,-0.78887 2.86318,-1.51223 4.19095,-1.72707 1.0459,-0.16923 1.20931,-0.11327 2.0477,0.70129 1.30711,1.26995 1.21631,1.94412 -0.46104,3.42321 l -1.37797,1.21509 1.11329,1.05905 c 1.41396,1.34507 1.45602,2.10815 0.17804,3.23023 -0.76808,0.67439 -1.15824,0.81973 -2.18281,0.81312 -0.68616,-0.004 -1.45114,-0.12673 -1.69995,-0.27178 z m 2.9528,-1.50843 c 0.69506,-0.56282 0.53743,-1.11923 -0.48879,-1.72544 -0.70709,-0.41768 -0.77461,-0.41569 -1.18233,0.0348 -0.23783,0.26279 -0.43242,0.85539 -0.43242,1.31687 0,0.74876 0.0823,0.83907 0.76444,0.83907 0.42044,0 1.02304,-0.2094 1.3391,-0.46534 z m -0.22203,-5.11555 c 0.71142,-0.59563 1.29349,-1.24508 1.29349,-1.44322 0,-0.45942 -1.56791,-0.76101 -2.77708,-0.53417 -1.08521,0.20359 -2.33974,1.20532 -2.05136,1.638 0.17935,0.26911 1.91537,1.41899 2.14589,1.42137 0.0526,5.5e-4 0.67764,-0.48635 1.38906,-1.08198 z m -286.832326,5.81477 c -1.20821,-0.48206 -1.59294,-1.03612 -1.59294,-2.29408 0,-1.04571 0.13538,-1.3198 1.15582,-2.34024 0.99169,-0.99169 1.31103,-1.15581 2.24895,-1.15581 1.21838,0 2.15148,0.6921 2.15148,1.5958 0,0.78532 -0.75106,0.96413 -1.2225,0.29106 -0.53491,-0.7637 -1.37499,-0.70926 -2.26875,0.14701 -1.63766,1.56898 -0.63489,2.72863 2.3595,2.72863 1.51461,0 1.9255,0.0827 1.9255,0.38756 0,0.21316 -0.23029,0.51082 -0.51177,0.66146 -0.63969,0.34235 -3.36807,0.32861 -4.24529,-0.0214 z m 96.34786,-0.46508 c -0.19933,-0.12636 -0.31405,-0.5527 -0.26458,-0.98327 0.1062,-0.92446 1.3976,-1.5583 1.81865,-0.89261 0.76018,1.20189 -0.40282,2.60571 -1.55407,1.87588 z m -8.02597,-0.61402 c -1.86585,-1.61447 -2.05024,-4.5882 -0.50979,-8.22179 0.9019,-2.12738 1.7987,-3.06051 2.04312,-2.12587 0.10209,0.3904 0.33013,0.46907 1.13675,0.39214 2.15159,-0.20518 3.52684,1.41863 3.56475,4.20904 0.0532,3.91695 -4.0154,7.66688 -6.23483,5.74648 z m 3.163,-1.66222 c 1.90673,-1.60441 2.45632,-5.15467 0.99283,-6.41352 -2.74725,-2.36309 -5.9056,3.02769 -3.7243,6.35676 0.6009,0.9171 1.68232,0.93957 2.73147,0.0568 z m 9.18363,1.63609 c -0.85316,-0.26869 -1.07456,-0.473 -1.14205,-1.0539 -0.0978,-0.8421 0.0897,-0.87358 1.91171,-0.32085 1.56781,0.47561 3.11064,0.50893 3.54305,0.0765 0.88167,-0.88166 -0.14972,-2.37934 -1.87773,-2.72666 -1.66842,-0.33535 -1.77352,-0.40627 -1.77352,-1.1968 0,-0.67355 0.13162,-0.80116 1.09336,-1.06013 1.44294,-0.38855 2.08164,-0.80954 2.08164,-1.37209 0,-0.71211 -2.16203,-1.06635 -3.9026,-0.63943 -0.74906,0.18372 -0.8599,0.14417 -0.8599,-0.30688 0,-0.88856 0.72367,-1.2226 2.61118,-1.20531 3.85482,0.0353 5.16658,2.21324 2.2276,3.69851 -1.12102,0.56653 -1.21813,0.89296 -0.26564,0.89296 0.28391,0 0.97844,0.46224 1.54341,1.02721 1.32334,1.32334 1.40387,2.48166 0.24944,3.58768 -0.66769,0.63969 -1.03277,0.7584 -2.57969,0.83882 -0.99451,0.0517 -2.27614,-0.0557 -2.86026,-0.23964 z m 161.513696,-1.25636 c -0.29439,-0.18357 -0.31495,-0.34682 -0.0893,-0.70903 0.23381,-0.37533 0.68894,-0.47864 2.24896,-0.51053 1.0757,-0.022 2.17807,0.0789 2.44971,0.22427 0.44077,0.23582 0.45086,0.30727 0.0938,0.66431 -0.46147,0.46147 -4.08498,0.71647 -4.70318,0.33098 z m -182.005176,-1.9568 c -0.22373,-0.26958 -0.19455,-0.45937 0.11881,-0.77273 0.32425,-0.32425 0.86323,-0.39489 2.45653,-0.32197 2.5861,0.11836 2.43802,0.086 2.43802,0.53338 0,0.57888 -0.31285,0.67521 -2.60419,0.80188 -1.56626,0.0866 -2.18929,0.0244 -2.40917,-0.24056 z m -32.88155,-20.92348 c -0.93974,-0.52392 -1.26342,-1.16739 -1.26342,-2.51164 0,-1.96257 1.77965,-3.14674 3.53035,-2.34906 0.84363,0.38438 1.29218,1.26109 1.32713,2.5939 0.0499,1.90331 -1.96576,3.1746 -3.59406,2.2668 z m 135.647566,-6.23045 c -0.0959,-0.1552 -0.0942,-0.36356 0.004,-0.46302 0.0981,-0.0995 2.10431,-0.92048 4.45827,-1.82449 2.35396,-0.90402 4.2204,-1.65304 4.14764,-1.66449 -1.26555,-0.19928 -31.20236,-0.7784 -40.55671,-0.78457 -11.18379,-0.007 -12.71844,-0.0576 -13.29531,-0.43563 -0.35868,-0.23502 -0.65215,-0.59221 -0.65215,-0.79375 0,-0.44876 0.26967,-0.45101 13.62604,-0.11342 15.42329,0.38983 41.08503,0.55477 40.5688,0.26075 -0.24289,-0.13835 -2.08836,-0.8556 -4.10104,-1.5939 -3.92861,-1.44111 -4.33057,-1.66186 -3.86815,-2.12427 0.36395,-0.36395 2.3422,0.25728 7.78082,2.44339 2.12736,0.85511 4.24072,1.55475 4.69635,1.55475 0.70193,0 0.82843,0.0986 0.82843,0.64585 0,0.35521 -0.14883,0.74031 -0.33073,0.85578 -0.37167,0.23594 -12.58369,4.31921 -12.91763,4.31921 -0.11779,0 -0.29264,-0.12699 -0.38856,-0.28219 z m 35.74446,-3.13341 c -0.26444,-0.42786 -0.34357,-11.67653 -0.0833,-11.8374 0.5591,-0.34554 0.79137,0.55802 0.99392,3.86652 0.11736,1.91697 0.27093,3.54295 0.34127,3.61329 0.0703,0.0703 0.8819,-0.35945 1.80346,-0.95509 0.92156,-0.59563 1.91624,-1.04833 2.2104,-1.00599 0.59038,0.085 0.92053,1.00251 0.3612,1.00386 -0.19257,4.6e-4 -1.04016,0.45962 -1.88353,1.02035 l -1.5334,1.01951 0.9473,0.83173 c 0.93505,0.82099 1.07744,0.88394 2.1195,0.93705 0.37238,0.019 0.55402,0.243 0.61303,0.75608 0.17152,1.49115 -1.5572,1.13532 -3.64409,-0.75006 l -1.06998,-0.96666 v 0.67502 c 0,1.37547 -0.73802,2.50014 -1.1758,1.79179 z m 56.10698,-1.22227 c -0.39728,-0.39729 -0.33438,-0.98687 0.17562,-1.64599 0.42371,-0.54759 1.24055,-0.37516 1.56169,0.32966 0.24861,0.54566 0.21752,0.7525 -0.17898,1.19062 -0.57452,0.63485 -1.01376,0.67028 -1.55833,0.12571 z m -4.03686,-0.52506 c -0.0928,-0.24175 -0.0847,-2.16736 0.018,-4.27914 0.20164,-4.1477 0.27209,-3.97617 -1.2115,-2.94997 -0.83622,0.57842 -1.69922,0.63017 -1.89738,0.11377 -0.16697,-0.43513 0.38032,-0.96535 1.67364,-1.62144 0.50933,-0.25838 1.25428,-0.71245 1.65547,-1.00905 1.26643,-0.9363 1.35744,-0.51744 1.09403,5.03511 -0.20971,4.42063 -0.28754,4.98364 -0.69978,5.06204 -0.2551,0.0485 -0.53972,-0.10958 -0.63248,-0.35132 z m 8.50464,0.0582 c -0.85316,-0.26869 -1.07457,-0.47301 -1.14205,-1.0539 -0.0984,-0.8469 0.17935,-0.89675 1.80351,-0.32371 1.35236,0.47714 3.21303,0.51759 3.65125,0.0794 0.88166,-0.88166 -0.14973,-2.37934 -1.87774,-2.72667 -1.46149,-0.29375 -1.72046,-0.40468 -1.87306,-0.80236 -0.26177,-0.68216 0.1279,-1.16779 1.16004,-1.44572 0.55334,-0.149 1.28138,-0.49383 1.61786,-0.76629 0.50076,-0.4055 0.55255,-0.56675 0.28539,-0.88866 -0.40796,-0.49157 -2.5007,-0.74569 -3.58351,-0.43515 -1.13079,0.32431 -1.51852,-0.12195 -0.76267,-0.87781 0.49101,-0.49101 0.86603,-0.57875 2.41313,-0.56458 1.31193,0.012 2.0826,0.16286 2.71564,0.53155 1.52632,0.88895 1.24682,2.42263 -0.59151,3.24568 -1.04605,0.46833 -1.11792,0.81418 -0.16918,0.81418 0.28391,0 0.97844,0.46224 1.5434,1.0272 1.28177,1.28178 1.36433,2.29131 0.28606,3.4981 -0.67295,0.75316 -0.91033,0.83835 -2.57969,0.92578 -1.0294,0.0539 -2.30431,-0.0504 -2.89687,-0.23701 z m -278.870836,-0.68985 c -0.72976,-0.32135 -1.61661,-1.3573 -1.79645,-2.09847 -0.10865,-0.44776 0.27669,-6.22984 0.59808,-8.97419 0.004,-0.0364 0.25163,-0.0661 0.54971,-0.0661 0.52719,0 0.53695,0.0904 0.35783,3.3142 l -0.18414,3.31419 1.43284,-0.1684 c 1.8898,-0.22211 3.18456,0.29992 3.6739,1.48128 0.41894,1.01143 0.0867,1.83355 -1.09582,2.7116 -0.77696,0.57691 -2.72226,0.84425 -3.53595,0.48594 z m 3.04271,-1.61381 c 0.29104,-0.29104 0.52916,-0.64823 0.52916,-0.79375 0,-0.46255 -1.03796,-1.32291 -1.59599,-1.32291 -0.90331,0 -2.37276,0.73976 -2.37276,1.19452 0,0.23527 0.12326,0.65806 0.2739,0.93954 0.38929,0.7274 2.43211,0.71618 3.16569,-0.0174 z m 87.89458,1.00542 c -0.46492,-0.46493 -0.3882,-1.124 0.19198,-1.64906 0.63914,-0.57841 1.35165,-0.45451 1.62364,0.28236 0.414,1.12154 -0.99794,2.18438 -1.81562,1.3667 z m 146.341716,-0.2638 c -0.76585,-0.37002 -1.39551,-1.74706 -1.21755,-2.66275 0.18348,-0.94409 1.50119,-2.04762 2.44504,-2.04762 0.88842,0 2.07688,0.8788 2.42433,1.79265 0.76461,2.01108 -1.60678,3.90577 -3.65182,2.91772 z M 61.436264,361.99859 c -1.26485,-0.41686 -4.00296,-0.49763 -4.23334,-0.12488 -0.24955,0.40378 -1.61309,0.31507 -1.98157,-0.12893 -0.51804,-0.62419 -0.12556,-1.14506 1.3778,-1.82853 1.68636,-0.76666 4.3304,-3.18737 4.58104,-4.19411 0.42398,-1.70301 -0.51771,-2.76641 -2.17454,-2.45559 -0.64308,0.12064 -1.05248,0.40828 -1.36121,0.95634 -0.53288,0.94601 -1.45395,0.96313 -1.58631,0.0295 -0.11218,-0.79134 0.36508,-1.34439 1.67396,-1.93978 2.65873,-1.20943 4.89479,-0.0271 4.89479,2.58827 0,1.36323 -0.6472,2.52415 -2.25477,4.04453 l -1.41772,1.34082 h 0.86218 c 1.15907,0 3.48164,0.70912 3.99107,1.21855 0.89147,0.89147 -0.36863,1.15388 -2.37138,0.49383 z m 9.12812,0.036 c -0.90489,-0.2404 -1.21095,-0.45668 -1.27532,-0.90125 -0.11784,-0.81372 0.47797,-0.95919 1.9214,-0.46913 1.69373,0.57503 3.12965,0.53839 3.70239,-0.0945 0.92179,-1.01856 -0.0978,-2.22289 -2.16066,-2.55215 -2.2004,-0.3512 -2.23551,-1.53622 -0.07,-2.36086 1.07191,-0.40818 1.47591,-0.70455 1.53734,-1.12776 0.0608,-0.41871 -0.0856,-0.61646 -0.54085,-0.73073 -0.99196,-0.24896 -2.37925,-0.25983 -3.33457,-0.0261 -0.82281,0.20129 -0.87581,0.17422 -0.79375,-0.40543 0.24298,-1.71635 5.89186,-1.4156 6.45015,0.34341 0.23696,0.74661 -0.54734,1.78291 -1.76042,2.32602 l -1.04549,0.46808 1.15162,0.4398 c 2.01592,0.76989 2.92589,2.74982 1.94901,4.24073 -0.74961,1.14404 -3.2358,1.51274 -5.7309,0.84987 z m 166.408486,-1.23028 c -0.29439,-0.18357 -0.31495,-0.34682 -0.0893,-0.70903 0.23381,-0.37532 0.68894,-0.47864 2.24896,-0.51053 1.0757,-0.022 2.17807,0.0789 2.44971,0.22427 0.44077,0.23582 0.45086,0.30727 0.0938,0.66431 -0.46147,0.46147 -4.08498,0.71648 -4.70318,0.33098 z m 9.85693,-33.37937 c -0.46492,-0.46493 -0.38819,-1.12401 0.19198,-1.64906 0.63914,-0.57841 1.35165,-0.45451 1.62365,0.28235 0.41399,1.12155 -0.99795,2.18438 -1.81563,1.36671 z m 5.10646,0.009 c -1.05708,-0.38625 -1.71979,-0.99096 -1.71979,-1.56929 0,-0.77162 0.52777,-0.86891 1.36317,-0.25127 0.43103,0.31868 1.17515,0.64294 1.65359,0.72058 0.71366,0.11581 1.04358,-0.0113 1.83698,-0.70795 1.12866,-0.99098 1.2029,-1.54898 0.33961,-2.55262 -0.61454,-0.71444 -0.65591,-0.72294 -2.00456,-0.41163 -1.82378,0.42098 -2.90865,0.4017 -3.08382,-0.0548 -0.11626,-0.30297 0.868,-5.08036 1.11446,-5.40939 0.0385,-0.0515 1.53462,-0.11018 3.32464,-0.13053 2.9347,-0.0334 3.26354,0.01 3.34585,0.43697 0.20552,1.06717 -0.44038,1.31655 -3.05554,1.17976 l -2.45451,-0.12838 -0.39162,1.31873 c -0.21539,0.72531 -0.34099,1.40065 -0.27911,1.50078 0.0619,0.10012 0.82279,0.0646 1.69092,-0.079 1.86736,-0.30883 2.60584,0.0273 3.30727,1.50548 0.57064,1.20254 0.54962,1.97375 -0.082,3.00969 -0.88604,1.45315 -3.23933,2.23169 -4.90551,1.62289 z m -12.90675,-0.42646 c -1.00632,-0.62352 -1.77762,-2.32094 -1.77762,-3.91205 0,-1.74682 1.19824,-5.26471 2.14569,-6.29948 0.70323,-0.76805 0.76867,-0.7896 0.90693,-0.29861 0.12714,0.45146 0.33375,0.51621 1.40702,0.44096 1.08776,-0.0763 1.36929,0.0157 2.08032,0.67995 2.04983,1.91483 1.60114,6.22926 -0.8929,8.58569 -1.35918,1.2842 -2.65829,1.55398 -3.86944,0.80354 z m 2.93466,-1.77724 c 1.04908,-0.88275 1.9023,-2.77182 1.9023,-4.2118 0,-2.43056 -2.38105,-3.76183 -3.70893,-2.07371 -0.31478,0.40018 -0.64561,0.66807 -0.73517,0.59531 -0.32997,-0.26806 -0.8749,2.29221 -0.77476,3.64006 0.18162,2.44445 1.71873,3.39462 3.31656,2.05014 z m -268.117016,0.53954 c -2.38256,-2.38256 2.25135,-6.86963 4.72583,-4.57609 0.67903,0.62938 2.16729,4.52971 1.89594,4.96876 -0.26775,0.43323 -1.20429,-0.24651 -1.49717,-1.08666 -0.32831,-0.9418 -0.40025,-0.94901 -1.06296,-0.1065 -1.17583,1.49482 -3.00652,1.85562 -4.06164,0.80049 z m 2.53422,-1.07484 c 0.83138,-0.42992 1.57884,-1.61155 1.57884,-2.49592 0,-1.09468 -2.39493,-0.4424 -3.268,0.89007 -0.56077,0.85584 -0.55253,1.38397 0.0269,1.72143 0.62037,0.36133 0.75865,0.35172 1.6623,-0.11558 z m 85.76131,0.96391 c -0.19933,-0.12637 -0.31405,-0.5527 -0.26459,-0.98327 0.10621,-0.92447 1.39761,-1.5583 1.81865,-0.89261 0.76018,1.20188 -0.40281,2.60571 -1.55406,1.87588 z m -4.1407,-0.55397 c -0.097,-0.15691 -0.0907,-2.08462 0.014,-4.2838 l 0.19033,-3.99851 -1.02614,0.69728 c -1.25062,0.84982 -2.22621,0.92544 -2.22621,0.17257 0,-0.3598 0.39499,-0.72576 1.25677,-1.16441 0.69122,-0.35183 1.54288,-0.88962 1.89257,-1.19508 1.23432,-1.07822 1.3516,-0.83851 1.31399,2.68576 -0.0546,5.11775 -0.28221,7.18968 -0.80064,7.28819 -0.2411,0.0458 -0.5177,-0.0451 -0.61467,-0.202 z m 13.88532,-0.15456 c -1.37452,-0.4331 -4.12507,-0.50783 -4.36563,-0.11861 -0.2789,0.45128 -1.68008,0.30398 -1.95263,-0.20527 -0.3666,-0.68501 0.0788,-1.29054 1.22707,-1.66816 1.15791,-0.38079 3.91735,-2.69199 4.45467,-3.73105 0.98068,-1.89643 -0.0408,-3.44571 -1.9586,-2.97059 -0.67327,0.1668 -1.08058,0.46884 -1.32675,0.98383 -0.44285,0.92644 -1.45567,0.90725 -1.58855,-0.0301 -0.11218,-0.79135 0.36508,-1.34439 1.67396,-1.93979 1.2965,-0.58976 2.55387,-0.6226 3.57717,-0.0934 1.00677,0.52062 1.31762,1.14418 1.31762,2.64309 0,1.55823 -0.25478,2.03804 -2.07232,3.90261 l -1.48299,1.52135 h 0.80359 c 1.05069,0 3.57823,0.74324 4.0398,1.18793 0.19912,0.19183 0.28139,0.47928 0.18282,0.63876 -0.23526,0.38067 -1.06379,0.34117 -2.52923,-0.12058 z m -12.58392,-84.89757 c -2.37683,-0.53839 -7.72311,-2.47339 -9.29581,-3.36445 -2.62265,-1.48596 -5.00782,-4.82487 -6.21067,-8.69409 -0.50117,-1.61214 -0.61414,-2.55513 -0.60221,-5.02708 0.0248,-5.1482 1.4754,-8.76942 4.87748,-12.17624 3.18337,-3.1878 6.25989,-4.48474 10.65211,-4.49051 0.94555,-10e-4 1.52135,-0.11419 1.52135,-0.29841 0,-0.21334 0.94537,-0.2427 3.37344,-0.10477 3.17739,0.1805 5.09323,0.608 5.09323,1.13649 0,0.12823 1.08633,0.93797 2.41406,1.79944 3.06775,1.99042 6.47968,5.50233 7.39191,7.60852 0.35479,0.81915 0.73294,1.49139 0.84034,1.49388 0.10739,0.002 7.42974,-4.06178 16.27187,-9.03168 8.842136,-4.96991 21.374886,-12.00061 27.850566,-15.62378 6.75505,-3.77948 11.73641,-6.72287 11.68587,-6.90495 -0.0485,-0.17456 -0.67078,-1.57138 -1.38295,-3.10406 -0.71324,-1.53497 -1.38837,-3.43648 -1.50305,-4.23333 l -0.20818,-1.44665 -27.0253,-0.0674 -27.025296,-0.0674 -0.55808,1.65489 c -1.15139,3.41426 -4.05168,7.20447 -7.42958,9.70922 -4.7038,3.48794 -8.74952,4.1528 -15.28333,2.51164 -1.34848,-0.33871 -3.04668,-0.93962 -3.77377,-1.33536 -2.91285,-1.58537 -6.41665,-5.61355 -8.20277,-9.43041 -2.16732,-4.63146 -1.4909,-9.83196 2.00964,-15.45052 1.54849,-2.48542 3.73354,-4.45979 6.48247,-5.85744 3.95476,-2.01074 5.97412,-2.28374 10.0979,-1.36519 1.33996,0.29847 3.09833,0.50987 3.90748,0.46977 1.22032,-0.0605 1.67291,0.0514 2.65413,0.65616 4.40342,2.71393 7.20459,5.39533 8.61269,8.24442 0.91265,1.84663 1.66996,5.02374 1.68915,7.08646 l 0.009,0.99218 2.3151,-0.003 c 10.19828,-0.0151 51.017056,0.64889 51.086636,0.83097 0.2298,0.60136 0.51407,0.10126 0.65839,-1.15828 0.0875,-0.76398 0.22744,-1.80578 0.31089,-2.3151 0.14812,-0.90398 0.10581,-0.95742 -1.77579,-2.24308 -1.06014,-0.72401 -10.2619,-7.38506 -20.44835,-14.80197 l -18.520836,-13.48528 -1.67441,-0.11264 c -1.03214,-0.0694 -1.78824,0.001 -1.97115,0.1841 -0.42465,0.42465 -1.65591,0.36625 -2.04018,-0.0968 -0.50918,-0.61352 -0.12324,-1.16117 1.22583,-1.73945 0.70451,-0.30199 1.13535,-0.62725 0.9978,-0.75331 -0.13313,-0.12201 -2.9776,-2.2044 -6.32105,-4.62754 l -6.07899,-4.40569 -0.57726,1.30802 c -0.91457,2.07231 -2.65335,4.44299 -4.09389,5.58167 -2.06281,1.63055 -5.54196,3.84704 -6.80334,4.33424 -2.91354,1.12534 -7.24156,1.07999 -11.68143,-0.12241 -2.81035,-0.76108 -4.35306,-1.67805 -6.63629,-3.94452 -2.29492,-2.27808 -3.40475,-4.218 -4.84376,-8.46667 -1.5783,-4.6599 -1.55183,-7.27651 0.10715,-10.59379 0.98402,-1.96762 3.68719,-5.57796 4.82775,-6.4479 1.29507,-0.98781 4.881,-3.00307 5.99826,-3.37098 0.51469,-0.16948 1.05486,-0.45855 1.20038,-0.64236 0.79151,-0.99979 5.48491,-1.20649 8.70351,-0.38331 1.12271,0.28714 3.52011,1.23996 5.32757,2.11738 2.55029,1.23802 3.3766,1.76997 3.68958,2.3752 0.22181,0.42895 0.4033,0.90454 0.4033,1.05688 0,0.15234 0.54392,1.01585 1.20873,1.91892 1.62079,2.2017 3.23834,5.66011 3.73032,7.97565 0.37784,1.77828 0.35247,4.16818 -0.0597,5.62235 -0.13551,0.47815 0.71497,1.17688 6.20639,5.09898 3.49988,2.4997 6.5319,4.60955 6.73781,4.68857 0.50645,0.19434 2.46281,-1.70269 2.69018,-2.6086 0.42548,-1.69526 -0.51974,-2.76001 -2.17458,-2.44956 -0.64308,0.12064 -1.05248,0.40828 -1.3612,0.95634 -0.53289,0.94601 -1.45396,0.96312 -1.58631,0.0295 -0.11219,-0.79134 0.36507,-1.34439 1.67395,-1.93979 2.63782,-1.19991 4.89479,-0.0265 4.89479,2.54489 0,1.29135 -0.37327,2.09643 -1.57794,3.40335 -0.99944,1.08426 -1.0357,1.17867 -0.60263,1.56933 0.25343,0.22862 1.14539,0.67143 1.98214,0.98404 1.35192,0.50507 1.6384,0.75397 1.56334,1.35828 -0.021,0.16935 38.138226,27.48248 38.395866,27.48248 0.0774,0 0.51154,-0.65693 0.96468,-1.45984 0.45314,-0.80292 1.23841,-1.91868 1.74505,-2.47947 0.50664,-0.56079 0.92116,-1.09885 0.92116,-1.1957 0,-0.0968 -6.52846,-8.77398 -14.50769,-19.28251 C 105.31053,123.03905 87.453014,99.464096 79.899734,89.437856 l -5.41772,-7.19148 -1.23134,1.6262 c -1.52726,2.01702 -3.58891,3.69451 -6.29569,5.12258 -2.44995,1.29257 -4.08723,1.68106 -7.08485,1.68106 -4.56838,0 -9.37947,-1.30936 -12.22374,-3.32673 -3.90213,-2.76769 -7.23109,-8.19024 -7.67721,-12.50541 -0.18457,-1.78533 0.71942,-6.60778 1.61995,-8.64182 1.35323,-3.05659 4.33044,-5.64296 7.8052,-6.78059 0.94761,-0.31024 2.4254,-0.85533 3.28399,-1.2113 3.09124,-1.28162 10.54235,-2.17131 12.00241,-1.43312 0.25269,0.12775 0.87615,0.42643 1.38548,0.66373 2.1709,1.01145 5.68151,4.03075 7.16845,6.16523 1.10733,1.58954 2.34221,4.83861 2.94629,7.75189 0.61315,2.95705 0.51032,5.83108 -0.28066,7.84398 -0.99745,2.53836 -0.96227,2.41374 -0.52215,1.84947 0.36792,-0.47173 0.43415,-0.43866 1.32483,0.66146 1.1752,1.45153 45.123026,60.421384 57.867286,77.647174 l 3.54166,4.78709 3.06933,-2.05611 c 2.89967,-1.94246 3.09199,-2.02992 3.47925,-1.58222 0.39053,0.45149 0.50176,0.42969 2.35192,-0.46083 1.83142,-0.88151 1.96171,-0.90779 2.2881,-0.46143 0.25955,0.35496 0.92844,0.5313 2.67516,0.70523 4.13055,0.41131 8.11201,1.96615 10.79574,4.21595 1.08839,0.91241 1.3392,1.0272 1.41478,0.64752 0.0505,-0.25383 2.79392,-3.51259 6.09642,-7.24169 9.61257,-10.85426 27.01692,-31.05544 27.01692,-31.35845 0,-0.0477 -0.46327,0.0369 -1.02949,0.18803 -1.82263,0.48649 -4.301,-0.83727 -3.83604,-2.04893 0.21854,-0.56952 0.4756,-0.52718 1.69378,0.27897 0.81612,0.54008 1.23964,0.65714 1.89984,0.5251 1.83217,-0.36643 2.62119,-2.06294 1.56569,-3.36643 -0.48226,-0.59556 -0.5555,-0.60598 -2.06645,-0.2939 -3.09028,0.63829 -3.55588,0.35596 -2.84859,-1.72732 0.22504,-0.66283 0.48054,-1.72595 0.56779,-2.36249 0.0872,-0.63653 0.28019,-1.23246 0.42877,-1.32429 0.14858,-0.0918 1.62986,-0.17848 3.29173,-0.19255 3.10095,-0.0263 3.6799,0.14722 3.35106,1.00416 -0.23369,0.60898 -1.16215,0.77953 -3.44592,0.63296 -2.23545,-0.14346 -2.32761,-0.0765 -2.6473,1.92268 -0.1576,0.98558 -0.12421,1.11344 0.25294,0.96872 0.23897,-0.0917 1.02823,-0.2455 1.7539,-0.34176 1.25669,-0.16671 1.36375,-0.13069 2.25218,0.75775 0.66612,0.66612 0.93278,1.16725 0.93278,1.75298 0,0.45112 0.0893,0.81389 0.19844,0.80616 0.10914,-0.008 2.10343,-2.28366 4.43177,-5.05764 2.32833,-2.77398 7.54734,-8.92914 11.59779,-13.67814 4.05045,-4.749 7.77222,-9.124364 8.2706,-9.723024 l 0.90615,-1.08848 -0.91782,-1.5242 c -1.47332,-2.44669 -2.52651,-6.27796 -2.52651,-9.19088 0,-3.57329 1.90461,-8.67723 4.12309,-11.04896 2.27124,-2.42814 8.63162,-6.09716 9.63695,-5.55913 0.28859,0.15445 1.29772,0.15188 2.67808,-0.007 3.53609,-0.40655 7.09559,-0.33896 7.2787,0.1382 0.0838,0.21828 0.29702,0.39687 0.47392,0.39687 0.77142,0 5.27245,2.4572 6.39872,3.49319 2.61104,2.40173 4.95736,6.6723 5.68616,10.34944 0.41763,2.10712 0.33939,5.77766 -0.15976,7.49466 -0.24173,0.83153 -0.9808,2.59183 -1.64238,3.91177 -1.92252,3.83571 -5.71346,7.14965 -9.20578,8.047444 -1.08975,0.28015 -6.5811,0.62551 -9.08667,0.57147 -2.61197,-0.0563 -6.08788,-1.627994 -9.47167,-4.282674 -0.89376,-0.70119 -1.7272,-1.26619 -1.85209,-1.25557 -0.12489,0.0106 -1.35816,1.34656 -2.74061,2.96876 -1.38245,1.622204 -10.48499,12.061254 -20.22787,23.197884 -9.74288,11.13664 -21.99153,25.24905 -27.21921,31.36093 -5.22769,6.11187 -9.91047,11.53817 -10.40619,12.05844 l -0.90131,0.94595 0.92794,1.56759 c 0.51037,0.86218 1.03013,1.74132 1.15503,1.95365 0.18908,0.32143 1.15339,0.0613 5.76133,-1.55418 10.82301,-3.79439 26.8461,-9.7311 34.50612,-12.78485 l 0.66145,-0.2637 -0.92604,-0.32194 c -0.70355,-0.24458 -0.94615,-0.49148 -1.00976,-1.02759 -0.098,-0.82579 0.0958,-0.8568 1.91171,-0.30593 1.56781,0.47561 3.11064,0.50893 3.54305,0.0765 0.88167,-0.88166 -0.14972,-2.37934 -1.87773,-2.72667 -1.66842,-0.33534 -1.77352,-0.40626 -1.77352,-1.19679 0,-0.67355 0.13162,-0.80117 1.09335,-1.06013 1.44295,-0.38855 2.08165,-0.80954 2.08165,-1.37209 0,-0.71211 -2.16203,-1.06635 -3.9026,-0.63943 -0.74906,0.18372 -0.8599,0.14417 -0.8599,-0.30688 0,-0.88856 0.72367,-1.2226 2.61118,-1.20531 3.85482,0.0353 5.16658,2.21324 2.2276,3.69851 -1.1099,0.56091 -1.21881,0.89296 -0.29288,0.89296 0.73732,0 2.35091,1.61685 2.55246,2.5576 l 0.17768,0.82939 5.68855,-2.13157 c 3.12869,-1.17237 5.7213,-2.15571 5.76133,-2.18522 0.04,-0.0295 -0.18564,-0.63604 -0.5015,-1.34786 -0.74136,-1.6707 -0.79908,-4.69961 -0.16718,-8.77367 0.55849,-3.60079 1.21211,-5.55373 2.37098,-7.08424 1.37585,-1.81705 5.04433,-4.47632 8.41137,-6.09737 l 3.0427,-1.4649 3.70417,0.11199 c 4.54847,0.13753 5.24835,0.36827 9.35808,3.08533 3.89246,2.57342 6.21891,5.0152 7.78046,8.16619 1.09072,2.20093 1.11771,2.31976 1.11771,4.92142 0,2.29699 -0.12291,3.05051 -0.88796,5.44358 -0.48839,1.52765 -1.10133,3.19452 -1.3621,3.70416 -1.93884,3.7892 -7.62991,8.09676 -11.85202,8.97076 -1.89752,0.3928 -3.52336,0.36509 -6.22537,-0.1061 -4.95716,-0.86446 -8.41995,-2.55157 -11.53657,-5.62075 l -2.23069,-2.19673 -14.30577,5.06921 c -7.86817,2.78806 -16.44889,5.83695 -19.06827,6.77531 -6.2051,2.2229 -24.28424,9.08458 -24.53923,9.31351 -0.10866,0.0976 0.0104,0.81841 0.26458,1.60188 l 0.46215,1.4245 9.12813,2.72873 c 16.46533,4.92209 48.08453,13.78005 48.27869,13.52503 0.0324,-0.0426 0.3996,-0.71319 0.8159,-1.49018 1.16598,-2.1762 4.50282,-4.99383 8.02204,-6.77382 2.03524,-1.0294 4.28359,-1.40775 9.62451,-1.61961 4.16104,-0.16506 4.69636,-0.13917 4.69636,0.2271 0,0.28938 0.4482,0.50644 1.49406,0.72356 0.87481,0.18161 1.74174,0.55785 2.09165,0.90777 0.32868,0.32867 1.05534,0.87767 1.6148,1.21998 1.60944,0.98476 3.73828,3.12286 4.56865,4.58853 1.09586,1.93428 2.71175,7.55786 2.85744,9.94441 0.24801,4.06266 -1.22689,8.22199 -3.72205,10.49647 -1.48085,1.34988 -6.05127,3.9593 -8.23084,4.69928 -1.59146,0.54032 -6.51025,1.20952 -8.85897,1.20528 -3.15738,-0.006 -5.77976,-1.05871 -9.39947,-3.77431 -2.31371,-1.73579 -3.55417,-3.36833 -4.91684,-6.4709 -1.44905,-3.29925 -1.93489,-5.69235 -1.73315,-8.53707 0.0877,-1.23693 0.22511,-2.54661 0.3053,-2.91042 0.14452,-0.65558 0.0804,-0.68089 -7.21082,-2.84898 -4.04615,-1.20314 -7.94046,-2.36381 -8.65403,-2.57926 -1.25209,-0.37805 -1.28211,-0.37485 -0.85989,0.0917 0.79285,0.87609 0.54127,1.67333 -0.94029,2.97976 l -1.37797,1.21509 1.11329,1.05905 c 1.41397,1.34507 1.45603,2.10815 0.17804,3.23023 -0.75176,0.66006 -1.17044,0.82116 -2.13406,0.82116 -1.58423,0 -2.16463,-0.34926 -2.36623,-1.42393 -0.12079,-0.64383 -0.005,-1.20442 0.41926,-2.03681 l 0.58591,-1.14849 -0.58174,-0.40736 c -3.3151,-2.32141 -3.1642,-3.34555 0.72591,-4.92661 l 1.45925,-0.59308 -1.82767,-0.56471 c -5.01387,-1.54917 -34.18107,-9.5365 -34.82427,-9.5365 -0.0746,0 -0.21232,0.74946 -0.30617,1.66547 -0.23927,2.33541 -1.11491,5.32929 -2.09838,7.17446 -0.62123,1.16555 -1.58349,2.24145 -3.75157,4.19464 -4.48826,4.04338 -6.34359,4.91103 -10.98582,5.13755 -3.20585,0.15644 -6.81164,-0.49277 -9.18846,-1.65435 -1.69486,-0.8283 -4.75244,-3.19726 -5.56998,-4.31555 -0.33178,-0.45383 -0.71234,-0.82514 -0.8457,-0.82514 -0.13335,0 -2.12408,1.11527 -4.42385,2.47838 -10.13701,6.00837 -39.620286,23.09126 -48.959856,28.3678 -3.16005,1.78532 -3.23893,1.85206 -3.24114,2.74217 -0.001,0.50177 -0.13301,1.93052 -0.29282,3.175 -0.80517,6.27024 -1.51724,8.11232 -4.24847,10.99042 -2.02286,2.13165 -3.96019,3.39032 -6.05048,3.93096 -2.23477,0.57802 -7.73564,0.76345 -9.66733,0.32589 z m 7.65094,-1.36519 c 4.05626,-1.04582 6.89987,-3.57703 9.1483,-8.14323 1.72198,-3.49707 1.98224,-4.63353 1.78597,-7.79866 -0.37221,-6.00252 -2.34291,-9.65107 -6.82078,-12.62795 -3.119,-2.0735 -4.41429,-2.51314 -7.47874,-2.53836 -4.1345,-0.034 -10.04672,1.18925 -12.68331,2.62426 -2.42519,1.31995 -3.77115,3.36384 -5.06765,7.69542 -1.44501,4.82775 -1.45487,9.36687 -0.0265,12.18238 1.06371,2.09667 4.76869,5.2316 8.28431,7.00969 3.35997,1.69937 9.50168,2.4619 12.85837,1.59645 z m 25.57048,-26.50161 c 6.47568,-3.70596 11.893016,-6.86423 12.038536,-7.01836 0.14552,-0.15414 -0.15213,-0.0467 -0.66146,0.23877 -17.740696,9.9431 -24.341656,13.71379 -24.341656,13.90478 0,0.30769 -0.58914,0.63147 12.96458,-7.12519 z m 154.384376,1.00953 c 6.99747,-1.67908 10.16429,-4.16597 11.88199,-9.33088 0.93726,-2.81822 1.37231,-6.61291 1.0093,-8.80359 -0.41926,-2.53016 -2.22404,-5.52626 -4.94499,-8.20913 -3.27078,-3.22502 -5.76362,-4.27866 -10.72443,-4.53287 -3.79177,-0.19431 -5.67278,0.20615 -9.45615,2.01316 -5.74337,2.74316 -7.73336,6.04639 -7.73438,12.83846 -9.5e-4,6.34321 1.59486,10.45052 5.04405,12.98246 2.25875,1.65808 8.22007,3.49216 11.48502,3.53353 0.72761,0.009 2.27542,-0.21179 3.43959,-0.49114 z m 13.05212,-8.79259 c 0.30237,-0.82445 0.61469,-2.13414 0.69404,-2.91042 0.13924,-1.36211 0.12998,-1.34825 -0.26505,0.39655 -0.22513,0.99438 -0.65032,2.42313 -0.94487,3.175 -0.29455,0.75187 -0.42267,1.24797 -0.28471,1.10245 0.13795,-0.14553 0.49822,-0.93914 0.80059,-1.76358 z m -153.41358,-0.37171 c 0,-0.0728 -0.23813,-0.005 -0.52917,0.15091 -0.29104,0.15576 -0.52917,0.34273 -0.52917,0.41549 0,0.0728 0.23813,0.005 0.52917,-0.15091 0.29104,-0.15576 0.52917,-0.34273 0.52917,-0.41549 z m 99.99938,-8.51651 c 0.69505,-0.56282 0.53743,-1.11923 -0.4888,-1.72544 -0.70708,-0.41768 -0.77461,-0.41569 -1.18233,0.0348 -0.23783,0.26279 -0.43242,0.85539 -0.43242,1.31687 0,0.74876 0.0823,0.83907 0.76444,0.83907 0.42044,0 1.02304,-0.2094 1.33911,-0.46534 z m -51.65229,-2.07577 c -0.0879,-0.0879 -0.31612,-0.0973 -0.50712,-0.0209 -0.21106,0.0845 -0.14837,0.14715 0.15985,0.15985 0.27892,0.0115 0.43519,-0.051 0.34727,-0.13897 z m -0.59125,-1.02511 c 2.84184,-0.83865 6.28676,-2.41624 7.47328,-3.42237 1.03498,-0.87763 3.68025,-4.77499 4.70314,-6.92929 1.23522,-2.60148 1.15854,-7.48692 -0.15805,-10.06933 -0.27915,-0.54754 -0.50754,-1.19956 -0.50754,-1.44894 0,-0.24938 -0.56555,-1.2857 -1.25678,-2.30293 -1.92219,-2.82876 -4.13828,-4.47643 -7.76706,-5.77485 -1.69699,-0.6072 -2.4894,-0.71628 -5.97665,-0.82274 -4.01568,-0.12259 -4.02219,-0.12183 -5.68855,0.65897 -0.91754,0.42994 -2.75402,1.45385 -4.08106,2.27536 -5.9127,3.6603 -7.18896,6.02098 -6.91386,12.78848 0.17606,4.33114 0.70599,6.07256 2.55513,8.39641 2.02388,2.54344 5.43016,5.35466 8.35903,6.89875 1.2437,0.65568 1.48928,0.69017 4.10104,0.57611 1.94088,-0.0848 3.49534,-0.33299 5.15793,-0.82363 z m 1.98583,0.6558 c 0.48364,-0.31256 0.0659,-0.31256 -0.66146,0 -0.34892,0.14994 -0.39398,0.23235 -0.13229,0.24194 0.21828,0.008 0.57546,-0.10088 0.79375,-0.24194 z m 50.03567,-2.67047 c 0.71142,-0.59564 1.29349,-1.24509 1.29349,-1.44322 0,-0.45943 -1.56791,-0.76102 -2.77708,-0.53417 -1.0852,0.20358 -2.33974,1.20532 -2.05136,1.638 0.17935,0.2691 1.91537,1.41899 2.14589,1.42137 0.0526,5.5e-4 0.67764,-0.48635 1.38906,-1.08198 z M 64.501774,190.18399 c 4.61558,-1.74745 9.43067,-6.06206 11.39576,-10.21128 0.98396,-2.07759 0.97677,-2.51354 -0.0415,-2.51354 -0.91233,0 -1.13099,-0.7551 -0.28289,-0.97688 0.31513,-0.0824 0.45402,-0.28171 0.36251,-0.52018 -0.0942,-0.24546 0.0574,-0.44039 0.41518,-0.53396 0.72137,-0.18864 0.72215,-0.83883 0.004,-3.16663 -1.01469,-3.28815 -3.64426,-7.78067 -5.56897,-9.5144 -0.34,-0.30626 -2.37204,-1.22998 -4.51566,-2.05272 -3.53182,-1.35555 -4.1524,-1.51146 -6.61458,-1.66185 -6.26162,-0.38244 -11.65418,2.30732 -13.79788,6.88226 -1.49319,3.18668 -1.88381,5.11411 -1.88381,9.2954 0,5.0012 0.57143,6.85934 2.86266,9.30868 2.66703,2.85106 6.79472,5.24588 10.4988,6.09124 2.01377,0.45958 5.35126,0.26113 7.16656,-0.42614 z m -21.78915,-16.22356 c -0.0559,-0.62231 -0.10241,-0.17897 -0.10337,0.9852 -9.6e-4,1.16416 0.0448,1.67333 0.10162,1.13147 0.0568,-0.54186 0.0576,-1.49436 0.002,-2.11667 z m 0.25125,-2.10712 c -0.0845,-0.21107 -0.14715,-0.14837 -0.15985,0.15985 -0.0115,0.27892 0.051,0.43519 0.13896,0.34727 0.0879,-0.0879 0.0973,-0.31612 0.0209,-0.50712 z m 32.4953,-4.71289 c -0.22575,-0.43656 -0.46999,-0.79375 -0.54275,-0.79375 -0.0728,0 0.0524,0.35719 0.27817,0.79375 0.22576,0.43656 0.47,0.79375 0.54276,0.79375 0.0728,0 -0.0524,-0.35719 -0.27818,-0.79375 z M 245.7674,156.95009 c 4.87535,-1.00941 8.80044,-4.37812 11.51373,-9.88165 0.47298,-0.95938 0.75757,-2.07322 0.87881,-3.43958 0.44236,-4.98506 -1.52383,-9.78882 -5.60519,-13.69454 -1.96789,-1.88319 -3.55294,-2.75149 -6.67352,-3.6558 -2.33634,-0.67705 -3.2692,-0.7613 -6.38039,-0.57624 -3.79976,0.22601 -7.9976,2.2447 -10.01627,4.8167 -2.57376,3.27923 -4.40352,7.7306 -4.40352,10.7127 0,3.3623 1.11554,7.65249 1.98981,7.65249 0.29075,0 0.40543,0.19214 0.35531,0.59531 -0.10802,0.86893 0.67742,1.89104 2.51454,3.27221 2.47606,1.86153 6.55358,3.74643 9.56013,4.41933 1.20046,0.26867 4.45625,0.15389 6.26656,-0.22093 z M 61.674134,140.54691 c 2.85279,-0.58926 5.67777,-1.61379 7.12013,-2.58224 1.51993,-1.02053 4.26213,-4.28024 5.35224,-6.36233 0.66779,-1.27547 0.73452,-1.57403 0.45265,-2.02537 -0.44019,-0.70485 -0.41973,-0.80113 0.17026,-0.80113 0.66643,0 0.82274,-0.49676 0.81852,-2.60133 -0.004,-2.14636 -1.00938,-5.23004 -2.62499,-8.05375 -1.46044,-2.55252 -4.25437,-5.84071 -5.64639,-6.64525 -2.00617,-1.15951 -10.61873,-2.58836 -12.38575,-2.05484 -1.90583,0.57542 -5.68152,2.23395 -6.73374,2.9579 -1.84334,1.26825 -3.67966,3.48764 -4.29383,5.18956 -2.01674,5.58853 -1.96717,11.38561 0.13031,15.23937 1.07868,1.9819 3.79029,5.01072 5.50477,6.14872 2.25587,1.49736 3.9732,1.95942 7.34504,1.97622 1.57705,0.008 3.72189,-0.16474 4.79078,-0.38553 z m -19.68597,-19.95828 c 0.41103,-1.48934 0.0731,-1.2463 -0.37765,0.27163 -0.22818,0.76837 -0.39982,2.06004 -0.38141,2.87037 l 0.0335,1.47333 0.23707,-1.85208 c 0.13038,-1.01865 0.35022,-2.26211 0.48852,-2.76325 z m 19.91112,-11.83177 c -0.1819,-0.0734 -0.47956,-0.0734 -0.66146,0 -0.1819,0.0734 -0.0331,0.13345 0.33073,0.13345 0.3638,0 0.51263,-0.06 0.33073,-0.13345 z m -1.31788,-0.26291 c -0.17913,-0.0725 -0.53632,-0.0769 -0.79375,-0.01 -0.25743,0.0671 -0.11087,0.12638 0.32569,0.13178 0.43656,0.005 0.64719,-0.0495 0.46806,-0.12197 z M 244.46142,99.037966 c 4.99414,-1.90022 10.39619,-6.1031 11.0474,-8.59505 1.29591,-4.959 0.97771,-10.54399 -0.80155,-14.06867 -1.46557,-2.90329 -5.21787,-6.28402 -8.26769,-7.44901 -3.4158,-1.30478 -8.28388,-1.37074 -10.72538,-0.14533 -0.46502,0.2334 -0.73062,0.23268 -1.10803,-0.003 -1.9715,-1.23122 -9.04994,5.02684 -10.77017,9.52193 -0.98232,2.56687 -0.46506,8.24123 1.0918,11.97713 0.87403,2.09735 1.12365,2.43869 1.50631,2.05982 0.47357,-0.46887 1.16095,0.11025 0.73707,0.62099 -0.22716,0.27372 -0.19776,0.39697 0.12419,0.52051 0.31772,0.12192 0.35797,0.28118 0.16312,0.64527 -0.72891,1.36197 3.78941,3.7079 9.92569,5.15345 3.51641,0.828384 4.34801,0.800414 7.07724,-0.23803 z m 2.89546,0.34908 c 1.42484,-0.56162 4.30249,-2.47049 4.99016,-3.3102 0.44565,-0.54417 0.47817,-0.56142 -1.94586,1.03204 -0.84429,0.555 -2.38874,1.41821 -3.43211,1.91823 -2.08042,0.997014 -1.82646,1.232724 0.38781,0.35993 z M 61.046324,89.077446 c 2.87237,-0.35291 5.12873,-0.95569 6.51572,-1.74065 2.75835,-1.56108 5.81599,-6.29888 6.96507,-10.79235 1.15299,-4.50873 0.39172,-8.1181 -2.66217,-12.62215 -0.5541,-0.81721 -1.36853,-1.78967 -1.80986,-2.16103 -1.02698,-0.86414 -3.67363,-2.10955 -5.70841,-2.68614 -0.87312,-0.24742 -1.73159,-0.63663 -1.9077,-0.86492 -0.28893,-0.37452 -0.73852,-0.3453 -4.60405,0.29929 -2.35611,0.39289 -4.80562,0.8915 -5.44334,1.10801 -5.064,1.71927 -10.93148,8.21769 -10.93132,12.10678 6e-5,1.35454 0.62009,4.65597 1.20173,6.39874 0.76626,2.29595 2.59281,5.46064 3.97227,6.88239 2.00579,2.06727 5.33756,3.63592 8.6301,4.06317 2.42742,0.315 3.2797,0.3163 5.78196,0.009 z M 109.76768,225.64673 c -0.19933,-0.12637 -0.31405,-0.5527 -0.26459,-0.98327 0.10621,-0.92447 1.39761,-1.5583 1.81865,-0.89261 0.76019,1.20188 -0.40281,2.60571 -1.55406,1.87588 z m -4.1407,-0.55397 c -0.097,-0.15691 -0.0907,-2.08462 0.014,-4.2838 l 0.19033,-3.99851 -1.02613,0.69728 c -1.25063,0.84982 -2.22622,0.92544 -2.22622,0.17257 0,-0.3598 0.39499,-0.72576 1.25677,-1.16441 0.69122,-0.35183 1.54288,-0.88962 1.89257,-1.19508 1.23432,-1.07822 1.3516,-0.83851 1.31399,2.68576 -0.0546,5.11775 -0.28221,7.18968 -0.80064,7.28819 -0.24109,0.0458 -0.5177,-0.0451 -0.61467,-0.202 z m 10.53766,-0.0225 c -0.18167,-0.18167 -0.23338,-1.60756 -0.14873,-4.10104 0.0729,-2.14818 0.0269,-3.82178 -0.10515,-3.8208 -0.1292,9.6e-4 -0.59211,0.2383 -1.02867,0.52742 -1.00938,0.66849 -2.05787,0.70935 -1.9358,0.0755 0.0815,-0.42333 0.63437,-0.86219 2.50193,-1.9861 0.41623,-0.25049 0.96854,-0.60768 1.22734,-0.79375 0.85775,-0.61668 0.99683,0.18378 0.83771,4.82107 -0.0824,2.40109 -0.20436,4.63351 -0.27105,4.96093 -0.1289,0.63289 -0.61778,0.77662 -1.07758,0.31682 z m 81.45266,-27.55567 c -0.46492,-0.46493 -0.3882,-1.124 0.19198,-1.64906 0.63914,-0.57841 1.35165,-0.45451 1.62364,0.28236 0.414,1.12154 -0.99794,2.18438 -1.81562,1.3667 z m -7.8003,-0.41714 c -1.00631,-0.62352 -1.77761,-2.32095 -1.77761,-3.91206 0,-1.74681 1.19824,-5.26471 2.14568,-6.29948 0.70324,-0.76805 0.76868,-0.7896 0.90694,-0.29862 0.12713,0.45146 0.33375,0.51622 1.40702,0.44097 1.08776,-0.0763 1.36929,0.0157 2.08032,0.67995 2.04983,1.91483 1.60114,6.22926 -0.8929,8.58569 -1.35918,1.2842 -2.6583,1.55398 -3.86945,0.80355 z m 2.93467,-1.77725 c 1.04908,-0.88274 1.9023,-2.77182 1.9023,-4.2118 0,-2.43057 -2.38105,-3.76184 -3.70893,-2.07371 -0.31478,0.40018 -0.64561,0.66807 -0.73517,0.59531 -0.32997,-0.26806 -0.8749,2.29222 -0.77476,3.64006 0.18162,2.44446 1.71873,3.39462 3.31656,2.05014 z m -11.07672,-1.4679 c -0.29439,-0.18357 -0.31495,-0.34682 -0.0893,-0.70903 0.23381,-0.37533 0.68894,-0.47864 2.24896,-0.51053 1.0757,-0.022 2.17808,0.0789 2.44972,0.22427 0.44076,0.23582 0.45085,0.30727 0.0938,0.66431 -0.46147,0.46147 -4.08498,0.71647 -4.70318,0.33098 z m -78.52186,-1.01391 c -0.19933,-0.12636 -0.31405,-0.5527 -0.26458,-0.98326 0.10621,-0.92447 1.39761,-1.55831 1.81865,-0.89261 0.76018,1.20188 -0.40281,2.6057 -1.55407,1.87587 z m -8.025966,-0.61402 c -1.86585,-1.61447 -2.05023,-4.58821 -0.50978,-8.22179 0.9019,-2.12738 1.7987,-3.06051 2.04311,-2.12588 0.10209,0.39041 0.33013,0.46908 1.13675,0.39215 2.15159,-0.20518 3.526836,1.41863 3.564756,4.20904 0.0532,3.91695 -4.015406,7.66689 -6.234836,5.74648 z m 3.163,-1.66221 c 1.906736,-1.60442 2.456326,-5.15469 0.99283,-6.41353 -2.74725,-2.36309 -5.90559,3.02769 -3.7243,6.35676 0.6009,0.9171 1.68232,0.93957 2.73147,0.0568 z m 9.183636,1.63609 c -0.85316,-0.2687 -1.07456,-0.47301 -1.14205,-1.0539 -0.0978,-0.84212 0.0897,-0.87359 1.9117,-0.32085 1.56781,0.47561 3.11064,0.50892 3.54306,0.0765 0.88166,-0.88167 -0.14973,-2.37935 -1.87774,-2.72668 -1.66842,-0.33534 -1.77351,-0.40626 -1.77351,-1.19679 0,-0.67355 0.13161,-0.80117 1.09335,-1.06013 1.44294,-0.38855 2.08165,-0.80954 2.08165,-1.37209 0,-0.71211 -2.16204,-1.06635 -3.90261,-0.63943 -0.74906,0.18372 -0.85989,0.14417 -0.85989,-0.30688 0,-0.88856 0.72366,-1.2226 2.61118,-1.20531 3.85481,0.0353 5.16658,2.21324 2.2276,3.69851 -1.12103,0.56653 -1.21814,0.89296 -0.26564,0.89296 0.28391,0 0.97844,0.46224 1.5434,1.02721 1.32334,1.32334 1.40388,2.48166 0.24945,3.58768 -0.6677,0.63969 -1.03277,0.7584 -2.57969,0.83882 -0.99451,0.0517 -2.27615,-0.0557 -2.86026,-0.23963 z m -20.491476,-3.21317 c -0.22374,-0.26958 -0.19456,-0.45937 0.11881,-0.77273 0.32424,-0.32425 0.86322,-0.39489 2.45653,-0.32197 2.58609,0.11836 2.43801,0.086 2.43801,0.53338 0,0.57888 -0.31284,0.67521 -2.60419,0.80188 -1.56625,0.0866 -2.18929,0.0244 -2.40916,-0.24056 z M 202.63643,155.53214 c -0.19933,-0.12637 -0.31405,-0.5527 -0.26459,-0.98327 0.10621,-0.92447 1.39761,-1.5583 1.81866,-0.89261 0.76018,1.20189 -0.40282,2.60571 -1.55407,1.87588 z m -4.14069,-0.55396 c -0.097,-0.15692 -0.0907,-2.08463 0.014,-4.28381 l 0.19033,-3.99851 -1.02613,0.69728 c -1.25063,0.84982 -2.22622,0.92545 -2.22622,0.17257 0,-0.3598 0.39499,-0.72576 1.25677,-1.16441 0.69122,-0.35183 1.54288,-0.88962 1.89257,-1.19508 1.23432,-1.07822 1.3516,-0.83851 1.31399,2.68576 -0.0546,5.11775 -0.28221,7.18968 -0.80064,7.28819 -0.2411,0.0458 -0.5177,-0.0451 -0.61467,-0.20199 z m -8.64065,-3.35971 c -0.6228,-0.75043 0.37261,-1.13828 2.65246,-1.03349 2.55555,0.11746 2.411,0.0855 2.411,0.53253 0,0.5915 -0.38726,0.7113 -2.63439,0.81494 -1.64897,0.0761 -2.16021,0.01 -2.42907,-0.31398 z m -92.779456,-8.60805 c -0.46492,-0.46493 -0.38819,-1.12401 0.19198,-1.64906 0.63914,-0.57841 1.35165,-0.45451 1.62365,0.28235 0.41399,1.12155 -0.99795,2.18438 -1.81563,1.36671 z m 4.444996,-0.57993 c -0.90489,-0.2404 -1.21095,-0.45669 -1.27532,-0.90125 -0.11784,-0.81372 0.47797,-0.95919 1.9214,-0.46913 1.69373,0.57503 3.12965,0.53839 3.70239,-0.0945 0.92179,-1.01857 -0.0978,-2.2229 -2.16066,-2.55215 -2.2004,-0.35121 -2.23551,-1.53623 -0.07,-2.36087 1.07191,-0.40818 1.47592,-0.70455 1.53734,-1.12775 0.0608,-0.41872 -0.0856,-0.61647 -0.54085,-0.73073 -0.99196,-0.24897 -2.37925,-0.25984 -3.33457,-0.0261 -0.82281,0.20129 -0.87581,0.17422 -0.79375,-0.40543 0.24298,-1.71635 5.89186,-1.4156 6.45015,0.34341 0.23696,0.74661 -0.54734,1.78291 -1.76042,2.32602 l -1.04548,0.46808 1.15161,0.4398 c 2.01592,0.76989 2.92589,2.74982 1.94901,4.24073 -0.74961,1.14405 -3.2358,1.51274 -5.7309,0.84987 z m 87.64323,-15.68197 c -0.1819,-0.0734 -0.33072,-0.48327 -0.33072,-0.91082 0,-0.96041 1.04302,-1.59228 1.71195,-1.03712 1.04998,0.87141 -0.0844,2.47122 -1.38123,1.94794 z m -8.3949,-0.95686 c -0.61597,-0.61597 -0.96493,-1.30284 -1.2035,-2.36886 -0.32023,-1.43093 -0.29599,-1.62752 0.51672,-4.19122 0.52288,-1.64945 1.10182,-2.93899 1.49676,-3.33393 0.63098,-0.63098 1.16878,-0.63224 1.16878,-0.003 0,0.21074 0.37799,0.28696 1.12746,0.22735 2.04744,-0.16284 3.376,1.51316 3.36464,4.24455 -0.01,2.31439 -1.41881,4.87021 -3.18093,5.76917 -1.47689,0.75346 -2.27575,0.66985 -3.28993,-0.34433 z m 3.21583,-1.17163 c 0.75425,-0.4942 2.20197,-3.29012 2.2023,-4.25321 3.2e-4,-0.92594 -0.68722,-2.36338 -1.28291,-2.68219 -0.8251,-0.44158 -1.83796,-0.33979 -2.42104,0.24329 -0.29105,0.29104 -0.63254,0.52917 -0.75889,0.52917 -0.42009,0 -1.15034,3.18433 -0.96132,4.1919 0.40185,2.142 1.72528,2.95164 3.22186,1.97104 z m -70.77753,-3.74831 c -0.19933,-0.12636 -0.31405,-0.5527 -0.26458,-0.98327 0.1062,-0.92446 1.39761,-1.55829 1.81865,-0.89261 0.76018,1.20189 -0.40282,2.60571 -1.55407,1.87588 z m -4.14069,-0.55396 c -0.097,-0.15691 -0.0907,-2.08462 0.014,-4.2838 l 0.19033,-3.99851 -1.02614,0.69727 c -1.25063,0.84983 -2.22622,0.92545 -2.22622,0.17257 0,-0.3598 0.39499,-0.72576 1.25677,-1.1644 0.69123,-0.35184 1.54288,-0.88962 1.89257,-1.19508 1.23433,-1.07822 1.3516,-0.83852 1.314,2.68576 -0.0546,5.11774 -0.28222,7.18968 -0.80065,7.28819 -0.24109,0.0458 -0.51769,-0.0451 -0.61467,-0.202 z m 13.88531,-0.15457 c -1.37451,-0.4331 -4.12507,-0.50783 -4.36562,-0.1186 -0.27891,0.45128 -1.68009,0.30398 -1.95263,-0.20527 -0.36661,-0.68502 0.0788,-1.29055 1.22707,-1.66817 1.15791,-0.38079 3.91735,-2.69198 4.45467,-3.73105 0.98068,-1.89642 -0.0408,-3.44571 -1.95861,-2.97058 -0.67326,0.1668 -1.08058,0.46884 -1.32675,0.98383 -0.44284,0.92644 -1.45566,0.90725 -1.58854,-0.0301 -0.11218,-0.79134 0.36507,-1.34439 1.67396,-1.93979 1.29649,-0.58976 2.55386,-0.6226 3.57717,-0.0934 1.00676,0.52062 1.31762,1.14419 1.31762,2.6431 0,1.55822 -0.25479,2.03804 -2.07233,3.9026 l -1.48298,1.52136 h 0.80359 c 1.05068,0 3.57823,0.74324 4.0398,1.18792 0.19911,0.19184 0.28139,0.47929 0.18282,0.63877 -0.23527,0.38067 -1.0638,0.34117 -2.52924,-0.12059 z"
       id="path1" /></g></svg>
