<?xml version="1.0" encoding="UTF-8" standalone="no"?>
<!-- Created with Inkscape (http://www.inkscape.org/) -->

<svg
   width="589.70886mm"
   height="365.59964mm"
   viewBox="0 0 589.70886 365.59964"
   version="1.1"
   id="svg1"
   inkscape:version="1.4 (e7c3feb100, 2024-10-09)"
   sodipodi:docname="neural-net-example-0.svg"
   xml:space="preserve"
   xmlns:inkscape="http://www.inkscape.org/namespaces/inkscape"
   xmlns:sodipodi="http://sodipodi.sourceforge.net/DTD/sodipodi-0.dtd"
   xmlns="http://www.w3.org/2000/svg"
   xmlns:svg="http://www.w3.org/2000/svg"><sodipodi:namedview
     id="namedview1"
     pagecolor="#ffffff"
     bordercolor="#666666"
     borderopacity="1.0"
     inkscape:showpageshadow="2"
     inkscape:pageopacity="0.0"
     inkscape:pagecheckerboard="0"
     inkscape:deskcolor="#d1d1d1"
     inkscape:document-units="mm"
     inkscape:zoom="0.14877245"
     inkscape:cx="746.1059"
     inkscape:cy="349.52709"
     inkscape:window-width="1440"
     inkscape:window-height="896"
     inkscape:window-x="0"
     inkscape:window-y="0"
     inkscape:window-maximized="1"
     inkscape:current-layer="layer1" /><defs
     id="defs1" /><g
     inkscape:label="Layer 1"
     inkscape:groupmode="layer"
     id="layer1"
     transform="translate(171.9678,4.71345)"><path
       style="fill:#000000"
       d="m -40.968366,360.34832 c -1.426017,-1.1217 -1.478675,-2.86347 -0.283537,-9.37852 1.516606,-8.26747 1.561719,-9.23725 1.56311,-33.60208 0.0011,-19.97349 -0.05045,-22.8596 -0.461104,-25.79688 -0.254314,-1.81901 -0.578251,-5.45041 -0.71986,-8.06979 -0.141609,-2.61937 -0.493416,-6.36984 -0.781793,-8.33437 -0.446057,-3.03871 -0.791429,-6.71021 -1.799211,-19.1266 -0.131135,-1.61566 -0.08512,-1.86098 0.457311,-2.43838 0.331714,-0.35309 1.505132,-1.0175 2.607597,-1.47646 1.692138,-0.70444 2.356224,-0.83749 4.261829,-0.8539 2.854502,-0.0246 3.447974,0.26184 3.447974,1.66403 0,0.56838 -0.09667,1.09315 -0.214814,1.16617 -0.118147,0.073 -1.377466,0.31986 -2.798486,0.54852 -1.42102,0.22866 -2.931698,0.59572 -3.357062,0.81569 l -0.773388,0.39993 0.01387,5.7479 c 0.01822,7.55087 0.401889,14.38836 0.908967,16.19893 0.224154,0.80037 0.583747,2.94349 0.799094,4.7625 0.215348,1.81901 0.686604,4.80774 1.047235,6.64162 1.209438,6.15023 1.303845,8.3178 1.318293,30.26775 0.01515,23.0161 -0.163756,26.54432 -1.720397,33.9282 -0.283238,1.34353 -0.514978,2.55919 -0.514978,2.70147 0,0.16415 1.435862,0.19974 3.929238,0.0974 3.777484,-0.15506 3.951202,-0.13933 4.497917,0.40739 0.388843,0.38884 0.568679,0.89738 0.568679,1.60811 0,1.64369 -1.078275,2.34452 -3.174575,2.06335 -0.56427,-0.0757 -1.956063,0.0263 -3.092873,0.22668 -3.075274,0.54201 -4.893625,0.48848 -5.729035,-0.16865 z m 31.6446969,-3.22696 c -0.6548654,-0.70579 -0.7734899,-1.17817 -0.4990426,-1.98727 0.3199251,-0.94318 1.4297239,-1.3318 5.0906144,-1.78258 4.7792706,-0.58849 4.59979823,-0.47179 4.59979823,-2.99087 0,-3.11152 -0.70473764,-6.63917 -2.15116803,-10.76792 -0.7137265,-2.03729 -1.8297841,-5.46483 -2.480128,-7.61675 l -1.1824435,-3.91257 -0.036071,-7.86139 c -0.030515,-6.65053 0.051814,-8.54528 0.5345176,-12.30162 0.9714788,-7.55994 1.3422713,-11.76714 1.5091244,-17.1233 0.3574997,-11.47612 -0.9459389,-27.25928 -2.551887,-30.90046 -0.5489056,-1.24454 -0.8804981,-1.43153 -7.6342324,-4.30499 -3.981276,-1.69389 -4.874563,-2.52453 -3.780109,-3.515 0.738172,-0.66803 1.664517,-0.53617 4.478473,0.63751 1.418064,0.59146 3.8879857,1.4317 5.4887149,1.8672 3.1774731,0.86448 4.0114532,1.28021 4.3420629,2.16448 0.4371177,1.16914 0.8436406,4.29682 1.6293529,12.53582 1.26007588,13.2132 1.35823353,15.21251 1.22518139,24.95503 -0.10399078,7.61454 -0.2258861,9.85201 -0.73512909,13.49375 -0.5290391,3.7833 -0.6103516,5.44203 -0.6095987,12.43541 9.704e-4,9.01276 0.098103,9.68366 2.10088519,14.51073 2.57940911,6.21686 4.08578741,12.53934 4.08578741,17.14864 0,4.24487 -0.667706,4.81175 -6.0814409,5.16308 -1.9667181,0.12763 -3.9925698,0.34757 -4.5018927,0.48875 -1.4510891,0.40222 -2.2435802,0.3086 -2.8413694,-0.33568 z M -74.332923,343.3703 c -0.544381,-0.77721 -0.522327,-1.87101 0.05114,-2.53642 0.828048,-0.96079 6.403605,-2.35871 12.349647,-3.09632 1.730922,-0.21472 3.199822,-0.4431 3.264223,-0.5075 0.0644,-0.0644 -0.222569,-1.64274 -0.637711,-3.50743 -0.750376,-3.37044 -0.755252,-3.45165 -0.831085,-13.84137 -0.07136,-9.77677 0.06159,-13.90883 0.732094,-22.75417 0.148918,-1.96453 0.39339,-5.22849 0.543271,-7.25325 0.14988,-2.02476 0.565881,-5.17991 0.924446,-7.01146 0.865037,-4.41859 1.022683,-6.1461 0.80232,-8.79195 l -0.184149,-2.21104 h -6.927101 c -7.551496,0 -8.508273,-0.14933 -8.81613,-1.37593 -0.08938,-0.35611 -0.03898,-0.91857 0.111987,-1.24992 0.265751,-0.58326 0.41638,-0.607 4.729934,-0.74569 2.450493,-0.0788 6.387478,-0.41581 8.748856,-0.74892 5.227642,-0.73745 5.444815,-0.67947 5.91686,1.57977 0.398529,1.90739 0.173945,7.50363 -0.526683,13.12402 -0.290246,2.32833 -0.656999,6.13833 -0.815008,8.46667 -0.158009,2.32833 -0.458342,6.19786 -0.667407,8.59895 -0.209065,2.4011 -0.509054,7.52078 -0.666641,11.37709 -0.157588,3.8563 -0.37592,8.32114 -0.485184,9.92187 -0.282006,4.13145 0.03898,7.27944 1.267981,12.43542 1.30187,5.46168 1.338661,6.25971 0.334864,7.26351 -0.80866,0.80866 -1.47565,0.95627 -7.763516,1.71815 -1.839559,0.2229 -4.577997,0.70407 -6.085417,1.06927 -3.502714,0.8486 -4.817755,0.86737 -5.371594,0.0766 z m 206.492293,-0.21238 c -0.50932,-0.11995 -3.24776,-0.34964 -6.08542,-0.51043 -6.70351,-0.37982 -6.69562,-0.37811 -7.83961,-1.69618 l -0.94951,-1.09401 0.179,-9.39271 c 0.32756,-17.18797 0.21951,-21.43455 -0.8179,-32.14687 -0.47403,-4.8948 -0.55752,-28.17101 -0.10666,-29.73594 0.40513,-1.40621 0.97582,-1.82739 3.62664,-2.67652 4.24562,-1.36 5.581,-1.11572 9.7445,1.78253 1.57303,1.09499 1.86477,1.4193 1.93628,2.15239 0.19129,1.96094 -0.96955,2.08245 -4.12426,0.43171 -1.38736,-0.72596 -2.62363,-1.19063 -3.16769,-1.19063 -1.47928,0 -3.16329,0.5422 -3.80477,1.22503 l -0.60501,0.644 -0.004,11.43475 c -0.003,9.12558 0.0888,12.26294 0.45546,15.5358 0.40168,3.58564 0.4248,4.96559 0.18394,10.98021 -0.18945,4.73072 -0.19108,9.85394 -0.005,16.40417 0.29364,10.3495 0.43908,12.47639 0.87144,12.74361 0.1557,0.0962 2.91355,0.32067 6.12857,0.49877 6.49165,0.35962 7.51357,0.6038 8.21662,1.96334 0.4044,0.78204 0.39779,0.87645 -0.12008,1.71438 -0.77363,1.25177 -1.53986,1.44426 -3.71234,0.9326 z m 82.6296,-0.22913 c -0.57183,-0.36062 -0.93166,-0.85963 -1.10907,-1.53807 -0.34694,-1.32667 -0.75274,-5.28899 -1.09189,-10.66154 -0.15157,-2.4011 -0.56147,-6.2111 -0.91088,-8.46667 -1.3219,-8.53326 -1.33513,-8.72871 -1.28988,-19.05 0.0476,-10.8464 0.28044,-14.36663 1.1139,-16.83708 0.78491,-2.32656 1.54933,-5.92249 2.29578,-10.79966 0.67811,-4.43068 1.82671,-9.96428 2.22132,-10.7016 0.12628,-0.23597 0.49191,-0.66583 0.8125,-0.95524 0.54674,-0.49358 0.96361,-0.526 6.72194,-0.52289 5.46135,0.003 6.21925,0.0559 6.8655,0.47931 0.58238,0.38159 0.71025,0.64329 0.64475,1.31959 -0.0707,0.73044 -0.22367,0.88581 -1.14002,1.15813 -0.58209,0.17298 -3.05759,0.39423 -5.50112,0.49167 l -4.44278,0.17716 -0.78018,1.36041 c -0.95284,1.66148 -2.59232,6.5287 -3.7558,11.14999 l -0.86596,3.43959 0.005,16.53645 0.005,16.53646 0.83756,5.42396 c 0.46066,2.98318 1.03265,7.86474 1.27108,10.84792 0.23843,2.98317 0.52337,5.78114 0.6332,6.2177 0.24388,0.96932 0.15847,0.96871 5.57171,0.0401 2.24953,-0.38588 4.40397,-0.70159 4.78764,-0.70159 1.35237,0 2.06056,1.59373 1.09606,2.46659 -0.53505,0.48421 -9.44029,2.75158 -11.69355,2.9773 -1.17334,0.11755 -1.61916,0.0424 -2.30165,-0.38803 z m -239.52752,-0.82253 c -1.154699,-1.1547 -0.327371,-4.57056 1.312374,-5.41851 0.967425,-0.50027 2.315904,-0.50258 3.185543,-0.005 0.363802,0.20797 0.750755,0.38234 0.859896,0.3875 0.109141,0.005 0.200796,-0.67523 0.203678,-1.51198 0.01006,-2.91897 0.75184,-6.68073 1.317379,-6.68073 0.941735,0 1.185172,3.34829 0.495649,6.81727 -0.300246,1.51053 -0.283634,1.90649 0.145302,3.46339 0.796808,2.89218 0.828203,3.28 0.256615,3.16992 -0.271324,-0.0523 -0.777458,-0.6101 -1.124744,-1.23966 l -0.631427,-1.14465 -1.091903,1.05055 c -1.397657,1.34472 -1.998557,1.64152 -3.323468,1.64152 -0.722949,0 -1.249264,-0.17354 -1.604894,-0.52917 z m 3.567702,-1.87649 c 1.911991,-1.76241 1.858215,-2.60887 -0.166283,-2.61738 -1.854123,-0.008 -3.307013,2.16923 -2.191895,3.28434 0.636328,0.63633 1.080591,0.51068 2.358178,-0.66696 z m -136.256242,1.22779 c -3.01113,-0.47194 -5.93195,-1.16851 -6.97477,-1.66336 -1.6083,-0.76318 -1.62419,-0.89863 -1.62419,-13.83839 0,-9.59203 -0.0951,-12.71412 -0.53417,-17.53714 -0.93608,-10.28234 -1.50926,-13.89981 -2.88289,-18.19459 -1.75589,-5.48991 -2.50851,-9.17083 -2.52273,-12.33826 -0.0127,-2.8269 0.0184,-3.00045 0.64812,-3.61664 0.68493,-0.67021 3.09755,-1.44857 9.5009,-3.06517 3.76162,-0.94966 4.7637,-0.95625 5.22074,-0.0343 0.17265,0.34827 0.25362,0.79033 0.17993,0.98235 -0.19114,0.49811 -2.21668,1.18962 -7.30476,2.49381 -2.44295,0.62618 -4.63465,1.27958 -4.87045,1.452 -0.38193,0.27928 -0.39545,0.59929 -0.12383,2.93231 0.29394,2.52478 1.13648,5.50071 2.94501,10.40205 2.19123,5.93852 3.09644,12.88785 3.46651,26.61259 0.40339,14.96031 0.64823,20.21915 0.95564,20.52657 0.57988,0.57988 4.33047,1.31004 8.02198,1.5617 3.63289,0.24767 3.86804,0.29762 4.43177,0.9415 0.76154,0.86981 0.75021,1.31334 -0.0541,2.11767 -0.61324,0.61325 -0.8086,0.64798 -3.50573,0.62326 -1.57096,-0.0144 -3.8088,-0.17547 -4.97296,-0.35794 z m 557.70324,-0.31933 c -1.10907,-0.15952 -1.79263,-0.93384 -1.57829,-1.78785 0.21614,-0.86115 0.46567,-0.89678 8.17763,-1.16776 5.37267,-0.18878 6.36211,-0.28702 6.74479,-0.6697 0.64703,-0.64704 0.79678,-5.22804 0.84878,-25.96604 0.0241,-9.60437 0.13438,-24.72531 0.24511,-33.60208 0.11568,-9.27424 0.10201,-16.25101 -0.0321,-16.40154 -0.13769,-0.15451 -2.9546,-0.30249 -6.86746,-0.36076 -6.07196,-0.0904 -6.67629,-0.14109 -7.13314,-0.59794 -0.65463,-0.65463 -0.64311,-1.72638 0.0224,-2.08254 0.29499,-0.15788 3.59907,-0.3749 7.60677,-0.49963 7.35026,-0.22877 7.25106,-0.23827 8.57194,0.82109 0.38822,0.31136 0.45511,3.61598 0.71378,35.26473 0.27099,33.156 0.1787,42.98441 -0.42483,45.23992 -0.14932,0.55804 -0.52307,0.94823 -1.2586,1.31397 -0.95076,0.47275 -1.67383,0.52457 -7.92538,0.56802 -3.78354,0.0263 -7.25365,-0.006 -7.71135,-0.0719 z m -213.22776,-1.79807 c -0.81675,-0.81675 -0.87813,-2.23658 -0.12611,-2.91715 0.31398,-0.28415 1.38923,-0.61225 2.68797,-0.8202 1.19056,-0.19063 2.3502,-0.53216 2.57699,-0.75895 0.33811,-0.3381 0.44559,-1.5197 0.59695,-6.56299 0.5532,-18.43144 0.003,-32.09284 -1.75945,-43.72148 -0.35297,-2.32834 -0.94588,-6.37646 -1.31757,-8.99584 -0.3717,-2.61937 -0.85039,-5.37272 -1.06377,-6.11855 -0.42672,-1.49156 -0.62936,-1.62715 -3.31235,-2.21619 -3.12546,-0.68619 -4.77499,-1.99651 -4.39904,-3.49443 0.23783,-0.94758 1.13196,-1.09179 2.90519,-0.46855 0.81961,0.28807 1.90543,0.52376 2.41293,0.52376 2.30967,0 4.96257,1.69451 5.79918,3.70417 0.39201,0.94165 0.80203,5.66333 1.10285,12.7 0.16671,3.89971 0.42951,6.37013 1.40731,13.22917 1.4549,10.20583 1.70769,14.03184 1.8319,27.72692 0.0651,7.1734 0.038,13.57803 -0.0602,14.23252 -0.19888,1.32622 -1.29562,2.78142 -2.60763,3.45988 -0.77658,0.40159 -4.19452,1.11951 -5.41842,1.13811 -0.33404,0.005 -0.89958,-0.28301 -1.25677,-0.6402 z m -52.77443,-8.28622 c -1.57187,-1.57187 -1.95304,-3.72449 -1.1846,-6.68998 0.57167,-2.20615 1.32729,-3.85362 2.14046,-4.66679 0.64307,-0.64307 0.73221,-0.6656 1.02879,-0.25999 0.2327,0.31823 0.71893,0.44408 1.71574,0.44408 1.257,0 1.48755,0.0965 2.39281,1.00178 1.72984,1.72984 1.93945,3.67511 0.73513,6.82221 -0.66931,1.74902 -1.9251,3.13075 -3.49221,3.84244 -1.60009,0.72667 -2.20526,0.6371 -3.33612,-0.49375 z m 3.60764,-1.36046 c 1.18913,-0.7251 2.47985,-3.41123 2.47985,-5.16083 0,-1.08643 -0.134,-1.49402 -0.68737,-2.09081 -1.34515,-1.45068 -2.31021,-1.44341 -4.04481,0.0305 -2.23909,1.90254 -1.68225,7.7302 0.7383,7.72671 0.37762,-5.4e-4 1.05894,-0.22804 1.51403,-0.50554 z m -288.29931,0.83129 c -1.66679,-1.66678 -2.0148,-4.15726 -1.0305,-7.3745 0.65734,-2.14855 1.73332,-4.23504 2.29514,-4.45063 0.2208,-0.0847 0.59894,0.0247 0.84031,0.2431 0.24137,0.21843 0.86827,0.38101 1.39311,0.36128 1.50353,-0.0565 2.53166,0.51673 3.31061,1.8459 0.98219,1.67597 0.97322,3.82492 -0.0251,6.00753 -0.88366,1.93198 -1.75827,2.89135 -3.39929,3.72869 -1.69023,0.86245 -2.21671,0.80623 -3.38431,-0.36137 z m 4.11233,-2.01148 c 1.70224,-1.77655 2.45269,-4.63033 1.63994,-6.2363 -0.45137,-0.89188 -1.8982,-1.69645 -2.69228,-1.49715 -0.93211,0.23395 -2.283,1.46312 -2.69702,2.454 -0.4168,0.99754 -0.47865,3.71158 -0.10688,4.68942 0.77567,2.04017 2.25053,2.26584 3.85624,0.59003 z m 21.55225,2.01148 c -1.59168,-1.59168 -1.97434,-3.89934 -1.16627,-7.03344 0.48997,-1.90036 1.83868,-4.56443 2.42461,-4.78927 0.22427,-0.0861 0.60525,0.0222 0.84661,0.24068 0.24137,0.21843 0.86827,0.38101 1.39311,0.36128 3.43859,-0.12927 5.10147,3.88306 3.2694,7.8887 -0.89534,1.95756 -1.78384,2.90813 -3.45809,3.69963 -1.77601,0.83961 -2.14294,0.79885 -3.30937,-0.36758 z m 4.11233,-2.01148 c 1.65205,-1.72417 2.38763,-4.33771 1.71718,-6.10114 -0.2686,-0.70646 -1.69025,-1.73444 -2.40103,-1.73615 -0.67069,-0.002 -2.565,1.35987 -2.89268,2.07904 -0.94884,2.08248 -0.76404,4.9816 0.39743,6.23486 0.95767,1.03334 1.86226,0.89772 3.1791,-0.47661 z m 21.294339,1.9966 c -1.414239,-1.41424 -1.699099,-4.13279 -0.781589,-7.45895 0.605849,-2.19632 1.587244,-4.0762 2.263457,-4.33569 0.243815,-0.0936 0.639008,0.008 0.881002,0.22749 0.241368,0.21843 0.868265,0.38101 1.393105,0.36128 1.433151,-0.0539 2.439608,0.48403 3.098221,1.65588 1.388189,2.46994 0.892659,5.83144 -1.203281,8.16263 -1.473873,1.6393 -2.359724,2.13581 -3.810636,2.13581 -0.845677,0 -1.260561,-0.16873 -1.840279,-0.74845 z m 3.584104,-1.33532 c 0.445813,-0.27186 1.18396,-1.07617 1.640327,-1.78735 1.493396,-2.32726 1.389948,-4.67067 -0.267758,-6.06553 -1.434146,-1.20676 -3.182204,-0.44112 -4.32478,1.89422 -0.934966,1.911 -0.835824,4.07696 0.251889,5.50302 0.826346,1.0834 1.487851,1.19502 2.700322,0.45564 z m 23.673241,1.44823 c -0.157964,-0.41548 -0.184195,-2.22874 -0.06766,-4.67691 0.104681,-2.19909 0.102648,-4.05254 -0.0045,-4.11877 -0.107167,-0.0662 -0.712992,0.18323 -1.346278,0.55436 -1.285646,0.75343 -1.907968,0.84781 -2.110486,0.32006 -0.210585,-0.54878 0.04899,-0.79011 2.436945,-2.26563 1.715628,-1.06009 2.280375,-1.29615 2.46633,-1.03093 0.281646,0.4017 0.04825,9.74986 -0.272396,10.91008 -0.281234,1.01762 -0.779171,1.15668 -1.101939,0.30774 z m 238.280426,0.23385 c -0.70003,-0.70003 -0.50794,-1.38577 0.54317,-1.939 1.13751,-0.59871 1.92484,0.2859 1.34141,1.50715 -0.39679,0.83056 -1.28283,1.0336 -1.88458,0.43185 z m 5.88491,-0.0765 c -1.32131,-0.63778 -1.81685,-1.08923 -1.81685,-1.65521 0,-0.79885 0.44386,-0.82911 1.83337,-0.12499 1.51979,0.77013 2.37019,0.83675 3.46359,0.27133 1.41125,-0.72978 1.72648,-2.18425 0.74409,-3.43316 -0.55009,-0.69933 -0.64233,-0.72208 -2.25669,-0.55668 -0.92573,0.0948 -2.00709,0.23153 -2.40302,0.30375 -1.41739,0.25854 -1.51385,-0.0824 -0.85071,-3.00721 0.33075,-1.45878 0.69928,-2.81114 0.81895,-3.00523 0.16028,-0.25995 1.19602,-0.37559 3.93255,-0.43905 3.32641,-0.0771 3.73334,-0.0383 3.89074,0.37194 0.11805,0.30762 -0.0343,0.62917 -0.46364,0.9789 -0.57783,0.47064 -0.89802,0.50427 -3.32346,0.34912 l -2.68402,-0.17169 -0.31967,1.33254 c -0.38673,1.61209 -0.21994,2.22534 0.53967,1.98425 1.19301,-0.37865 3.42725,-0.21142 4.00073,0.29946 0.72613,0.64686 1.27986,1.97599 1.27862,3.06907 -0.003,2.62828 -3.81009,4.67539 -6.38425,3.43286 z m -15.21898,-0.32982 c -0.97217,-0.62281 -1.61781,-1.84579 -1.84343,-3.49184 -0.28553,-2.0832 1.63663,-8.16944 2.71018,-8.58141 0.20421,-0.0784 0.56531,0.0186 0.80244,0.21536 0.23714,0.1968 1.01552,0.36994 1.72973,0.38474 1.59762,0.0331 2.50452,0.6417 3.34179,2.24254 1.14515,2.18949 0.34761,5.83542 -1.75216,8.00996 -1.78047,1.84387 -3.39795,2.23965 -4.98855,1.22065 z m 3.83091,-2.30079 c 1.37287,-1.37866 1.89831,-2.67608 1.89831,-4.68737 0,-1.07167 -0.1299,-1.38242 -0.89959,-2.15211 -1.09854,-1.09854 -1.91152,-1.14791 -3.33971,-0.20278 -0.88898,0.5883 -1.13596,0.96558 -1.58603,2.42274 -0.70601,2.28579 -0.45062,3.8229 0.87743,5.28098 0.84258,0.92507 1.64249,0.75157 3.04959,-0.66146 z m 81.9651,-0.88331 c -0.89068,-0.70061 -2.91126,-3.53072 -3.59201,-5.03112 -0.72745,-1.60333 -0.72462,-4.48464 0.006,-6.43824 1.09298,-2.92126 3.62471,-5.56134 4.87353,-5.08212 0.65523,0.25144 0.48404,0.58105 -1.21365,2.33673 -2.26072,2.33794 -2.71345,3.31529 -2.55588,5.51754 0.14684,2.05225 0.94453,3.9538 2.54536,6.06767 1.53826,2.03125 1.49411,3.85489 -0.0637,2.62954 z m 155.77106,0.15158 c -0.0949,-0.24726 0.2711,-0.86206 0.95452,-1.60348 1.4438,-1.56634 1.8618,-2.62624 1.8618,-4.72087 0,-3.13138 -0.69002,-5.2874 -2.50489,-7.82673 -1.15834,-1.62072 -1.2838,-2.05282 -0.68854,-2.37139 1.04023,-0.55672 2.59312,1.44246 3.91896,5.04523 0.61474,1.67046 0.71955,2.36236 0.71718,4.73449 -0.003,2.60285 -0.0559,2.88076 -0.84527,4.40489 -1.18882,2.29547 -2.96362,3.51091 -3.41376,2.33786 z m -105.47188,-3.0397 c -0.96877,-0.76203 -1.71181,-2.26294 -1.91248,-3.8631 -0.39777,-3.17187 2.59169,-10.01313 3.60087,-8.24047 0.20164,0.35419 0.61074,0.46302 1.74057,0.46302 1.34762,0 1.55411,0.0818 2.35787,0.93403 1.40984,1.49487 1.75604,3.43045 1.04292,5.83097 -0.58234,1.9603 -1.78905,3.67613 -3.14366,4.46998 -1.70782,1.00085 -2.77942,1.11876 -3.68609,0.40557 z m 2.94843,-1.70026 c 0.78302,-0.40492 1.94509,-1.92616 2.40206,-3.14449 0.41944,-1.11827 0.34465,-3.40986 -0.13356,-4.09261 -0.58182,-0.83065 -1.87465,-1.44566 -2.57302,-1.22401 -1.22812,0.38979 -2.51168,1.71251 -2.80948,2.89519 -0.5408,2.14771 -0.2319,4.28062 0.77675,5.36328 0.6285,0.67461 1.31025,0.73371 2.33725,0.20264 z m 42.79433,1.98129 c -1.87528,-0.36176 -3.07174,-3.4356 -2.52279,-6.48132 0.64615,-3.585 2.74872,-7.16009 3.4617,-5.88607 0.18514,0.33082 0.61224,0.44581 1.65587,0.44581 2.44559,0 3.59552,1.4947 3.59293,4.67019 -0.002,2.52341 -0.35366,3.54568 -1.75599,5.10541 -1.66381,1.85056 -2.88863,2.44366 -4.43172,2.14598 z m 2.51204,-2.20774 c 0.56144,-0.37776 1.23278,-1.25929 1.78785,-2.34763 0.74229,-1.45539 0.85964,-1.91551 0.71178,-2.7907 -0.88522,-5.2396 -6.23082,-3.39222 -6.23082,2.15331 0,1.32885 0.27164,2.04396 1.13752,2.99462 0.68958,0.75709 1.45843,0.75425 2.59367,-0.01 z m -94.02992,1.6604 c -1.08724,-0.85523 -1.60449,-2.58289 -1.44403,-4.82322 0.17728,-2.47531 1.26233,-5.62187 2.29457,-6.65411 0.75027,-0.75027 0.81761,-0.7683 1.2861,-0.34432 0.31327,0.2835 0.93973,0.44741 1.71002,0.44741 1.55552,0 2.63696,0.86203 3.21698,2.56431 1.03342,3.03292 -0.1426,6.56616 -2.84765,8.55548 -1.33031,0.97832 -3.15568,1.08848 -4.21599,0.25445 z m 3.85017,-1.83021 c 0.4853,-0.42609 1.21906,-1.44021 1.6306,-2.25359 0.6055,-1.19676 0.72209,-1.71087 0.61115,-2.69509 -0.24786,-2.19899 -1.88135,-3.62458 -3.42195,-2.98644 -2.8408,1.17669 -3.84414,5.86477 -1.73666,8.11453 0.77429,0.82656 1.84621,0.76063 2.91686,-0.17941 z m 132.21621,1.95899 c -0.25739,-0.31013 -0.2912,-1.40965 -0.14646,-4.7625 0.1035,-2.3976 0.11189,-4.35927 0.0186,-4.35927 -0.0933,0 -0.69345,0.30702 -1.33378,0.68228 -1.29293,0.75771 -2.105,0.75924 -2.105,0.004 0,-0.59429 4.36441,-3.42515 4.73007,-3.06804 0.27169,0.26533 0.066,10.76087 -0.22426,11.44377 -0.24194,0.56922 -0.50265,0.58582 -0.93921,0.0598 z m 4.98605,0.12856 c -1.32543,-0.77335 -1.12652,-4.03675 0.33117,-5.43331 0.6356,-0.60894 1.01189,-0.74378 2.07555,-0.74378 0.71456,0 1.48261,0.15221 1.70676,0.33824 0.63809,0.52957 0.95991,0.10653 0.95991,-1.26184 0,-2.39393 0.88926,-6.38297 1.42294,-6.38297 0.95738,0 1.26297,3.21706 0.56143,5.91044 -0.54338,2.08621 -0.50035,2.90191 0.2734,5.18186 0.44559,1.31299 0.57863,2.05213 0.40128,2.22947 -0.34561,0.34562 -1.17915,-0.39776 -1.60864,-1.43465 -0.37897,-0.91492 -0.54517,-0.94992 -1.17997,-0.24848 -1.45212,1.60458 -3.83304,2.49313 -4.94383,1.84502 z m 3.13765,-2.17273 c 0.44765,-0.47294 0.96233,-1.14812 1.14374,-1.50041 0.28291,-0.5494 0.26142,-0.69053 -0.15111,-0.99218 -0.26452,-0.19342 -0.64061,-0.35168 -0.83575,-0.35168 -0.75105,0 -2.10149,0.75171 -2.53269,1.4098 -1.31623,2.00883 0.68722,3.21848 2.37581,1.43447 z m -159.9419,1.84301 c -0.22452,-0.27052 -0.83018,-3.11889 -0.83912,-3.94626 -10e-4,-0.10177 -0.37686,-0.53537 -0.83504,-0.96357 -0.92591,-0.86535 -0.89016,-1.53634 0.0893,-1.67515 0.54047,-0.0766 0.62938,-0.27106 0.7655,-1.67417 0.30854,-3.18043 1.1957,-4.55995 3.09643,-4.81489 1.25031,-0.1677 2.85409,0.30185 3.08484,0.90318 0.27057,0.70508 -0.24108,0.95659 -1.26115,0.61994 -0.74955,-0.24737 -1.11173,-0.22928 -1.88596,0.0942 -1.08886,0.45496 -1.56689,1.36451 -1.83544,3.49229 -0.20566,1.62947 -0.0901,1.75443 2.161,2.33676 1.95181,0.50491 2.96856,0.93501 2.96856,1.25574 0,0.46174 -0.85099,0.5342 -2.82515,0.24059 -1.10931,-0.16499 -2.04823,-0.26828 -2.08649,-0.22953 -0.0383,0.0387 0.0276,0.95403 0.1464,2.03394 0.27171,2.4701 0.0225,3.25002 -0.74364,2.32692 z m 26.12603,-0.43359 c -0.88694,-0.88695 -0.98123,-1.75137 -0.33871,-3.10538 0.82173,-1.73166 3.65605,-3.08777 5.05121,-2.4168 1.13338,0.54507 2.45673,2.92487 3.13975,5.64625 0.15527,0.61865 0.10516,0.68535 -0.45527,0.60609 -0.42032,-0.0594 -0.79098,-0.41902 -1.11456,-1.08124 -0.26665,-0.54571 -0.60557,-0.99219 -0.75315,-0.99219 -0.14759,0 -0.80939,0.47625 -1.47067,1.05833 -1.55614,1.36977 -2.88077,1.46277 -4.0586,0.28494 z m 3.75565,-1.84131 c 0.77084,-0.77085 1.0272,-1.24133 1.0272,-1.88516 0,-0.81711 -0.0388,-0.85019 -0.81487,-0.69497 -2.13571,0.42714 -3.66914,1.87153 -3.28197,3.09139 0.12185,0.3839 0.40415,0.51595 1.10309,0.51595 0.73838,0 1.15911,-0.21977 1.96655,-1.02721 z m 42.64982,2.09871 c -0.46365,-0.28271 -0.96967,-0.75069 -1.12448,-1.03995 -0.35663,-0.66638 -0.35941,-4.7372 -0.005,-7.82804 0.35262,-3.07821 0.49041,-3.5806 0.98204,-3.5806 0.35418,0 0.38846,0.49677 0.26391,3.82421 l -0.14315,3.8242 2.08199,-0.0444 c 1.73303,-0.0369 2.20506,0.047 2.81626,0.50099 1.84763,1.37228 1.80429,2.85684 -0.119,4.07656 -1.51683,0.96194 -3.43571,1.06976 -4.75223,0.26702 z m 3.73589,-1.11166 c 1.25627,-0.57239 1.0853,-2.16263 -0.26905,-2.50255 -0.83199,-0.20882 -2.41543,0.0335 -2.91202,0.44563 -0.50152,0.41623 -0.47161,1.28528 0.0646,1.8778 0.50524,0.55828 2.08502,0.64908 3.11646,0.17912 z m 41.24774,1.1291 c -0.60672,-0.28313 -1.24518,-0.7802 -1.41878,-1.10459 -0.41803,-0.7811 -0.17953,-2.39599 0.52134,-3.53002 0.71118,-1.15072 2.60736,-2.12275 3.68094,-1.88695 1.02981,0.22618 1.89151,1.07856 1.89151,1.87105 0,0.79317 -0.48763,0.83581 -1.39512,0.12198 -0.91463,-0.71945 -1.33807,-0.66861 -2.43213,0.29199 -0.66272,0.58188 -0.93525,1.04249 -0.93525,1.58071 0,1.03585 0.93028,1.46671 3.51039,1.62584 1.13034,0.0697 2.13529,0.20687 2.23321,0.30478 0.0979,0.0979 -0.0253,0.38135 -0.27378,0.62984 -0.70206,0.70205 -3.95864,0.75976 -5.38233,0.0954 z m -71.64266,-1.4025 c -0.075,-0.33687 -0.16851,-1.0292 -0.20779,-1.53853 l -0.0714,-0.92604 -1.5875,-0.13229 c -1.11604,-0.093 -1.5875,-0.24159 -1.5875,-0.50033 0,-0.50272 0.56454,-0.7664 2.05052,-0.95776 l 1.25677,-0.16183 v -1.29109 c 0,-0.7101 0.10832,-1.35804 0.24071,-1.43986 0.53943,-0.33339 1.03623,0.21158 1.20227,1.31886 0.17475,1.16532 0.17526,1.16578 1.47797,1.33859 1.26227,0.16744 2.1139,0.71157 1.72869,1.1045 -0.10355,0.10562 -0.80512,0.31307 -1.55906,0.46099 l -1.37079,0.26894 -0.13229,1.45085 c -0.11375,1.24752 -0.21441,1.46252 -0.71825,1.53417 -0.43193,0.0614 -0.62181,-0.0777 -0.72233,-0.52917 z m 44.99285,0.15962 c -0.0883,-0.23018 -0.1606,-0.86844 -0.1606,-1.41835 v -0.99984 l -1.37309,-0.16262 c -0.7552,-0.0894 -1.54839,-0.33792 -1.76264,-0.55217 -0.34301,-0.34301 -0.31331,-0.41951 0.24861,-0.64029 0.35099,-0.1379 1.11441,-0.35249 1.69649,-0.47687 1.02303,-0.21859 1.06312,-0.26769 1.20156,-1.47178 0.16114,-1.40154 0.32231,-1.66428 0.88778,-1.44728 0.24042,0.0922 0.42415,0.58442 0.47444,1.27085 0.0819,1.11793 0.085,1.12094 1.46204,1.42969 1.42792,0.32015 2.28472,0.81877 2.05252,1.19447 -0.0734,0.11885 -0.77407,0.29612 -1.55692,0.39393 -1.31855,0.16474 -1.43515,0.23674 -1.58333,0.97763 -0.088,0.43989 -0.15996,1.1421 -0.15996,1.56047 0,0.62593 -0.11216,0.76068 -0.63315,0.76068 -0.34823,0 -0.70542,-0.18833 -0.79375,-0.41852 z m 44.15806,0.0878 c -0.0631,-0.1819 -0.14866,-0.79824 -0.19013,-1.36964 l -0.0754,-1.03891 -1.51666,-0.30135 c -0.83416,-0.16575 -1.59526,-0.37997 -1.69135,-0.47605 -0.37142,-0.37143 0.49316,-0.91955 1.65747,-1.05078 1.3982,-0.1576 1.67313,-0.46172 1.67878,-1.85699 0.003,-0.65487 0.14509,-1.05461 0.41233,-1.15717 0.56878,-0.21826 0.69286,-0.0236 0.84493,1.32553 0.13219,1.17284 0.13858,1.17925 1.35803,1.3621 2.59429,0.389 2.92933,1.24537 0.6299,1.61002 -1.49623,0.23728 -1.52253,0.25655 -1.59277,1.1673 -0.1294,1.67778 -0.30938,2.11667 -0.86797,2.11667 -0.29283,0 -0.58406,-0.14883 -0.64716,-0.33073 z m -389.262563,-2.30742 c -1.941531,-0.46128 -2.66992,-1.48518 -2.370246,-3.33185 0.289141,-1.78177 2.277564,-3.555 3.986424,-3.555 0.901108,0 2.279799,1.21426 2.279799,2.00789 0,0.80206 -0.77535,0.86001 -1.455209,0.10878 -0.263389,-0.29105 -0.744238,-0.52917 -1.068553,-0.52917 -0.719008,0 -2.570726,1.96177 -2.452269,2.59802 0.13085,0.70281 1.775039,1.36947 3.388531,1.37393 2.679589,0.007 3.420579,0.59289 1.567627,1.23864 -1.019294,0.35522 -2.602068,0.39146 -3.876104,0.0888 z m 105.6415,-2.63652 c 0.403999,-0.39794 3.225244,-1.72418 5.939896,-2.79228 1.382448,-0.54394 2.626651,-1.09452 2.764896,-1.22352 0.328472,-0.30649 -2.98401,-0.29819 -13.326175,0.0334 -4.596036,0.14734 -17.167055,0.50393 -27.935597,0.79242 -10.768542,0.28848 -23.302679,0.65583 -27.853638,0.81633 -7.974438,0.28125 -9.253888,0.24551 -8.94767,-0.24997 0.158902,-0.2571 3.175759,-0.4118 18.809641,-0.96451 5.966354,-0.21093 11.859948,-0.44938 13.096875,-0.5299 1.236928,-0.0805 10.523803,-0.43964 20.637501,-0.79807 18.306888,-0.64881 28.327015,-1.1147 28.53927,-1.32695 0.141571,-0.14157 0.102055,-0.1544 -4.358706,-1.41493 -4.354583,-1.23052 -8.1054,-2.62404 -7.910728,-2.93903 0.211279,-0.34186 2.967162,0.38992 8.600998,2.28385 5.579265,1.87558 6.35,2.23548 6.35,2.96517 0,0.35418 -0.332181,0.55431 -1.285246,0.7743 -0.706886,0.16317 -2.760714,1.00879 -4.564063,1.87917 -1.803349,0.87037 -4.192778,1.88841 -5.309842,2.26231 -2.041414,0.68329 -3.730541,0.90812 -3.247412,0.43223 z m 4.887186,-1.50533 c 0.591065,-0.23649 1.025869,-0.47879 0.96623,-0.53843 -0.05964,-0.0596 -0.689657,0.12737 -1.40004,0.41557 -0.710382,0.2882 -1.145186,0.5305 -0.96623,0.53843 0.178956,0.008 0.808974,-0.17907 1.40004,-0.41557 z m 3.169377,-3.52465 3.571875,-0.18796 -2.910417,-0.0106 c -1.600729,-0.006 -4.279635,0.0723 -5.953125,0.17347 l -3.042708,0.18403 2.38125,0.0145 c 1.309687,0.008 3.988594,-0.0701 5.953125,-0.17348 z M -124.85295,299.2204 c -0.87514,-0.68839 -1.40657,-1.69762 -1.75707,-3.33686 -0.2218,-1.03734 -0.17625,-1.64198 0.24863,-3.30062 0.64538,-2.51935 1.49688,-4.53155 2.17877,-5.14865 0.42592,-0.38546 0.61151,-0.41269 1.03028,-0.15116 0.28092,0.17544 1.01841,0.31943 1.63884,0.31997 2.84721,0.002 4.62006,2.92546 3.76514,6.20771 -0.74384,2.8558 -1.86043,4.4258 -3.8833,5.46018 -1.27649,0.65272 -2.34859,0.63589 -3.22129,-0.0506 z m 2.95671,-1.53867 c 0.65161,-0.33436 1.29153,-1.01789 1.90335,-2.03308 0.79477,-1.31875 0.92231,-1.76244 0.92605,-3.22157 0.004,-1.57914 -0.0534,-1.74381 -0.85974,-2.46484 -1.11079,-0.99326 -2.17148,-1.0073 -3.40175,-0.045 -1.16296,0.90961 -1.6106,1.74195 -1.8312,3.40492 -0.23409,1.76463 0.22893,3.34227 1.22752,4.18253 0.96586,0.81272 0.82146,0.80016 2.03577,0.17708 z m 22.407703,1.21288 c -0.570793,-0.57079 -1.037503,-1.42591 -1.332973,-2.44226 -0.42049,-1.44643 -0.42332,-1.69446 -0.0377,-3.30104 0.59919,-2.49663 1.460744,-4.67189 2.176824,-5.49607 0.54206,-0.62389 0.689715,-0.67262 1.16316,-0.38388 0.298256,0.18191 1.049915,0.33118 1.670353,0.33172 3.231888,0.003 4.833108,3.58718 3.360616,7.52277 -0.970258,2.59325 -3.308754,4.64708 -5.291173,4.64708 -0.588051,0 -1.087343,-0.2566 -1.709067,-0.87832 z m 3.25688,-1.21288 c 0.651612,-0.33436 1.291531,-1.01789 1.903356,-2.03308 0.794766,-1.31875 0.922306,-1.76244 0.926042,-3.22157 0.004,-1.57914 -0.0534,-1.74381 -0.859738,-2.46484 -1.194488,-1.0681 -2.183321,-1.02104 -3.640833,0.17328 -0.978174,0.80154 -1.200859,1.16983 -1.458901,2.41281 -0.441893,2.12859 -0.135191,3.69206 0.934002,4.76125 0.481714,0.48172 0.952025,0.87585 1.045134,0.87585 0.09311,0 0.611032,-0.22667 1.150938,-0.5037 z m 22.407704,1.21288 c -1.068001,-1.068 -1.847206,-3.46156 -1.594726,-4.89868 0.233006,-1.32627 1.174325,-4.20684 1.749329,-5.3532 0.67876,-1.35321 1.221122,-1.74997 1.85286,-1.35545 0.277251,0.17315 1.011723,0.31526 1.632161,0.3158 1.505965,0.001 2.649589,0.74528 3.34091,2.17336 1.507321,3.11371 -0.326001,8.04103 -3.535757,9.50286 -1.59394,0.72594 -2.427201,0.63288 -3.444777,-0.38469 z m 3.285705,-1.25509 c 1.765316,-0.99216 3.212683,-4.12038 2.835838,-6.12914 -0.227205,-1.2111 -1.47215,-2.32079 -2.60367,-2.32079 -0.537189,0 -1.196233,0.31457 -1.945694,0.9287 -0.933196,0.76468 -1.18948,1.17952 -1.451193,2.34898 -0.467294,2.08808 -0.142873,3.75962 0.939822,4.84231 0.481714,0.48172 0.960836,0.87585 1.064716,0.87585 0.103879,0 0.625961,-0.24566 1.160181,-0.54591 z m -74.502052,1.44065 c -0.0904,-0.23549 -0.0873,-2.37998 0.007,-4.76552 l 0.17106,-4.33736 -1.59647,0.80589 c -0.87806,0.44324 -1.7108,0.73524 -1.85053,0.64887 -0.42221,-0.26094 -0.28786,-0.79698 0.34124,-1.36149 1.06093,-0.95199 3.88824,-2.50857 4.20307,-2.314 0.22408,0.13849 0.26308,1.58052 0.14536,5.37521 -0.0885,2.85227 -0.23888,5.45384 -0.33421,5.78126 -0.2012,0.69103 -0.84711,0.79042 -1.08628,0.16714 z m 122.815292,-0.31857 c -1.228182,-0.42031 -2.288464,-1.1748 -2.524908,-1.7967 -0.325965,-0.85735 -0.321076,-3.19461 0.01432,-6.84926 0.336594,-3.66764 0.483014,-4.36563 0.915798,-4.36563 0.58239,0 0.652627,0.6351 0.483657,4.3733 l -0.162503,3.59511 0.769107,-0.17234 c 0.423009,-0.0948 0.966382,-0.22531 1.207496,-0.29005 0.773777,-0.20777 2.835449,0.47019 3.52412,1.15886 0.755976,0.75597 0.862218,1.78758 0.271022,2.63163 -0.867972,1.2392 -3.242777,2.14469 -4.498114,1.71508 z m 2.719254,-1.7818 c 0.740203,-0.51846 0.750807,-1.27744 0.02795,-2.0003 -0.454419,-0.45442 -0.780915,-0.5352 -1.730529,-0.42816 -1.894663,0.21355 -2.71728,1.3091 -1.769415,2.35648 0.555086,0.61336 2.637428,0.65653 3.471997,0.072 z m 263.293894,-3.08621 c -0.72008,-0.59135 -1.9967,-2.39517 -3.04827,-4.30712 -0.93084,-1.69243 -1.01789,-2.02314 -1.0099,-3.83646 0.0101,-2.3002 0.3601,-3.51817 1.60955,-5.60191 0.86061,-1.43527 2.86903,-3.12934 3.71001,-3.12934 0.82719,0 0.24242,1.2012 -1.46079,3.00067 -1.47057,1.55369 -1.87331,2.16907 -2.13587,3.26355 -0.60008,2.50143 0.51441,5.75511 2.90326,8.47587 1.22147,1.39118 0.73822,3.20744 -0.56799,2.13474 z m 156.65874,-0.10869 c 0,-0.23748 0.39582,-0.80509 0.8796,-1.26136 1.45878,-1.3758 1.79347,-2.09625 1.95286,-4.20368 0.22511,-2.97649 -0.42538,-5.49667 -2.0684,-8.01352 -1.38322,-2.11888 -1.52785,-2.83731 -0.59805,-2.97065 1.10819,-0.15892 3.01874,3.04719 3.96192,6.64855 0.46129,1.76132 0.38936,5.01268 -0.15138,6.84295 -0.38513,1.30357 -2.4192,3.38949 -3.30522,3.38949 -0.44447,0 -0.67133,-0.14591 -0.67133,-0.43178 z m -109.00834,-2.6655 c -0.6343,-0.23187 -1.60278,-1.20226 -2.05804,-2.0621 -0.25866,-0.48852 -0.42097,-1.45507 -0.4221,-2.51354 -0.003,-3.05043 1.85644,-7.9375 3.02046,-7.9375 0.28491,0 0.51802,0.11906 0.51802,0.26458 0,0.14552 0.54169,0.26459 1.20376,0.26459 2.48186,0 4.13431,1.66452 4.29982,4.33124 0.26546,4.27712 -3.56757,8.74734 -6.56192,7.65273 z m 2.28446,-1.90827 c 1.69084,-1.03102 2.74263,-3.08022 2.74263,-5.34348 0,-1.04797 -0.14581,-1.44029 -0.82116,-2.20947 -1.0157,-1.15682 -2.03325,-1.22939 -3.45201,-0.24619 -1.13062,0.78352 -1.90576,2.63799 -1.87773,4.49232 0.0262,1.73252 1.26998,3.77756 2.31444,3.80542 0.14552,0.004 0.63774,-0.22049 1.09383,-0.4986 z m 41.78073,1.27648 c -0.94651,-0.83105 -1.73185,-2.73934 -1.73185,-4.2082 0,-1.90791 1.99671,-7.27761 2.82425,-7.59517 0.21254,-0.0816 0.6463,-0.0221 0.96391,0.13212 0.3176,0.15423 1.15206,0.33504 1.85434,0.4018 1.5419,0.14657 2.60351,1.04158 3.25313,2.7426 1.12889,2.95595 -0.79502,7.51691 -3.73399,8.85206 -1.5347,0.6972 -2.35379,0.61953 -3.42979,-0.32521 z m 2.97764,-1.14059 c 1.73836,-0.90446 2.94855,-3.15285 2.95761,-5.49489 0.005,-1.32721 -0.0885,-1.59526 -0.80829,-2.3151 -1.03368,-1.03368 -2.05954,-1.05945 -3.44394,-0.0865 -1.14927,0.8077 -1.8321,2.46219 -1.82156,4.41365 0.01,1.76619 1.17199,3.80782 2.19014,3.84653 0.11637,0.004 0.53308,-0.15923 0.92604,-0.36369 z m 41.26858,1.36261 c -0.95748,-0.78894 -1.77966,-2.69748 -1.78684,-4.14785 -0.0137,-2.76747 1.93846,-7.74238 3.10304,-7.90778 0.32742,-0.0465 0.59531,0.0428 0.59531,0.19844 0,0.16205 0.54866,0.28299 1.28379,0.28299 3.6124,0 5.23799,4.03463 3.30693,8.20762 -1.51049,3.26414 -4.65234,4.89086 -6.50223,3.36658 z m 3.2411,-1.58618 c 1.43014,-0.96894 2.47073,-2.93523 2.59621,-4.90576 0.10259,-1.61115 0.0695,-1.72241 -0.77058,-2.58913 -1.14444,-1.18077 -2.17288,-1.20691 -3.58186,-0.091 -1.24948,0.98955 -1.64347,1.97092 -1.6699,4.15947 -0.0219,1.81332 0.40184,2.9376 1.36015,3.60882 0.77832,0.54516 1.02418,0.52346 2.06598,-0.18237 z m -132.25739,-2.71198 c 0.0555,-2.54662 0.006,-4.63021 -0.11107,-4.63021 -0.11663,0 -0.80788,0.30192 -1.5361,0.67094 -1.39541,0.70711 -1.83337,0.67424 -1.83337,-0.13757 0,-0.3306 0.65049,-0.88866 1.96875,-1.68899 3.14606,-1.91002 2.9341,-2.18037 2.8768,3.66916 -0.0587,5.98996 -0.16175,6.74688 -0.9188,6.74688 -0.53619,0 -0.54515,-0.093 -0.44621,-4.63021 z m 51.64635,4.22217 c -1.58761,-0.69583 -1.94563,-1.48124 -1.94563,-4.26828 0,-2.98259 0.46205,-7.4039 0.84938,-8.12763 0.27486,-0.51359 0.28363,-0.51372 0.65246,-0.01 0.23234,0.3174 0.32272,0.86121 0.23877,1.43674 -0.0743,0.50933 -0.21258,2.08372 -0.30732,3.49867 l -0.17225,2.57262 1.70883,-0.15958 c 2.03337,-0.18987 3.41259,0.19202 4.16974,1.15459 1.09175,1.38793 0.46657,2.87454 -1.57891,3.75448 -1.47231,0.63337 -2.41961,0.67222 -3.61507,0.14827 z m 3.63115,-1.59492 c 0.70637,-0.63926 0.63528,-1.2986 -0.21186,-1.96496 -0.79947,-0.62886 -2.0649,-0.56255 -3.19809,0.1676 -0.81219,0.52332 -0.69767,1.67212 0.21442,2.1509 0.83477,0.43821 2.52761,0.25092 3.19553,-0.35354 z m 83.83063,1.50938 c -1.1183,-0.90555 -0.67522,-3.84588 0.77768,-5.16073 0.7691,-0.69603 2.68718,-0.86469 3.75806,-0.33046 0.47244,0.23569 0.90022,0.42852 0.95062,0.42852 0.0504,0 0.0916,-0.61702 0.0916,-1.37115 0,-2.02182 0.55151,-5.9666 0.90099,-6.44454 0.47876,-0.65474 1.13564,-0.1991 1.28158,0.88894 0.12207,0.91015 -0.077,3.56279 -0.48119,6.41139 -0.12119,0.85415 -0.009,1.78245 0.38678,3.19188 0.30672,1.09309 0.55768,2.12867 0.55768,2.30129 0,0.6223 -0.82813,0.29622 -1.26908,-0.49971 -0.97755,-1.76451 -0.96074,-1.75857 -1.91084,-0.67646 -0.47706,0.54334 -1.20098,1.1604 -1.60872,1.37125 -1.04254,0.53912 -2.69893,0.48597 -3.4352,-0.11022 z m 2.95289,-1.43095 c 0.9772,-0.65853 2.16242,-2.23927 2.01515,-2.6876 -0.0511,-0.15547 -0.65163,-0.31906 -1.33457,-0.36354 -1.0805,-0.0704 -1.34405,0.0215 -2.02984,0.70725 -0.87297,0.87297 -1.02131,1.88077 -0.37235,2.52973 0.5414,0.5414 0.66175,0.5284 1.72161,-0.18584 z m -160.33664,1.1711 c -0.21314,-0.39826 -0.80569,-3.35668 -0.81333,-4.06078 -0.001,-0.1012 -0.32942,-0.34093 -0.72961,-0.53273 -0.85651,-0.41052 -0.9543,-1.21657 -0.19843,-1.63569 0.7684,-0.42607 0.91746,-0.71185 0.92199,-1.76764 0.0104,-2.41757 1.41004,-4.50163 3.2559,-4.84792 1.31873,-0.24739 2.94359,0.3447 3.05243,1.11229 0.0845,0.59593 0.0486,0.60624 -1.50146,0.43088 -1.4621,-0.16542 -1.64033,-0.12736 -2.24762,0.47992 -1.02619,1.0262 -1.49906,3.16606 -0.99349,4.49581 0.1989,0.52316 0.58566,0.70341 2.3151,1.07898 2.63174,0.57151 3.06779,0.83072 2.3409,1.39156 -0.34833,0.26874 -0.80044,0.35282 -1.32292,0.24601 -0.43656,-0.0892 -1.37265,-0.23387 -2.08018,-0.32138 l -1.28643,-0.15912 0.0675,1.82631 c 0.0868,2.34653 0.0479,2.75234 -0.26349,2.75234 -0.1404,0 -0.373,-0.21998 -0.51689,-0.48884 z m 23.21545,0.21417 c -0.72395,-0.4224 -1.1045,-1.95074 -0.75181,-3.01939 0.58182,-1.76296 3.24113,-3.36342 4.89773,-2.94764 1.08304,0.27182 1.87841,1.31928 2.76525,3.64168 0.9558,2.50298 0.96606,2.60002 0.27499,2.60002 -0.46055,0 -1.31317,-1.00647 -1.68104,-1.98437 -0.0547,-0.14552 -0.5017,0.10808 -0.99324,0.56356 -0.49154,0.45548 -1.15377,0.9615 -1.47162,1.12448 -0.70571,0.36186 -2.43607,0.37419 -3.04026,0.0217 z m 3.16597,-1.72719 c 0.70672,-0.495 1.73336,-2.40768 1.5495,-2.8868 -0.17979,-0.46853 -2.127,-0.0958 -3.04414,0.58269 -0.98282,0.72708 -1.49817,1.83685 -1.08448,2.33532 0.41981,0.50584 1.83686,0.48869 2.57912,-0.0312 z m 87.78976,1.59773 c -1.09997,-0.57363 -1.46226,-1.16463 -1.47185,-2.40101 -0.0199,-2.56118 3.02093,-4.87453 5.06273,-3.85159 0.97901,0.49048 1.57599,1.70294 1.0818,2.19713 -0.22385,0.22384 -0.51124,0.12258 -1.13019,-0.39824 -0.45651,-0.38412 -0.91018,-0.69796 -1.00815,-0.69742 -0.50917,0.003 -1.9238,1.13364 -2.28009,1.82264 -0.77093,1.49081 0.0273,2.04117 3.40947,2.35076 2.20872,0.20218 2.84609,0.64462 1.60718,1.11565 -1.08191,0.41134 -4.38331,0.32495 -5.2709,-0.13792 z m -71.6466,-2.29166 -0.0805,-1.40525 -1.36752,-0.0792 c -1.40847,-0.0816 -2.26313,-0.62929 -1.76277,-1.12965 0.14322,-0.14322 0.87146,-0.33277 1.61832,-0.42123 l 1.35792,-0.16082 0.16665,-1.11129 c 0.21106,-1.40743 0.48425,-1.84778 1.01903,-1.64256 0.27109,0.10402 0.42358,0.47986 0.42358,1.04397 0,1.01826 0.39555,1.51643 1.20406,1.51643 0.91824,0 2.23553,0.55137 2.23553,0.93571 0,0.22324 -0.46596,0.41716 -1.25678,0.52303 -1.88329,0.25214 -1.88309,0.25196 -1.97007,1.76861 -0.0747,1.30312 -0.13115,1.40871 -0.79366,1.48519 -0.68702,0.0793 -0.71618,0.0307 -0.79375,-1.32292 z m 45.21847,1.20765 c -0.10315,-0.10315 -0.18755,-0.76302 -0.18755,-1.46637 v -1.27882 h -1.42281 c -0.95932,0 -1.53314,-0.13294 -1.76149,-0.40809 -0.47504,-0.57239 -0.1006,-0.82791 1.5968,-1.08966 l 1.45521,-0.2244 0.13229,-1.32174 c 0.10809,-1.07986 0.22504,-1.32173 0.6391,-1.32173 0.38155,0 0.57771,0.29374 0.79375,1.18858 0.27991,1.15945 0.31743,1.19293 1.53041,1.36523 1.44487,0.20525 1.79924,0.38042 1.79924,0.88939 0,0.34236 -0.61625,0.52837 -2.38125,0.71877 -0.59791,0.0645 -0.67417,0.21117 -0.79375,1.52657 -0.11006,1.21064 -0.22305,1.4682 -0.67234,1.53251 -0.29703,0.0425 -0.62446,-0.007 -0.72761,-0.11024 z m 43.94611,-1.20765 -0.0805,-1.40525 -1.36752,-0.0792 c -1.40847,-0.0816 -2.26313,-0.62929 -1.76278,-1.12965 0.14322,-0.14322 0.87636,-0.33335 1.62921,-0.42251 1.19217,-0.1412 1.3688,-0.23845 1.3688,-0.75365 0,-0.32534 0.0756,-0.96977 0.1681,-1.43206 0.13291,-0.66453 0.28526,-0.82381 0.72761,-0.76068 0.42662,0.0609 0.58034,0.29952 0.64726,1.00483 0.10781,1.1363 0.45744,1.58857 1.22807,1.58857 0.9358,0 2.25604,0.54758 2.25604,0.93571 0,0.22324 -0.46596,0.41716 -1.25677,0.52303 -1.88329,0.25214 -1.88309,0.25196 -1.97007,1.76861 -0.0747,1.30312 -0.13115,1.40871 -0.79367,1.48519 -0.68701,0.0793 -0.71617,0.0307 -0.79375,-1.32292 z m -228.31029,-0.52897 c -0.2166,-0.40471 -0.26967,-1.83789 -0.17635,-4.7625 0.0734,-2.30096 0.0451,-4.18357 -0.063,-4.18357 -0.10809,0 -0.75001,0.30935 -1.4265,0.68745 -1.26073,0.70463 -2.01167,0.69865 -2.01167,-0.016 0,-0.46931 1.687,-1.7568 3.54211,-2.70327 1.0452,-0.53326 1.3405,-0.59196 1.54007,-0.30615 0.31104,0.44548 0.032,10.2765 -0.31778,11.19655 -0.31165,0.81969 -0.67918,0.84928 -1.08686,0.0875 z m 21.46315,-0.67474 c -2.11686,-1.07162 -2.79671,-3.62318 -1.90498,-7.14953 0.57367,-2.26852 1.58111,-4.49676 2.30458,-5.09718 0.38643,-0.32071 0.49048,-0.30964 0.77741,0.0828 0.23197,0.31724 0.70682,0.45304 1.58419,0.45304 0.68911,0 1.57078,0.18776 1.95927,0.41725 1.66312,0.98242 2.54711,3.76713 1.92531,6.06504 -0.44659,1.65042 -1.91548,3.87661 -3.07918,4.66666 -1.44015,0.97774 -2.43548,1.13456 -3.5666,0.56196 z m 2.60496,-1.77063 c 0.87423,-0.45208 2.0641,-2.09573 2.42296,-3.34698 0.14216,-0.4957 0.25848,-1.45844 0.25848,-2.13943 0,-1.01905 -0.1385,-1.37667 -0.78263,-2.0208 -1.16265,-1.16265 -1.98503,-1.27495 -3.24251,-0.44279 -2.42842,1.60705 -2.89074,5.87271 -0.85693,7.90653 0.52265,0.52264 1.24637,0.53694 2.20063,0.0435 z m 6.10007,1.80843 c -0.55104,-0.66396 0.20829,-1.82684 1.19288,-1.82684 1.05745,0 1.43044,0.68146 0.85428,1.56078 -0.51461,0.7854 -1.5089,0.91463 -2.04716,0.26606 z m 6.23866,0.0713 c -1.525,-0.59674 -1.98438,-0.97705 -1.98438,-1.64282 0,-0.79408 0.36792,-0.81916 1.88934,-0.1288 1.62909,0.73922 2.91293,0.68999 3.9112,-0.15 1.05159,-0.88486 1.10531,-2.09847 0.13904,-3.1411 -0.52855,-0.57031 -0.82995,-0.69378 -1.38907,-0.56903 -1.70649,0.38075 -4.21487,0.49079 -4.39893,0.19298 -0.235,-0.38024 0.84588,-5.13824 1.31241,-5.77717 0.30041,-0.41144 0.79155,-0.47174 3.842,-0.47174 3.08917,0 3.53195,0.0559 3.79213,0.47852 0.23683,0.38469 0.19084,0.55788 -0.23458,0.8833 -0.42184,0.3227 -1.10208,0.38278 -3.3539,0.29626 l -2.82474,-0.10854 -0.28411,1.12833 c -0.56952,2.26175 -0.54935,2.28692 1.66563,2.07936 2.3353,-0.21883 2.8618,7.5e-4 3.63479,1.51593 0.7124,1.39643 0.57456,3.11624 -0.32838,4.09697 -1.32877,1.44326 -3.62954,2.00583 -5.38845,1.31755 z m -196.392554,-10.4096 c -0.479932,-0.1931 -1.118912,-1.52738 -1.118912,-2.33645 0,-1.12107 0.742438,-2.22808 2.050769,-3.05779 1.621856,-1.02856 3.147218,-1.06478 4.114292,-0.0977 0.733134,0.73313 2.301605,4.22325 2.301605,5.12147 0,1.14499 -1.266647,0.36758 -1.834473,-1.12592 l -0.283804,-0.74646 -0.657578,0.78149 c -1.103769,1.31175 -3.243698,1.99576 -4.571899,1.46136 z m 3.062515,-2.0688 c 0.874068,-0.73548 1.756463,-2.37774 1.500286,-2.79224 -0.197769,-0.32 -1.802729,-0.0735 -2.798152,0.42976 -0.733322,0.37074 -1.560645,1.44826 -1.560645,2.0326 0,1.11591 1.692272,1.31121 2.858511,0.32988 z M -124.75105,212.99675 c -3.32667,-0.84823 -7.49712,-2.77659 -10.05417,-4.64892 -4.58668,-3.35846 -7.33898,-7.33007 -7.96793,-11.49782 -0.4358,-2.88776 -0.15052,-8.63532 0.55155,-11.1125 1.4664,-5.17398 4.36575,-9.03931 8.02862,-10.70349 1.04572,-0.4751 4.22302,-1.48869 7.06068,-2.25241 4.89708,-1.31798 5.27279,-1.38013 7.3904,-1.22254 3.02085,0.2248 4.99663,0.76467 7.82314,2.13762 2.71434,1.31846 5.33647,3.41778 7.14637,5.7215 l 1.24301,1.58215 1.22018,-1.66631 c 0.6711,-0.91647 2.00798,-2.73787 2.970829,-4.04756 7.915975,-10.76742 10.570653,-14.76032 10.570653,-15.8993 0,-0.4634 0.304879,-1.89766 0.677509,-3.18724 1.071698,-3.70891 2.398823,-5.54565 3.207689,-4.43946 0.246734,0.33743 0.56357,0.40924 1.287359,0.29178 0.528043,-0.0857 1.122455,-0.29056 1.320918,-0.45527 0.198462,-0.16471 2.187998,-2.81961 4.421192,-5.89978 5.627176,-7.76138 5.290855,-7.2465 4.898977,-7.49996 -0.366373,-0.23697 -27.769716,-0.16887 -29.359936,0.073 -0.84453,0.12843 -1.02131,0.28187 -1.29046,1.12004 -1.20075,3.73941 -2.80011,6.31667 -5.78484,9.32186 -3.78506,3.811 -6.89223,5.38658 -11.36937,5.76515 -5.35534,0.45284 -9.95975,-0.32177 -13.51737,-2.27403 -5.62133,-3.08475 -9.36759,-7.84739 -10.88136,-13.83352 -0.97871,-3.87026 -0.31733,-8.67261 1.80984,-13.14148 2.0245,-4.25317 6.94949,-7.88575 12.62028,-9.30847 0.71489,-0.17936 1.59415,-0.55764 1.95391,-0.84063 0.87246,-0.68628 3.13806,-0.67998 6.75894,0.0188 1.94345,0.37505 2.95764,0.45948 3.41782,0.28452 2.19731,-0.83542 8.87956,3.39307 12.2006,7.72047 l 1.55399,2.02489 0.82726,-0.41156 c 0.45499,-0.22635 3.06263,-1.68033 5.794755,-3.23106 4.680681,-2.65672 4.982589,-2.87534 5.228929,-3.78648 0.367802,-1.3604 1.544817,-3.97198 2.038532,-4.52313 0.4779,-0.5335 1.296988,-0.61303 1.454265,-0.14119 0.06345,0.19035 0.495713,0.29567 1.058069,0.25779 0.522936,-0.0352 1.427116,0.12656 2.009288,0.3595 l 1.058496,0.42352 4.850796,-2.82863 c 4.183005,-2.43922 7.221801,-4.25153 7.605252,-4.53569 0.267918,-0.19855 -1.206064,-1.42331 -5.135705,-4.26735 -2.328333,-1.68512 -6.138333,-4.449523 -8.466667,-6.143126 -13.265183,-9.648941 -17.91942,-12.996246 -18.24341,-13.120573 -0.23842,-0.09149 -0.70221,0.468738 -1.35621,1.638186 -1.94916,3.485435 -4.77388,6.557525 -8.08648,8.794641 -2.08477,1.407924 -8.54028,2.962942 -12.26598,2.954657 -5.13139,-0.01141 -10.94574,-2.855395 -15.49269,-7.577968 -3.52803,-3.664291 -4.39202,-5.62026 -4.66291,-10.556248 -0.37842,-6.895387 1.52565,-12.019445 6.23457,-16.777884 1.93841,-1.958792 4.37909,-3.705425 6.4664,-4.627565 2.35633,-1.040992 4.04942,-1.283645 7.8882,-1.130533 5.37032,0.214199 8.13594,1.112961 12.98989,4.221418 1.56144,0.99994 2.45317,1.831456 3.76299,3.50887 2.11027,2.702506 2.87525,4.11613 3.75585,6.940518 l 0.6836,2.192551 3.20997,-0.02617 c 1.765477,-0.01439 3.849454,-0.103688 4.631057,-0.198437 l 1.421097,-0.172271 0.661015,-1.84124 c 0.775808,-2.16099 1.778901,-3.847302 2.288547,-3.847302 0.198637,0 0.511609,0.181282 0.695494,0.402849 0.200768,0.241912 0.540002,0.337573 0.849149,0.239453 1.744597,-0.553713 3.691254,0.971587 4.375213,3.428191 l 0.433481,1.556951 4.643079,-0.178742 c 6.086662,-0.234314 7.157727,-0.371889 7.152595,-0.918726 -0.0049,-0.518868 -1.609546,-2.667484 -15.3381,-20.537267 -0.670782,-0.873125 -2.22056,-2.897187 -3.443949,-4.497916 -1.223389,-1.600729 -2.884578,-3.758058 -3.691531,-4.794063 -0.806953,-1.036006 -3.481417,-4.518584 -5.943247,-7.739062 -2.46183,-3.220479 -4.56076,-5.855416 -4.66428,-5.855416 -0.10353,0 -1.12539,0.935427 -2.27082,2.078728 -3.23669,3.230687 -7.51387,5.733792 -10.95417,6.410628 -3.42226,0.67329 -10.00427,-0.101443 -13.31901,-1.567708 -2.22446,-0.983987 -5.09614,-3.099623 -7.64267,-5.630557 -3.92845,-3.904377 -4.95945,-6.431819 -4.95945,-12.157823 0,-3.099181 0.40909,-5.51198 1.39517,-8.2285856 1.37437,-3.7863489 3.07993,-5.790737 7.25531,-8.52647895 4.85214,-3.17916835 7.8925,-4.37829155 12.16967,-4.79975345 1.69066,-0.1665932 2.04467,-0.1046389 4.46482,0.7813647 3.62681,1.3277529 5.46932,2.1996522 7.64509,3.61774566 2.17619,1.41837244 5.18898,4.53065474 6.45721,6.67045664 1.24527,2.1010609 2.36998,5.529677 2.58019,7.865589 0.23128,2.570039 0.42967,3.051283 1.47899,3.587664 0.47919,0.244951 2.75003,1.619872 5.046303,3.055381 2.296274,1.435508 4.273987,2.610015 4.394917,2.610015 0.244127,0 0.552309,-2.163673 0.555865,-3.902604 0.0013,-0.618463 -0.06119,-1.124479 -0.138787,-1.124479 -0.0776,0 -0.728484,0.297657 -1.446413,0.661459 -1.553775,0.787357 -2.116667,0.833443 -2.116667,0.173298 0,-0.586539 0.418529,-0.953243 2.553422,-2.237243 1.696116,-1.020104 2.432602,-1.208542 2.532761,-0.648034 0.0325,0.181901 0.06227,2.168086 0.06615,4.413745 l 0.007,4.083016 7.011459,4.45617 c 6.98137,4.437048 19.92304,12.293559 26.722917,16.222706 1.964532,1.135158 4.226719,2.444628 5.027084,2.909934 3.040152,1.767446 9.981679,5.801924 11.377083,6.612462 0.800365,0.464903 2.704778,1.577212 4.232029,2.471798 1.527251,0.894587 2.880556,1.626521 3.007345,1.626521 0.126789,0 0.938533,-0.65549 1.803875,-1.456644 2.030133,-1.879546 4.30227,-3.414138 6.685008,-4.515031 2.479208,-1.145465 5.563378,-2.061551 6.893619,-2.047601 1.452063,0.01523 6.533788,0.555795 8.466667,0.90064 3.7987157,0.677729 7.6476658,3.013027 10.33500823,6.270627 2.04340737,2.477021 2.89126357,4.311006 3.41456987,7.386004 0.2424351,1.424571 0.5579987,2.876915 0.7012525,3.22743 l 0.2604614,0.637299 6.534979,-0.17617 c 3.594239,-0.09689 6.892167,-0.272591 7.32873,-0.39044 0.721038,-0.194641 0.801137,-0.327773 0.874392,-1.453317 0.09105,-1.398891 -0.130694,-1.52204 -1.274302,-0.707719 -0.940352,0.669589 -2.248967,0.950187 -2.504337,0.536988 -0.262038,-0.423986 0.557023,-1.265643 1.978205,-2.032778 0.654844,-0.353476 1.583187,-0.890624 2.062984,-1.193662 0.479797,-0.303037 0.956047,-0.467849 1.058333,-0.366248 0.102286,0.101601 0.245506,1.379984 0.318266,2.840852 l 0.132292,2.656123 3.439584,-0.02936 c 11.301746,-0.09649 44.766121,-0.616358 45.030962,-0.699559 0.174007,-0.05466 0.488291,-0.678287 0.698408,-1.385826 1.24817,-4.203046 4.877211,-8.953636 9.191717,-12.032403 2.311792,-1.649661 5.540238,-3.277453 7.217343,-3.639007 3.074961,-0.662906 8.629788,-0.09385 12.677334,1.298709 3.196811,1.099864 8.802301,5.757704 11.034871,9.169344 0.70283,1.074015 1.50123,2.766041 1.87268,3.96875 0.56529,1.830289 0.6474,2.600565 0.64657,6.065295 -9.3e-4,3.849633 -0.0259,4.028308 -0.8313,5.953124 -1.33522,3.190914 -2.71763,5.280638 -4.98836,7.540625 -4.14829,4.128677 -8.166703,5.68577 -15.747584,6.102034 -7.045295,0.386855 -9.799259,-0.735342 -15.969537,-6.507334 l -1.675253,-1.567117 -5.13205,3.166319 c -2.822628,1.741475 -5.13205,3.277013 -5.13205,3.412305 0,0.135293 0.879774,0.984677 1.955054,1.88752 4.387502,3.683905 5.644347,5.97714 4.24846,7.751723 -0.298849,0.379924 -0.993892,0.825754 -1.544541,0.990734 -1.261341,0.3779 -2.312949,-0.10165 -3.385178,-1.543719 -0.405863,-0.545856 -1.379282,-1.729385 -2.163152,-2.630064 l -1.425218,-1.637598 -1.235338,1.268274 c -1.386579,1.423547 -2.778779,2.009133 -4.226304,1.777665 -0.965282,-0.154355 -0.991981,-0.13365 -2.661991,2.064452 -1.728039,2.27447 -2.411503,2.79576 -3.663305,2.79402 -1.11018,-0.002 -2.423542,-0.93417 -2.606956,-1.85124 -0.0873,-0.43648 -0.220238,-0.7936 -0.295427,-0.7936 -0.123842,0 -2.347214,1.35364 -6.475368,3.94234 -0.835366,0.52385 -1.483227,1.0627 -1.439691,1.19744 0.07502,0.23218 2.486927,1.87456 22.008538,14.98662 4.511146,3.02999 9.333177,6.34521 10.715625,7.36714 l 2.513542,1.85806 0.450451,-0.58674 c 0.247748,-0.3227 0.98827,-1.3263 1.645605,-2.2302 1.616657,-2.22308 3.468717,-3.61035 7.682058,-5.75417 3.496867,-1.77926 3.5972,-1.81145 6.41217,-2.05755 8.475547,-0.74096 14.24734,0.97686 18.90346,5.62609 2.32455,2.32112 3.80371,5.02975 4.69179,8.59159 2.16574,8.68618 1.02651,14.341 -3.89624,19.3399 -2.81346,2.85698 -6.66916,5.29333 -9.618233,6.07761 -3.408358,0.90642 -10.717143,0.70013 -14.259809,-0.40247 -2.749466,-0.85573 -5.157297,-2.50735 -8.471203,-5.81071 l -3.074535,-3.06474 -0.937196,-2.91042 c -0.515458,-1.60073 -1.080836,-3.64776 -1.256396,-4.54895 l -0.319199,-1.63854 -1.357612,-0.15553 c -0.746686,-0.0855 -3.560268,-0.18164 -6.252403,-0.21355 l -4.894792,-0.058 -0.276724,2.43748 c -0.295303,2.60115 -0.401342,2.87366 -1.025055,2.63432 -0.309783,-0.11887 -0.41546,-0.72955 -0.474432,-2.7416 -0.08663,-2.95572 -0.297953,-3.19767 -1.741211,-1.99357 l -0.871588,0.72715 0.425909,1.98165 c 0.649902,3.02383 1.295899,5.15472 2.480252,8.18136 1.366394,3.49186 1.494419,4.1886 0.991026,5.39339 -1.06434,2.54732 -4.761789,2.61165 -5.849131,0.10176 -0.951187,-2.1956 -2.520837,-8.15006 -2.681828,-10.17351 -0.09552,-1.20054 -0.229215,-2.18281 -0.297101,-2.18281 -0.06789,0 -0.439465,0.21938 -0.825732,0.4875 -0.386266,0.26813 -2.951505,1.77746 -5.700531,3.35406 -2.749026,1.57661 -6.409648,3.85755 -8.134715,5.06875 -1.847445,1.29713 -3.401069,2.20219 -3.780268,2.20219 -1.147989,0 -2.016576,-1.36992 -1.491113,-2.35176 0.152963,-0.28581 1.141825,-1.04702 2.19747,-1.69158 1.055645,-0.64455 4.122011,-2.50994 6.814147,-4.14531 8.850982,-5.37662 10.308763,-6.39684 10.314076,-7.21829 0.006,-0.92006 0.173747,-0.8909 -7.139076,-1.24033 -5.456583,-0.26073 -9.106252,-0.39133 -29.501043,-1.05572 -3.7835415,-0.12325 -6.9684635,-0.17207 -7.0776041,-0.10848 -0.1091406,0.0636 -0.2005049,0.67414 -0.2030316,1.35677 -0.017407,4.70273 -3.2179146,10.85207 -7.4228377,14.26197 -2.004642,1.62562 -5.8139011,3.59073 -8.0506936,4.15316 -2.382962,0.59918 -5.560616,0.7776 -7.9375,0.44569 -6.247961,-0.8725 -10.872536,-2.84855 -14.232047,-6.08128 l -1.267463,-1.21963 -1.510662,0.80743 c -0.830864,0.44409 -5.171834,2.8102 -9.6466,5.25803 l -8.135938,4.45061 v 1.93022 c 0,2.25255 -0.147633,2.76725 -0.79375,2.76725 -0.602875,0 -0.79375,-0.5142 -0.79375,-2.13831 0,-0.7157 -0.07298,-1.30127 -0.162189,-1.30127 -0.180291,0 -2.641301,1.38088 -8.965936,5.03082 -2.328333,1.34367 -7.86474,4.5291 -12.303125,7.07872 -4.438386,2.54962 -10.629636,6.11965 -13.758334,7.93339 -3.128698,1.81373 -6.641042,3.84465 -7.805208,4.51313 -1.164167,0.66849 -2.203015,1.3402 -2.308545,1.4927 -0.10553,0.15251 -0.12064,1.05477 -0.0336,2.00503 0.21593,2.35648 -0.32041,6.0741 -1.20015,8.31882 -2.25465,5.75287 -7.74117,10.84254 -14.71399,13.64972 -1.8275,0.73573 -2.4962,0.86367 -4.8948,0.93654 -1.52796,0.0464 -3.19484,-0.0219 -3.70416,-0.15172 z m 7.16228,-1.70843 c 2.77981,-0.72405 6.3512,-3.04491 9.37418,-6.09179 2.35237,-2.37098 3.95116,-4.85708 4.99486,-7.76697 0.61705,-1.72036 0.69318,-2.31952 0.68914,-5.42396 -0.008,-6.00187 -1.21063,-9.09484 -4.97932,-12.80379 -2.77231,-2.72837 -6.93975,-5.09626 -9.9651,-5.66205 -0.99119,-0.18537 -2.67567,-0.22948 -4.48441,-0.11744 -2.51882,0.15603 -3.33033,0.33651 -6.21771,1.38287 -7.08065,2.56595 -9.71822,4.43176 -11.62667,8.22466 -2.47891,4.92663 -2.70131,12.98382 -0.48321,17.5057 1.86294,3.79787 9.90934,9.72072 14.5895,10.73917 2.16971,0.47214 6.32153,0.47911 8.10874,0.0136 z m 29.720321,-32.47298 c 6.854204,-3.79972 14.545783,-8.06519 17.092398,-9.47884 2.546615,-1.41365 7.14455,-3.96046 10.217634,-5.65958 l 5.587426,-3.08931 0.167262,-1.22031 c 0.24545,-1.79075 0.204288,-2.99854 -0.102191,-2.99854 -0.1482,0 -0.864127,0.31095 -1.590951,0.691 -1.045079,0.54645 -1.400499,0.62542 -1.699194,0.37753 -0.565502,-0.46933 -0.220944,-1.00436 1.143201,-1.77519 0.674174,-0.38095 1.669048,-0.98707 2.21083,-1.34694 1.577,-1.0475 1.793067,-0.76916 1.793067,2.30988 0,1.45978 0.10635,2.65414 0.236334,2.65414 0.129984,0 1.707562,-0.85242 3.505729,-1.89428 1.798168,-1.04185 3.924239,-2.27315 4.724604,-2.73622 6.583479,-3.80906 9.140377,-5.41986 9.217317,-5.80676 0.04906,-0.24669 -0.157353,-1.06508 -0.458685,-1.81865 -0.698296,-1.7463 -1.560959,-5.38847 -1.781545,-7.52169 -0.165269,-1.59827 -0.390476,-1.98596 -0.783874,-1.34943 -0.137235,0.22205 -1.817032,0.26368 -6.21932,0.15415 l -6.031303,-0.15007 -0.44715,1.36721 c -0.707135,2.16213 -1.301391,3.16292 -2.575436,4.3373 -1.493585,1.37673 -2.969925,1.87424 -4.037915,1.3607 -1.568351,-0.75412 -2.663046,-3.31958 -2.359193,-5.52885 0.112918,-0.82101 0.0698,-1.32225 -0.124048,-1.44206 -0.163419,-0.101 -2.662286,-0.0979 -5.553039,0.007 l -5.255913,0.19051 -4.985053,6.894 c -2.741779,3.7917 -5.022887,6.9849 -5.06913,7.09599 -0.04624,0.11109 0.221648,0.6519 0.595313,1.2018 0.598759,0.88115 0.679083,1.26728 0.676805,3.25349 -0.0021,1.80784 -0.125809,2.51832 -0.625457,3.59132 -1.555835,3.34118 -5.70688,4.83793 -7.180405,2.58904 -0.417989,-0.63793 -0.455159,-0.64572 -0.948917,-0.19887 -0.51997,0.47056 -8.253069,11.02826 -11.998092,16.38053 -2.22935,3.18611 -2.231,3.19368 -1.20098,5.51024 0.4179,0.93986 0.6773,1.23488 0.98272,1.11768 0.22823,-0.0876 6.022946,-3.26809 12.877151,-7.0678 z m 4.189442,-16.76129 c 1.099317,-0.74701 2.267362,-2.56065 2.600535,-4.03789 0.255259,-1.13179 -0.06252,-2.86532 -0.629127,-3.43192 -0.340816,-0.34081 -0.571421,-0.16772 -1.899702,1.42592 -2.558511,3.06963 -3.397998,4.45919 -3.067296,5.07711 0.284037,0.53073 1.532156,1.63149 1.849891,1.63149 0.09212,0 0.607681,-0.29912 1.145699,-0.66471 z m -1.470504,-6.39786 c 0.654027,-0.91654 1.147627,-1.79097 1.096889,-1.94318 -0.05074,-0.15221 -0.600436,0.11383 -1.221554,0.5912 -0.86026,0.66117 -1.221828,1.17952 -1.517673,2.17573 -0.213603,0.71928 -0.388369,1.36029 -0.388369,1.42445 0,0.3139 0.964007,-0.75335 2.030707,-2.2482 z m 184.581898,1.38372 c 5.321213,-1.54738 8.707673,-4.28908 11.076423,-8.96755 2.39358,-4.72752 2.44018,-12.24404 0.10521,-16.9713 -1.08811,-2.20293 -3.75599,-5.2138 -6.10534,-6.89026 -2.00204,-1.42863 -5.708308,-3.20877 -7.165978,-3.44186 -1.751318,-0.28005 -8.235938,0.47777 -12.808332,1.49684 -1.604239,0.35754 -3.583271,1.70641 -6.22596,4.2435 -2.415261,2.31874 -4.001486,4.91941 -4.747553,7.78375 -0.517306,1.98607 -0.549767,8.43223 -0.05212,10.3507 0.715663,2.75895 3.851787,7.06455 6.445534,8.84909 2.347595,1.61519 8.050709,3.77759 11.326976,4.29475 1.828345,0.28861 5.85889,-0.0811 8.151142,-0.74766 z M -11.9343,156.23386 c 4.0864058,-0.84407 7.0554917,-2.51638 9.9893426,-5.62642 2.8529891,-3.02432 4.0799968,-6.05662 4.3701682,-10.79999 0.1570018,-2.56648 0.1399646,-2.68709 -0.4366114,-3.09094 l -0.5999884,-0.42025 0.5379438,-0.68388 c 0.5109956,-0.64963 0.5189559,-0.7665 0.1589032,-2.33302 -0.4893225,-2.12895 -1.15902592,-4.20607 -1.49141292,-4.6257 -0.14408412,-0.1819 -0.60458007,-0.33073 -1.02332432,-0.33073 -0.83408476,0 -0.93382996,-0.25098 -0.43062401,-1.08354 0.29588953,-0.48956 0.21924233,-0.6454 -0.72760415,-1.4794 -4.042454,-3.56067 -10.3557036,-6.4787 -14.8221036,-6.8509 -3.507026,-0.29225 -6.301492,0.72617 -11.969962,4.36234 -3.646631,2.33922 -5.376169,4.7863 -6.842793,9.68171 -0.621862,2.0757 -0.715484,2.85655 -0.729628,6.08542 -0.01486,3.39301 0.04554,3.88069 0.719061,5.80566 0.913437,2.61067 2.245152,4.51704 4.316942,6.17976 5.315255,4.26577 13.146437,6.41519 18.981691,5.20988 z m -107.52509,-3.29088 c 0.80037,-0.14659 2.70537,-0.89102 4.23334,-1.6543 2.29248,-1.14517 3.15266,-1.75905 4.92066,-3.51166 2.35643,-2.33591 4.05058,-4.97634 5.06559,-7.89499 0.47535,-1.36686 0.55646,-1.89653 0.33189,-2.16713 -0.22379,-0.26964 -0.18644,-0.57235 0.15117,-1.22522 0.3702,-0.71588 0.42322,-1.35361 0.30405,-3.65702 -0.14473,-2.79733 -0.48279,-4.28019 -1.15354,-5.05973 -0.19767,-0.22974 -0.36336,-0.76552 -0.3682,-1.19062 -0.0215,-1.89228 -3.10698,-4.70389 -7.92241,-7.21926 -1.68336,-0.87931 -3.71287,-1.7683 -4.51003,-1.97552 -0.79717,-0.20723 -3.38271,-0.46441 -5.74565,-0.57151 l -4.29625,-0.19474 -2.7152,1.38147 c -5.8261,2.96427 -8.64725,5.35288 -10.60653,8.98036 -1.23085,2.27882 -1.76597,4.3887 -1.76597,6.96281 0,4.41275 1.38829,8.43211 4.16811,12.06743 3.05459,3.99467 7.19306,6.48185 12.10377,7.27425 1.14981,0.18554 6.10518,-0.0333 7.8052,-0.34462 z m 64.523758,-9.80875 c 1.371313,-0.99337 3.000841,-4.01303 2.458653,-4.5561 -0.415008,-0.41568 -5.535044,-0.63548 -5.916535,-0.25398 -0.408893,0.40889 -0.289853,2.83852 0.183965,3.75478 0.529263,1.02348 1.341905,1.85442 1.813592,1.85442 0.196448,0 0.853594,-0.3596 1.460325,-0.79912 z m 126.290318,-5.94776 c 0.111497,-0.58208 0.465108,-2.17755 0.785802,-3.5455 l 0.583079,-2.48716 -0.775328,-0.63357 c -0.42643,-0.34847 -2.204078,-1.60163 -3.950328,-2.7848 -1.74625,-1.18318 -4.633516,-3.14236 -6.416146,-4.35374 -1.78263,-1.21139 -4.699661,-3.19323 -6.482292,-4.4041 -11.226565,-7.62577 -18.448678,-12.3505 -18.878694,-12.3505 -0.581839,0 -4.746634,2.36512 -13.202036,7.49722 C 2.5664082,126.53808 3.1785651,126.158 2.3242672,126.97331 l -0.5861422,0.5594 0.6562545,0.96704 c 0.3609399,0.53188 1.0212776,2.16819 1.4674172,3.63626 0.4461395,1.46807 0.90343,2.84781 1.0162011,3.06609 0.1617286,0.31304 1.0653794,0.43769 4.2781,0.59013 2.2401842,0.10629 10.2643122,0.48763 17.8313952,0.84742 7.567084,0.35979 15.574037,0.72815 17.79323,0.81858 l 4.034896,0.16442 v -2.03019 c 0,-2.31357 0.468091,-3.59663 1.480408,-4.05787 1.899724,-0.86557 3.794166,0.40043 3.805376,2.54303 0.0032,0.61846 0.05861,1.12448 0.123051,1.12448 0.278432,0 2.204225,-1.22081 3.000892,-1.90234 1.070059,-0.91541 1.995181,-0.94597 2.847091,-0.0941 0.937675,0.93767 0.821301,1.76609 -0.454735,3.23708 l -1.104167,1.27286 0.90573,0.0764 c 1.945667,0.16412 9.693393,0.51598 10.684839,0.48525 1.004582,-0.0311 1.056232,-0.0762 1.250582,-1.09082 z m -150.395944,-0.57139 7.960574,-0.17452 1.265313,-1.74371 c 0.695922,-0.95904 2.229312,-3.0534 3.407533,-4.65413 4.508852,-6.12571 8.860954,-12.29321 8.860954,-12.55713 0,-0.52696 -1.070257,-0.26984 -2.158655,0.51859 -1.453912,1.05321 -3.00292,1.09169 -4.177009,0.10376 -1.232539,-1.03712 -1.439949,-1.59688 -1.593474,-4.30054 l -0.140654,-2.47698 -2.292185,-1.58751 -2.292184,-1.5875 -2.999482,1.71016 c -1.649716,0.94059 -4.547295,2.57844 -6.439066,3.63966 -1.891771,1.06122 -3.689111,2.08161 -3.994088,2.26754 -0.460871,0.28097 -0.5817,0.6907 -0.715549,2.42643 -0.08857,1.1486 -0.292186,2.43781 -0.45247,2.8649 -0.860659,2.29333 -3.252287,4.34842 -5.060506,4.34842 -1.329455,0 -2.748072,-1.21952 -3.18329,-2.73652 -0.173562,-0.60497 -0.34741,-1.14334 -0.386329,-1.19637 -0.205885,-0.28056 -10.034105,5.35924 -10.230305,5.87053 -0.0746,0.19432 0.0901,1.29636 0.36589,2.44898 0.28892,1.2074 0.50235,3.05826 0.50354,4.36667 10e-4,1.24906 0.0814,2.35039 0.17845,2.4474 0.22619,0.22619 13.293629,0.22722 23.572992,0.002 z m 20.363629,-1.67756 c 1.033452,-2.07436 1.56168,-2.55217 2.191428,-1.98225 0.253454,0.22937 0.94547,0.39475 1.65183,0.39475 1.381315,0 2.559337,0.79358 3.287033,2.21432 0.23336,0.45561 0.556505,0.91586 0.718101,1.02277 0.437809,0.28965 12.538365,0.24673 12.718737,-0.0451 0.08417,-0.13618 0.263041,-1.11845 0.3975,-2.18281 0.192611,-1.52469 0.166669,-2.05462 -0.12229,-2.49813 -0.721681,-1.10767 -17.710615,-13.3964 -18.346679,-13.27084 -0.210164,0.0415 -2.240356,2.63923 -4.511537,5.77277 -2.271181,3.13354 -5.111685,7.04702 -6.312232,8.69661 -1.200547,1.6496 -2.182813,3.09847 -2.182813,3.21972 0,0.27622 2.372329,0.42153 6.480703,0.39697 l 3.173411,-0.019 z m 5.821898,1.48245 c 0.0889,-0.0889 -0.117564,-0.45881 -0.4588,-0.82204 -0.838761,-0.89282 -2.167353,-0.87993 -3.485889,0.0338 -0.550975,0.38183 -0.927574,0.81428 -0.836889,0.96102 0.172942,0.27982 4.484778,0.12401 4.781578,-0.17279 z m 16.693635,-7.80635 c 0.31908,-0.56773 1.11491,-1.62702 1.768512,-2.35398 0.653602,-0.72696 1.188367,-1.47231 1.188367,-1.65634 0,-0.18402 -0.738155,-1.29762 -1.640344,-2.47466 -3.411445,-4.45075 -10.777025,-13.82329 -11.648589,-14.82258 l -0.907796,-1.04083 -2.652149,3.55437 c -3.490155,4.67746 -4.673977,6.49939 -4.454155,6.85507 0.158766,0.25689 3.389417,2.6972 14.291575,10.79528 1.600729,1.18901 3.03732,2.16501 3.192425,2.16887 0.155105,0.004 0.543074,-0.45747 0.862154,-1.0252 z M 4.7858761,123.7431 c 3.9500941,-2.35945 20.2625129,-12.3905 25.8876349,-15.91916 1.881789,-1.18045 3.461572,-2.26669 3.510628,-2.41386 0.112444,-0.33733 -2.241146,-2.08676 -8.077591,-6.004091 l -4.585112,-3.077455 -1.331557,0.915949 c -1.49719,1.029886 -3.095667,1.22415 -4.127265,0.501591 -0.901507,-0.63144 -1.61201,-2.265006 -1.914728,-4.402281 -0.168309,-1.18831 -0.448265,-2.096655 -0.728351,-2.363202 C 12.957516,90.540904 5.9770175,85.75846 2.7000782,83.636531 L 0.90489184,82.474087 -1.1538971,84.580438 c -2.4961608,2.553827 -5.2318943,4.307146 -8.6883899,5.56835 -2.307758,0.842054 -2.95102,0.959989 -5.845078,1.071631 -3.441725,0.132768 -5.325774,-0.106495 -8.257435,-1.048647 -2.398771,-0.770896 -5.451746,-2.340486 -7.12491,-3.663046 -1.096027,-0.86636 -1.461151,-1.035584 -1.623215,-0.752315 -0.115003,0.201015 -2.058588,2.925324 -4.319077,6.054022 -6.669519,9.231147 -8.748306,12.363937 -8.462639,12.753427 0.138544,0.1889 3.393353,4.54162 7.232909,9.67272 l 6.98101,9.32928 0.549107,-0.51575 c 0.302009,-0.28366 1.620669,-1.1295 2.930357,-1.87965 1.309687,-0.75015 2.638515,-1.60162 2.95295,-1.89215 0.314435,-0.29054 1.50506,-0.80467 2.645834,-1.14251 1.140773,-0.33784 2.567545,-0.79359 3.170605,-1.01278 0.90534,-0.32905 1.182065,-0.33883 1.5875,-0.0561 0.270065,0.18831 1.13266,0.43016 1.916877,0.53743 4.287004,0.58645 10.6467601,3.51201 13.8770097,6.38359 1.18780286,1.05591 2.2892266,1.92748 2.44760829,1.93681 0.15838169,0.009 1.94431921,-0.9724 3.96875011,-2.18162 z M -87.95557,122.85088 c 1.371159,-1.23876 2.141437,-2.74801 2.191344,-4.29363 0.03423,-1.06026 -0.02499,-1.20341 -0.466267,-1.12703 -0.420992,0.0729 -4.141785,2.07916 -5.417284,2.92105 -0.799069,0.52743 1.01181,3.47375 2.135048,3.47375 0.263397,0 0.964118,-0.43837 1.557159,-0.97414 z m -1.47067,-6.43588 c 0.764647,-0.43748 1.537859,-0.97327 1.71825,-1.19062 0.277118,-0.33391 0.217426,-0.3952 -0.384904,-0.3952 -0.939573,0 -2.962318,1.2004 -3.134916,1.86042 -0.186013,0.71131 0.174389,0.65638 1.80157,-0.2746 z m 28.902793,0.26917 c 0.472943,-0.28836 0.859896,-0.642 0.859896,-0.78587 0,-0.33379 -3.669198,-2.9212 -4.142536,-2.9212 -0.903352,0 -0.05881,3.06134 1.0609,3.84561 0.737208,0.51636 1.19437,0.48786 2.22174,-0.13854 z m 6.0923,-3.11176 c 0.853609,-1.12778 2.596668,-3.51268 3.873465,-5.29977 l 2.321447,-3.24926 -0.467654,-0.71949 c -0.858417,-1.32069 -4.127443,-5.311108 -4.453445,-5.436207 -0.321842,-0.123502 -1.257189,0.372762 -9.416633,4.996147 -6.053646,3.43018 -5.66532,2.99971 -3.889492,4.31159 0.817105,0.60363 1.538896,1.09751 1.603979,1.09751 0.06508,0 0.490877,-0.66011 0.946208,-1.46691 0.914855,-1.62104 1.527693,-2.04304 1.928035,-1.32767 0.199546,0.35657 0.460919,0.42422 1.143934,0.29608 1.053757,-0.19768 2.394579,0.30965 3.191622,1.20763 1.087799,1.22556 1.432978,3.37151 0.907078,5.63922 -0.240953,1.03899 0.0072,2.00165 0.516054,2.00165 0.133861,0 0.941792,-0.92273 1.795402,-2.05052 z m -3.599225,-1.01392 c 0.494294,-2.84846 -1.537604,-5.09615 -3.591286,-3.97268 -1.397434,0.76446 -1.819928,1.17133 -1.657056,1.59576 0.20376,0.531 4.432979,3.62535 4.791579,3.50582 0.152284,-0.0508 0.357827,-0.55876 0.456763,-1.1289 z m -7.697332,-9.91211 c 5.270634,-2.967548 10.541015,-6.08991 10.692115,-6.334394 0.07088,-0.114684 -0.717923,-1.302688 -1.752891,-2.640009 l -1.881761,-2.431492 -0.827384,0.78452 c -1.918884,1.819473 -4.157588,2.184471 -5.453002,0.889057 -1.426753,-1.426753 -1.694057,-4.074766 -0.760557,-7.534365 0.554685,-2.055689 0.556393,-2.119046 0.07894,-2.928434 -0.5582,-0.946279 -1.944682,-2.821043 -4.992262,-6.750401 l -2.131415,-2.748114 -5.029337,0.173951 c -2.766135,0.09567 -5.839378,0.247008 -6.829427,0.336299 l -1.800091,0.162349 -0.763503,1.512492 c -1.441368,2.855334 -3.155363,4.237178 -5.255659,4.237178 -1.604456,0 -2.902773,-1.68379 -3.344295,-4.337224 l -0.171378,-1.029933 -2.163742,0.168451 c -1.190058,0.09265 -3.086477,0.169165 -4.214257,0.170037 l -2.05053,0.0016 0.0134,3.108854 0.0134,3.108854 2.43404,1.742392 c 1.33872,0.958315 6.184503,4.477845 10.76841,7.821178 16.314902,11.899484 20.674824,14.934194 21.211167,14.763964 0.276785,-0.0878 2.171329,-1.09891 4.210097,-2.2468 z m 6.064153,-1.74723 c 3.468369,-1.984735 5.493222,-3.256303 5.195797,-3.262856 -0.210734,-0.0046 -3.418071,1.803602 -7.577047,4.271816 -0.945885,0.56135 -2.225807,1.28118 -2.844271,1.59962 -0.618463,0.31844 -1.124479,0.66525 -1.124479,0.7707 0,0.19616 1.454481,-0.57787 6.35,-3.37928 z m 96.648374,2.98603 c 0.322302,-0.19837 2.729129,-1.67952 5.348504,-3.29145 3.496722,-2.151841 4.898293,-3.163539 5.273422,-3.80652 0.281007,-0.481655 1.594774,-2.006829 2.919481,-3.389277 2.063692,-2.153644 2.457795,-2.711178 2.752429,-3.893843 l 0.343871,-1.380302 -1.175976,-1.530115 c -2.630719,-3.422945 -3.2634,-5.758161 -1.92317,-7.098391 0.711837,-0.711837 1.810738,-0.843233 2.90031,-0.346791 0.425292,0.193776 1.048472,1.041214 1.732422,2.355852 0.587508,1.129266 1.582905,2.621723 2.211993,3.316572 l 1.143796,1.263362 2.196585,-2.097859 c 1.208122,-1.153823 2.729468,-2.844272 3.380768,-3.756553 0.6513,-0.912282 1.402407,-1.775485 1.669128,-1.91823 0.940849,-0.503527 2.109514,-0.297959 2.921336,0.513863 1.108456,1.108456 1.047717,2.274496 -0.21879,4.200249 -0.545703,0.829755 -1.096032,1.672897 -1.222953,1.873649 -0.126922,0.200752 0.232854,0.08169 0.7995,-0.264584 0.566647,-0.346273 1.712288,-1.044357 2.54587,-1.551298 0.833582,-0.506941 1.515604,-1.065682 1.515604,-1.241648 0,-0.175966 -0.409542,-1.487602 -0.910093,-2.914747 -1.10037,-3.137318 -1.483685,-4.555768 -1.702201,-6.298977 l -0.165831,-1.322916 -24.540105,-0.06752 -24.540105,-0.06752 v 1.935176 c 0,2.223804 -0.434833,3.192733 -1.161994,2.589243 -0.325057,-0.269773 -0.425506,-0.845172 -0.425506,-2.437408 v -2.08427 H 11.413614 4.1741096 L 4.0004178,72.82658 c -0.2417054,2.301174 -1.0649101,5.331546 -1.8697139,6.88277 l -0.6781923,1.307185 0.716406,0.568304 c 1.8982888,1.505855 11.9012494,8.108928 12.2841724,8.108928 0.112336,0 0.56272,-0.751112 1.000853,-1.669138 0.438134,-0.918026 1.050282,-1.898711 1.360329,-2.1793 0.536386,-0.485423 0.580304,-0.487487 0.905642,-0.04256 0.264956,0.362349 0.572243,0.433231 1.365165,0.314906 1.382299,-0.206277 2.702101,0.501134 3.45371,1.851182 0.881022,1.5825 0.99374,2.813956 0.463617,5.065048 -0.427638,1.815902 -0.431107,2.014352 -0.04201,2.403445 0.70721,0.70721 12.733377,8.78365 13.098391,8.79651 0.187021,0.007 0.603739,-0.15031 0.926041,-0.34868 z M -45.245219,100.867 c 1.769956,-2.384833 6.120079,-8.31069 7.414478,-10.100201 0.79808,-1.103349 0.91947,-1.394153 0.518636,-1.242455 -0.829923,0.314088 -13.620477,7.667808 -13.617642,7.82924 0.0044,0.253248 3.989718,5.305016 4.180591,5.299356 0.100364,-0.003 0.777136,-0.80664 1.503937,-1.78594 z m 64.593527,-4.917426 0.724698,-0.623359 -1.831599,-1.228724 c -1.820922,-1.221562 -2.768585,-1.530177 -2.757478,-0.897995 0.01209,0.687854 1.019794,2.526758 1.611929,2.941505 0.842462,0.590083 1.398864,0.542796 2.25245,-0.191427 z m 38.201252,0.02805 c 0.481082,-0.327422 1.118218,-0.924032 1.415857,-1.3258 0.49098,-0.662751 0.502772,-0.768878 0.127164,-1.144486 -0.375608,-0.375608 -0.56449,-0.274668 -2.036917,1.088539 -0.892606,0.826396 -1.556933,1.609305 -1.476284,1.739798 0.252129,0.407954 1.060554,0.261034 1.97018,-0.358051 z M -49.3448,95.013713 c 6.486398,-3.416563 15.875,-9.354191 15.875,-10.039818 0,-0.117819 -0.653636,-1.087888 -1.452525,-2.155708 -1.714024,-2.291019 -2.845937,-5.048688 -3.418344,-8.328078 -0.226075,-1.295207 -0.520987,-2.464864 -0.655361,-2.599238 -0.149367,-0.149367 -4.187198,-0.08078 -10.389773,0.176487 -5.580001,0.231443 -12.318347,0.499483 -14.974102,0.595646 -3.519666,0.127444 -4.828646,0.26209 -4.828646,0.496691 0,0.379473 3.907633,5.397092 5.672823,7.284223 1.143486,1.222479 1.314973,1.312349 2.504182,1.312349 2.394567,0 3.415997,1.418767 3.689918,5.125299 l 0.178498,2.415326 2.043026,2.693858 c 1.123665,1.481622 2.137984,2.752545 2.254043,2.824273 0.116059,0.07173 1.874056,-0.793013 3.90666,-1.921648 2.032603,-1.128634 5.541111,-3.075716 7.796684,-4.326848 3.948572,-2.190212 5.559919,-2.888719 5.552975,-2.407172 -0.0043,0.296085 -1.030068,0.951579 -6.469635,4.134154 -7.909797,4.627854 -9.40209,5.521185 -9.40209,5.628371 0,0.140471 0.678472,-0.150631 2.116667,-0.908167 z m -69.07023,-1.223067 c 5.38651,-2.218542 8.60881,-5.04705 10.90199,-9.569667 1.09983,-2.169099 1.10541,-2.19443 0.60471,-2.747693 -0.50027,-0.552798 -0.49827,-0.563571 0.19942,-1.071797 0.86276,-0.628479 1.11935,-1.680474 0.87903,-3.603943 -0.14405,-1.1529 -0.3496,-1.616424 -0.96678,-2.180136 -0.78023,-0.71263 -0.78129,-0.717641 -0.23018,-1.088014 l 0.55366,-0.372087 -0.51376,-1.455208 c -1.55409,-4.401964 -4.32985,-8.868215 -6.24211,-10.043673 -0.44351,-0.27262 -2.47325,-1.130648 -4.51054,-1.906729 l -3.70417,-1.411056 -5.02708,0.02224 c -7.7251,0.03417 -9.35717,0.559178 -12.84116,4.13076 -3.22103,3.302001 -5.04012,7.01218 -5.59602,11.413475 -1.09617,8.678945 4.40507,16.707573 13.43679,19.609921 3.07475,0.988075 4.08665,1.14291 7.64622,1.169983 3.04683,0.02317 3.26522,-0.01301 5.40998,-0.896373 z M 21.549623,92.934912 c 0.596311,-2.147214 0.171702,-4.052893 -1.101782,-4.944876 -0.851558,-0.596454 -1.758977,-0.509675 -2.893774,0.27674 -1.010221,0.700083 -1.820061,2.321673 -1.376903,2.757052 0.65767,0.646124 4.259162,2.891703 4.64633,2.897049 0.29757,0.0041 0.544157,-0.330715 0.726129,-0.985965 z m -82.445922,-1.602955 c 0.959465,-0.868304 1.038381,-1.329827 0.403139,-2.35767 -0.996358,-1.61214 -3.164095,-4.078799 -3.489258,-3.970412 -0.407524,0.135842 -0.928562,1.916209 -0.946655,3.234683 -0.01754,1.278415 0.75657,3.084235 1.564822,3.650357 0.653867,0.457986 1.576537,0.249762 2.467952,-0.556958 z M 95.975317,89.585467 C 99.1139,88.7893 102.4425,87.209307 104.508,85.535246 c 1.95972,-1.588333 4.04747,-4.648474 5.1618,-7.565962 1.12387,-2.942445 1.41671,-4.476241 1.24521,-6.521907 -0.17593,-2.09844 -1.68232,-6.593748 -3.00899,-8.979279 -1.43878,-2.587135 -4.25159,-5.279211 -6.78792,-6.496575 -1.138162,-0.546286 -2.128983,-1.148549 -2.201821,-1.33836 -0.298842,-0.77877 -2.974741,-1.355073 -7.939271,-1.709863 l -3.573376,-0.255371 -2.691402,1.346704 c -4.258152,2.130663 -6.257119,3.406707 -8.188905,5.227403 -2.757333,2.59877 -4.164944,5.890627 -4.686412,10.959705 -0.598154,5.814518 0.799558,10.542653 4.185196,14.157546 1.437465,1.534801 2.923879,2.500903 5.764673,3.746779 4.876133,2.138505 9.634442,2.634642 14.188535,1.479401 z m -109.874682,-0.17086 c 2.506457,-0.314283 6.3701327,-1.660184 8.7207746,-3.037857 1.7790662,-1.042682 4.18528154,-3.544636 4.40102011,-4.576128 0.14784418,-0.706874 0.21010485,-0.82843 1.16780108,-2.279981 C 0.93335527,78.697445 2.1876618,73.850869 2.2944938,72.162668 2.3355616,71.513698 2.2019374,71.012527 1.9100016,70.720592 1.4898109,70.300401 1.4964352,70.237106 2.0187933,69.681081 L 2.5750197,69.089005 2.0058018,67.214979 C 1.215501,64.613086 -1.0133415,60.345368 -2.3779716,58.821066 -4.6241289,56.312092 -4.7985412,56.19622 -7.9946523,55.089599 -14.729503,52.757726 -17.03778,52.494332 -21.431258,53.556369 c -7.090777,1.714055 -10.759127,4.908694 -14.152474,12.324898 -0.786771,1.719499 -0.922033,2.322241 -1.013343,4.515571 -0.128443,3.085284 0.217071,4.869584 1.435117,7.41122 1.310963,2.735519 2.901856,4.860744 5.392725,7.203975 4.347875,4.090168 8.710121,5.30033 15.869868,4.402574 z m -44.827379,-3.623444 c -0.244443,-0.994214 -0.815353,-1.826451 -1.610207,-2.34726 -1.353866,-0.887087 -1.103873,0.38554 0.415715,2.116255 1.011057,1.151531 1.441274,1.234731 1.194492,0.231005 z M -91.0056,77.469745 c 0.771049,-0.351313 2.838068,-3.057431 2.613235,-3.421218 -0.194155,-0.314149 -4.411992,-0.291446 -5.252921,0.02827 -0.823095,0.31294 -0.857415,0.893575 -0.125497,2.123215 0.943772,1.585561 1.505697,1.843588 2.765183,1.269728 z m 2.10559,-5.205338 c 0.555332,-0.118122 0.819128,-0.347 0.878238,-0.761988 0.185276,-1.300743 -1.843455,-2.964365 -3.188206,-2.614427 -0.949243,0.247017 -2.584824,1.907532 -2.584824,2.62423 0,0.346968 0.07937,0.710226 0.176389,0.80724 0.216587,0.216586 3.628487,0.176776 4.718403,-0.05505 z m 31.261111,-1.48523 c 6.526286,-0.362086 13.107043,-0.778805 14.623905,-0.926041 1.516862,-0.147236 2.966874,-0.267702 3.222247,-0.267702 0.767166,0 1.212718,-0.680884 1.407782,-2.151342 0.101605,-0.765937 0.534708,-2.215034 0.962451,-3.220215 0.427742,-1.005181 0.777714,-2.033434 0.777714,-2.285007 0,-0.457626 -0.534098,-0.810786 -18.520834,-12.246469 -21.587645,-13.725084 -35.073736,-21.656677 -37.041668,-21.785365 -1.338556,-0.08753 -1.322916,-0.08179 -1.322916,-0.485234 0,-0.571801 -1.556795,-1.807128 -4.346411,-3.448904 -3.526461,-2.075435 -6.319331,-3.582884 -6.633801,-3.580588 -0.14552,0.0011 -0.53786,0.80306 -0.87187,1.782216 -1.01601,2.978434 -1.01627,2.906446 0.0139,3.982668 1.29415,1.351964 15.949494,20.470265 31.119263,40.595938 2.769444,3.67421 3.669427,4.694385 4.141319,4.694385 0.331604,0 5.942604,-0.296253 12.468889,-0.65834 z m -18.164235,-4.10416 c -0.155761,-0.291041 -0.342733,-0.529166 -0.415494,-0.529166 -0.07276,0 -0.0049,0.238125 0.15091,0.529166 0.155761,0.291042 0.342733,0.529167 0.415493,0.529167 0.07276,0 0.0049,-0.238125 -0.150909,-0.529167 z m -3.636645,-4.828645 c -0.14402,-0.181901 -1.747188,-2.295261 -3.562594,-4.696354 -1.815406,-2.401094 -4.718478,-6.230223 -6.451271,-8.509177 -1.732793,-2.278953 -4.221061,-5.553172 -5.529484,-7.276041 -4.023798,-5.298346 -11.289972,-14.760336 -11.535202,-15.021101 -0.12773,-0.135819 -0.30522,-0.173961 -0.39442,-0.08476 -0.0892,0.0892 1.36733,2.122558 3.23674,4.518571 1.8694,2.396012 4.649073,5.987174 6.177042,7.980358 1.527968,1.993185 3.909218,5.087886 5.291666,6.877115 1.382448,1.789228 4.120886,5.364551 6.085417,7.945161 4.061016,5.334554 6.651018,8.596956 6.825072,8.596956 0.06539,0 0.0011,-0.148828 -0.142966,-0.330729 z m 43.853312,-1.49567 c 0,-0.131395 -1.160859,-0.94726 -2.579687,-1.813032 -3.715787,-2.267384 -5.09323,-3.045689 -5.09323,-2.87786 0,0.252788 7.195402,4.929791 7.584308,4.929791 0.04874,0 0.08861,-0.107505 0.08861,-0.238899 z M -121.89563,34.770934 c 7.38175,-1.515421 13.67437,-6.955918 15.2638,-13.196816 0.84065,-3.300845 0.22499,-9.311888 -1.359,-13.2686241 -2.46368,-6.1541597 -9.49215,-10.2319276 -18.29962,-10.6170444 -3.06602,-0.1340654 -3.30606,-0.1078595 -4.05,0.4421557 -0.43494,0.3215672 -1.23049,0.650015 -1.76789,0.7298842 -1.32051,0.19625717 -4.87058,2.00767945 -6.71365,3.4256418 -3.81041,2.9315294 -6.72143,9.9832108 -6.18582,14.9846028 0.22721,2.121703 1.39996,5.556024 2.56793,7.52 1.99716,3.358312 5.5157,6.401332 9.56446,8.271867 4.44931,2.055587 7.20204,2.48388 10.97979,1.708333 z m 19.76529,-14.929047 c -0.21353,-0.345506 -1.73178,-1.13149 -1.8866,-0.976674 -0.132,0.131997 1.49901,1.231639 1.83723,1.238682 0.11773,0.0025 0.13995,-0.115452 0.0494,-0.262008 z M 77.846808,173.5311 c -0.917969,-0.51372 -0.366073,-1.8165 0.769524,-1.8165 0.6045,0 1.07366,0.81324 0.761005,1.31912 -0.318535,0.51541 -1.064908,0.75795 -1.530529,0.49738 z m 5.100062,-0.0108 c -1.136823,-0.32319 -1.852084,-0.93418 -1.852084,-1.58211 0,-0.62924 0.462863,-0.61619 1.455209,0.041 1.223792,0.81049 2.570701,0.69589 3.570367,-0.30378 0.907641,-0.90764 0.921946,-1.72912 0.04704,-2.70141 -0.371528,-0.41288 -0.654356,-0.46036 -1.765324,-0.29635 -0.727604,0.10742 -1.739635,0.20961 -2.248958,0.22707 -0.866144,0.0297 -0.923991,-0.0196 -0.894341,-0.76199 0.03405,-0.85245 0.783798,-4.34327 0.973609,-4.53308 0.09668,-0.0967 5.185968,-0.19628 6.204586,-0.12143 0.181901,0.0134 0.330729,0.26538 0.330729,0.56002 0,0.80417 -1.083019,1.08417 -3.434875,0.88804 l -2.057,-0.17155 -0.271601,0.89525 c -0.674203,2.22231 -0.723584,2.12766 1.007877,1.93177 2.060937,-0.23317 2.751795,-0.0215 3.410829,1.04479 1.241266,2.00841 0.316941,4.05713 -2.162692,4.79351 -0.743095,0.22067 -1.359238,0.39049 -1.369206,0.37736 -0.01,-0.0131 -0.434842,-0.14233 -0.944165,-0.28712 z m -13.35784,-0.52719 c -1.597791,-1.25682 -1.866186,-3.62538 -0.780295,-6.88601 0.658743,-1.97803 1.485569,-3.38832 1.986505,-3.38832 0.134959,0 0.24538,0.19185 0.24538,0.42632 0,0.34269 0.178937,0.39276 0.912103,0.25521 2.290311,-0.42966 4.062778,1.68217 3.77249,4.49479 -0.205766,1.99367 -1.349458,3.99229 -2.818165,4.92478 -1.410258,0.89537 -2.338358,0.94383 -3.318018,0.17323 z m 2.942533,-1.2571 c 0.50563,-0.30832 1.113232,-1.08575 1.556242,-1.99123 0.603085,-1.23266 0.697976,-1.69542 0.557625,-2.71939 -0.223418,-1.63001 -1.000393,-2.45452 -2.313011,-2.45452 -0.714365,0 -1.108037,0.15822 -1.387943,0.55785 -0.214904,0.30681 -0.499259,0.49077 -0.631902,0.4088 -0.322017,-0.19902 -1.124038,2.3968 -1.124038,3.63806 0,1.55318 0.968243,3.06898 1.959236,3.06721 0.304868,-5.4e-4 0.927574,-0.22859 1.383791,-0.50678 z m 5.315245,-56.41322 c -0.917969,-0.51372 -0.366073,-1.8165 0.769524,-1.8165 0.6045,0 1.07366,0.81324 0.761005,1.31912 -0.318535,0.5154 -1.064908,0.75795 -1.530529,0.49738 z m 5.100062,-0.0108 c -1.136823,-0.32319 -1.852084,-0.93419 -1.852084,-1.58211 0,-0.62924 0.462863,-0.6162 1.455209,0.041 1.223792,0.81048 2.570701,0.69588 3.570367,-0.30378 0.907641,-0.90764 0.921946,-1.72912 0.04704,-2.70141 -0.371528,-0.41289 -0.654356,-0.46036 -1.765324,-0.29635 -0.727604,0.10742 -1.739635,0.2096 -2.248958,0.22707 -0.866144,0.0297 -0.923991,-0.0196 -0.894341,-0.76199 0.03405,-0.85246 0.783798,-4.34328 0.973609,-4.53309 0.09668,-0.0967 5.185968,-0.19627 6.204586,-0.12142 0.181901,0.0134 0.330729,0.26537 0.330729,0.56002 0,0.80417 -1.083019,1.08417 -3.434875,0.88803 l -2.057,-0.17154 -0.271601,0.89525 c -0.674203,2.22231 -0.723584,2.12766 1.007877,1.93177 2.060937,-0.23317 2.751795,-0.0216 3.410829,1.04479 1.241266,2.00841 0.316941,4.05713 -2.162692,4.7935 -0.743095,0.22068 -1.359238,0.39049 -1.369206,0.37737 -0.01,-0.0131 -0.434842,-0.14233 -0.944165,-0.28712 z M 69.58903,114.7848 c -1.597791,-1.25682 -1.866186,-3.62538 -0.780295,-6.88601 0.658743,-1.97803 1.485569,-3.38832 1.986505,-3.38832 0.134959,0 0.24538,0.19185 0.24538,0.42632 0,0.34269 0.178937,0.39276 0.912103,0.25521 2.290311,-0.42966 4.062778,1.68217 3.77249,4.49478 -0.205766,1.99368 -1.349458,3.9923 -2.818165,4.92478 -1.410258,0.89538 -2.338358,0.94384 -3.318018,0.17324 z m 2.942533,-1.2571 c 0.50563,-0.30832 1.113232,-1.08575 1.556242,-1.99123 0.603085,-1.23266 0.697976,-1.69542 0.557625,-2.71939 -0.223418,-1.63001 -1.000393,-2.45452 -2.313011,-2.45452 -0.714365,0 -1.108037,0.15822 -1.387943,0.55785 -0.214904,0.30681 -0.499259,0.49077 -0.631902,0.4088 -0.322017,-0.19902 -1.124038,2.3968 -1.124038,3.63806 0,1.55318 0.968243,3.06898 1.959236,3.06721 0.304868,-5.4e-4 0.927574,-0.22859 1.383791,-0.50678 z"
       id="path1" /></g></svg>
