<?xml version="1.0" encoding="UTF-8" standalone="no"?>
<!-- Created with Inkscape (http://www.inkscape.org/) -->

<svg
   width="434.08228mm"
   height="233.90318mm"
   viewBox="0 0 434.08228 233.90318"
   version="1.1"
   id="svg1"
   inkscape:version="1.4 (e7c3feb100, 2024-10-09)"
   sodipodi:docname="neural-net-example-1.svg"
   xmlns:inkscape="http://www.inkscape.org/namespaces/inkscape"
   xmlns:sodipodi="http://sodipodi.sourceforge.net/DTD/sodipodi-0.dtd"
   xmlns="http://www.w3.org/2000/svg"
   xmlns:svg="http://www.w3.org/2000/svg">
  <sodipodi:namedview
     id="namedview1"
     pagecolor="#ffffff"
     bordercolor="#666666"
     borderopacity="1.0"
     inkscape:showpageshadow="2"
     inkscape:pageopacity="0.0"
     inkscape:pagecheckerboard="0"
     inkscape:deskcolor="#d1d1d1"
     inkscape:document-units="mm"
     inkscape:zoom="0.29754489"
     inkscape:cx="756.18841"
     inkscape:cy="352.88792"
     inkscape:window-width="1440"
     inkscape:window-height="896"
     inkscape:window-x="0"
     inkscape:window-y="0"
     inkscape:window-maximized="1"
     inkscape:current-layer="layer1" />
  <defs
     id="defs1" />
  <g
     inkscape:label="Layer 1"
     inkscape:groupmode="layer"
     id="layer1"
     transform="translate(112.18314,-31.485438)">
    <path
       style="fill:#000000"
       d="m 289.54434,57.92921 c -0.0922,-0.24021 -0.0826,-2.11119 0.0213,-4.15774 l 0.18888,-3.72099 -1.19208,0.6986 c -1.43944,0.84357 -2.02389,0.88895 -2.02389,0.15713 0,-0.33215 0.317,-0.7157 0.82004,-0.99218 0.45102,-0.2479 1.35157,-0.79438 2.00121,-1.21441 0.8403,-0.5433 1.26301,-0.68184 1.46478,-0.48006 0.19835,0.19834 0.21318,1.73977 0.0493,5.12674 -0.20788,4.29672 -0.28664,4.85308 -0.69813,4.93139 -0.2551,0.0485 -0.53924,-0.10826 -0.63142,-0.34848 z"
       id="path141" />
    <path
       style="fill:#000000"
       d="m 245.7927,74.21987 c 0,-0.59317 3.50351,-2.48198 6.41615,-3.45906 0.98226,-0.32952 1.78594,-0.64093 1.78594,-0.69204 0,-0.1931 -30.45539,0.19588 -47.02745,0.60064 l -17.26181,0.42161 -0.51264,-0.6274 c -0.30009,-0.36727 -0.41541,-0.72691 -0.27814,-0.86743 0.13374,-0.13691 10.15779,-0.32752 23.3307,-0.44366 19.67615,-0.17347 41.9705,-0.64295 42.21896,-0.88905 0.14467,-0.1433 -4.87044,-1.93968 -6.29046,-2.2532 -0.80036,-0.17672 -1.66357,-0.37846 -1.91823,-0.44832 -0.53702,-0.14732 -0.61918,-0.76857 -0.12663,-0.95758 1.21513,-0.46629 13.3624,4.07598 13.09533,4.89677 -0.06,0.18429 -2.42203,1.11471 -5.24902,2.06759 -2.82699,0.95289 -5.64126,1.99469 -6.25393,2.31511 -1.17623,0.61517 -1.92877,0.74627 -1.92877,0.33602 z"
       id="path140" />
    <path
       style="fill:#000000"
       d="m 288.75559,95.1263 c -0.90043,-0.54758 -1.54744,-1.74348 -1.80645,-3.33894 -0.20133,-1.24013 0.84812,-4.98372 1.79555,-6.40505 0.56342,-0.84526 1.49801,-1.17653 1.49801,-0.53098 0,0.21977 0.43671,0.33073 1.3016,0.33073 1.52298,0 2.46346,0.69779 2.95731,2.19415 0.38766,1.17464 0.16959,3.66615 -0.42367,4.84055 -1.27781,2.52949 -3.73683,3.87375 -5.32235,2.90954 z m 2.80133,-1.77544 c 1.51503,-1.27481 2.3089,-3.46192 1.86072,-5.12632 -0.46662,-1.73289 -2.3756,-2.48245 -3.36862,-1.32269 -0.2492,0.29104 -0.58953,0.52917 -0.75629,0.52917 -0.45705,0 -1.2413,3.09124 -1.04701,4.12691 0.20204,1.07694 1.33633,2.48767 2.0002,2.48767 0.26694,0 0.85689,-0.31263 1.311,-0.69474 z"
       id="path139" />
    <path
       style="fill:#000000"
       d="m 277.39782,111.66533 c -0.44349,-0.19318 -1.03418,-0.69453 -1.31265,-1.11413 -0.58705,-0.88455 -0.56682,-0.0623 -0.4419,-17.96081 0.0467,-6.69395 -0.052,-17.46911 -0.21939,-23.94479 -0.16739,-6.47567 -0.39206,-15.88161 -0.49927,-20.90208 -0.22681,-10.62104 -0.22864,-10.60952 1.78763,-11.21107 0.67503,-0.2014 1.68929,-0.63969 2.2539,-0.97397 1.28327,-0.75978 3.62172,-0.7658 5.32196,-0.0137 1.49448,0.66109 1.91782,1.40833 1.31718,2.32501 -0.39222,0.59861 -0.54991,0.65095 -1.40786,0.46724 -1.63233,-0.34953 -3.01312,-0.21117 -4.67034,0.46796 -1.27517,0.52257 -1.56552,0.75011 -1.47575,1.15653 0.24111,1.09165 0.51979,15.70757 0.78618,41.23157 0.1545,14.80442 0.38351,26.80751 0.51394,26.93794 0.1294,0.12939 1.25452,0.2381 2.50027,0.24158 2.56994,0.007 3.18751,0.36699 3.18751,1.85723 0,1.61258 -1.96472,2.37385 -3.18,1.23215 l -0.61236,-0.57529 v 0.57529 c 0,0.52516 -0.13256,0.57439 -1.52135,0.56493 -0.83675,-0.006 -1.88421,-0.16841 -2.3277,-0.36158 z"
       id="path138" />
    <path
       style="fill:#000000"
       d="m 301.12734,112.26002 c -0.63465,-0.11286 -1.5701,-0.45077 -2.07878,-0.7509 -0.83987,-0.49553 -1.06703,-0.51773 -2.47117,-0.24148 -1.96806,0.38719 -3.24923,0.14958 -3.94197,-0.7311 -0.7125,-0.9058 -0.68234,-1.55661 0.1088,-2.34776 0.61159,-0.61158 0.82074,-0.64943 3.58927,-0.64943 1.61691,0 3.18033,0.12871 3.47427,0.28602 0.29394,0.15731 0.57357,0.24661 0.6214,0.19844 0.0478,-0.0482 0.15833,-7.43043 0.24554,-16.40503 0.11859,-12.20405 0.25648,-17.00628 0.54698,-19.05 0.21363,-1.5029 0.39059,-4.25805 0.39326,-6.12254 0.003,-1.86449 0.24011,-5.13871 0.52764,-7.27604 0.97983,-7.28327 1.52905,-14.07051 1.39877,-17.28603 l -0.12484,-3.08122 -4.03274,-0.0938 c -4.3153,-0.10035 -4.90773,-0.27346 -4.90773,-1.43409 0,-1.25009 0.76992,-1.43781 5.8971,-1.43781 2.87583,0 4.9298,0.11173 5.25519,0.28588 1.01951,0.54563 1.28335,1.80778 1.27969,6.12177 -0.002,2.77286 -0.17129,5.08262 -0.53765,7.35068 -0.85666,5.30346 -1.56531,12.3242 -1.57568,15.61042 -0.005,1.67349 -0.19481,4.29286 -0.42119,5.82083 -0.34891,2.35506 -0.39854,5.57842 -0.32588,21.16667 0.0828,17.7587 0.0683,18.41735 -0.42322,19.22958 -0.60028,0.992 -0.95552,1.11107 -2.49706,0.83692 z"
       id="path137" />
    <path
       style="fill:#000000"
       d="m 123.20013,119.00233 c -0.0958,-0.0957 -0.1741,-0.78979 -0.1741,-1.54231 v -1.36822 l -12.63385,-0.17359 c -10.959043,-0.15057 -12.954823,-0.24049 -15.055063,-0.67833 -3.0061,-0.62668 -5.43327,-1.76451 -7.25434,-3.40075 -2.92825,-2.63103 -4.05483,-5.5623 -4.47299,-11.63833 -0.14785,-2.14843 -0.38496,-5.45405 -0.52691,-7.34582 -0.14194,-1.89177 -0.26155,-7.14738 -0.26579,-11.67913 l -0.008,-8.23955 -0.68026,-0.17073 c -0.81601,-0.20481 -0.72142,-0.73899 0.16804,-0.94897 0.4525,-0.10682 0.53961,-0.21242 0.29827,-0.36158 -0.25869,-0.15988 -0.26779,-0.29881 -0.0377,-0.57604 0.20106,-0.24226 0.38363,-3.10896 0.54194,-8.50925 0.41547,-14.17357 0.69239,-18.81917 1.23583,-20.73252 1.06,-3.73205 3.31299,-6.61307 6.2791,-8.02944 3.26671,-1.55992 3.25973,-1.5593 19.042813,-1.67016 8.22301,-0.0577 14.6715,-0.20723 14.83619,-0.34391 0.17174,-0.14254 0.39187,-0.14445 0.53635,-0.005 0.13519,0.13079 6.71,0.29056 14.66486,0.35635 16.07573,0.13296 16.64657,0.18797 20.35917,1.96213 3.37819,1.61435 5.55521,4.33524 6.70517,8.38028 0.49672,1.74721 0.5436,2.82393 0.64643,14.84565 0.0686,8.02208 0.211,13.08246 0.37361,13.2784 0.17479,0.2106 0.16803,0.49359 -0.0202,0.84528 -0.19152,0.35785 -0.28443,5.55717 -0.28754,16.09035 -0.005,16.86915 -0.0704,17.79144 -1.46476,20.64135 -1.89137,3.86582 -5.97435,6.2474 -12.64045,7.37312 -2.71351,0.45824 -20.54632,0.94523 -25.87843,0.7067 l -3.07886,-0.13773 -0.18529,1.34716 c -0.17739,1.28984 -0.65438,2.09339 -1.02352,1.72425 z m 25.62278,-4.30362 c 2.32984,-0.12449 5.00663,-0.42601 5.95313,-0.67057 5.23435,-1.3525 8.75028,-4.66186 10.40753,-9.79608 1.09025,-3.37762 1.16144,-4.88339 0.89446,-18.91771 -0.1398,-7.3488 -0.27192,-13.38383 -0.29361,-13.41118 -0.0535,-0.0675 -40.48991,0.51516 -40.58405,0.58477 -0.0903,0.0668 -0.84079,34.69507 -0.84702,39.08134 l -0.004,3.10389 6.01927,0.0763 c 3.3106,0.042 7.86474,0.0986 10.12032,0.12587 2.25557,0.0272 6.00604,-0.0523 8.33437,-0.17666 z m -25.70153,-10.92967 c 0.0948,-6.00273 0.24798,-15.49797 0.34052,-21.10052 l 0.16824,-10.18646 -8.70257,0.0643 c -4.78642,0.0354 -13.62324,0.13881 -19.637383,0.2299 l -10.93481,0.16562 0.1181,13.52843 c 0.12895,14.77061 0.20843,15.67504 1.71862,19.5572 1.86489,4.79393 5.09051,7.23379 11.03706,8.34844 0.7276,0.13639 6.812253,0.2613 13.521433,0.27757 l 12.19852,0.0296 z M 95.575507,71.62277 c -2.07367,-0.0447 -5.46695,-0.0447 -7.54062,0 -2.07367,0.0447 -0.37703,0.0813 3.77031,0.0813 4.14735,0 5.84399,-0.0366 3.77031,-0.0813 z m 17.060123,-0.2266 c -0.0879,-0.0879 -0.31613,-0.0973 -0.50712,-0.0209 -0.21107,0.0845 -0.14837,0.14716 0.15985,0.15985 0.27892,0.0115 0.43519,-0.051 0.34727,-0.13896 z m -5.03182,-1.93724 -1.11423,-1.03875 -0.13917,-3.52531 c -0.14707,-3.72528 -0.25471,-3.83248 -0.91398,-0.91015 -0.56851,2.52007 -1.0839,3.48915 -2.11614,3.97898 -1.34216,0.6369 -2.20291,0.52869 -3.05562,-0.38414 -0.955933,-1.02332 -1.505853,-2.56646 -1.718753,-4.82302 -0.13884,-1.47156 -0.2703,-1.8402 -0.74273,-2.08285 -0.31572,-0.16215 -0.88407,-0.58356 -1.26301,-0.93646 l -0.68899,-0.64163 -0.41568,0.63441 c -0.53061,0.80982 -2.00183,1.51049 -3.14113,1.49597 -1.26849,-0.0162 -3.68725,-1.31611 -4.39218,-2.36053 -0.50562,-0.74914 -0.59065,-1.20666 -0.5623,-3.0257 0.0184,-1.17871 -0.11595,-4.48291 -0.2985,-7.34268 -0.18255,-2.85976 -0.25106,-5.63051 -0.15225,-6.15722 0.39509,-2.10603 2.87138,-3.72319 4.71634,-3.08003 0.44431,0.15489 0.84421,0.28162 0.88866,0.28162 0.0445,0 0.15476,-0.44649 0.24512,-0.99219 0.27435,-1.65684 0.70403,-2.48588 1.55839,-3.00687 1.16549,-0.71071 2.11773,-0.62749 3.12576,0.27319 0.75849,0.67771 0.86407,0.93439 0.86407,2.10064 0,1.31224 0.007,1.32269 0.52917,0.84852 0.79555,-0.72176 1.563953,-1.05952 3.052713,-1.34186 1.78216,-0.33798 2.74192,0.0739 4.24838,1.82318 0.64107,0.7444 1.23313,1.35352 1.3157,1.35359 0.0826,7e-5 0.35021,-0.63464 0.59477,-1.41047 0.86259,-2.73646 2.83357,-4.14071 5.81668,-4.14417 1.74219,-0.002 2.53811,0.48384 3.84529,2.34734 1.39756,1.99237 1.74802,2.84194 2.17585,5.27461 0.28824,1.639 0.44471,1.98889 1.02316,2.28801 1.71171,0.88516 2.09878,1.95593 2.28484,6.32065 0.1512,3.54689 -0.16959,5.83243 -0.93261,6.64463 -0.37821,0.40259 -0.59401,1.1999 -0.79232,2.92735 -0.66766,5.81615 -0.68911,5.92135 -1.35217,6.63109 -1.67198,1.78969 -4.41514,1.91213 -5.78768,0.25833 -0.50003,-0.60251 -0.66311,-0.52166 -1.03779,0.5145 -0.19116,0.52864 -0.75554,1.2238 -1.30992,1.61347 l -0.97406,0.68464 6.21437,-0.17697 c 3.41791,-0.0973 6.25791,-0.22051 6.31113,-0.27372 0.0532,-0.0532 0.20164,-6.56347 0.32984,-14.46723 0.12819,-7.90376 0.26475,-16.10417 0.30345,-18.22314 l 0.0704,-3.85267 -13.09688,-0.29219 c -7.8264,-0.1746 -13.749793,-0.1979 -14.719343,-0.0579 -6.1975,0.89499 -9.62803,4.57673 -11.20374,12.02417 -0.50118,2.36882 -0.57649,3.83007 -0.71929,13.95677 l -0.15949,11.31094 h 12.20006 12.200063 z m 58.40657,-6.43572 c 0.34371,-13.61193 0.30453,-15.67996 -0.34447,-18.18058 -1.58841,-6.12019 -4.86646,-9.68699 -10.2674,-11.17181 -2.02088,-0.55558 -2.45021,-0.56932 -15.70372,-0.50254 -7.49433,0.0378 -13.6672,0.10949 -13.7175,0.1594 -0.0699,0.0694 -0.77456,30.74691 -0.82492,35.91324 l -0.01,0.99218 h 20.34282 20.34281 z"
       id="path136" />
    <path
       style="fill:#000000"
       d="m -71.098823,195.05026 c -0.116372,-0.1819 -0.390179,-0.33073 -0.60846,-0.33073 -0.218281,0 -0.432649,-0.25055 -0.476373,-0.55678 -0.07832,-0.54849 -0.208354,-0.55964 -8.731251,-0.74864 -13.614276,-0.3019 -17.93463,-0.55363 -19.686353,-1.14705 -4.62502,-1.5668 -7.45548,-4.79535 -9.18381,-10.47548 -0.91881,-3.01967 -1.07611,-5.83274 -1.07838,-19.28507 l -0.002,-12.89844 h -0.66146 c -0.83433,0 -0.89127,-0.72431 -0.0662,-0.84149 l 0.59532,-0.0846 0.14841,-13.89062 c 0.16102,-15.07068 0.16561,-15.11882 1.71001,-17.95639 1.67982,-3.08639 4.54276,-5.30596 8.42642,-6.53282 3.079607,-0.97286 7.325915,-1.21906 19.411874,-1.1255 8.334725,0.0645 10.674241,0.0106 10.773467,-0.24832 0.06971,-0.1819 0.29916,-0.33072 0.509881,-0.33072 0.210722,0 0.433034,0.14882 0.494027,0.33072 0.08693,0.25926 3.336779,0.33227 15.037153,0.33784 13.506422,0.006 15.086909,0.052 16.615146,0.4794 5.407546,1.5122 8.472787,4.49043 10.255641,9.96454 0.755084,2.31842 0.946053,11.19414 0.782749,36.3802 -0.170837,26.34809 -0.164398,26.23285 -1.639969,29.3493 -1.374918,2.90387 -5.236977,5.95218 -8.962497,7.07406 -1.414802,0.42605 -2.683831,0.57368 -5.299814,0.61654 -1.89177,0.031 -8.827161,0.15249 -15.411979,0.26998 l -11.972396,0.21363 v 0.88356 c 0,0.91088 -0.550947,1.22198 -0.97904,0.55283 z m -1.034367,-6.61458 c 0.08705,-2.07368 0.337036,-10.49735 0.555525,-18.71927 0.21849,-8.22193 0.466844,-16.10982 0.551898,-17.52865 l 0.154644,-2.57969 h -19.305507 -19.30549 l -0.19353,7.74193 c -0.25958,10.38363 -0.0403,20.1426 0.50674,22.55286 1.10897,4.88616 4.29014,8.63929 8.84417,10.43432 3.828532,1.50906 6.490117,1.75287 19.924827,1.82517 l 8.108432,0.0436 z m -18.546091,-18.48305 c -1.629358,-0.47113 -2.144327,-2.22577 -1.137765,-3.87666 0.628181,-1.0303 1.985235,-1.91346 2.942311,-1.91483 0.949977,-10e-4 2.086202,0.94523 2.086202,1.73801 0,0.80223 -0.787076,0.87278 -1.261514,0.11309 -0.467561,-0.74869 -1.297734,-0.65646 -2.198422,0.24423 -1.607416,1.60742 -0.689071,2.66619 2.312568,2.66619 2.076052,0 2.544223,0.26205 1.62209,0.90793 -0.659396,0.46186 -2.967136,0.52638 -4.36547,0.12204 z m 49.26679,21.69531 c 7.567388,-0.96549 10.770856,-3.36602 12.709062,-9.52359 0.527562,-1.67604 0.610401,-4.02445 0.734006,-20.80847 l 0.08622,-11.70781 h -20.945794 -20.945775 l -0.145669,21.10052 c -0.08012,11.60529 -0.09447,21.18451 -0.0319,21.28717 0.170651,0.27995 26.095802,-0.036 28.539829,-0.34782 z m -11.641667,-18.27895 c -0.744228,-0.42202 -0.917354,-0.74929 -0.92199,-1.74285 -0.0057,-1.23177 0.62499,-2.58336 1.461253,-3.1313 0.872861,-0.57193 2.289478,-0.56699 3.171671,0.011 l 0.654691,0.42897 0.01155,-1.92432 c 0.0129,-2.15006 0.526567,-5.01641 0.921373,-5.14142 0.141739,-0.0449 0.432612,0.0289 0.646385,0.16396 0.298669,0.1887 0.377086,0.76098 0.338624,2.47125 -0.02753,1.22413 -0.172668,2.54819 -0.322531,2.94236 -0.418178,1.09989 -0.33291,2.2452 0.301678,4.05209 0.318733,0.90754 0.503667,1.72592 0.410965,1.81862 -0.352692,0.3527 -1.025167,-0.19306 -1.474476,-1.19662 l -0.467093,-1.04329 -0.745483,0.93429 c -1.138659,1.42703 -2.841296,2.00669 -3.986612,1.35722 z m 2.502745,-1.69973 c 0.452954,-0.38113 0.994238,-1.02304 1.202853,-1.42646 0.355833,-0.6881 0.342968,-0.74322 -0.20794,-0.89091 -1.033427,-0.27704 -1.689777,-0.17781 -2.37166,0.35856 -0.807311,0.63503 -1.072521,1.74143 -0.544097,2.26985 0.547112,0.54711 0.985322,0.47615 1.920844,-0.31104 z m -20.407155,-23.51539 c 0.09753,-0.0975 0.218859,-8.60674 0.26962,-18.90944 l 0.09229,-18.73218 -11.469377,-0.11829 c -6.308157,-0.0651 -12.302813,-0.0108 -13.321459,0.12049 -6.217266,0.80154 -10.889416,4.26883 -12.814416,9.5098 -1.51338,4.12034 -1.51823,4.18759 -1.40694,19.50475 l 0.0662,9.10323 19.203404,-0.15055 c 10.561871,-0.0828 19.2832,-0.23032 19.380729,-0.32781 z m -21.061053,-13.53955 c -0.184962,-0.0744 -0.519212,-0.48903 -0.742776,-0.92135 -0.32663,-0.63164 -0.348351,-0.96218 -0.110571,-1.68267 0.336832,-1.0206 1.801688,-2.42167 2.79173,-2.67016 1.011359,-0.25383 2.270254,0.0939 2.739957,0.75681 0.415787,0.58682 1.872814,4.09547 1.874693,4.51442 0.0024,0.54493 -1.211153,-0.0289 -1.577686,-0.74601 -0.223145,-0.43656 -0.42979,-0.83766 -0.459212,-0.89134 -0.02942,-0.0537 -0.556869,0.33328 -1.172104,0.8599 -1.08654,0.93004 -2.27993,1.20854 -3.344031,0.7804 z m 2.527894,-1.55877 c 0.657177,-0.4603 1.380277,-1.70792 1.380277,-2.38149 0,-0.36367 -0.171126,-0.40819 -0.992187,-0.25815 -1.75421,0.32056 -3.022651,1.59677 -2.622774,2.63883 0.205691,0.53602 1.469909,0.53648 2.234684,8.1e-4 z m 54.26499,14.79872 7.50867,-0.16046 -0.184399,-12.20589 c -0.101419,-6.71324 -0.297724,-12.9798 -0.436233,-13.92568 -0.898421,-6.13538 -5.916391,-10.06759 -14.132125,-11.07431 -1.018646,-0.12482 -7.358724,-0.16816 -14.089063,-0.0963 l -12.236979,0.13064 -0.0036,1.3528 c -0.002,0.74404 -0.237999,8.67514 -0.524519,17.62467 -0.28652,8.94953 -0.523037,16.84998 -0.525593,17.55655 l -0.0046,1.28468 13.559895,-0.16311 c 7.457943,-0.0897 16.938798,-0.23533 21.068568,-0.32359 z m -15.983639,-14.6773 c -1.017918,-0.28272 -1.921657,-1.11923 -2.137263,-1.97827 -0.230649,-0.91898 0.41386,-8.36493 0.760832,-8.78981 0.230319,-0.28205 0.343764,-0.28117 0.629784,0.005 0.275947,0.27595 0.294942,0.8179 0.09088,2.59297 -0.141889,1.23425 -0.258884,2.62146 -0.259988,3.08267 -0.002,0.83768 -9.85e-4,0.83829 0.965354,0.57147 1.444734,-0.39891 3.145814,-0.0588 3.787824,0.75742 0.931545,1.18427 0.606896,2.67714 -0.728134,3.34826 -1.026083,0.51582 -2.180984,0.66827 -3.109292,0.41044 z m 2.478006,-1.45379 c 0.776693,-0.54402 0.660062,-1.42155 -0.25713,-1.93464 -0.583869,-0.32663 -0.877795,-0.33646 -1.799925,-0.0602 -1.299925,0.38947 -1.555872,0.85578 -0.964828,1.75783 0.517265,0.78944 2.060367,0.91046 3.021883,0.23699 z"
       id="path135" />
    <path
       style="fill:#000000"
       d="m 299.43449,204.52782 c -1.25903,-0.44927 -1.78343,-0.88387 -1.78343,-1.478 0,-0.74672 0.60915,-0.78233 1.73413,-0.10138 1.34641,0.81497 2.261,0.8009 3.27265,-0.0503 0.98555,-0.82928 1.04407,-1.66393 0.18656,-2.66084 -0.61453,-0.71444 -0.6559,-0.72294 -2.00456,-0.41163 -1.70556,0.39369 -2.83835,0.40624 -3.06841,0.034 -0.15932,-0.25778 0.74713,-4.10378 1.17223,-4.97372 0.13414,-0.2745 0.94826,-0.37046 3.34494,-0.39429 3.06125,-0.0305 3.17043,-0.0122 3.24987,0.54333 0.13491,0.94345 -0.78356,1.2308 -3.28525,1.02781 l -2.18913,-0.17762 -0.279,1.0047 c -0.50247,1.80943 -0.43015,1.96043 0.84253,1.75917 1.20504,-0.19057 1.34002,-0.19869 2.23942,-0.13469 0.83088,0.0591 1.92777,1.76855 1.92777,3.00431 0,1.36442 -1.18927,2.6951 -2.76278,3.09132 -1.41918,0.35735 -1.36078,0.3592 -2.59754,-0.0821 z"
       id="path134" />
    <path
       style="fill:#000000"
       d="m 294.26439,204.58852 c -0.48158,-0.48159 -0.38091,-1.19558 0.22878,-1.62263 1.12542,-0.78827 2.18212,0.26843 1.39385,1.39385 -0.42705,0.60969 -1.14105,0.71036 -1.62263,0.22878 z"
       id="path133" />
    <path
       style="fill:#000000"
       d="m 286.60682,204.37968 c -1.85047,-1.12533 -2.31325,-3.5541 -1.2861,-6.7497 0.37419,-1.16417 0.91859,-2.50362 1.20979,-2.97657 0.54812,-0.89024 1.33096,-1.16074 1.33096,-0.45989 0,0.31587 0.2142,0.36575 1.01842,0.23715 2.01255,-0.32182 3.72334,1.45333 3.73827,3.87889 0.0242,3.92547 -3.57001,7.55479 -6.01134,6.07012 z m 2.72395,-1.71543 c 1.1434,-0.87211 1.97029,-2.63985 1.97029,-4.21212 0,-1.03956 -0.13518,-1.39491 -0.7734,-2.03313 -0.909,-0.909 -1.90975,-1.00067 -2.66619,-0.24423 -0.29104,0.29104 -0.63703,0.52917 -0.76888,0.52917 -0.33636,0 -1.0832,2.3009 -1.0832,3.33719 0,1.10155 0.36478,2.05467 1.04777,2.73766 0.70729,0.70729 1.23071,0.68092 2.27361,-0.11454 z"
       id="path132" />
    <path
       style="fill:#000000"
       d="m 243.00035,221.28713 c -0.0978,-0.1582 -0.075,-0.38656 0.0505,-0.50746 0.32333,-0.31131 7.96082,-3.70282 8.33857,-3.70282 0.17176,0 0.25177,-0.0605 0.17779,-0.13451 -0.074,-0.074 -11.97031,0.15889 -26.43628,0.51748 -35.73752,0.88589 -37.94345,0.90977 -37.94345,0.41078 0,-0.21828 -0.20836,-0.48233 -0.46302,-0.58678 -0.25466,-0.10446 -0.46302,-0.35803 -0.46302,-0.56349 0,-0.53614 2.71524,-0.63466 30.69167,-1.11356 13.31516,-0.22793 26.29297,-0.49696 28.83958,-0.59784 l 4.63021,-0.18342 -2.87276,-0.73557 c -3.19158,-0.8172 -4.93245,-1.58586 -4.93245,-2.17784 0,-0.21532 0.13008,-0.3915 0.28907,-0.3915 0.27338,0 3.37284,0.924 8.93689,2.66422 1.36349,0.42645 2.95496,0.77536 3.53659,0.77536 0.96755,0 1.04393,0.0506 0.89797,0.59532 -0.0877,0.32742 -0.16117,0.66831 -0.16315,0.75754 -0.002,0.0892 -1.10495,0.55461 -2.45101,1.03418 -1.34607,0.47958 -4.21407,1.62697 -6.37333,2.54975 -2.15926,0.92279 -3.96794,1.6778 -4.01928,1.6778 -0.0513,0 -0.17335,-0.12944 -0.27112,-0.28764 z"
       id="path131" />
    <path
       style="fill:#000000"
       d="m 299.43449,241.56951 c -1.25903,-0.44927 -1.78343,-0.88386 -1.78343,-1.478 0,-0.74671 0.60915,-0.78232 1.73413,-0.10137 1.34641,0.81497 2.261,0.8009 3.27265,-0.0504 0.98555,-0.82929 1.04407,-1.66393 0.18656,-2.66084 -0.61453,-0.71444 -0.6559,-0.72294 -2.00456,-0.41163 -1.70556,0.39369 -2.83835,0.40624 -3.06841,0.034 -0.15932,-0.25778 0.74713,-4.10378 1.17223,-4.97372 0.13414,-0.2745 0.94826,-0.37047 3.34494,-0.3943 3.06125,-0.0304 3.17043,-0.0122 3.24987,0.54333 0.13491,0.94346 -0.78356,1.23081 -3.28525,1.02782 l -2.18913,-0.17762 -0.279,1.0047 c -0.50247,1.80943 -0.43015,1.96043 0.84253,1.75916 1.20504,-0.19056 1.34002,-0.19868 2.23942,-0.13469 0.83088,0.0591 1.92777,1.76856 1.92777,3.00431 0,1.36442 -1.18927,2.69511 -2.76278,3.09133 -1.41918,0.35735 -1.36078,0.3592 -2.59754,-0.0821 z"
       id="path130" />
    <path
       style="fill:#000000"
       d="m 294.26439,241.63021 c -0.48158,-0.48158 -0.38091,-1.19557 0.22878,-1.62262 1.12542,-0.78827 2.18212,0.26842 1.39385,1.39384 -0.42705,0.6097 -1.14105,0.71037 -1.62263,0.22878 z"
       id="path129" />
    <path
       style="fill:#000000"
       d="m 286.60682,241.42138 c -1.85047,-1.12533 -2.31325,-3.55411 -1.2861,-6.74971 0.37419,-1.16416 0.91859,-2.50362 1.20979,-2.97656 0.54812,-0.89025 1.33096,-1.16074 1.33096,-0.45989 0,0.31587 0.2142,0.36575 1.01842,0.23715 2.01255,-0.32182 3.72334,1.45333 3.73827,3.87888 0.0242,3.92548 -3.57001,7.55479 -6.01134,6.07013 z m 2.72395,-1.71543 c 1.1434,-0.87211 1.97029,-2.63985 1.97029,-4.21212 0,-1.03956 -0.13518,-1.39491 -0.7734,-2.03313 -0.909,-0.909 -1.90975,-1.00068 -2.66619,-0.24424 -0.29104,0.29105 -0.63703,0.52917 -0.76888,0.52917 -0.33636,0 -1.0832,2.30091 -1.0832,3.3372 0,1.10154 0.36478,2.05467 1.04777,2.73765 0.70729,0.70729 1.23071,0.68093 2.27361,-0.11453 z"
       id="path128" />
    <path
       style="fill:#000000"
       d="m 280.45314,258.42611 c -0.21828,-0.0788 -0.59052,-0.31148 -0.82721,-0.51705 -0.37362,-0.32452 -0.45247,-0.31606 -0.59839,0.0642 -0.25171,0.65593 -3.59781,0.43571 -4.41232,-0.2904 -1.31399,-1.17138 -1.31283,-1.15403 -1.12752,-16.91078 0.11874,-10.09645 0.0769,-16.12857 -0.1335,-19.26345 -0.1685,-2.51023 -0.41025,-11.76733 -0.53722,-20.57134 -0.26115,-18.10716 -0.32527,-17.3993 1.62886,-17.98255 0.61188,-0.18262 1.62565,-0.63206 2.25282,-0.99875 0.9999,-0.58462 1.35826,-0.6504 2.91041,-0.53429 2.15584,0.16126 3.70858,0.85203 3.93398,1.7501 0.30873,1.23008 -0.16478,1.50335 -2.42769,1.40104 -1.76649,-0.0799 -2.28217,0.007 -3.7569,0.6339 -1.50789,0.64087 -1.68633,0.7921 -1.51401,1.28321 0.10745,0.30619 0.27141,4.36906 0.36437,9.02859 0.093,4.65953 0.25047,8.60366 0.35002,8.76474 0.0996,0.16107 0.19939,9.14795 0.22186,19.97083 0.0225,10.82288 0.11383,22.11875 0.20301,25.10193 l 0.16214,5.42396 2.24896,-0.0454 c 1.95449,-0.0394 2.3269,0.0272 2.84427,0.50915 1.36532,1.27173 -0.0572,3.80645 -1.78594,3.18232 z"
       id="path127" />
    <path
       style="fill:#000000"
       d="m 315.51043,258.52431 c -0.58208,-0.16761 -1.30974,-0.44895 -1.61701,-0.62519 -0.38038,-0.21816 -1.26703,-0.27175 -2.77813,-0.16789 -2.01314,0.13837 -2.28707,0.0987 -2.94705,-0.42637 -0.99427,-0.79109 -1.00835,-2.13334 -0.0305,-2.90256 0.58458,-0.45983 1.06516,-0.54735 2.97656,-0.54205 1.25368,0.003 2.72591,0.10999 3.27161,0.23672 0.54571,0.12672 1.00374,0.21318 1.01785,0.19212 0.0141,-0.0211 0.1266,-7.47969 0.24997,-16.57474 0.16943,-12.4905 0.32359,-17.21618 0.63007,-19.31458 0.22316,-1.52797 0.40833,-4.24544 0.41148,-6.03882 0.003,-1.79338 0.23635,-4.94853 0.51821,-7.01145 0.90677,-6.63657 1.34031,-11.85218 1.33996,-16.12004 l -3.5e-4,-4.16719 h -4.08214 c -4.42073,0 -4.91369,-0.14639 -4.91369,-1.45911 0,-1.24939 0.77881,-1.45131 5.59789,-1.45131 2.43201,0 4.721,0.11375 5.08667,0.25278 0.36566,0.13902 0.87943,0.58068 1.1417,0.98146 0.74012,1.13098 0.67015,8.77623 -0.1243,13.58243 -0.86653,5.24229 -1.37701,10.30816 -1.3864,13.75833 -0.005,1.67349 -0.22142,4.70958 -0.48192,6.74688 -0.43045,3.36641 -0.4573,5.26943 -0.29448,20.87039 0.0985,9.44143 0.0902,17.53768 -0.0186,17.99167 -0.61436,2.56452 -1.1406,2.88735 -3.56745,2.18852 z"
       id="path126" />
    <path
       style="fill:#000000"
       d="m 119.74461,265.30098 c -0.087,-0.087 -0.15816,-0.7789 -0.15816,-1.53758 v -1.37943 l -12.63385,-0.13931 c -10.484723,-0.11561 -12.968613,-0.21463 -14.601703,-0.58209 -5.30053,-1.19266 -8.52808,-4.38846 -10.0239,-9.9253 -0.99342,-3.67721 -0.94451,-2.54835 -1.05758,-24.40781 -0.0461,-8.90837 -0.0635,-9.19428 -0.5611,-9.19428 -0.83657,0 -0.92625,-0.54711 -0.18912,-1.15379 l 0.6877,-0.566 0.0839,-13.09687 c 0.0793,-12.3721 0.11357,-13.17882 0.62001,-14.57763 1.44105,-3.98028 4.32074,-7.12239 8.1746,-8.91953 3.008,-1.40269 3.04098,-1.4048 24.209373,-1.54432 22.87693,-0.15078 36.85124,0.13679 39.29063,0.80854 6.39648,1.76143 9.47892,5.21718 10.9951,12.32669 0.47237,2.21501 0.55289,3.81764 0.67795,13.49375 0.0781,6.03911 0.2126,11.1588 0.29901,11.37708 0.26812,0.67734 0.33574,1.85208 0.10661,1.85208 -0.11992,0 -0.31502,7.05446 -0.43356,15.67657 -0.11854,8.62211 -0.23045,16.2279 -0.24869,16.90175 -0.0236,0.87309 -0.36978,1.89961 -1.20447,3.57188 -1.93725,3.88121 -4.38838,5.95309 -8.76422,7.40818 -1.28971,0.42887 -2.98793,0.48852 -17.56731,0.61705 l -16.13959,0.14228 -0.0821,0.99219 c -0.0452,0.5457 -0.194,0.99219 -0.33073,0.99219 -0.13674,0 -0.24862,0.16585 -0.24862,0.36857 0,0.3991 -0.64269,0.75262 -0.90017,0.49514 z m -0.0579,-6.75069 c 0.0831,-1.49159 0.21478,-4.91464 0.29253,-7.60677 0.27406,-9.48877 0.91586,-27.67987 1.0665,-30.22865 l 0.15246,-2.57969 H 101.71815 82.238127 l 0.11436,14.88282 c 0.0984,12.80153 0.17755,15.16031 0.56626,16.86718 1.53533,6.74178 5.47305,9.84913 14.04583,11.08391 0.87312,0.12576 6.308773,0.24317 12.079223,0.26091 l 10.49173,0.0323 z m 16.1968,2.36569 c -1.76889,-1.10616 -4.66728,-3.4748 -5.19585,-4.2462 -0.54168,-0.79054 -0.7371,-0.89491 -1.45682,-0.77812 -1.02061,0.16562 -2.19247,-0.4045 -3.13584,-1.52563 l -0.69825,-0.82983 0.14333,-17.23748 c 0.0788,-9.48062 0.20829,-17.44585 0.28769,-17.70051 0.12657,-0.40596 -0.0535,-0.46303 -1.46097,-0.46303 h -1.60533 l -0.003,1.25678 c -0.002,0.69122 -0.29819,9.7102 -0.65861,20.04218 -0.36042,10.33198 -0.65659,19.47003 -0.65815,20.30677 l -0.003,1.52136 7.47448,-0.0156 c 5.89332,-0.0123 7.36787,-0.0822 6.97048,-0.33073 z m 18.76025,-0.25302 c 0.72761,-0.21228 1.77791,-0.57847 2.334,-0.81376 1.12486,-0.47594 4.01836,-3.27749 4.75857,-4.60736 l 0.47798,-0.85874 h -0.74984 c -0.70219,0 -1.84761,-0.58683 -2.22521,-1.14004 -0.0993,-0.14546 -0.58206,-0.10561 -1.19062,0.0983 -0.563,0.18861 -1.79753,0.35134 -2.74342,0.36162 -1.92765,0.0209 -3.31906,-0.61944 -3.96391,-1.82436 -0.41556,-0.77648 -0.79815,-0.87576 -0.79958,-0.20748 -0.003,1.55101 -2.17713,3.16464 -3.88902,2.88684 -0.84319,-0.13684 -0.87249,-0.11147 -0.87249,0.75537 0,0.49332 -0.14145,1.2074 -0.31433,1.58683 -0.26398,0.57938 -2.81658,2.81018 -4.61755,4.03543 -0.74841,0.50916 11.97781,0.25767 13.79542,-0.27263 z m -15.43077,-7.9674 c 0.49886,-0.60216 0.63721,-0.96877 0.46707,-1.23767 -0.19732,-0.31187 -0.24248,-0.29326 -0.24579,0.10129 -0.002,0.26586 -0.35208,0.83141 -0.77745,1.25677 -0.42536,0.42537 -0.63372,0.76481 -0.46302,0.7543 0.17071,-0.0105 0.62934,-0.40412 1.01919,-0.87469 z m 24.92403,-34.23934 c -0.0175,-0.0417 -7.4291,-0.15035 -16.47031,-0.24142 l -16.43857,-0.16558 v 1.69913 c 0,1.3846 0.0933,1.75742 0.50425,2.01404 0.27734,0.1732 0.6502,0.76739 0.82857,1.32042 0.63635,1.97289 0.66791,1.9948 1.77973,1.23556 0.79412,-0.54228 1.21171,-0.65042 2.12371,-0.54997 0.62436,0.0688 1.36924,0.33683 1.65526,0.59568 0.28603,0.25885 0.54909,0.42176 0.58458,0.36202 0.0355,-0.0597 0.37759,-0.70394 0.76024,-1.43154 1.23852,-2.35509 4.88397,-4.27323 7.63866,-4.01926 1.5792,0.1456 5.49765,1.5328 6.7018,2.37255 0.41177,0.28717 1.34405,1.3407 2.07175,2.34119 1.0144,1.39468 1.47442,1.81906 1.9718,1.81906 0.9526,0 2.25905,0.62536 3.01298,1.44222 0.5836,0.63231 0.6663,0.97114 0.7026,2.87837 0.0226,1.18894 0.28969,3.17373 0.59346,4.41066 0.30378,1.23693 0.55315,2.50674 0.55417,2.8218 0.001,0.31506 0.26975,0.8738 0.59717,1.24165 l 0.59531,0.66883 0.13229,-10.36979 c 0.0728,-5.70338 0.11801,-10.40391 0.10055,-10.44562 z m -43.02338,-2.28946 c 0.0905,-0.0902 1.06485,-26.94586 1.17169,-32.29512 l 0.0793,-3.96875 -10.18646,-0.32981 c -14.257793,-0.46164 -18.019223,-0.13021 -22.475843,1.98039 -4.26468,2.01969 -6.53312,5.75009 -7.14958,11.75732 -0.14987,1.4605 -0.27253,7.25652 -0.27256,12.88003 l -7e-5,10.22457 19.380803,-0.0885 c 10.65943,-0.0487 19.41317,-0.12073 19.45275,-0.16016 z m 43.13351,-9.01178 c 0.10994,-12.61615 -0.26733,-15.93784 -2.26319,-19.92618 -1.89277,-3.78232 -5.42693,-6.42048 -9.85374,-7.35556 -1.77256,-0.37442 -3.31176,-0.38625 -14.41979,-0.11091 -6.83948,0.16954 -12.73307,0.33005 -13.09688,0.3567 l -0.66145,0.0485 -0.0777,3.57187 c -0.0427,1.96453 -0.28086,10.04106 -0.52917,17.94784 -0.24831,7.90678 -0.40114,14.42618 -0.33962,14.48755 0.0615,0.0614 9.34839,0.0811 20.6375,0.0438 l 20.52564,-0.0678 z"
       id="path125" />
  </g>
</svg>
