<?xml version="1.0" encoding="UTF-8" standalone="no"?>
<!-- Created with Inkscape (http://www.inkscape.org/) -->

<svg
   width="550.58594mm"
   height="440.69901mm"
   viewBox="0 0 550.58594 440.69901"
   version="1.1"
   id="svg1"
   inkscape:version="1.4 (e7c3feb100, 2024-10-09)"
   sodipodi:docname="neural-net-key-value-decomposition.svg"
   xmlns:inkscape="http://www.inkscape.org/namespaces/inkscape"
   xmlns:sodipodi="http://sodipodi.sourceforge.net/DTD/sodipodi-0.dtd"
   xmlns="http://www.w3.org/2000/svg"
   xmlns:svg="http://www.w3.org/2000/svg">
  <sodipodi:namedview
     id="namedview1"
     pagecolor="#ffffff"
     bordercolor="#666666"
     borderopacity="1.0"
     inkscape:showpageshadow="2"
     inkscape:pageopacity="0.0"
     inkscape:pagecheckerboard="0"
     inkscape:deskcolor="#d1d1d1"
     inkscape:document-units="mm"
     inkscape:zoom="0.21039601"
     inkscape:cx="1173.9766"
     inkscape:cy="774.72952"
     inkscape:window-width="1440"
     inkscape:window-height="896"
     inkscape:window-x="0"
     inkscape:window-y="0"
     inkscape:window-maximized="1"
     inkscape:current-layer="layer1" />
  <defs
     id="defs1" />
  <g
     inkscape:label="Layer 1"
     inkscape:groupmode="layer"
     id="layer1"
     transform="translate(274.73713,21.166675)">
    <path
       style="fill:#000000"
       d="m 61.777804,113.40189 c -3.32048,-0.81639 -6.69106,-2.80433 -9.42853,-5.56088 -2.54715,-2.5649 -3.52185,-4.70097 -4.28358,-9.38754 -0.46145,-2.83909 -0.50238,-3.65438 -0.26142,-5.20742 0.5144,-3.31541 1.74755,-6.07928 3.65377,-8.18923 1.03571,-1.14641 3.56768,-2.45139 7.9306,-4.08743 1.51504,-0.56812 2.71197,-1.16779 2.71197,-1.35872 0,-1.06281 4.10376,-1.18719 7.75324,-0.23499 4.81564,1.25647 8.52978,3.6012 11.08148,6.99571 l 1.20265,1.59988 0.77594,-0.47188 c 7.78578,-4.73482 57.533716,-33.10069 57.782346,-32.94703 0.69011,0.42651 -0.10475,1.08009 -4.0493,3.32958 -6.43745,3.67114 -14.25096,8.25886 -34.85885,20.46745 -10.259216,6.0778 -18.730036,11.0951 -18.824036,11.14955 -0.094,0.0545 0.19093,1.20097 0.63318,2.5478 0.62024,1.88889 0.80547,2.93276 0.81012,4.56546 0.0144,5.04299 -2.93801,11.27728 -6.25949,13.21772 -1.74981,1.02225 -6.74211,3.04806 -8.8797,3.60327 -2.43215,0.63171 -4.83458,0.62167 -7.49039,-0.0313 z m 8.88312,-1.96243 c 3.50602,-0.81669 5.10739,-1.64158 7.20683,-3.71234 2.87736,-2.83805 4.28801,-6.61468 4.529,-12.12514 l 0.14832,-3.39147 -1.02283,-2.03249 c -0.78266,-1.55524 -1.61422,-2.62925 -3.5415,-4.57401 -3.68447,-3.71792 -6.4957,-5.12918 -10.8302,-5.43685 -2.10442,-0.14938 -2.44758,-0.10323 -3.87776,0.52154 -0.86297,0.37699 -2.66157,1.0878 -3.99688,1.57959 -3.18536,1.17315 -5.11805,2.36409 -6.83534,4.212 -3.34613,3.60064 -4.39523,9.2065 -2.61036,13.94846 1.87185,4.97302 6.3717,9.89847 10.41833,11.4037 1.25583,0.46713 1.8721,0.52312 4.49792,0.40863 1.87823,-0.0819 4.14176,-0.38868 5.91447,-0.80162 z"
       id="path992" />
    <path
       style="fill:#000000"
       d="m 64.746454,162.22223 c -1.65891,-0.40974 -5.83129,-2.17722 -7.82774,-3.31593 -1.77283,-1.01116 -3.94971,-3.3436 -4.74798,-5.08726 -1.00071,-2.18584 -2.24212,-8.07717 -2.23412,-10.60239 0.0118,-3.72071 1.67819,-7.4299 4.52772,-10.07813 2.34726,-2.18144 8.41915,-4.62276 11.53889,-4.63943 0.47294,-0.002 0.85989,-0.14161 0.85989,-0.30908 0,-0.44205 4.8095,-0.0862 5.80705,0.42965 0.42969,0.2222 1.0253,0.404 1.32357,0.404 0.29826,0 0.75577,0.21347 1.01667,0.47437 0.2609,0.26091 0.88598,0.6397 1.38906,0.84176 2.0123,0.80823 3.90575,2.06358 5.46858,3.62564 l 1.64347,1.64266 2.71023,-3.75524 c 1.49063,-2.06537 11.75656,-16.25679 22.813176,-31.53648 11.05663,-15.27969 23.1521,-32.01397 26.87883,-37.18729 l 6.77587,-9.40603 -0.86224,-1.1773 c -1.58251,-2.16075 -3.52676,-6.77668 -3.52676,-8.37305 0,-0.34433 -0.17394,-0.69281 -0.38653,-0.77438 -0.56152,-0.21548 -45.226466,1.62613 -52.794716,2.17681 l -2.24896,0.16364 -0.0446,2.1839 c -0.0868,4.25017 -1.73667,7.5842 -5.77623,11.67263 -3.44047,3.48209 -5.16541,4.39217 -8.63972,4.55827 -5.42165,0.25922 -11.55824,-0.83627 -14.25037,-2.54393 -4.57726,-2.90342 -8.17309,-11.71243 -7.18287,-17.59649 0.38953,-2.31467 1.14568,-4.80211 1.92333,-6.32703 0.79168,-1.55242 3.177,-3.76668 5.86484,-5.44426 2.78786,-1.73999 3.75322,-2.12759 4.35447,-1.74833 0.32953,0.20786 0.92756,0.13786 2.30837,-0.27018 1.46896,-0.4341 2.59201,-0.55073 5.3032,-0.55073 3.41211,0 3.45544,0.008 5.42396,0.95902 1.96591,0.95008 4.32633,2.81976 6.13792,4.86182 2.12362,2.39377 3.27497,4.65898 4.35236,8.56297 0.0817,0.29592 0.92068,0.32867 4.66039,0.1819 12.45571,-0.48883 47.995256,-2.3966 49.823746,-2.67454 0.79064,-0.12018 0.82149,-0.17848 1.12407,-2.12477 0.17111,-1.10066 0.6216,-2.77728 1.00107,-3.72581 0.37948,-0.94854 0.58802,-1.81448 0.46343,-1.9243 C 138.65989,32.85637 115.8076,18.92126 102.05271,10.82112 92.666624,5.29372 84.535524,0.50254 83.983604,0.17406 c -0.55192,-0.32849 -1.07119,-0.52954 -1.15395,-0.44679 -0.0828,0.0828 -0.53213,1.02025 -0.99862,2.08332 -1.82485,4.15859 -4.30447,7.09062 -7.86322,9.29785 -4.29695,2.66508 -6.82861,3.0296 -12.54181,1.80583 -4.24037,-0.90829 -6.01688,-1.61591 -7.98637,-3.18115 -4.50719,-3.58206 -7.98931,-11.74712 -6.95394,-16.30599 1.18105,-5.2003 6.90257,-11.05275 13.53671,-13.84646 2.42343,-1.02054 5.5887,-0.9962 9.75114,0.075 4.43089,1.14026 6.12413,2.25395 8.8663,5.83155 2.38287,3.10883 4.36287,7.78736 4.36287,10.30901 0,1.09548 0.0436,1.15192 1.65364,2.14054 0.90951,0.55847 6.17803,3.86566 11.70782,7.34931 21.448776,13.51229 25.748976,16.17351 34.867886,21.57827 5.18395,3.07253 9.52765,5.58641 9.65267,5.58641 0.12502,0 0.57701,-0.36706 1.00442,-0.81569 2.21493,-2.32491 6.42439,-4.32496 11.09585,-5.272 0.87313,-0.17701 1.69128,-0.50234 1.81811,-0.72295 0.19659,-0.34193 0.76266,-0.37444 3.83646,-0.22034 3.94031,0.19755 4.52446,0.29582 4.54678,0.76495 0.008,0.1721 0.82069,0.69689 1.80554,1.16622 2.08197,0.99213 3.96307,2.79383 6.4658,6.19285 1.38315,1.87848 1.76056,2.23941 2.12715,2.03426 0.24512,-0.13718 0.38494,-0.34766 0.31072,-0.46775 -0.0742,-0.12009 0.0126,-0.33548 0.19288,-0.47864 0.1803,-0.14315 4.43547,-2.11145 9.45594,-4.37399 11.04315,-4.97674 12.57553,-5.70519 30.09218,-14.3051 7.60117,-3.73183 14.00078,-6.78516 14.22135,-6.78516 0.25148,0 0.41589,0.27137 0.44084,0.72761 0.0219,0.40018 0.13257,-0.82021 0.24597,-2.71198 0.22743,-3.79415 1.08651,-7.6716 2.17418,-9.81312 1.61007,-3.17008 4.54028,-5.21459 9.44631,-6.591 1.38245,-0.38786 2.60876,-0.87396 2.72513,-1.08022 0.13333,-0.23633 0.67153,-0.38087 1.45521,-0.39081 0.68399,-0.009 1.81703,-0.11005 2.51786,-0.22529 3.48328,-0.57273 8.25439,1.76069 12.76752,6.24425 3.54817,3.52493 4.62314,6.33839 4.63113,12.12077 0.006,4.46281 -0.82947,6.97808 -3.13832,9.44642 -2.72929,2.91784 -5.83422,4.71227 -10.04185,5.80348 -1.88838,0.48974 -3.02839,0.60166 -6.15418,0.6042 -6.00147,0.005 -8.19649,-0.87702 -11.86821,-4.76828 -2.3445,-2.48468 -3.61144,-4.47321 -4.0641,-6.37877 l -0.32093,-1.35107 -1.19994,0.60602 c -0.65997,0.33331 -7.56979,3.49226 -15.35515,7.01989 -12.15715,5.50853 -37.56804,17.63929 -38.16509,18.21942 -0.10856,0.10549 0.033,0.8474 0.31468,1.64871 0.28164,0.8013 0.59413,2.07555 0.69443,2.83166 l 0.18237,1.37475 7.17587,2.35714 c 3.94672,1.29643 15.98649,5.1576 26.75503,8.58037 10.76854,3.42277 19.77659,6.29986 20.01789,6.39352 0.3529,0.13699 0.52583,-0.13104 0.88394,-1.37004 0.6969,-2.41112 2.48207,-5.59832 3.9655,-7.07991 3.16935,-3.16539 8.27388,-4.87535 14.70916,-4.9274 3.36979,-0.0273 3.82837,0.024 4.47168,0.4996 0.39425,0.29148 1.28049,0.61449 1.96943,0.7178 0.69407,0.10409 1.31694,0.35548 1.39688,0.5638 0.0793,0.20677 0.69495,0.6615 1.36802,1.01051 3.03373,1.5731 5.64241,4.28607 6.65676,6.92288 0.44372,1.15346 0.6275,2.30592 0.72361,4.53776 0.36325,8.43526 -2.20095,13.24335 -9.52064,17.85204 -3.09314,1.94753 -4.69503,2.43059 -7.34103,2.21375 -2.90721,-0.23825 -6.87848,-1.31582 -9.49666,-2.57683 -5.46063,-2.63004 -9.56391,-9.03824 -9.56391,-14.93622 V 61.6158 l -4.29948,-1.48487 c -4.52305,-1.56208 -32.68045,-10.84554 -43.39058,-14.30581 -3.45552,-1.11642 -6.40232,-1.95597 -6.54844,-1.86566 -0.14612,0.0903 -0.26567,0.50086 -0.26567,0.91235 0,0.41149 -0.30449,1.74392 -0.67664,2.96095 -0.37215,1.21703 -0.73967,2.46216 -0.81672,2.76694 -0.11583,0.45816 1.18108,1.74135 7.48755,7.40833 12.81247,11.51326 51.66898,46.68293 53.87258,48.76097 0.99062,0.93417 1.00159,0.93722 1.71979,0.47747 1.32134,-0.84585 3.7208,-2.02304 5.80607,-2.8485 1.13327,-0.44861 2.326,-1.06298 2.65051,-1.36528 2.19207,-2.04205 11.14785,-0.0241 16.74972,3.77402 4.02261,2.7274 5.53274,6.14833 5.57395,12.62677 0.0229,3.59859 -0.45898,5.53911 -2.01838,8.1281 -2.30587,3.82834 -4.96006,6.32335 -8.78975,8.26264 -2.34845,1.18921 -2.54822,1.24213 -4.63407,1.22751 -2.28016,-0.016 -6.38687,-0.90829 -9.19128,-1.99709 -3.70232,-1.43741 -7.89724,-5.07091 -9.58742,-8.30432 -1.28538,-2.45898 -1.78966,-4.48464 -1.78966,-7.18886 0,-2.95896 0.58788,-5.36471 1.99713,-8.17265 1.10486,-2.20146 1.14506,-2.35732 0.71143,-2.75808 -0.25278,-0.23362 -3.79335,-3.39042 -7.86794,-7.0151 C 221.93541,97.99094 208.48135,85.91752 196.11208,74.78582 183.74281,63.65411 173.23387,54.20448 172.75889,53.78663 l -0.8636,-0.75971 -1.05382,1.02285 c -2.05372,1.99335 -7.81152,5.17929 -10.51606,5.81879 -2.5479,0.60246 -6.899,0.35375 -9.67027,-0.55278 -2.87544,-0.94059 -3.87296,-1.49879 -5.69818,-3.18862 l -1.58705,-1.46933 -10.28706,14.3626 c -5.65788,7.89944 -18.84539,26.3626 -29.30559,41.02926 -13.445726,18.8528 -19.130086,26.62384 -19.399266,26.52054 -0.27126,-0.10409 -0.33586,-0.0118 -0.22466,0.32085 0.0858,0.25683 0.50685,1.46496 0.93557,2.68474 1.1148,3.1718 1.50863,6.25125 1.09529,8.56418 -0.89443,5.00492 -4.55824,9.09295 -10.9867,12.25878 -4.46164,2.19723 -7.08477,2.6549 -10.45104,1.82345 z m 8.06979,-2.25307 c 7.82076,-2.40955 12.34866,-8.51199 11.981,-16.14729 -0.15773,-3.27539 -1.00005,-5.19828 -3.4018,-7.76576 -3.37994,-3.61316 -7.0416,-5.84137 -10.2738,-6.25186 -3.45883,-0.43927 -10.59232,0.89056 -13.20573,2.46182 -4.86464,2.92477 -7.23959,9.14513 -6.12178,16.03392 0.68077,4.19538 4.79423,9.35512 8.93658,11.20963 2.9832,1.33557 8.55458,1.54741 12.08553,0.45954 z M 254.58499,135.05591 c 1.81716,-0.38794 2.64573,-0.8435 4.53984,-2.49612 2.90734,-2.53665 5.65465,-6.87256 6.55422,-10.3441 1.163,-4.48818 -0.27746,-9.57317 -3.7851,-13.36184 -2.52068,-2.72263 -7.67946,-4.81035 -11.80687,-4.77815 -2.51656,0.0196 -6.64308,1.02049 -8.99584,2.18187 -2.13459,1.05369 -4.37307,3.03359 -4.29363,3.79764 0.0473,0.45496 -0.0789,0.57991 -0.58577,0.57991 -1.73676,0 -3.98414,5.21264 -3.98414,9.24094 0,3.63838 2.41111,8.4348 5.44825,10.83824 1.21431,0.96094 5.29815,3.11509 7.36113,3.88286 2.54633,0.94766 6.39223,1.13245 9.54791,0.45875 z m -7.08311,-31.85668 c -0.0879,-0.0879 -0.31612,-0.0973 -0.50712,-0.0209 -0.21107,0.0845 -0.14837,0.14715 0.15985,0.15985 0.27892,0.0115 0.43519,-0.0511 0.34727,-0.13896 z M 217.9402,92.94905 c 0,-0.0502 -0.26789,-0.3181 -0.59531,-0.59532 l -0.59531,-0.50402 0.50402,0.59531 c 0.47367,0.55944 0.6866,0.71576 0.6866,0.50403 z m -2.38125,-2.10578 c 0,-0.0442 -0.44648,-0.49069 -0.99219,-0.99218 l -0.99218,-0.9118 0.9118,0.99219 c 0.84868,0.9235 1.07257,1.11384 1.07257,0.91179 z m -3.43958,-3.2269 c -0.64268,-0.65484 -1.22804,-1.19062 -1.3008,-1.19062 -0.0728,0 0.39353,0.53578 1.03622,1.19062 0.64268,0.65485 1.22804,1.19063 1.3008,1.19063 0.0728,0 -0.39354,-0.53578 -1.03622,-1.19063 z m -2.64583,-2.38125 c -0.64269,-0.65484 -1.22805,-1.19062 -1.30081,-1.19062 -0.0728,0 0.39354,0.53578 1.03622,1.19062 0.64268,0.65485 1.22804,1.19063 1.3008,1.19063 0.0728,0 -0.39353,-0.53578 -1.03621,-1.19063 z m -1.5875,-1.30712 c 0,-0.23014 -34.56991,-31.40258 -35.19582,-31.73683 -0.21485,-0.11473 0.20467,0.32865 0.93227,0.9853 0.72761,0.65665 8.70479,7.86149 17.72709,16.01076 9.02229,8.14927 16.43393,14.82595 16.47031,14.83706 0.0364,0.0111 0.0661,-0.0322 0.0661,-0.0963 z m 43.22118,-4.79973 c 3.07785,-0.79198 4.88693,-1.85721 7.32993,-4.31604 2.3846,-2.40005 4.10466,-4.97663 5.06903,-7.59318 0.47861,-1.29856 0.57845,-2.14743 0.58996,-5.01582 l 0.0138,-3.45273 -0.99796,-2.01982 c -1.79488,-3.63274 -6.65416,-7.41324 -10.94648,-8.51632 -2.18974,-0.56273 -4.79915,-0.5258 -8.11933,0.11493 -3.21262,0.61997 -5.3625,1.31649 -6.96846,2.25764 -2.08244,1.22039 -4.05017,4.44613 -5.39939,8.85132 -0.86867,2.8362 -0.89123,7.4367 -0.0467,9.525 1.13917,2.81688 3.89443,5.41868 8.19246,7.73617 2.1528,1.16079 5.03619,2.38222 6.29421,2.66629 1.17666,0.2657 3.45494,0.15726 4.98889,-0.23744 z M 68.847494,62.41504 c 3.39202,-0.88738 6.62406,-3.01157 9.2568,-6.08383 2.55216,-2.97824 3.36628,-4.83732 3.52046,-8.03917 0.11689,-2.42742 0.0949,-2.5638 -0.44014,-2.73363 -0.62599,-0.19868 -0.78477,-1.20141 -0.19023,-1.20141 0.55111,0 -0.0935,-2.24681 -1.40626,-4.90144 -1.73058,-3.49957 -4.9702,-6.27997 -8.95646,-7.68687 -2.22782,-0.78628 -3.50103,-0.78096 -8.00188,0.0334 -1.96453,0.35547 -3.75047,0.65691 -3.96875,0.66986 -0.87269,0.0518 -3.80702,1.09538 -4.74527,1.68767 -2.41356,1.52361 -4.96203,5.54562 -5.59268,8.8264 -0.91995,4.78576 1.10574,12.00767 4.24999,15.15192 1.96506,1.96506 6.20715,3.75618 10.9126,4.6076 2.05625,0.37207 2.86719,0.32207 5.36182,-0.33054 z m 92.339586,-4.68696 c 4.36792,-1.34333 5.9861,-2.2565 7.71679,-4.35469 0.77623,-0.94106 1.41133,-1.92598 1.41133,-2.18871 0,-0.26272 0.11906,-0.47768 0.26458,-0.47768 0.14553,0 0.26459,-0.23813 0.26459,-0.52917 0,-0.30235 0.17639,-0.52917 0.41151,-0.52917 0.24255,0 0.702,-0.62463 1.11902,-1.52135 1.5892,-3.41727 0.77348,-9.37192 -1.91145,-13.95341 -1.43768,-2.45321 -6.68927,-6.54072 -8.48351,-6.60303 -0.4648,-0.0161 -1.04429,-0.22854 -1.28775,-0.472 -0.34193,-0.34193 -0.75745,-0.41228 -1.82597,-0.30914 -5.8286,0.5626 -8.74536,1.25374 -12.18866,2.88813 -2.28668,1.0854 -3.86871,2.64827 -5.33519,5.27057 -2.72258,4.86842 -2.81756,8.39661 -0.36005,13.37349 1.21323,2.45699 1.67534,3.08059 4.04046,5.45243 2.7271,2.73486 4.28569,3.83307 6.63584,4.67574 2.1137,0.7579 5.56739,0.49619 9.52846,-0.72201 z m 90.75208,-36.50994 c 2.5073,-0.74159 4.60689,-1.79222 6.29891,-3.15196 1.25919,-1.01191 3.16462,-3.65077 4.08878,-5.66258 0.92267,-2.00861 1.12629,-5.34817 0.46508,-7.62781 -1.04079,-3.58827 -2.99435,-7.30912 -5.02099,-9.56323 -2.44475,-2.71915 -6.55216,-4.74703 -9.40365,-4.64269 -1.57581,0.0577 -7.57574,1.14287 -9.20285,1.66451 -5.87634,1.88394 -9.42308,7.49976 -9.35745,14.81637 0.0269,3.00241 0.51209,5.00005 1.81781,7.48485 1.38091,2.62788 3.03541,4.21646 5.74602,5.51711 3.60055,1.72766 5.29745,2.09967 9.01209,1.9757 2.43609,-0.0813 3.72919,-0.26988 5.55625,-0.81027 z M 68.503744,11.79096 c 0.77114,-0.15777 2.53318,-0.82789 3.91563,-1.48914 2.07629,-0.99314 2.86428,-1.55707 4.52983,-3.2418 2.97976,-3.01408 4.73058,-6.85405 4.73058,-10.37529 0,-1.85322 -0.79417,-5.07276 -1.71787,-6.96419 -1.05857,-2.1676 -3.34806,-5.08665 -4.26219,-5.4342 -0.35112,-0.1335 -0.60776,-0.37502 -0.57031,-0.53673 0.14132,-0.6103 -1.35842,-1.33594 -4.42984,-2.14333 -2.76803,-0.72764 -3.63283,-0.83763 -6.74687,-0.8581 -3.36973,-0.0222 -3.65988,0.0177 -5.1268,0.70486 -3.80361,1.78163 -8.308,5.94538 -9.88612,9.13849 -0.93816,1.89823 -0.97087,2.06051 -0.93722,4.64899 0.0578,4.44454 1.4766,8.62241 3.68648,10.85535 1.87204,1.89156 6.09498,4.32615 9.61782,5.54482 1.40856,0.48727 5.1663,0.56573 7.19688,0.15027 z m 20.58438,-9.89028 c 0,-0.0676 -0.2679,-0.2528 -0.59532,-0.41147 -0.57166,-0.27703 -0.57491,-0.27214 -0.0817,0.12298 0.53982,0.43249 0.67704,0.49096 0.67704,0.28849 z m -1.46844,-0.90441 c -0.54958,-0.51087 -4.61656,-2.9321 -4.61036,-2.74473 0.004,0.11014 1.04544,0.82031 2.31511,1.57817 2.29245,1.36835 2.77759,1.61492 2.29525,1.16656 z"
       id="path991" />
    <path
       style="fill:#000000"
       d="m 249.60004,162.82418 c -0.0949,-2.07367 -0.18335,-5.55625 -0.19663,-7.73906 -0.0133,-2.18281 -0.10301,-4.55506 -0.19941,-5.27166 l -0.17526,-1.3029 -1.05677,3.25422 c -0.58122,1.78982 -1.2143,3.31467 -1.40684,3.38856 -0.81669,0.31339 -0.76582,-0.47366 0.21819,-3.37551 0.56747,-1.67349 1.3211,-4.05474 1.67473,-5.29167 0.4215,-1.47431 0.78639,-2.27772 1.05934,-2.33248 0.46887,-0.094 1.22186,1.43279 3.40614,6.90667 1.03017,2.58161 1.27687,3.45686 1.04091,3.69283 -0.48971,0.4897 -0.88765,-0.15069 -2.17776,-3.50452 l -1.17044,-3.04271 -0.0667,3.04271 c -0.0367,1.67349 0.0845,5.70247 0.26925,8.95329 0.31252,5.49871 0.30455,5.92737 -0.11436,6.15156 -0.24765,0.13254 -0.55865,0.24099 -0.6911,0.24099 -0.13245,0 -0.31844,-1.69664 -0.4133,-3.77032 z"
       id="path990" />
    <path
       style="fill:#000000"
       d="m 253.75756,209.13791 c -0.10846,-0.17549 -0.4117,-3.76577 -0.67386,-7.97839 -0.26216,-4.21261 -0.53792,-7.72056 -0.61279,-7.79544 -0.0749,-0.0749 -4.53942,0.14216 -9.9212,0.48229 -9.515,0.60135 -9.79996,0.60494 -10.32438,0.13035 -0.33753,-0.30546 -0.44602,-0.58134 -0.28997,-0.73739 0.27297,-0.27296 5.14937,-0.56919 14.2278,-0.8643 3.22612,-0.10487 5.97432,-0.26316 6.10712,-0.35175 0.14453,-0.0964 0.10728,-2.23203 -0.0928,-5.32046 -0.46572,-7.18845 -0.46247,-8.20207 0.0263,-8.20207 0.21829,0 0.39688,-0.2311 0.39688,-0.51356 0,-0.63967 0.42252,-0.93109 0.70022,-0.48295 0.11419,0.18428 0.33685,3.45659 0.49481,7.27181 0.15795,3.81522 0.36488,7.01446 0.45984,7.10942 0.095,0.095 4.61072,-0.0874 10.03502,-0.40524 6.84858,-0.40131 9.89105,-0.49188 9.95621,-0.29641 0.0516,0.15483 0.44983,0.2815 0.88493,0.2815 0.61082,0 0.7709,0.10552 0.70245,0.46303 -0.0799,0.41719 -0.64098,0.47932 -5.6698,0.62777 -3.06964,0.0906 -7.93713,0.25309 -10.81665,0.36106 l -5.2355,0.19631 0.16455,3.07852 c 0.0905,1.69319 0.24472,5.37048 0.34271,8.17175 0.15941,4.55724 0.13381,5.09323 -0.24324,5.09323 -0.23177,0 -0.51015,-0.14359 -0.61861,-0.31908 z"
       id="path989" />
    <path
       style="fill:#000000"
       d="m 247.07033,236.63735 c -0.27681,-0.64576 -1.18652,-3.28214 -2.02158,-5.85861 -1.13689,-3.50769 -1.4425,-4.7603 -1.21655,-4.98625 0.51233,-0.51233 0.81466,0.0766 2.15988,4.2073 0.70413,2.16214 1.30024,3.87163 1.32468,3.79887 0.0245,-0.0728 0.1273,-4.53917 0.22856,-9.92536 0.10126,-5.38618 0.27191,-9.93512 0.37922,-10.10875 0.10731,-0.17364 0.38832,-0.24156 0.62447,-0.15094 0.38998,0.14965 0.41234,1.05159 0.24378,9.83445 -0.10206,5.31833 -0.13466,9.61454 -0.0724,9.54712 0.0622,-0.0674 0.73199,-1.70014 1.48837,-3.62829 1.26566,-3.22642 1.79259,-3.99678 2.23936,-3.2739 0.29,0.46924 -4.02667,11.43589 -4.57306,11.61802 -0.16578,0.0553 -0.52789,-0.42789 -0.8047,-1.07366 z"
       id="path988" />
    <path
       style="fill:#000000"
       d="m 70.567284,419.01776 c -7.8718,-1.68416 -13.45575,-6.44541 -14.93905,-12.73805 -0.78114,-3.31383 -0.39645,-6.24304 1.30366,-9.92685 2.32137,-5.02993 6.29169,-8.86108 10.64403,-10.27091 1.5614,-0.50577 3.77463,-0.60612 6.76944,-0.30691 1.65914,0.16576 2.04396,0.13698 1.98438,-0.14839 -0.10732,-0.51402 1.4074,-0.33611 3.06332,0.3598 2.21972,0.93285 5.89674,3.5956 7.71249,5.58507 1.01969,1.11725 2.13859,2.73186 2.80799,4.05206 0.61205,1.2071 1.18273,2.156 1.26818,2.10867 0.0854,-0.0473 6.76332,-3.69298 14.839726,-8.10146 8.07642,-4.40848 19.56594,-10.81439 25.53229,-14.23534 5.96636,-3.42096 12.00755,-6.88432 13.42489,-7.69638 1.41733,-0.81205 2.57819,-1.57838 2.57968,-1.70296 0.001,-0.12458 -0.33891,-0.66037 -0.75646,-1.19063 -1.42102,-1.80461 -2.35889,-4.12745 -2.80369,-6.94391 l -0.15046,-0.95272 -2.5751,-0.16831 c -4.84382,-0.31659 -27.69886,-0.4618 -39.7045,-0.25226 l -11.993976,0.20933 -0.72676,2.24896 c -1.28938,3.99 -2.44363,5.73889 -5.26889,7.98327 -3.72837,2.96181 -6.92159,4.00326 -12.21744,3.98466 -5.49526,-0.0193 -8.55759,-1.20903 -12.06101,-4.68573 -3.02183,-2.99879 -4.44044,-5.55957 -5.24935,-9.47576 -0.90652,-4.38875 -0.32069,-7.42444 2.12966,-11.0356 0.74057,-1.09141 1.61148,-2.50484 1.93535,-3.14096 0.95908,-1.88372 3.35097,-4.11454 5.09972,-4.75629 4.37819,-1.60669 10.35641,-1.75059 14.56691,-0.35065 6.57366,2.18568 11.39581,8.18334 11.77222,14.64201 l 0.13364,2.29307 2.41195,0.14174 c 6.63131,0.38969 31.089636,0.64649 40.874276,0.42916 5.87459,-0.13049 10.75321,-0.30938 10.84137,-0.39754 0.0882,-0.0882 0.30131,-0.83793 0.47366,-1.66615 0.17235,-0.82822 0.3915,-1.70144 0.48699,-1.9405 0.13521,-0.33848 -1.24986,-1.45664 -6.25994,-5.05365 -12.63427,-9.07081 -50.368086,-35.65441 -50.609286,-35.65441 -0.0742,0 -0.31519,0.43151 -0.53555,0.95892 -0.22037,0.5274 -0.93713,1.7107 -1.59281,2.62956 -2.15739,3.02331 -4.51609,4.51551 -9.78759,6.19197 -4.74927,1.51038 -6.85826,1.78462 -9.54376,1.24099 -5.07203,-1.02673 -9.76387,-4.63359 -11.96871,-9.20097 -3.37885,-6.99938 -2.68648,-13.46125 1.92019,-17.92113 1.68161,-1.62802 5.88727,-4.47647 7.87995,-5.337 0.83426,-0.36028 1.51887,-0.79969 1.52136,-0.97647 0.009,-0.64511 1.26337,-0.96117 4.50129,-1.13424 l 3.30843,-0.17684 2.24896,1.01619 c 6.08066,2.74753 8.49954,4.67361 10.68044,8.50453 0.64731,1.13705 1.44081,3.04205 1.76333,4.23333 0.56923,2.10253 0.60878,3.81441 0.18716,8.10031 -0.0559,0.56847 1.57156,1.80073 14.091986,10.66979 22.27111,15.77614 42.25862,29.81873 42.64309,29.95967 0.20684,0.0758 0.70124,-0.38744 1.20035,-1.12474 0.46676,-0.68951 1.08785,-1.56198 1.3802,-1.93881 l 0.53155,-0.68514 -10.78386,-14.5284 c -5.93112,-7.99062 -17.08069,-23.04136 -24.77682,-33.4461 -7.69614,-10.40474 -16.717896,-22.52169 -20.048356,-26.92654 l -6.05537,-8.00884 -1.44567,1.84763 c -1.42367,1.81952 -3.65408,3.74986 -5.32638,4.60981 -1.71775,0.88331 -5.71727,1.78756 -8.53957,1.9307 -3.59645,0.18241 -5.94536,-0.30908 -9.20241,-1.92552 -6.00409,-2.97975 -9.8453,-8.90856 -9.83721,-15.18349 0.004,-3.25967 0.83063,-5.77256 3.04551,-9.26042 2.37946,-3.74703 6.75115,-7.09764 10.30557,-7.89855 1.44574,-0.32576 7.51177,-0.35019 7.9375,-0.032 0.14552,0.10878 0.79131,0.28473 1.43508,0.39101 0.64377,0.10628 2.19158,0.71121 3.43958,1.34429 1.248,0.63309 2.71557,1.32742 3.26128,1.54297 0.64643,0.25534 0.99219,0.56204 0.99219,0.88011 0,0.2685 0.63437,1.17529 1.40972,2.01507 1.62419,1.75916 2.8468,3.68333 3.84348,6.04893 0.63895,1.51656 0.69883,1.96088 0.68735,5.10085 -0.011,3.01099 -0.099,3.68685 -0.70633,5.42396 l -0.69375,1.98437 6.64403,8.86354 c 3.65421,4.87495 15.586906,20.53167 26.517086,34.79271 10.93018,14.26104 22.00008,28.72714 24.59977,32.14688 2.5997,3.41974 4.82306,6.328 4.9408,6.46281 0.12741,0.14587 0.40407,0.0774 0.68336,-0.16906 1.13897,-1.0052 10.04669,-4.70625 11.32705,-4.70625 0.21285,0 0.38701,0.23812 0.38701,0.52916 0,0.47842 0.17639,0.52917 1.83906,0.52917 3.64533,0 6.54635,1.05502 9.69661,3.5264 l 1.78807,1.40275 5.96218,-6.89635 c 17.67892,-20.44891 37.50692,-43.26061 48.26784,-55.53114 l 7.38247,-8.41814 -0.52605,-0.5777 c -2.39122,-2.626 -3.69669,-7.19427 -3.19975,-11.197 0.48208,-3.88302 2.29443,-7.23579 5.56515,-10.29529 4.51699,-4.22528 7.49486,-5.28734 14.1088,-5.03189 3.67928,0.1421 3.92613,0.19864 6.21771,1.42401 4.4113,2.35885 6.2996,4.22347 8.22137,8.11831 1.68117,3.40722 2.18898,5.92307 2.02704,10.0427 -0.1988,5.05746 -1.12987,7.27247 -4.24195,10.09155 -4.55719,4.12815 -10.93814,5.97575 -16.32521,4.72697 -2.21849,-0.51427 -6.51474,-2.65298 -8.81777,-4.38956 -1.51405,-1.14165 -1.86019,-1.30263 -2.13932,-0.99497 -0.18315,0.20188 -2.28605,2.62925 -4.6731,5.39414 -5.20631,6.03042 -35.50106,40.70338 -47.81238,54.72224 -4.83378,5.50422 -8.78869,10.10935 -8.78869,10.23364 0,0.20361 1.84617,3.43891 1.96235,3.43891 0.0814,0 17.02913,-5.96886 20.13036,-7.08978 1.60073,-0.57857 5.94651,-2.20851 9.6573,-3.6221 3.71078,-1.41358 11.62271,-4.40793 17.58208,-6.6541 5.95937,-2.24617 10.87947,-4.12821 10.93357,-4.18231 0.0541,-0.0541 -0.0846,-0.45214 -0.30818,-0.88453 -1.42989,-2.7651 -1.94202,-8.06661 -1.08967,-11.28 0.96361,-3.63281 3.66129,-7.04867 7.58724,-9.6071 3.33039,-2.17032 8.72572,-3.35889 12.549,-2.7645 6.85289,1.06539 13.99942,7.10094 15.57625,13.15479 0.55063,2.11404 0.51515,4.74608 -0.0876,6.49603 -1.37909,4.00405 -4.76125,9.33925 -7.33398,11.569 -3.82169,3.31221 -10.26649,4.63343 -15.11227,3.09809 -2.88861,-0.91523 -6.34381,-3.21881 -8.77859,-5.8527 l -1.95191,-2.11153 -5.8533,2.09085 c -3.21932,1.14996 -10.91346,3.85295 -17.09809,6.00664 -14.59416,5.08215 -35.24291,12.65841 -35.67572,13.08982 -0.0491,0.0489 0.0481,0.75056 0.21595,1.55917 l 0.30522,1.4702 1.76842,0.52545 c 17.16281,5.09956 25.55338,7.53096 31.66634,9.17621 17.03214,4.58406 23.90132,6.44983 24.27685,6.59394 0.28429,0.10909 0.68151,-0.35397 1.38921,-1.61946 1.16716,-2.08707 2.58765,-3.51664 5.07067,-5.10306 2.78817,-1.78138 5.95332,-3.47894 6.20108,-3.32582 0.12287,0.0759 1.92291,0.18727 4.00008,0.24739 2.07718,0.0601 3.95529,0.12421 4.17357,0.14239 0.21828,0.0182 1.63791,0.39106 3.15473,0.82862 3.04225,0.8776 3.75294,1.33076 6.77541,4.32028 1.52162,1.50503 2.12902,2.37266 3.24151,4.63021 1.34874,2.73696 2.1626,5.39143 2.17027,7.07846 0.004,0.77974 -0.96986,4.17662 -2.0586,7.18387 -1.02358,2.82731 -4.0729,5.73586 -7.77174,7.413 -4.20705,1.90756 -11.56185,2.61594 -14.80148,1.4256 -3.93887,-1.44727 -8.17196,-5.13607 -9.87209,-8.60276 -1.71525,-3.49749 -2.53561,-8.43429 -1.94756,-11.72005 l 0.1894,-1.05833 -10.64045,-3.16247 c -16.94185,-5.03531 -19.71151,-5.81577 -32.99774,-9.29846 -6.91224,-1.81189 -12.76852,-3.35668 -13.01397,-3.43286 -0.24544,-0.0762 -0.48708,-0.40078 -0.53699,-0.72133 -0.0499,-0.32054 -0.17541,0.43565 -0.2789,1.68043 -0.5903,7.09994 -3.65339,12.64852 -8.23136,14.91053 -4.48254,2.21487 -9.91136,2.75322 -14.0544,1.39372 -2.78542,-0.91401 -5.07331,-2.29352 -7.40436,-4.46455 -1.61553,-1.50463 -1.95907,-1.71797 -2.27625,-1.41361 -0.20546,0.19715 -4.89794,2.83121 -10.42773,5.85347 -11.32823,6.19134 -18.81504,10.376 -34.99477,19.55993 l -11.182266,6.34728 0.1308,0.79375 c 0.68895,4.18083 0.35902,6.42058 -1.46118,9.91923 -2.22282,4.27253 -5.91172,7.62385 -9.90358,8.99725 -2.02675,0.6973 -6.69596,0.70295 -9.92546,0.012 z m 8.40885,-0.9396 c 2.46588,-0.58136 3.69155,-1.31198 5.74636,-3.42538 1.97427,-2.03057 3.7506,-4.87335 4.85186,-7.76475 0.57826,-1.51824 0.6769,-2.21208 0.68959,-4.85052 l 0.0148,-3.07886 -1.3185,-2.60464 c -2.25504,-4.45476 -6.2011,-7.88504 -10.19087,-8.85887 -0.93515,-0.22825 -3.15724,-0.35791 -6.21771,-0.36281 -4.38157,-0.007 -4.86513,0.0397 -6.04552,0.58441 -3.88196,1.79132 -7.48923,6.26597 -8.94392,11.09451 -0.84284,2.79764 -0.79294,6.50397 0.12324,9.15429 0.8964,2.59307 1.62541,3.74597 3.348,5.29473 4.36189,3.92171 12.48843,6.10382 17.94267,4.81789 z M 260.07604,392.07269 c 3.38051,-1.20577 8.32417,-5.41071 10.76408,-9.15561 1.16717,-1.79145 1.17013,-1.80211 1.28109,-4.61482 0.19606,-4.96996 -0.92421,-8.10148 -4.08661,-11.42342 -2.68098,-2.81623 -5.01989,-4.11046 -8.11559,-4.49075 -2.68105,-0.32934 -8.79446,-0.40523 -10.3611,-0.12861 -0.58208,0.10278 -1.83224,0.55589 -2.77812,1.00691 -2.04771,0.9764 -5.07538,3.87132 -6.1376,5.86848 -1.07092,2.0135 -1.87694,5.45788 -1.888,8.06795 -0.009,2.03957 0.0794,2.43932 0.94532,4.29346 1.22337,2.6194 3.31956,5.64715 5.34937,7.72663 2.66234,2.72749 5.41463,3.64498 10.46216,3.48761 2.20487,-0.0687 3.46188,-0.24437 4.565,-0.63783 z m 8.9156,-4.71147 c 0.88036,-0.9411 1.59988,-1.85556 1.59894,-2.03214 -9.4e-4,-0.17658 -0.48052,0.23756 -1.06573,0.92029 -0.58522,0.68274 -1.74531,1.84927 -2.57798,2.5923 -1.27266,1.13563 -1.35792,1.26167 -0.53491,0.79079 0.53847,-0.30808 1.69933,-1.33014 2.57968,-2.27124 z M 167.59771,372.54505 c -0.0879,-0.0879 -0.31612,-0.0973 -0.50712,-0.0209 -0.21107,0.0845 -0.14837,0.14715 0.15985,0.15985 0.27892,0.0115 0.43519,-0.051 0.34727,-0.13897 z m -0.60061,-1.02802 c 8.07186,-2.66397 12.05816,-7.53715 12.04544,-14.72531 -0.008,-4.6437 -1.53082,-8.38494 -4.71983,-11.59729 -3.21719,-3.24071 -6.74607,-4.55814 -11.93379,-4.4552 l -2.78934,0.0554 -3.92776,2.06047 c -2.16026,1.13325 -4.4964,2.47789 -5.19141,2.98807 -1.75493,1.28824 -3.57246,3.69401 -3.50084,4.63389 0.0406,0.53286 -0.0852,0.7709 -0.45926,0.8687 -0.73514,0.19225 -1.29457,2.4887 -1.24654,5.11706 0.0369,2.01963 0.12017,2.30873 1.4098,4.89479 0.75382,1.51161 2.01243,3.52229 2.79692,4.46818 2.4142,2.9109 6.29613,5.74132 8.74789,6.37833 0.46311,0.12033 2.15172,0.17134 3.75245,0.11337 2.22233,-0.0805 3.40828,-0.26972 5.01627,-0.80041 z m 4.50873,-0.3885 c 1.16416,-0.56842 2.53338,-1.47332 3.0427,-2.01089 l 0.92605,-0.97739 -1.32292,0.9366 c -1.13392,0.80279 -2.96091,1.78707 -5.68854,3.06465 -0.65094,0.3049 -0.64884,0.30752 0.13229,0.16518 0.43656,-0.0796 1.74625,-0.60972 2.91042,-1.17815 z m -96.771456,-1.99867 c 4.31227,-0.81802 7.44187,-2.18598 8.76346,-3.83053 1.27577,-1.58752 3.3171,-5.34221 4.00842,-7.37281 0.55586,-1.63274 0.5972,-1.97623 0.29586,-2.45875 -0.29128,-0.46642 -0.29047,-0.59877 0.005,-0.78594 0.19531,-0.12379 0.44441,-0.22689 0.55355,-0.22912 0.33414,-0.007 0.21319,-2.68645 -0.20046,-4.44089 -0.95369,-4.04502 -4.14667,-8.22178 -7.78913,-10.18901 -1.60182,-0.86512 -6.49681,-2.13541 -7.47489,-1.9398 -0.3964,0.0793 -0.80152,0.0134 -0.90025,-0.14633 -0.23888,-0.3865 -3.29578,-0.0998 -4.9517,0.46445 -1.89587,0.64599 -5.10915,2.84015 -7.2646,4.96057 -1.64142,1.61474 -2.0402,2.19363 -2.71299,3.93822 -3.08875,8.0094 -2.28559,13.06045 2.89486,18.20556 2.04812,2.03413 4.3561,3.48048 6.27146,3.93013 1.6429,0.38569 6.21041,0.32887 8.50156,-0.10575 z m 73.550266,-26.25672 c -0.63768,-0.83675 -3.28185,-4.31933 -5.87595,-7.73907 -4.22402,-5.56844 -6.28598,-8.16166 -5.13944,-6.46362 1.64475,2.4359 11.71599,15.72404 11.91744,15.72404 0.14154,0 -0.26438,-0.68461 -0.90205,-1.52135 z m -85.008746,-3.99893 c -0.14823,-0.16024 -1.83642,0.96522 -2.38331,1.58888 -0.30089,0.34312 0.10306,0.15586 0.98033,-0.45448 0.82065,-0.57094 1.45199,-1.08143 1.40298,-1.1344 z m 193.266896,-2.5821 c 3.38833,-0.75047 5.90094,-2.36129 9.02871,-5.78825 3.02362,-3.31283 4.87924,-7.07409 5.19023,-10.52036 0.11758,-1.30297 0.03,-1.96498 -0.41583,-3.14426 -2.02987,-5.36902 -7.69269,-10.38174 -12.65205,-11.19958 -0.74964,-0.12362 -1.12448,-0.31978 -1.12448,-0.58847 0,-0.34711 -0.52327,-0.38833 -3.77031,-0.29702 -2.50901,0.0706 -3.9916,0.22707 -4.43177,0.46785 -1.45642,0.79665 -7.61189,5.57446 -8.68881,6.74415 -2.10414,2.2854 -3.40869,6.33463 -3.11676,9.67415 0.38649,4.42102 5.84755,11.50902 10.8284,14.05433 2.4978,1.27643 5.27012,1.4574 9.15267,0.59746 z M 74.241444,319.41982 c 3.1789,-0.81439 8.21418,-3.50031 9.87781,-5.26902 1.1824,-1.25709 2.41912,-4.00242 2.22969,-4.94958 -0.11353,-0.56763 -0.0338,-0.84063 0.30009,-1.0273 0.36917,-0.2064 0.47191,-0.72913 0.54612,-2.77856 0.19675,-5.43332 -1.02495,-8.69834 -4.56455,-12.19889 -2.70495,-2.67511 -6.14531,-4.51213 -8.75603,-4.6754 -0.43656,-0.0273 -0.94423,-0.16306 -1.12816,-0.30169 -0.55411,-0.41764 -2.46349,-0.002 -5.65103,1.22987 -9.58916,3.70613 -12.44738,6.82945 -12.85184,14.04386 -0.2967,5.29233 1.03001,9.03921 4.35977,12.31273 2.62787,2.58349 5.26385,3.95799 8.0716,4.20882 2.35452,0.21035 5.33962,-0.0243 7.56653,-0.59484 z M 244.39854,306.63247 c 0,-0.18616 -2.36013,1.58084 -2.84309,2.12859 -0.25531,0.28956 0.27993,-0.047 1.18944,-0.74792 0.90951,-0.70092 1.65365,-1.32222 1.65365,-1.38067 z m 11.37708,-27.33027 c 4.04856,-1.38047 8.26613,-4.23042 10.38268,-7.01593 3.90393,-5.1378 3.0742,-13.71396 -1.85748,-19.19917 -1.73092,-1.92521 -4.53536,-3.81015 -6.63611,-4.46032 -2.01689,-0.62422 -4.50987,-0.58468 -8.50367,0.13487 -4.62822,0.83384 -6.79026,1.8867 -9.48241,4.61768 -3.27282,3.32004 -4.89757,6.94365 -4.92261,10.9787 -0.0128,2.0619 0.0826,2.58912 0.71128,3.93119 0.39933,0.85247 1.15344,2.13215 1.6758,2.84375 0.82241,1.12035 1.04059,1.27101 1.62734,1.12375 0.62593,-0.1571 0.66421,-0.11671 0.50197,0.52968 -0.0966,0.38487 -0.0825,0.69976 0.0313,0.69976 0.11379,0 0.32442,0.26119 0.46806,0.58042 0.62467,1.38821 6.07776,4.84286 8.89288,5.63383 1.87487,0.52678 4.89411,0.35771 7.11101,-0.39821 z m 8.40168,-3.18006 c 0.84497,-0.68369 1.88313,-1.70531 2.30704,-2.27026 0.54778,-0.73004 0.17913,-0.46987 -1.2744,0.89938 -1.12482,1.05962 -2.63614,2.29022 -3.35848,2.73468 -0.72234,0.44446 -1.31334,0.86504 -1.31334,0.93463 0,0.26239 2.16142,-1.10272 3.63918,-2.29843 z M 78.393694,267.95308 c 5.50442,-2.7229 8.58859,-7.93001 8.61206,-14.54004 0.0145,-4.08231 -0.80929,-6.62883 -2.99007,-9.24299 -2.10703,-2.52575 -5.24679,-4.50209 -8.92936,-5.62063 -1.83,-0.55585 -2.10234,-0.57188 -4.62088,-0.27212 -3.69197,0.43943 -6.38263,1.01601 -7.81528,1.67474 -1.727,0.79406 -4.94146,4.1493 -6.32557,6.60259 -1.93959,3.43787 -2.5489,5.47599 -2.55397,8.54299 -0.004,2.55578 0.0314,2.71787 1.04624,4.7625 0.8143,1.64054 1.588,2.66003 3.43958,4.53227 2.63858,2.66801 4.03398,3.51109 6.88688,4.16097 1.01865,0.23204 2.09021,0.47569 2.38125,0.54143 0.29104,0.0658 2.32465,0.0984 4.51912,0.0726 l 3.98996,-0.0469 z M 246.70813,248.19089 c -0.0879,-0.0879 -0.31612,-0.0973 -0.50712,-0.0209 -0.21107,0.0845 -0.14837,0.14716 0.15985,0.15985 0.27892,0.0115 0.43519,-0.051 0.34727,-0.13896 z m 1.05833,-0.26459 c -0.0879,-0.0879 -0.31612,-0.0973 -0.50712,-0.0209 -0.21106,0.0845 -0.14837,0.14715 0.15986,0.15985 0.27891,0.0115 0.43518,-0.0511 0.34726,-0.13897 z m -180.771046,-10.17377 2.64583,-0.50921 -2.11667,0.0961 c -1.46087,0.0663 -2.48555,0.27231 -3.30729,0.66483 -0.65484,0.3128 -0.89297,0.4987 -0.52917,0.4131 0.36381,-0.0856 1.85209,-0.38477 3.3073,-0.66483 z"
       id="path987" />
    <g
       stroke-linecap="round"
       transform="matrix(0.52916667,0,0,0.52916667,-273.84798,115.15589)"
       id="g2">
      <path
         d="m 26.15,1.02 c 5.68,-1.64 12.46,-0.84 18.38,1.38 5.92,2.21 13.6,6.76 17.14,11.91 3.53,5.15 4.64,12.73 4.08,18.96 -0.57,6.24 -3.21,13.6 -7.47,18.43 C 54.02,56.53 46.54,60.86 40.2,62.24 33.85,63.62 25.96,62.44 20.19,59.97 14.43,57.5 8.83,52.42 5.62,47.43 2.42,42.43 0.74,35.96 0.97,29.99 1.19,24.03 2.12,16.47 7,11.61 11.87,6.74 25.55,2.78 30.22,0.8 c 4.67,-1.98 4.79,-1.51 4.81,-1.06 m 5.39,0.05 c 5.9,0.79 13.24,5.28 17.59,9.99 4.35,4.7 8.19,12.14 8.51,18.26 0.33,6.12 -3.22,12.99 -6.57,18.44 -3.36,5.45 -7.87,11.49 -13.58,14.24 -5.71,2.76 -14.24,3.71 -20.68,2.31 C 19.24,61.63 12.06,57.23 7.68,52.34 3.31,47.45 -0.13,39.76 -0.56,33.69 -0.98,27.63 1.51,21.18 5.12,15.97 8.73,10.75 15.46,4.73 21.1,2.39 26.74,0.06 35.58,1.96 38.96,1.97 c 3.39,0.01 2.33,0.32 2.44,0.48"
         stroke="#1e1e1e"
         stroke-width="2"
         fill="none"
         id="path1" />
    </g>
    <g
       stroke-linecap="round"
       transform="matrix(0.52916667,0,0,0.52916667,-273.84798,165.95589)"
       id="g3">
      <path
         d="m 38.12,0.52 c 6.06,0.68 13.28,4.85 17.74,9.04 4.47,4.19 7.82,10.19 9.06,16.1 1.24,5.91 1.19,13.59 -1.63,19.36 -2.81,5.77 -9.41,12.27 -15.24,15.24 -5.82,2.97 -13.49,3.52 -19.7,2.57 C 22.14,61.88 15.52,58.74 10.77,54.56 6.02,50.38 1.18,43.93 -0.15,37.74 -1.48,31.54 -0.16,22.95 2.81,17.36 5.78,11.78 11.39,7.07 17.67,4.23 23.94,1.39 36.07,0.59 40.46,0.31 44.85,0.04 44.07,1.87 44.01,2.6 M 47,2.07 c 5.89,2.06 11.93,8.01 15.02,13.15 3.09,5.14 4.1,11.37 3.51,17.68 -0.59,6.32 -2.67,15.34 -7.06,20.2 -4.39,4.86 -12.8,7.81 -19.27,8.96 C 32.74,63.21 25.51,62.55 19.68,60.03 13.84,57.5 7.34,51.88 4.21,46.89 1.07,41.9 -0.03,36.25 0.87,30.07 1.76,23.89 5.26,14.89 9.59,9.81 13.92,4.73 20.75,0.94 26.84,-0.43 c 6.09,-1.38 16.39,1.21 19.3,1.97 2.92,0.77 -1.41,2.1 -1.8,2.64"
         stroke="#1e1e1e"
         stroke-width="2"
         fill="none"
         id="path2" />
    </g>
    <g
       stroke-linecap="round"
       transform="matrix(0.52916667,0,0,0.52916667,-272.52506,215.43297)"
       id="g4">
      <path
         d="M 43.11,1.15 C 49.3,2.37 56,7.29 59.82,12.32 c 3.82,5.02 6.08,12.72 6.2,18.98 0.12,6.26 -1.67,13.45 -5.47,18.59 C 56.75,55.04 49.41,60.36 43.22,62.18 37.02,64 29.41,62.79 23.37,60.8 17.32,58.82 10.68,54.98 6.95,50.27 3.22,45.56 1.05,38.75 0.98,32.54 0.91,26.34 3.17,18.22 6.55,13.04 9.92,7.85 14.65,3.37 21.24,1.44 c 6.6,-1.92 20.68,-0.35 24.87,0.05 4.19,0.4 0.7,1.68 0.29,2.34 M 42.13,2.71 C 48.56,4 56.48,7.26 60.43,12.08 64.38,16.9 66,25.46 65.81,31.64 65.62,37.82 62.9,44.29 59.28,49.14 55.65,53.99 49.92,58.78 44.06,60.73 38.2,62.69 30.27,62.3 24.1,60.88 17.94,59.47 10.97,56.9 7.07,52.23 3.18,47.56 0.77,39.09 0.72,32.87 0.67,26.64 3.19,19.88 6.77,14.88 10.36,9.88 16.27,4.95 22.26,2.85 28.24,0.75 39.61,2.64 42.66,2.27 45.72,1.9 40.93,0.36 40.6,0.64"
         stroke="#1e1e1e"
         stroke-width="2"
         fill="none"
         id="path3" />
    </g>
    <g
       stroke-linecap="round"
       transform="matrix(0.52916667,0,0,0.52916667,-182.03757,161.72256)"
       id="g5">
      <path
         d="m 34.42,-0.42 c 5.98,-0.29 13.67,3.22 18.86,6.95 5.2,3.73 10.41,9.63 12.32,15.45 1.9,5.83 1.55,13.41 -0.9,19.5 C 62.25,47.56 56.55,54.93 50.9,58.5 45.25,62.08 37.14,63.21 30.8,62.92 24.46,62.62 17.66,60.47 12.86,56.72 8.06,52.97 3.77,46.27 2,40.41 0.23,34.54 0.15,27.27 2.23,21.51 4.3,15.75 8.39,9.31 14.44,5.84 20.49,2.36 33.67,1.12 38.52,0.64 c 4.84,-0.48 4.96,1.95 5,2.33 M 25.18,0.83 c 5.88,-2.06 13.23,-1.82 19.24,0.47 6.02,2.28 13.48,8.06 16.85,13.23 3.38,5.16 3.92,11.91 3.4,17.76 -0.52,5.85 -2.74,12.6 -6.51,17.34 -3.78,4.73 -9.89,9.23 -16.13,11.06 C 35.79,62.53 26.78,62.53 20.71,60.63 14.63,58.73 9.13,54.35 5.58,49.3 2.03,44.26 -1.04,36.63 -0.59,30.36 -0.14,24.08 3.99,16.43 8.29,11.64 12.59,6.85 22.4,3.09 25.21,1.63 28.02,0.18 25.45,2.65 25.14,2.92"
         stroke="#1e1e1e"
         stroke-width="2"
         fill="none"
         id="path4" />
    </g>
    <g
       stroke-linecap="round"
       transform="matrix(0.52916667,0,0,0.52916667,-181.77298,218.07881)"
       id="g6">
      <path
         d="m 47.04,3.78 c 5.56,1.97 12.1,7.05 15.08,12.46 2.98,5.41 3.68,13.78 2.81,19.99 -0.88,6.21 -3.46,12.93 -8.07,17.29 -4.61,4.35 -13.06,7.85 -19.6,8.85 -6.54,1 -13.84,0.07 -19.62,-2.85 C 11.86,56.6 5.46,50.38 2.58,44.87 -0.3,39.37 -0.94,32.3 0.37,26.51 1.68,20.72 5.75,14.6 10.43,10.11 15.12,5.62 21.42,0.06 28.48,-0.41 c 7.05,-0.48 19.28,5.65 24.28,7.69 5.01,2.03 6.12,4.25 5.74,4.5 M 43.84,0.99 c 6.08,1.41 12.69,5.92 16.4,10.99 3.71,5.06 5.87,13.05 5.86,19.4 -0.01,6.36 -2.06,13.44 -5.93,18.73 C 56.3,55.4 48.99,61.06 42.86,63.11 36.74,65.15 29.79,64.57 23.41,62.4 17.04,60.22 8.52,55.2 4.61,50.04 0.71,44.89 -0.34,37.63 -0.01,31.44 0.32,25.26 2.55,17.94 6.59,12.96 10.64,7.97 18.07,3.47 24.27,1.54 30.47,-0.39 40.51,1.05 43.8,1.38 c 3.29,0.33 0.17,1.61 0.21,2.14"
         stroke="#1e1e1e"
         stroke-width="2"
         fill="none"
         id="path5" />
    </g>
    <g
       stroke-linecap="round"
       transform="matrix(0.52916667,0,0,0.52916667,-92.343818,125.47464)"
       id="g7">
      <path
         d="m 48.41,2.44 c 5.68,2.47 10.93,9.45 13.78,15.17 2.84,5.72 4.24,13.16 3.29,19.14 C 64.52,42.73 60.9,49.31 56.46,53.5 52.02,57.69 45.25,60.73 38.83,61.91 32.4,63.1 23.8,63.32 17.92,60.59 12.04,57.87 6.45,51.1 3.53,45.57 0.61,40.04 -0.61,33.54 0.38,27.42 1.36,21.31 5.02,13.53 9.43,8.9 13.85,4.26 20.3,0.4 26.87,-0.38 33.43,-1.16 44.9,3.08 48.82,4.2 52.74,5.31 50.61,5.92 50.4,6.33 M 34.36,0.6 c 6.02,-0.28 14.6,1.59 19.55,5.21 4.96,3.62 8.59,10.19 10.17,16.51 1.57,6.33 1.4,15.65 -0.71,21.44 -2.1,5.79 -6.57,10.18 -11.92,13.3 -5.36,3.12 -13.71,5.45 -20.21,5.43 C 24.73,62.47 17.31,60.72 12.43,56.97 7.55,53.21 3.43,46.02 1.94,39.97 0.44,33.92 1.25,26.38 3.46,20.65 5.68,14.93 9.89,8.86 15.23,5.64 20.57,2.41 32.09,2.02 35.5,1.31 38.92,0.59 36.02,1.08 35.74,1.37"
         stroke="#1e1e1e"
         stroke-width="2"
         fill="none"
         id="path6" />
    </g>
    <g
       stroke-linecap="round"
       transform="matrix(0.52916667,0,0,0.52916667,-270.67298,264.11631)"
       id="g8">
      <path
         d="m 17.91,4.51 c 5.28,-3 14.06,-5.44 20.49,-4.58 6.44,0.87 13.43,5.34 18.12,9.75 4.69,4.4 9.14,10.76 10.03,16.67 0.9,5.9 -1.54,13.19 -4.67,18.77 C 58.75,50.7 53.35,56.79 47.77,59.81 42.19,62.84 34.66,64.42 28.38,63.26 22.1,62.11 14.82,57.32 10.09,52.9 5.36,48.49 1.23,42.62 0.01,36.78 -1.21,30.93 -1.75,23.95 2.75,17.85 7.25,11.74 21.43,3.08 27.02,0.14 c 5.59,-2.93 9.18,-0.38 9.27,0.08 m 2.33,0.36 c 5.93,0.62 12.69,4.56 17.15,8.78 4.45,4.23 8.35,10.39 9.59,16.56 1.24,6.17 0.51,14.97 -2.15,20.47 -2.66,5.5 -8.32,9.64 -13.8,12.53 C 43.92,61.81 36.91,64.66 30.3,63.7 23.7,62.74 14.72,57.33 9.8,53.16 4.88,48.98 1.78,44.44 0.77,38.64 -0.24,32.84 1.07,24.13 3.73,18.38 6.39,12.63 11,7.27 16.73,4.14 22.45,1.01 34.66,0 38.07,-0.42 41.48,-0.83 37.55,1.03 37.18,1.65"
         stroke="#1e1e1e"
         stroke-width="2"
         fill="none"
         id="path7" />
    </g>
    <g
       stroke-linecap="round"
       transform="matrix(0.52916667,0,0,0.52916667,-88.904238,238.71631)"
       id="g9">
      <path
         d="m 24.27,1.41 c 5.8,-1.82 15.49,-1.63 21.7,0.59 6.22,2.22 12.12,7.43 15.59,12.74 3.46,5.32 5.63,13.07 5.21,19.16 -0.41,6.09 -3.53,12.6 -7.71,17.38 C 54.88,56.05 48.19,60.85 41.68,62.53 35.17,64.21 26.21,63.69 20,61.38 13.79,59.07 7.61,53.95 4.42,48.66 1.23,43.37 0.28,35.79 0.85,29.64 1.42,23.49 3.04,16.59 7.84,11.77 12.65,6.96 25.38,2.5 29.69,0.76 34,-0.98 33.58,0.93 33.72,1.34 m 14.04,0.29 c 6.14,1.72 11.53,7.81 14.71,13.2 3.18,5.38 5.25,12.89 4.36,19.12 -0.89,6.24 -5.26,13.59 -9.7,18.28 C 52.7,56.91 46.47,60.79 40.2,62.07 33.93,63.35 25.55,62.46 19.49,59.88 13.43,57.3 6.95,51.65 3.86,46.58 0.78,41.51 0.22,35.49 0.97,29.47 1.72,23.44 3.99,15.28 8.39,10.44 12.79,5.59 21.2,1.5 27.37,0.39 c 6.17,-1.11 14.79,2.82 18.03,3.39 3.24,0.57 1.61,-0.06 1.41,0.04"
         stroke="#1e1e1e"
         stroke-width="2"
         fill="none"
         id="path8" />
    </g>
    <g
       stroke-linecap="round"
       transform="matrix(0.52916667,0,0,0.52916667,-90.756318,182.36005)"
       id="g10">
      <path
         d="M 44.21,2.88 C 50,4.55 56.31,8.57 60.1,13.49 63.88,18.4 67.04,26.07 66.9,32.38 66.77,38.69 63.41,46.41 59.29,51.32 55.17,56.23 48.53,60.16 42.2,61.83 35.86,63.49 27.32,63.61 21.29,61.3 15.27,58.99 9.54,53.16 6.04,47.97 2.55,42.78 0.06,36.17 0.32,30.17 0.59,24.18 3.7,16.7 7.64,12.01 c 3.95,-4.7 9.29,-8.77 16.34,-10 7.05,-1.23 20.72,1.41 25.95,2.6 5.23,1.18 5.59,3.92 5.43,4.53 M 39.77,1.22 c 5.88,0.51 11.21,2.6 15.42,6.99 4.21,4.38 8.81,12.81 9.83,19.32 1.03,6.5 -0.58,14.45 -3.67,19.71 -3.1,5.25 -9.43,9.1 -14.9,11.82 -5.48,2.72 -11.8,5.43 -17.94,4.49 C 22.36,62.61 14.36,57.8 9.59,53.42 4.82,49.04 0.61,43.4 -0.13,37.26 -0.86,31.12 2.03,22.19 5.18,16.57 8.33,10.96 13.13,6.38 18.8,3.56 c 5.66,-2.81 17.16,-3.7 20.37,-3.87 3.2,-0.17 -0.9,2.35 -1.16,2.85"
         stroke="#1e1e1e"
         stroke-width="2"
         fill="none"
         id="path9" />
    </g>
    <g
       stroke-linecap="round"
       id="g12"
       transform="matrix(0.52916667,0,0,0.52916667,-398.75021,109.86422)">
      <g
         transform="translate(304.03571,45.5)"
         id="g11">
        <path
           d="M 0.19,-0.61 C 18.56,10.74 92.33,56.47 110.45,67.71 M -1.16,1.69 c 18.27,11 92.99,52.99 111.15,64"
           stroke="#1e1e1e"
           stroke-width="2"
           fill="none"
           id="path10" />
      </g>
    </g>
    <g
       stroke-linecap="round"
       id="g14"
       transform="matrix(0.52916667,0,0,0.52916667,-398.75021,109.86422)">
      <g
         transform="translate(300.03571,133.5)"
         id="g13">
        <path
           d="m -0.5,-0.37 c 17.86,-0.83 90.03,-4.1 108.33,-4.7 M 1.44,-1.61 c 18.19,-0.62 90.83,-1.26 108.75,-1.95"
           stroke="#1e1e1e"
           stroke-width="2"
           fill="none"
           id="path11" />
      </g>
    </g>
    <g
       stroke-linecap="round"
       id="g16"
       transform="matrix(0.52916667,0,0,0.52916667,-398.75021,109.86422)">
      <g
         transform="translate(300.53571,57.5)"
         id="g15">
        <path
           d="M -0.29,-0.85 C 19.11,25.37 97.6,130.12 117.12,156.4 M 1.76,1.31 c 19.7,26.5 98.05,130.42 117.61,156.58"
           stroke="#1e1e1e"
           stroke-width="2"
           fill="none"
           id="path13" />
      </g>
    </g>
    <g
       stroke-linecap="round"
       id="g18"
       transform="matrix(0.52916667,0,0,0.52916667,-398.75021,109.86422)">
      <g
         transform="translate(302.03571,217.5)"
         id="g17">
        <path
           d="M -0.28,-0.64 C 17.93,-11.67 91.8,-54.66 110.35,-65.1 M 1.77,1.64 c 18.47,-10.4 92.64,-54.63 110.68,-65.79"
           stroke="#1e1e1e"
           stroke-width="2"
           fill="none"
           id="path15" />
      </g>
    </g>
    <g
       stroke-linecap="round"
       id="g20"
       transform="matrix(0.52916667,0,0,0.52916667,-398.75021,109.86422)">
      <g
         transform="translate(300.53571,145)"
         id="g19">
        <path
           d="M 1.12,0.37 C 19.41,13.99 92.69,67.76 110.94,81.29 M 0.25,-0.49 c 18.03,13.33 91.47,66.71 109.71,80.07"
           stroke="#1e1e1e"
           stroke-width="2"
           fill="none"
           id="path17" />
      </g>
    </g>
    <g
       stroke-linecap="round"
       id="g22"
       transform="matrix(0.52916667,0,0,0.52916667,-398.75021,109.86422)">
      <g
         transform="translate(303.03571,234.5)"
         id="g21">
        <path
           d="m 0.72,-1.19 c 17.97,0.31 88.44,1.68 105.95,2.2 M -0.36,0.79 c 18.01,0.6 89.12,1.89 106.7,1.76"
           stroke="#1e1e1e"
           stroke-width="2"
           fill="none"
           id="path19" />
      </g>
    </g>
    <g
       stroke-linecap="round"
       id="g24"
       transform="matrix(0.52916667,0,0,0.52916667,-398.75021,109.86422)">
      <g
         transform="translate(305.53571,305.5)"
         id="g23">
        <path
           d="M 0.42,-0.6 C 18.98,-25.91 93.3,-126.8 111.68,-152.32 M -0.82,1.7 c 18.4,-25.58 92.65,-129.81 111.64,-155.52"
           stroke="#1e1e1e"
           stroke-width="2"
           fill="none"
           id="path21" />
      </g>
    </g>
    <g
       stroke-linecap="round"
       id="g26"
       transform="matrix(0.52916667,0,0,0.52916667,-398.75021,109.86422)">
      <g
         transform="translate(308.03571,316)"
         id="g25">
        <path
           d="m -0.34,-0.93 c 17.83,-9.93 90,-49.72 107.76,-59.72 M 1.68,1.19 C 19.35,-8.96 88.85,-51.63 106.69,-62.33"
           stroke="#1e1e1e"
           stroke-width="2"
           fill="none"
           id="path23" />
      </g>
    </g>
    <g
       stroke-linecap="round"
       id="g28"
       transform="matrix(0.52916667,0,0,0.52916667,-398.75021,109.86422)">
      <g
         transform="translate(476.53571,115.5)"
         id="g27">
        <path
           d="m 0.43,0.31 c 16.81,-8.1 83.81,-39.86 100.82,-47.86 M -0.81,-0.57 c 17.17,-7.38 87.25,-37.82 104.37,-45.47"
           stroke="#1e1e1e"
           stroke-width="2"
           fill="none"
           id="path25" />
      </g>
    </g>
    <g
       stroke-linecap="round"
       id="g30"
       transform="matrix(0.52916667,0,0,0.52916667,-398.75021,109.86422)">
      <g
         transform="translate(477.03571,129.5)"
         id="g29">
        <path
           d="m 0.18,-0.93 c 17.66,6.1 88.4,30.33 106.03,36.42 M -1.18,1.19 C 16.37,7.6 87.86,31.05 105.64,37.03"
           stroke="#1e1e1e"
           stroke-width="2"
           fill="none"
           id="path27" />
      </g>
    </g>
    <g
       stroke-linecap="round"
       id="g32"
       transform="matrix(0.52916667,0,0,0.52916667,-398.75021,109.86422)">
      <g
         transform="translate(469.53571,144.5)"
         id="g31">
        <path
           d="m 0.44,0.94 c 20.9,18.37 103.85,91.89 124.33,110.14 M -0.78,0.38 C 20.03,18.89 102.9,94.15 123.96,112.66"
           stroke="#1e1e1e"
           stroke-width="2"
           fill="none"
           id="path29" />
      </g>
    </g>
    <g
       stroke-linecap="round"
       id="g34"
       transform="matrix(0.52916667,0,0,0.52916667,-398.75021,109.86422)">
      <g
         transform="translate(468.53571,215)"
         id="g33">
        <path
           d="M -0.86,0.89 C 19.21,-21.65 100.42,-112.72 120.61,-135.68 M 0.89,0.32 C 20.88,-22.52 100.4,-114.7 120.24,-137.37"
           stroke="#1e1e1e"
           stroke-width="2"
           fill="none"
           id="path31" />
      </g>
    </g>
    <g
       stroke-linecap="round"
       id="g36"
       transform="matrix(0.52916667,0,0,0.52916667,-398.75021,109.86422)">
      <g
         transform="translate(474.03571,224)"
         id="g35">
        <path
           d="M 1.12,-0.13 C 19.68,-7.07 93.73,-34.18 112.16,-40.88 M 0.25,-1.25 c 18.34,-6.82 92.63,-32.02 111.04,-38.3"
           stroke="#1e1e1e"
           stroke-width="2"
           fill="none"
           id="path33" />
      </g>
    </g>
    <g
       stroke-linecap="round"
       id="g38"
       transform="matrix(0.52916667,0,0,0.52916667,-398.75021,109.86422)">
      <g
         transform="translate(477.03571,233)"
         id="g37">
        <path
           d="M 0.93,0.83 C 19.34,6.12 92.38,26.88 110.66,32.07 M -0.04,0.23 C 18.3,5.13 91.92,25.3 110.32,30.25"
           stroke="#1e1e1e"
           stroke-width="2"
           fill="none"
           id="path35" />
      </g>
    </g>
  </g>
</svg>
