<?xml version="1.0" encoding="UTF-8" standalone="no"?>
<!-- Created with Inkscape (http://www.inkscape.org/) -->

<svg
   width="511.18213mm"
   height="276.48615mm"
   viewBox="0 0 511.18213 276.48615"
   version="1.1"
   id="svg1"
   inkscape:version="1.4 (e7c3feb100, 2024-10-09)"
   sodipodi:docname="neural-net-example-2.svg"
   xmlns:inkscape="http://www.inkscape.org/namespaces/inkscape"
   xmlns:sodipodi="http://sodipodi.sourceforge.net/DTD/sodipodi-0.dtd"
   xmlns="http://www.w3.org/2000/svg"
   xmlns:svg="http://www.w3.org/2000/svg">
  <sodipodi:namedview
     id="namedview1"
     pagecolor="#ffffff"
     bordercolor="#666666"
     borderopacity="1.0"
     inkscape:showpageshadow="2"
     inkscape:pageopacity="0.0"
     inkscape:pagecheckerboard="0"
     inkscape:deskcolor="#d1d1d1"
     inkscape:document-units="mm"
     inkscape:zoom="0.29754489"
     inkscape:cx="440.2697"
     inkscape:cy="373.05295"
     inkscape:window-width="1440"
     inkscape:window-height="896"
     inkscape:window-x="0"
     inkscape:window-y="0"
     inkscape:window-maximized="1"
     inkscape:current-layer="layer1" />
  <defs
     id="defs1" />
  <g
     inkscape:label="Layer 1"
     inkscape:groupmode="layer"
     id="layer1"
     transform="translate(168.01041,20.902082)">
    <path
       style="fill:#000000"
       d="m 153.72292,139.96913 c -3.41974,-0.25982 -7.52739,-0.66119 -9.12812,-0.89192 -1.60073,-0.23073 -4.04151,-0.5396 -5.42396,-0.68636 -1.38245,-0.14677 -4.06136,-0.45701 -5.95313,-0.68943 -2.30159,-0.28277 -7.24747,-0.49236 -14.94895,-0.63347 -12.2911,-0.22522 -20.35076,-0.73867 -26.32605,-1.67715 -4.17158,-0.65518 -5.14074,-0.671 -27.78125,-0.4533 -15.16948,0.14586 -13.74897,0.26035 -19.57916,-1.578 -1.30969,-0.41296 -3.69094,-1.01371 -5.29167,-1.33499 -1.60073,-0.32128 -4.99401,-1.21732 -7.54063,-1.99119 -6.59805,-2.00502 -7.29683,-2.17029 -12.30312,-2.90986 -6.14071,-0.90715 -8.32833,-1.46825 -11.82407,-3.03271 -3.60701,-1.61425 -9.13874,-4.72725 -11.85614,-6.67208 -1.09141,-0.78112 -2.81781,-1.88094 -3.83646,-2.44406 -4.09981,-2.26642 -12.18951,-7.98142 -13.74183,-9.70798 -1.867156,-2.07672 -2.374471,-3.38607 -2.394547,-6.180171 -0.01239,-1.724603 -0.142932,-2.614862 -0.473388,-3.228415 -0.716284,-1.329911 -0.922546,-4.515898 -0.656017,-10.133044 0.134645,-2.837656 0.15899,-7.004843 0.0541,-9.260416 -0.289933,-6.23479 -0.205239,-7.692748 0.833623,-14.350396 0.875449,-5.610402 0.967655,-6.72819 1.042429,-12.637104 0.07058,-5.577317 0.38692,-9.941573 0.76495,-10.553239 0.05878,-0.09511 0.41005,-1.906709 0.7806,-4.025783 0.8662,-4.953465 1.53708,-7.031348 4.23487,-13.116287 2.31249,-5.215872 4.1746,-8.614088 5.95327,-10.864271 1.3017,-1.646775 2.7974,-2.40804 6.90825,-3.516084 1.67294,-0.450928 5.89966,-1.957566 9.3927,-3.348085 7.02273,-2.795622 17.13387,-6.287647 21.82912,-7.538994 2.72534,-0.726341 3.51185,-0.819439 7.54062,-0.892579 4.07238,-0.07393 4.98604,-0.184365 9.65729,-1.167263 10.02497,-2.109394 18.77021,-3.435189 30.69167,-4.652917 3.71078,-0.379041 9.54485,-1.101845 12.96459,-1.606232 17.46641,-2.576168 21.66014,-3.012352 30.42708,-3.16468 3.71078,-0.06448 13.89062,-0.238687 22.62187,-0.387137 17.30925,-0.294294 23.71159,-0.519681 37.17396,-1.30867 4.87495,-0.285705 14.45948,-0.641697 21.29896,-0.791093 16.79327,-0.366818 25.46322,-0.703224 38.62917,-1.498867 6.84618,-0.413727 15.19747,-0.72667 21.75266,-0.815123 9.94979,-0.134258 10.66919,-0.175636 11.08737,-0.637718 0.30137,-0.333015 0.80946,-0.494144 1.55817,-0.494144 1.58259,0 2.33334,0.792562 3.04005,3.209354 1.94881,6.664437 2.34115,7.680886 3.91868,10.152104 1.66086,2.60177 2.50778,3.525887 5.21679,5.692314 2.76883,2.214265 3.42782,2.910005 5.15274,5.440128 0.70195,1.029613 2.00714,2.505191 2.90043,3.279062 0.89329,0.77387 2.85046,2.788959 4.34927,4.477975 1.49881,1.689016 4.43951,4.800243 6.53489,6.91384 2.09538,2.113596 4.81605,5.090158 6.04594,6.614583 1.22989,1.524425 2.91571,3.605119 3.74627,4.623764 0.83057,1.018646 2.54852,3.697553 3.81768,5.953125 3.44517,6.122832 4.00389,7.025633 6.22232,10.054167 1.11925,1.527969 2.48413,3.4925 3.03306,4.365625 0.54893,0.873125 1.61687,2.54 2.37321,3.704167 1.7979,2.767366 10.72875,21.083493 11.61086,23.812499 0.3763,1.164167 0.97926,3.366823 1.33992,4.894792 0.36065,1.527969 0.95836,3.662182 1.32823,4.742697 0.75293,2.199537 0.86708,4.890639 0.40774,9.612581 -0.31153,3.202559 -0.98383,4.834465 -2.62349,6.368175 -1.31215,1.22737 -15.14276,10.47272 -19.86592,13.27978 -7.41878,4.40912 -14.95855,8.30779 -19.66103,10.16632 -2.90721,1.149 -4.37702,1.9301 -5.9057,3.13845 -2.08737,1.64997 -2.83897,1.93235 -5.88756,2.212 -1.54509,0.14174 -4.89284,0.65711 -7.43946,1.14527 -8.06906,1.54676 -12.39897,2.07848 -21.56354,2.64802 -3.63802,0.22609 -10.18646,0.69995 -14.55208,1.05302 -4.36563,0.35307 -10.43781,0.76452 -13.49375,0.91434 -3.2658,0.16011 -6.15613,0.43666 -7.01146,0.67086 -0.80037,0.21915 -2.05052,0.402 -2.77813,0.40634 -0.7276,0.004 -2.45401,0.18221 -3.83645,0.39527 -1.38245,0.21306 -3.52558,0.39413 -4.7625,0.40238 -1.23693,0.008 -4.15396,0.20466 -6.4823,0.43646 -3.40715,0.3392 -8.41584,0.43538 -25.66458,0.49281 -18.54134,0.0617 -22.26968,0.008 -27.64896,-0.40106 z m 54.50417,-3.05423 c 3.41974,-0.24099 6.93208,-0.59298 7.80521,-0.78219 3.26494,-0.70753 7.98603,-1.99536 9.39271,-2.56217 1.37529,-0.55416 1.98555,-0.59636 11.1125,-0.76844 5.31151,-0.10014 12.09807,-0.31517 15.08125,-0.47785 2.98317,-0.16267 8.1777,-0.41388 11.54339,-0.55823 6.5899,-0.28263 11.82962,-0.86829 19.14827,-2.14027 7.24273,-1.25878 7.81474,-1.42381 9.63452,-2.77978 1.92415,-1.43373 3.6051,-2.2551 8.35715,-4.08357 4.48124,-1.72426 11.14502,-5.0365 19.18229,-9.53455 2.21631,-1.24036 16.23151,-10.22909 17.19792,-11.02999 1.94566,-1.61243 2.57272,-3.973495 2.61822,-9.858276 0.026,-3.36409 -0.0126,-3.648833 -0.66322,-4.894792 -0.37996,-0.727604 -0.96243,-2.156354 -1.29437,-3.175 -1.21805,-3.737835 -4.27313,-10.801312 -7.22335,-16.700686 -1.66501,-3.329414 -3.40125,-6.95347 -3.85833,-8.053458 -0.70834,-1.704684 -3.59055,-6.537436 -5.82945,-9.774557 -0.35205,-0.509006 -1.49675,-1.818434 -2.54377,-2.90984 -1.2548,-1.307986 -2.24382,-2.660765 -2.90156,-3.96875 -0.54882,-1.091407 -1.436,-2.639219 -1.9715,-3.439584 -0.5355,-0.800364 -1.54565,-2.467239 -2.24478,-3.704166 -0.69913,-1.236927 -1.75899,-2.844271 -2.35525,-3.571875 -3.26896,-3.98908 -6.55698,-7.459056 -8.84222,-9.331546 -3.2505,-2.663415 -4.99115,-4.497633 -7.59064,-7.998662 -1.13451,-1.527969 -2.91211,-3.671094 -3.95022,-4.7625 -1.03812,-1.091407 -2.57127,-2.962442 -3.407,-4.157857 -1.2633,-1.806991 -2.19998,-2.719216 -5.555,-5.409968 -4.68213,-3.755105 -5.54863,-4.623997 -6.11322,-6.130109 -0.37863,-1.010036 -1.90231,-6.049007 -2.95369,-9.768212 l -0.43008,-1.521354 -9.70466,0.0024 c -5.33756,0.0013 -11.60966,0.116206 -13.938,0.255344 -18.63103,1.113365 -27.15365,1.452298 -46.83125,1.862418 -7.13052,0.148614 -17.0127,0.503954 -21.96041,0.789644 -14.08994,0.813579 -21.2093,1.035055 -42.55047,1.323705 -24.6961,0.334027 -26.52744,0.451283 -41.45474,2.654229 -9.35068,1.379959 -14.13876,1.990816 -20.6375,2.632905 -9.33337,0.922157 -20.37307,2.623971 -28.25718,4.355953 -2.28485,0.501937 -6.53553,1.345555 -9.44595,1.874707 C 25.8181,0.449674 15.5081,3.324424 6.35,6.74869 3.51235,7.809706 -0.45829,9.245444 -2.47363,9.939221 c -2.01534,0.693776 -4.0394,1.513386 -4.49791,1.821355 -2.18447,1.467241 -9.28311,14.143512 -10.08723,18.013111 -0.29193,1.404811 -0.41006,4.545772 -0.48259,12.832292 -0.10661,12.181124 -0.0544,11.709076 -2.16607,19.57114 -1.28152,4.771203 -1.82018,8.032925 -1.5695,9.503704 0.0888,0.521035 0.37592,1.721244 0.63805,2.667129 0.69856,2.520775 0.78675,3.37152 1.19309,11.509375 0.28517,5.711028 0.48665,7.802351 0.87944,9.128125 0.28023,0.945885 0.64981,2.395608 0.82129,3.221606 0.1716,0.8266 0.65505,1.975702 1.07531,2.555852 0.91955,1.26941 6.71637,6.59917 9.6583,8.88012 3.14955,2.44193 10.46435,7.04735 13.62604,8.57901 1.52797,0.74021 3.61156,1.82162 4.63021,2.40313 2.65864,1.51774 4.30603,1.87233 9.92187,2.1356 2.7186,0.12745 5.48295,0.39762 6.21771,0.60767 0.7276,0.20801 3.04932,1.09997 5.15937,1.98213 4.73406,1.97921 6.08025,2.35337 9.22896,2.56513 1.59947,0.10756 3.34003,0.43827 4.8948,0.93002 3.72972,1.17966 4.29026,1.2908 7.96895,1.58007 5.42831,0.42685 29.63159,1.12468 32.41146,0.93449 2.70526,-0.18509 7.08469,0.20853 14.84536,1.33428 5.16325,0.74897 9.98251,1.09004 20.47652,1.44916 4.2201,0.14442 8.9826,0.44304 10.58333,0.6636 7.93771,1.09375 9.76474,1.23504 13.49375,1.04353 5.13407,-0.26366 8.40998,-0.18788 11.43731,0.26457 3.94548,0.58968 10.95677,0.96694 22.37822,1.20412 12.79404,0.26569 19.91528,0.16265 27.96468,-0.4046 z M 68.34646,109.03621 c -0.0801,-0.30637 -0.25085,-0.55704 -0.3794,-0.55704 -0.12855,0 -0.23372,-0.46302 -0.23372,-1.02893 v -1.02892 l -11.70781,0.13203 c -11.11237,0.12531 -11.84238,0.10409 -14.35365,-0.41737 -4.99479,-1.03716 -8.93179,-3.63143 -10.55,-6.95188 -1.60632,-3.296074 -1.5766,-2.944837 -1.68478,-19.91153 l -0.0993,-15.580555 -0.57982,-0.488256 -0.57981,-0.488256 0.60089,-0.169235 c 0.45398,-0.12786 0.5317,-0.252603 0.31788,-0.510237 -0.19667,-0.236968 -0.19837,-0.393314 -0.006,-0.512465 0.18708,-0.115623 0.27743,-4.176723 0.27743,-12.470126 0,-13.645511 0.12851,-15.041414 1.64797,-17.901205 2.37115,-4.46277 6.38462,-7.265061 11.31029,-7.897081 5.33465,-0.684498 52.83845,-0.679504 57.02404,0.006 4.34011,0.710806 8.13228,2.554293 10.03773,4.879641 2.02667,2.473281 3.2833,6.438034 3.86941,12.208169 0.72706,7.15788 0.50804,45.193892 -0.29938,51.990625 -0.52413,4.4121 -1.95633,7.990021 -4.06019,10.143161 -1.32432,1.35534 -4.16055,2.85897 -6.63716,3.51869 -1.70693,0.45469 -3.06511,0.49336 -17.3302,0.49336 H 69.45275 l -0.13229,1.43466 c -0.1368,1.48356 -0.7066,2.13077 -0.97438,1.10675 z m -3.87879,-3.62239 3.21662,-0.16011 0.1523,-2.95133 c 0.0838,-1.62324 0.33311,-10.214151 0.55409,-19.090921 0.22099,-8.876771 0.46611,-17.002787 0.54472,-18.057813 l 0.14292,-1.918229 H 50.14958 31.22084 v 5.361538 c 0,2.948846 -0.14184,8.15783 -0.3152,11.575521 -0.44391,8.751587 -0.39085,11.336384 0.28459,13.862392 1.9072,7.132602 6.23813,10.749142 13.76398,11.493582 2.0023,0.19807 14.73396,0.12328 19.51346,-0.11463 z m 34.88338,-0.14381 c 4.08566,-0.65683 7.71498,-2.5032 9.48003,-4.82284 1.08072,-1.420293 2.23962,-4.118752 2.71672,-6.325781 0.55264,-2.556454 0.87027,-10.436832 0.88666,-21.997594 l 0.0135,-9.500164 -4.01082,0.173601 c -2.20594,0.09548 -11.59339,0.173602 -20.86099,0.173602 H 70.72598 l -0.16158,3.770312 c -0.30947,7.221545 -1.08592,38.279644 -0.96013,38.405444 0.17245,0.17245 25.17792,0.6286 26.8364,0.48955 0.7276,-0.061 2.03729,-0.22576 2.91042,-0.36613 z M 53.20866,60.183502 c -0.45163,-0.514386 -0.83816,-0.96087 -0.85895,-0.992187 -0.0208,-0.03132 -0.11008,-1.604752 -0.19844,-3.496523 l -0.16064,-3.439583 -0.63229,2.513542 c -0.77235,3.070351 -0.90273,3.334643 -1.96428,3.981919 -1.27549,0.777716 -2.31101,0.669422 -3.28842,-0.343899 -1.0444,-1.082763 -1.31249,-1.800358 -1.62971,-4.362249 -0.18099,-1.461733 -0.38417,-2.130179 -0.70473,-2.31848 -0.24773,-0.145521 -0.79871,-0.548993 -1.2244,-0.896605 l -0.77398,-0.632022 -0.88771,0.860407 c -1.56979,1.521498 -3.93553,1.360675 -6.40164,-0.435184 -1.11203,-0.809793 -1.5744,-2.201152 -1.17476,-3.535037 0.23586,-0.78722 0.21539,-1.35434 -0.0967,-2.678053 -0.27793,-1.178956 -0.39676,-3.177231 -0.39881,-6.706422 -0.003,-4.523312 0.0488,-5.111968 0.51355,-5.874134 0.85815,-1.407401 2.51976,-1.997366 4.40665,-1.564604 0.82393,0.18897 0.8241,0.188777 1.00224,-1.154143 0.25128,-1.894227 1.24453,-2.971187 2.77731,-3.011378 0.96574,-0.02532 1.24989,0.09863 1.9038,0.830483 0.61009,0.682806 0.76863,1.108877 0.76863,2.065599 0,1.103247 0.0357,1.169608 0.42194,0.783408 0.79605,-0.796047 2.06951,-1.273137 3.76064,-1.408885 l 1.69296,-0.135894 1.66521,1.766474 1.66522,1.766474 0.47584,-1.512827 c 1.06846,-3.396915 4.58241,-5.225762 7.6101,-3.960711 0.89814,0.375268 2.34852,2.144044 3.28145,4.001804 0.38582,0.768302 1.38706,4.565047 1.38706,5.259801 0,0.0241 0.41044,0.264863 0.9121,0.535023 1.62771,0.876577 1.86602,1.777953 1.86602,7.057783 0,4.627955 -0.003,4.655004 -0.7041,5.573934 -0.63108,0.827638 -0.73807,1.300085 -1.03158,4.555174 -0.21302,2.362505 -0.48492,3.928292 -0.77799,4.480232 -0.67245,1.266454 -1.96641,2.03928 -3.41243,2.038106 -1.28385,-0.001 -2.8292,-0.732011 -3.11343,-1.472684 -0.11305,-0.294606 -0.29075,-0.116293 -0.62246,0.624615 -0.25534,0.570309 -0.73837,1.292311 -1.07341,1.60445 l -0.60917,0.567525 h 5.73843 5.73843 l 0.004,-0.992188 c 0.002,-0.545703 0.23849,-7.957344 0.52551,-16.470312 0.28702,-8.512969 0.52351,-16.341328 0.52552,-17.396354 l 0.004,-1.918229 -5.22552,-0.03586 C 62.01568,24.286088 56.8067,24.19679 53.3142,24.107371 c -6.83667,-0.175042 -8.69978,-0.05662 -11.87159,0.754594 -4.54706,1.162943 -7.42803,3.207804 -8.83996,6.274453 -1.88648,4.097334 -2.27219,7.163975 -1.92414,15.297955 0.14945,3.4925 0.34529,8.225234 0.4352,10.517187 l 0.16349,4.167188 H 42.65384 54.03047 Z M 112.37139,50.33698 C 112.20914,39.298374 111.98993,36.698718 110.9491,33.469792 109.32823,28.441408 106.18798,25.762395 100.56492,24.61081 97.41729,23.966185 97.65944,23.971815 83.54219,24.214979 l -11.8401,0.20394 2.8e-4,1.879603 c 3.5e-4,2.361575 -0.7248,27.527938 -0.91374,31.711374 l -0.14041,3.108855 h 20.94082 20.94083 z m 134.08799,52.745 c -0.58208,-0.18409 -1.41552,-0.5144 -1.85208,-0.73402 -0.50531,-0.2542 -1.03412,-0.32802 -1.45521,-0.20313 -1.15102,0.34137 -3.17263,0.26373 -3.97806,-0.15277 -1.41849,-0.73353 -1.29431,-2.754534 0.2045,-3.3283 0.78207,-0.299388 5.734,-0.207055 6.44265,0.120129 0.37657,0.173864 0.43824,-0.609616 0.59482,-7.556936 0.0961,-4.263001 0.17723,-11.441848 0.18033,-15.952994 0.004,-5.740994 0.12066,-8.995983 0.38897,-10.847917 0.21084,-1.455208 0.38712,-4.23771 0.39173,-6.183337 0.005,-2.003844 0.23213,-5.15832 0.52445,-7.276041 0.99069,-7.176985 1.60061,-13.880958 1.60061,-17.593222 v -3.740108 h -4.10104 c -3.74827,0 -4.14656,-0.04552 -4.63021,-0.529167 -0.62608,-0.626075 -0.66273,-1.038879 -0.1541,-1.735367 0.34449,-0.471731 0.78387,-0.520262 5.39094,-0.59544 5.00677,-0.0817 5.01727,-0.08066 5.7765,0.571844 l 0.76062,0.653693 0.0821,4.877576 c 0.0674,4.007587 -0.0182,5.486538 -0.48042,8.291698 -0.78657,4.774143 -1.57345,12.694609 -1.58028,15.906587 -0.003,1.486585 -0.1972,4.046429 -0.4312,5.688541 -0.37288,2.616706 -0.40263,5.162112 -0.24073,20.597997 0.19899,18.971444 0.1922,19.088664 -1.14611,19.804904 -0.65628,0.35123 -0.9455,0.34059 -2.28875,-0.0842 z m -18.10132,-0.20247 c -0.34985,-0.12942 -0.79193,-0.44048 -0.98241,-0.69126 -0.31803,-0.41872 -0.347,-0.40734 -0.35473,0.13935 -0.008,0.54215 -0.13486,0.59532 -1.42414,0.59532 -1.96838,0 -2.96733,-0.41316 -3.64325,-1.50682 l -0.5753,-0.93085 0.08,-15.648353 c 0.044,-8.606595 -0.0639,-20.768042 -0.23983,-27.025438 -0.45063,-16.027245 -0.52301,-28.605014 -0.16872,-29.320146 0.16729,-0.337683 0.78477,-0.742688 1.48597,-0.974646 0.65985,-0.218281 1.64622,-0.664765 2.19193,-0.992187 2.24464,-1.346759 7.04738,-0.227927 7.04738,1.641736 0,1.023956 -0.4776,1.207572 -2.76256,1.062075 -1.82557,-0.116245 -2.33853,-0.04818 -3.56659,0.473292 l -1.43436,0.609064 0.0593,4.754573 c 0.0326,2.615015 0.17415,6.719104 0.31455,9.120197 0.14041,2.401094 0.30935,14.724063 0.37542,27.384375 0.0661,12.660312 0.19231,24.095683 0.28053,25.411934 l 0.16041,2.393184 2.26059,-0.05785 c 2.06804,-0.05292 2.31418,-0.0043 2.88979,0.571352 0.70311,0.703118 0.76829,1.116818 0.32814,2.082838 -0.36797,0.80761 -1.45008,1.23086 -2.32214,0.90826 z m 6.36356,-16.78 c -1.09542,-0.460586 -1.87457,-2.123441 -1.88247,-4.0175 -0.006,-1.511453 1.00153,-4.784323 1.81128,-5.88201 0.55811,-0.75657 1.35791,-1.020896 1.35791,-0.448776 0,0.294812 0.26067,0.354661 1.12448,0.258181 2.01369,-0.224911 3.37397,1.41173 3.40087,4.091805 0.0177,1.763806 -0.47971,3.099797 -1.65066,4.433426 -1.3832,1.575378 -2.83659,2.121919 -4.16141,1.564874 z m 2.33451,-1.600994 c 0.9254,-0.546648 2.06836,-2.291789 2.29612,-3.505866 0.37654,-2.007107 -1.05133,-4.037547 -2.56849,-3.652433 -2.54734,0.64661 -3.6728,4.971998 -1.80973,6.955148 0.704,0.749372 1.09314,0.787341 2.0821,0.203151 z m -45.63279,-18.62165 c -0.2785,-0.450615 -0.0268,-0.588864 3.31,-1.817827 1.67349,-0.616363 3.75708,-1.456731 4.63021,-1.867486 l 1.5875,-0.746826 -3.83646,0.110946 c -2.11005,0.06102 -13.59958,0.2257 -25.53229,0.365955 -11.93271,0.140255 -24.93931,0.378884 -28.90356,0.530287 -7.29637,0.278663 -8.2704,0.203266 -8.2704,-0.640184 0,-0.446553 4.5004,-0.689809 12.83229,-0.693613 3.34698,-0.0015 15.07464,-0.298506 26.06146,-0.659951 10.98682,-0.361444 20.92854,-0.665947 22.09271,-0.676673 2.40978,-0.0222 2.52668,0.09427 -1.71979,-1.713401 -2.563,-1.091033 -2.88099,-1.317939 -2.45041,-1.748517 0.22529,-0.225289 0.78908,-0.117716 2.23573,0.426585 5.20912,1.95993 8.02768,2.78509 9.51323,2.78509 0.83497,0 1.57374,0.08997 1.64171,0.199944 0.068,0.10997 0.0635,0.51437 -0.01,0.898666 -0.1145,0.598971 -0.6234,0.930352 -3.56469,2.321223 -5.06416,2.394734 -9.17292,3.64471 -9.61724,2.925782 z m 44.10413,-16.893748 c -0.27697,-0.175427 -0.30964,-1.021479 -0.15907,-4.118641 l 0.1895,-3.897861 -1.34692,0.749505 c -1.03778,0.577485 -1.41923,0.677681 -1.66199,0.43656 -0.51617,-0.512669 -0.088,-1.078718 1.3776,-1.821416 0.76049,-0.385367 1.54849,-0.866457 1.75112,-1.06909 0.20264,-0.202634 0.53852,-0.368424 0.7464,-0.368424 0.3081,0 0.37159,0.574764 0.3434,3.108854 -0.0458,4.120506 -0.30089,7.016864 -0.62688,7.118667 -0.14552,0.04544 -0.42144,-0.01672 -0.61316,-0.138154 z"
       id="path124" />
    <path
       style="fill:#000000"
       d="m -126.02986,186.35486 c -0.097,-0.097 -0.17639,-0.57326 -0.17639,-1.05833 v -0.88195 l -3.10885,-0.002 c -8.70323,-0.006 -23.01213,-0.56228 -24.5401,-0.95443 -5.47326,-1.4047 -8.93784,-5.0705 -10.45124,-11.05823 -0.45786,-1.8115 -0.52894,-2.96745 -0.52876,-8.59896 1.2e-4,-3.57836 -0.13215,-10.24819 -0.29394,-14.82184 -0.28251,-7.98673 -0.31654,-8.33461 -0.86011,-8.79277 l -0.56595,-0.47704 0.59531,-0.16777 c 0.53472,-0.15071 0.59531,-0.33356 0.59531,-1.79655 0,-1.58532 -0.0243,-1.64186 -0.9121,-2.11996 -0.9671,-0.52082 -1.73373,-1.79269 -1.73373,-2.87632 0,-0.35952 0.58502,-1.54983 1.30004,-2.64514 l 1.30004,-1.99146 0.2759,-6.31071 c 0.15175,-3.4709 0.28203,-7.07008 0.28953,-7.99818 0.0359,-4.45133 1.9691,-8.53258 5.02443,-10.60742 1.78842,-1.21449 4.66171,-2.25164 7.30479,-2.63676 3.72244,-0.54246 28.20888,-1.126992 30.0136,-0.716542 0.3638,0.08274 7.15036,0.211922 15.08125,0.287062 14.93808,0.14154 15.431973,0.17729 18.11205,1.31078 2.729921,1.15457 5.280318,3.99561 6.500332,7.24109 0.313751,0.83464 0.811936,2.58909 1.107078,3.89878 0.499674,2.21729 0.533468,3.18918 0.490803,14.11532 -0.04079,10.44525 3.03e-4,11.7678 0.374102,12.04113 0.333743,0.24404 0.366561,0.46942 0.159914,1.09822 -0.152376,0.46365 -0.306985,7.08895 -0.373488,16.0047 -0.125117,16.77369 -0.176585,17.36053 -1.830877,20.876 -1.576589,3.35034 -5.054629,6.03607 -8.929497,6.89531 -0.800364,0.17748 -2.824427,0.37086 -4.497917,0.42974 -1.673489,0.0589 -5.54302,0.22631 -8.59896,0.37207 -3.05594,0.14576 -8.54869,0.26534 -12.20612,0.26574 -6.42704,7e-4 -6.65451,0.0185 -6.78825,0.52989 -0.18436,0.705 -0.67692,0.67153 -0.97342,-0.0661 -0.20766,-0.51662 -0.24151,-0.46416 -0.25606,0.39687 -0.0158,0.9327 -0.41731,1.2972 -0.89872,0.8158 z m -9.58096,-3.52778 h 9.57157 l 0.31048,-9.83657 c 0.17077,-5.41011 0.28184,-9.86522 0.24682,-9.90024 -0.035,-0.035 -0.2639,0.0827 -0.50863,0.26169 -0.57121,0.41768 -1.25151,4.04849 -1.51732,8.09804 -0.23363,3.5592 -0.61997,4.51726 -2.13284,5.28907 -1.17156,0.59768 -2.14452,0.67387 -2.99905,0.23485 -0.85012,-0.43676 -2.03312,-1.60169 -2.03312,-2.00206 0,-0.25502 -0.26383,-0.20648 -0.98827,0.18179 -1.24123,0.66526 -2.08809,0.66851 -3.16454,0.0122 -1.23647,-0.75392 -1.64576,-1.54574 -2.11228,-4.08645 -0.40444,-2.20259 -0.87763,-3.03509 -0.87965,-1.54759 -0.001,0.91627 -0.85853,2.34864 -1.53398,2.56302 -0.46511,0.14762 -0.52461,0.49039 -0.63569,3.66164 -0.10087,2.87957 -0.2213,3.69063 -0.6805,4.58284 -0.98608,1.91591 -2.57552,2.57005 -4.21388,1.73422 -1.68007,-0.85711 -2.84038,-2.35354 -3.38502,-4.3656 -0.4131,-1.52612 -0.57395,-1.78921 -1.16613,-1.9074 -2.33395,-0.4658 -3.4557,-1.90933 -3.48031,-4.47865 -0.008,-0.8754 -0.10466,-2.06788 -0.21395,-2.64996 -0.17744,-0.94512 -0.22079,-0.9927 -0.40525,-0.44477 -0.26835,0.79715 -1.65504,1.63315 -2.71101,1.6344 -0.55377,6.6e-4 -1.10665,-0.25565 -1.65365,-0.76662 -1.2865,-1.20178 -1.15236,-2.29854 0.77358,-6.32472 l 1.59531,-3.335 -0.43353,-2.76467 c -0.53516,-3.41279 -0.41776,-5.3249 0.43109,-7.02099 0.95575,-1.9097 3.28917,-4.20422 4.88162,-4.80024 0.7276,-0.27232 1.46854,-0.69467 1.64653,-0.93854 0.50642,-0.69388 2.4409,-1.36175 3.41498,-1.17902 0.47551,0.0892 1.4349,0.68321 2.16795,1.34228 0.72322,0.65025 1.51173,1.18226 1.75224,1.18226 1.16686,0 2.79225,1.4278 2.79225,2.45281 0,0.43976 1.20891,1.75218 1.63239,1.77216 0.0975,0.005 0.37876,-0.61671 0.62514,-1.3807 0.6786,-2.10417 1.59717,-3.52669 2.9388,-4.55111 2.25786,-1.724 3.95811,-1.45237 5.31057,0.84842 0.72227,1.22871 0.7379,1.3427 0.7379,5.38154 0,3.15836 0.0874,4.23157 0.37243,4.57528 0.20484,0.24696 0.46224,0.35469 0.57202,0.23938 0.10977,-0.11531 0.58944,-1.6384 1.06594,-3.38465 0.98485,-3.60927 1.55641,-4.41859 3.48478,-4.93435 l 1.18233,-0.31623 0.18115,-2.63015 c 0.0996,-1.44659 0.1047,-2.70599 0.0113,-2.79867 -0.16338,-0.16206 -38.46778,-0.14551 -38.62755,0.0167 -0.043,0.0437 -0.16067,6.56828 -0.26148,14.49917 -0.20404,16.0534 -0.15472,16.71412 1.50099,20.10833 1.59408,3.26786 5.18406,5.99808 9.26131,7.04333 2.14633,0.55023 5.05716,0.87898 6.54321,0.739 0.63878,-0.0602 5.46861,-0.10941 10.73298,-0.10941 z m 39.69408,-0.006 c 4.271118,-0.41522 6.948612,-1.5159 9.418547,-3.87182 2.837076,-2.70611 4.234662,-6.50284 4.270191,-11.60052 0.01116,-1.60073 -0.115165,-5.29167 -0.280714,-8.20209 -0.16555,-2.91041 -0.314118,-8.29799 -0.330152,-11.97239 l -0.02915,-6.68073 h -20.213912 -20.2139 v 3.06036 c 0,2.81573 0.0506,3.12769 0.63249,3.90261 0.89719,1.19474 1.03604,2.21603 0.58557,4.30711 -0.21644,1.00474 -0.62578,2.89836 -0.90964,4.20804 -0.45309,2.09052 -0.53609,3.87465 -0.67982,14.61296 l -0.16373,12.23171 5.62538,0.077 c 13.66756,0.187 19.827894,0.16704 22.28884,-0.0722 z m -28.60549,-46.36223 c 0.092,-1.49158 0.24416,-10.04869 0.33813,-19.01579 l 0.17086,-16.30381 -2.84621,-0.194 c -3.31716,-0.2261 -18.43351,0.0478 -22.10096,0.40045 -4.93341,0.47438 -7.67706,1.57514 -10.18887,4.08781 -1.89373,1.89437 -2.75972,3.43223 -3.72968,6.62334 -0.67341,2.21546 -0.72955,2.77637 -0.83358,8.32857 l -0.11155,5.95312 0.81226,-0.77232 c 0.44674,-0.42477 1.09865,-1.19868 1.44868,-1.71979 0.60497,-0.90063 0.64482,-1.22025 0.80617,-6.46506 0.20806,-6.76332 0.4566,-7.45718 2.78297,-7.76921 0.95092,-0.12755 1.15842,-0.0453 1.99475,0.79108 0.51339,0.51338 0.93343,1.10825 0.93343,1.32192 0,0.25263 0.36691,0.43771 1.04918,0.52922 0.57705,0.0774 1.37324,0.39564 1.76932,0.70719 0.86756,0.68243 0.91911,0.61297 1.50271,-2.02512 0.5705,-2.57888 1.41829,-3.86891 2.91933,-4.44216 1.48433,-0.56687 2.69657,-0.23944 3.81048,1.02924 0.69179,0.7879 0.80753,0.83172 1.31201,0.49676 0.78577,-0.52173 2.523,-0.48011 3.47677,0.0833 0.44674,0.26389 1.55046,1.55768 2.45271,2.87509 0.90225,1.3174 1.67811,2.44308 1.72413,2.50151 0.046,0.0584 0.39937,-0.20946 0.78522,-0.59531 0.38585,-0.38585 0.79635,-0.70155 0.91222,-0.70155 0.11587,0 0.28886,-0.24634 0.38442,-0.54742 0.42485,-1.33859 3.03206,-1.99581 4.63308,-1.16789 1.52636,0.78931 1.57884,1.13259 1.57884,10.32759 v 8.37397 l -0.87872,0.87872 c -1.12869,1.12869 -2.43027,1.39738 -3.74558,0.77323 -1.18335,-0.56154 -1.68001,-1.27555 -1.93785,-2.78593 l -0.19627,-1.14973 -2.17704,2.76446 c -2.16655,2.75112 -2.17704,2.77196 -2.17704,4.32152 0,1.45594 -0.0667,1.62379 -1.02721,2.58428 -0.91271,0.9127 -1.17076,1.02701 -2.3151,1.02546 -0.81391,-0.001 -1.56546,-0.18473 -2.04206,-0.49896 -1.27746,-0.84223 -3.32527,-4.26028 -4.25736,-7.10607 -0.25023,-0.76398 -0.56446,-1.38906 -0.69829,-1.38906 -0.13382,0 -0.24332,0.0934 -0.24332,0.20754 0,0.11414 -0.36927,0.42567 -0.8206,0.69228 -1.07083,0.63255 -2.68746,0.59877 -3.63504,-0.076 -0.71427,-0.5086 -0.81665,-0.51408 -2.31098,-0.12386 -2.2549,0.58884 -2.34594,0.65345 -5.47036,3.88249 l -2.84427,2.93951 v 1.53067 1.53068 h 19.4115 19.41151 z m 29.735255,2.28396 11.972395,-0.16368 0.0051,-4.4005 c 0.0028,-2.42028 0.129349,-6.54363 0.281237,-9.163 0.546355,-9.42251 0.262743,-12.33779 -1.570152,-16.13959 -1.320468,-2.73892 -3.198153,-4.662 -5.722422,-5.86077 -3.254248,-1.54543 -4.187571,-1.6349 -19.079703,-1.829 l -13.51823,-0.17619 -0.16235,5.52048 c -0.46371,15.76833 -0.79385,31.78786 -0.66218,32.13099 0.16245,0.42334 2.86931,0.43107 28.456305,0.0812 z m -45.819155,-16.70589 c -0.31176,-0.31175 -0.43579,0.16275 -0.23445,0.89696 l 0.20808,0.75883 0.0893,-0.7518 c 0.0491,-0.41348 0.0208,-0.82028 -0.0629,-0.90399 z"
       id="path123" />
    <path
       style="fill:#000000"
       d="m 246.98855,194.14976 c -1.04927,-0.36778 -1.71979,-0.97502 -1.71979,-1.55748 0,-0.7578 0.47393,-0.84372 1.3222,-0.23969 1.15642,0.82344 2.34652,0.92451 3.36705,0.28594 1.11929,-0.70036 1.37137,-1.69394 0.66562,-2.62358 -0.46399,-0.61118 -0.68774,-0.69102 -1.68811,-0.60234 -0.63427,0.0562 -1.689,0.11576 -2.34385,0.13229 -1.15917,0.0293 -1.18987,0.009 -1.16202,-0.76368 0.0251,-0.69733 0.86373,-4.34295 1.05617,-4.59145 0.0398,-0.0514 1.53846,-0.11058 3.33029,-0.13142 3.15909,-0.0367 3.26035,-0.0204 3.34006,0.53865 0.12923,0.90638 -0.76638,1.20205 -3.33107,1.09969 l -2.26672,-0.0905 -0.33819,1.31374 c -0.18599,0.72256 -0.29266,1.35927 -0.23702,1.41491 0.0556,0.0556 0.69592,-0.0264 1.42285,-0.1823 1.8357,-0.39369 2.73203,-0.037 3.48797,1.38795 1.06655,2.01046 0.0987,3.99732 -2.25961,4.63853 -1.25707,0.34179 -1.59791,0.33802 -2.64583,-0.0293 z"
       id="path122" />
    <path
       style="fill:#000000"
       d="m 241.88209,194.15176 c -0.48158,-0.48159 -0.38091,-1.19558 0.22878,-1.62263 1.12542,-0.78827 2.18212,0.26843 1.39385,1.39385 -0.42705,0.60969 -1.14105,0.71036 -1.62263,0.22878 z"
       id="path121" />
    <path
       style="fill:#000000"
       d="m 234.68542,194.27976 c -1.36297,-0.48916 -2.38125,-2.33861 -2.38125,-4.32496 0,-1.38386 1.07409,-4.69683 1.90324,-5.87044 0.54596,-0.77278 1.27176,-0.97589 1.27176,-0.3559 0,0.27829 0.25514,0.33747 1.01528,0.23552 1.88842,-0.25329 3.27078,1.05723 3.6627,3.47236 0.19114,1.17788 -0.51952,3.51663 -1.4653,4.82225 -0.96013,1.32542 -3.03227,2.37078 -4.00643,2.02117 z m 1.86314,-1.80059 c 1.15363,-0.59657 2.36465,-2.87078 2.36771,-4.44641 0.002,-1.06059 -0.12864,-1.40825 -0.77091,-2.05052 -0.93529,-0.93529 -1.93462,-0.99985 -2.75639,-0.17809 -0.32742,0.32743 -0.70896,0.62687 -0.84787,0.66543 -0.41131,0.11418 -0.87226,1.68796 -0.89388,3.05188 -0.0216,1.36574 0.49097,2.64021 1.23663,3.07452 0.6206,0.36146 0.75855,0.35178 1.66471,-0.11681 z"
       id="path120" />
    <path
       style="fill:#000000"
       d="m 189.56308,211.91416 c -0.0959,-0.15521 -0.13271,-0.31984 -0.0818,-0.36586 0.31546,-0.28492 4.11605,-2.03822 5.78119,-2.66699 1.0914,-0.41213 2.10153,-0.85093 2.24473,-0.97511 0.36533,-0.31682 -29.1329,-0.0127 -48.19899,0.49692 -14.44704,0.38616 -15.96244,0.38724 -16.33802,0.0117 -0.22769,-0.22769 -0.41397,-0.53085 -0.41397,-0.6737 0,-0.41685 3.50344,-0.54816 18.12395,-0.67932 14.9943,-0.13452 42.62443,-0.84627 45.37605,-1.16888 l 1.71979,-0.20164 -3.30729,-1.08614 c -1.81901,-0.59737 -3.69425,-1.16724 -4.16719,-1.26638 -0.80205,-0.16813 -1.14444,-0.72488 -0.63819,-1.03775 0.39665,-0.24515 5.39399,1.16045 8.41701,2.36745 1.62259,0.64786 3.08111,1.17792 3.24114,1.17792 0.16004,0 0.29098,0.11906 0.29098,0.26458 0,0.14553 0.16401,0.26459 0.36447,0.26459 0.20047,0 0.52023,0.18767 0.71059,0.41704 0.42529,0.51243 0.17682,0.70335 -1.73652,1.33432 -0.72761,0.23994 -3.45539,1.25373 -6.06175,2.25286 -2.60636,0.99914 -4.83176,1.81661 -4.94533,1.81661 -0.11356,0 -0.28496,-0.12698 -0.38089,-0.28218 z"
       id="path119" />
    <path
       style="fill:#000000"
       d="m 246.98855,231.19093 c -1.04927,-0.36778 -1.71979,-0.97503 -1.71979,-1.55748 0,-0.7578 0.47393,-0.84372 1.3222,-0.2397 1.15642,0.82345 2.34652,0.92451 3.36705,0.28595 1.11929,-0.70036 1.37137,-1.69395 0.66562,-2.62358 -0.46399,-0.61119 -0.68774,-0.69102 -1.68811,-0.60234 -0.63427,0.0562 -1.689,0.11576 -2.34385,0.13229 -1.15917,0.0293 -1.18987,0.009 -1.16202,-0.76369 0.0251,-0.69732 0.86373,-4.34294 1.05617,-4.59144 0.0398,-0.0515 1.53846,-0.11058 3.33029,-0.13142 3.15909,-0.0367 3.26035,-0.0204 3.34006,0.53865 0.12923,0.90638 -0.76638,1.20204 -3.33107,1.09968 l -2.26672,-0.0905 -0.33819,1.31375 c -0.18599,0.72256 -0.29266,1.35927 -0.23702,1.4149 0.0556,0.0556 0.69592,-0.0264 1.42285,-0.18229 1.8357,-0.39369 2.73203,-0.037 3.48797,1.38795 1.06655,2.01046 0.0987,3.99731 -2.25961,4.63853 -1.25707,0.34179 -1.59791,0.33802 -2.64583,-0.0293 z"
       id="path118" />
    <path
       style="fill:#000000"
       d="m 241.88209,231.19293 c -0.48158,-0.48158 -0.38091,-1.19557 0.22878,-1.62262 1.12542,-0.78827 2.18212,0.26842 1.39385,1.39384 -0.42705,0.6097 -1.14105,0.71037 -1.62263,0.22878 z"
       id="path117" />
    <path
       style="fill:#000000"
       d="m 234.68542,231.32093 c -1.36297,-0.48915 -2.38125,-2.3386 -2.38125,-4.32496 0,-1.38386 1.07409,-4.69682 1.90324,-5.87043 0.54596,-0.77278 1.27176,-0.9759 1.27176,-0.35591 0,0.27829 0.25514,0.33748 1.01528,0.23552 1.88842,-0.25329 3.27078,1.05724 3.6627,3.47237 0.19114,1.17787 -0.51952,3.51663 -1.4653,4.82224 -0.96013,1.32542 -3.03227,2.37078 -4.00643,2.02117 z m 1.86314,-1.80058 c 1.15363,-0.59657 2.36465,-2.87078 2.36771,-4.44641 0.002,-1.0606 -0.12864,-1.40825 -0.77091,-2.05052 -0.93529,-0.93529 -1.93462,-0.99986 -2.75639,-0.17809 -0.32742,0.32742 -0.70896,0.62686 -0.84787,0.66542 -0.41131,0.11419 -0.87226,1.68796 -0.89388,3.05189 -0.0216,1.36573 0.49097,2.64021 1.23663,3.07452 0.6206,0.36146 0.75855,0.35178 1.66471,-0.11681 z"
       id="path116" />
    <path
       style="fill:#000000"
       d="m 222.78711,247.57612 c -0.35943,-0.18188 -0.93343,-0.74567 -1.27555,-1.25287 l -0.62203,-0.92219 0.0754,-16.40417 c 0.0415,-9.02229 -0.0597,-21.40479 -0.22487,-27.51666 -0.16514,-6.11188 -0.34831,-14.74391 -0.40705,-19.18229 -0.12214,-9.22935 -0.10695,-9.31595 1.72035,-9.8077 0.61749,-0.16617 1.63585,-0.60275 2.26302,-0.97018 1.00063,-0.58621 1.35713,-0.65183 2.91041,-0.53563 2.15584,0.16126 3.70858,0.85203 3.93398,1.7501 0.25379,1.01115 -0.22169,1.50099 -1.40227,1.44461 -2.75811,-0.13169 -3.33457,-0.0655 -4.78181,0.5493 -1.30924,0.55614 -1.52382,0.74317 -1.45328,1.26672 0.0455,0.33783 0.13031,3.56559 0.18843,7.1728 0.0581,3.60722 0.228,7.953 0.37752,9.65729 0.15204,1.73289 0.28813,12.02024 0.30876,23.33935 0.0203,11.13235 0.11081,22.02008 0.20117,24.19496 l 0.16428,3.95434 2.31149,-0.0319 c 2.18296,-0.0301 2.34111,0.006 2.84427,0.6454 0.67762,0.86146 0.67897,1.78268 0.004,2.45804 -0.63941,0.63941 -2.16977,0.70591 -2.65971,0.11558 -0.31128,-0.37507 -0.36481,-0.37507 -0.57471,0 -0.28864,0.51578 -2.93001,0.56663 -3.90139,0.0751 z"
       id="path115" />
    <path
       style="fill:#000000"
       d="m 263.45475,248.15589 c -0.54796,-0.1291 -1.44093,-0.45892 -1.98437,-0.73293 -0.65262,-0.32906 -1.16774,-0.42632 -1.51725,-0.28646 -0.29104,0.11646 -1.18728,0.22011 -1.99165,0.23034 -1.52363,0.0194 -2.40655,-0.37644 -2.90113,-1.30057 -0.31967,-0.59731 0.0588,-1.7744 0.736,-2.28888 0.53797,-0.40873 5.03256,-0.48995 6.34134,-0.11459 0.81307,0.23318 0.8593,0.20886 0.87999,-0.46302 0.012,-0.39003 0.12501,-7.97195 0.2511,-16.84872 0.12836,-9.03546 0.34927,-16.72189 0.50189,-17.4625 0.14994,-0.7276 0.34068,-3.28745 0.42388,-5.68854 0.0832,-2.4011 0.38068,-6.2111 0.66108,-8.46667 0.96943,-7.79849 1.31854,-12.05473 1.31688,-16.05523 l -0.002,-4.01669 -4.24348,-0.0844 c -4.48989,-0.0892 -4.74425,-0.1647 -4.74425,-1.40727 0,-1.2682 0.1948,-1.31791 5.50505,-1.40476 4.92079,-0.0805 5.01614,-0.0715 5.72347,0.53687 0.4632,0.39843 0.80312,1.03991 0.95469,1.80164 0.34083,1.71285 0.0146,8.88604 -0.56526,12.42771 -0.77755,4.74944 -1.03843,7.3841 -1.30991,13.22917 -0.13856,2.98317 -0.41934,6.61458 -0.62396,8.06979 -0.29042,2.0654 -0.35152,5.48993 -0.27851,15.61041 0.0514,7.13052 0.16282,14.75052 0.24751,16.93334 0.17489,4.50748 -0.11163,6.48179 -1.08139,7.45155 -0.66696,0.66695 -0.79394,0.68519 -2.30005,0.33036 z"
       id="path114" />
    <path
       style="fill:#000000"
       d="m 66.80974,254.54362 -0.18125,-1.07279 -1.63039,-0.0245 c -27.05642,-0.40734 -26.3509,-0.35427 -30.2774,-2.27708 -3.36959,-1.65008 -5.57671,-4.35618 -6.70755,-8.22394 -0.72865,-2.49216 -1.00836,-8.67044 -1.01781,-22.48121 -0.008,-11.14817 -0.0211,-11.44323 -0.52139,-11.44323 -0.84596,0 -0.88658,-0.48815 -0.0971,-1.16686 l 0.74292,-0.63866 0.14947,-12.26026 c 0.16303,-13.37247 0.1881,-13.60696 1.81997,-17.02276 1.07702,-2.2544 3.35301,-5.11496 4.9606,-6.23469 2.32458,-1.61912 4.37423,-2.14917 9.20954,-2.38165 5.46777,-0.26288 42.61356,-0.26336 50.53542,-6.5e-4 4.71741,0.15644 6.3828,0.30592 7.40833,0.66494 4.33308,1.51697 6.78609,3.44348 8.29961,6.51822 1.46969,2.9857 1.60275,4.5063 1.61303,18.43331 0.005,7.05121 0.11114,12.50156 0.24297,12.50156 0.47736,0 0.54212,1.44383 0.0806,1.79737 -0.41123,0.31503 -0.43918,1.43745 -0.35249,14.15521 0.0518,7.59717 0.006,15.16001 -0.10127,16.80629 l -0.19542,2.99324 -1.53205,2.30602 c -1.82359,2.74482 -3.52896,4.25561 -6.19318,5.48656 -4.37336,2.02062 -9.09495,2.49281 -24.92623,2.49281 H 68.02981 l -0.0821,0.98999 c -0.12067,1.45473 -0.89669,1.51119 -1.13801,0.0828 z m -0.27784,-2.72643 c 0.19605,-0.61824 0.98905,-42.30319 0.80821,-42.48412 -0.0989,-0.099 -8.84215,-0.22071 -19.4294,-0.27052 l -19.24956,-0.0906 -0.17482,6.96974 c -0.25959,10.34928 -0.21294,20.55405 0.1021,22.33313 1.156,6.52817 4.55199,11.28087 9.25566,12.95334 2.12687,0.75624 3.94143,0.85481 16.33766,0.88747 9.58674,0.0253 12.26805,-0.0395 12.35015,-0.29846 z m 29.40652,0.0637 c 4.77843,-0.59917 7.83684,-1.87247 10.22565,-4.25725 1.65022,-1.64744 1.91464,-2.35487 0.88019,-2.35487 -0.35263,0 -0.98202,-0.28682 -1.39863,-0.63738 -0.74073,-0.62328 -0.78945,-0.62876 -2.20311,-0.248 -1.71739,0.46256 -3.88608,0.32102 -4.97969,-0.32499 -0.42514,-0.25114 -1.01446,-0.87914 -1.30959,-1.39555 l -0.53659,-0.93893 -0.1857,0.98987 c -0.34567,1.84259 -2.40753,3.16673 -4.22191,2.71135 -0.62649,-0.15724 -0.6632,-0.10686 -0.6632,0.91006 0,1.41497 -0.58329,2.48901 -1.79348,3.30246 -2.06455,1.38773 -2.98206,2.19719 -2.64441,2.33301 0.60792,0.24452 6.65461,0.18305 8.83047,-0.0898 z M 80.33429,250.89116 C 78.76864,249.83825 76.2,247.47505 76.2,247.08753 c 0,-0.12719 -0.51817,-0.23126 -1.15149,-0.23126 -1.41835,0 -2.76179,-0.83358 -3.41984,-2.12194 -0.5066,-0.99185 -0.50576,-0.44337 -0.0414,-27.04837 l 0.14662,-8.40053 h -1.33881 c -1.28361,0 -1.3389,0.03 -1.34099,0.72761 -0.005,1.67174 -0.78461,31.83864 -0.94703,36.64479 l -0.17659,5.22552 h 6.93959 6.93959 z m 5.33605,-8.29993 c -0.0559,-0.16783 -0.32339,0.0385 -0.59434,0.4586 -0.27094,0.42005 -0.65498,0.86034 -0.85342,0.97843 -0.19843,0.11808 -0.29313,0.32418 -0.21043,0.45799 0.19789,0.32018 1.79007,-1.49939 1.65819,-1.89502 z m 24.19607,-25.69922 0.068,-7.60697 -16.47031,2e-4 -16.47032,1.9e-4 v 1.35414 c 0,1.12731 0.13296,1.50556 0.79375,2.25816 0.43657,0.49722 0.79376,1.07288 0.79376,1.27925 0,0.20637 0.12859,0.65746 0.28576,1.00242 l 0.28577,0.62719 1.21428,-0.61474 c 1.47302,-0.74574 2.04195,-0.76542 3.25968,-0.11275 l 0.93661,0.50199 0.7293,-1.29737 c 0.91889,-1.63468 2.04557,-2.53636 4.32368,-3.46025 2.27768,-0.92371 3.15604,-0.92218 5.91476,0.0103 3.98906,1.34839 4.94291,2.03821 6.73041,4.86737 0.73979,1.1709 0.8687,1.25626 1.89788,1.2567 2.12112,9.1e-4 3.69083,2.07059 3.37516,4.45019 -0.20213,1.52377 1.01329,7.32357 1.69341,8.08067 0.51451,0.57275 0.52211,0.42286 0.63845,-12.59673 z m -42.39766,-9.91263 c 0.13203,-0.1189 0.29738,-6.59905 0.66789,-26.17354 l 0.19601,-10.35564 -3.93768,-0.19878 c -2.16572,-0.10934 -8.16439,-0.0762 -13.33038,0.0736 -8.07115,0.23405 -9.67923,0.34894 -11.42909,0.81654 -2.67672,0.71529 -4.64838,1.66937 -6.40209,3.09792 -1.60772,1.30965 -2.48063,2.7043 -3.43693,5.49124 -1.37115,3.99594 -1.46514,5.22244 -1.29518,16.90156 l 0.15648,10.75302 19.33934,-0.14337 c 10.63664,-0.0789 19.39887,-0.197 19.47163,-0.26253 z m 42.46563,-11.19164 c 0,-10.1488 -0.057,-11.77061 -0.48374,-13.75439 -1.23986,-5.76429 -3.94539,-9.5161 -7.71834,-10.70317 -2.64276,-0.83149 -4.66108,-0.93545 -18.19011,-0.93696 l -13.69219,-0.002 -9.1e-4,1.12448 c -0.002,2.44657 -0.51581,26.2835 -0.66438,30.82229 l -0.158,4.82697 20.05696,0.0716 c 11.03133,0.0394 20.23555,0.0681 20.45384,0.0639 0.34657,-0.007 0.39687,-1.46594 0.39687,-11.51316 z"
       id="path113" />
  </g>
</svg>
